<?xml version="1.0" standalone="no"?>
<!DOCTYPE svg PUBLIC "-//W3C//DTD SVG 1.1//EN" "http://www.w3.org/Graphics/SVG/1.1/DTD/svg11.dtd" >
<svg xmlns="http://www.w3.org/2000/svg" xmlns:xlink="http://www.w3.org/1999/xlink" version="1.1">
<metadata>
Created by FontForge 20170910 at Sat Nov  7 16:38:50 2009
 By Jimmy Wärting
Fedra Sans is a contemporary sans serif typeface developed for visual identities, designed to work equally well on paper and on the computer screen.
</metadata>
<defs>
<font id="FedraSansPro-Bold" horiz-adv-x="532" >
  <font-face 
    font-family="Fedra Sans Pro Bold"
    font-weight="700"
    font-stretch="normal"
    units-per-em="1000"
    panose-1="2 11 8 3 4 0 0 2 0 4"
    ascent="780"
    descent="-220"
    x-height="546"
    cap-height="707"
    bbox="-600 -295 1533 1154"
    underline-thickness="50"
    underline-position="-100"
    unicode-range="U+0020-FB04"
  />
<missing-glyph horiz-adv-x="712" 
d="M305 375v27h27v-27h-27zM380 525v27h27v-27h-27zM305 525v27h27v-27h-27zM230 525v27h27v-27h-27zM80 0v27h27v-27h-27zM155 0v27h27v-27h-27zM230 0v27h27v-27h-27zM305 0v27h27v-27h-27zM380 0v27h27v-27h-27zM80 75v27h27v-27h-27zM80 150v27h27v-27h-27zM80 225v27
h27v-27h-27zM80 300v27h27v-27h-27zM80 375v27h27v-27h-27zM80 450v27h27v-27h-27zM80 525v27h27v-27h-27zM80 600v27h27v-27h-27zM80 675v27h27v-27h-27zM155 675v27h27v-27h-27zM230 675v27h27v-27h-27zM305 675v27h27v-27h-27zM380 675v27h27v-27h-27zM455 675v27h27v-27
h-27zM530 675v27h27v-27h-27zM530 0v27h27v-27h-27zM455 0v27h27v-27h-27zM605 0v27h27v-27h-27zM605 675v27h27v-27h-27zM305 300v27h27v-27h-27zM305 150v27h27v-27h-27zM380 375v27h27v-27h-27zM455 375v27h27v-27h-27zM455 450v27h27v-27h-27zM455 525v27h27v-27h-27z
M605 600v27h27v-27h-27zM605 525v27h27v-27h-27zM605 375v27h27v-27h-27zM605 300v27h27v-27h-27zM605 150v27h27v-27h-27zM605 75v27h27v-27h-27zM605 225v27h27v-27h-27zM605 450v27h27v-27h-27z" />
    <glyph glyph-name="fi" unicode="fi" horiz-adv-x="689" 
d="M104 -150v581h-80v115h80v26c0 158 108 210 228 210c44 0 77 -5 119 -6c40 0 110 3 152 8l26 -126c-60 -20 -133 -26 -173 -26s-68 5 -126 5c-39 0 -59 -11 -59 -65v-26h351v-546h-167v431h-185v-581h-166z" />
    <glyph glyph-name="fl" unicode="fl" horiz-adv-x="689" 
d="M104 -150v581h-80v115h80v26c0 158 108 210 228 210c44 0 77 -5 119 -6c57 -1 114 4 171 11v-787h-167v632c-40 0 -67 5 -125 5c-39 0 -59 -11 -59 -65v-26h116v-115h-117v-581h-166z" />
    <glyph glyph-name="f_h" unicode="fh" horiz-adv-x="1046" 
d="M104 -150v584h-80v112h80v29c0 158 108 210 228 210c44 0 77 -5 119 -6c57 -1 114 4 171 11v-299c33 25 106 71 179 71c171 0 183 -95 183 -219v-343h-166v329c0 75 -17 88 -73 88c-50 0 -96 -17 -123 -30v-387h-167v635c-40 0 -67 5 -125 5c-39 0 -59 -11 -59 -65v-29
h116v-112h-117v-584h-166z" />
    <glyph glyph-name="f_b" unicode="fb" horiz-adv-x="1029" 
d="M689 -11c-113 0 -172 16 -233 36v607c-40 0 -68 5 -126 5c-39 0 -59 -11 -59 -65v-26h116v-115h-117v-581h-166v581h-80v115h80v26c0 158 108 210 228 210c44 0 77 -5 119 -6c57 -1 114 4 171 11v-242c36 11 75 17 111 17c164 0 262 -68 262 -260
c0 -236 -148 -313 -306 -313zM703 438c-40 0 -61 -4 -81 -10v-298c19 -4 43 -11 70 -11c85 0 133 80 133 182c0 103 -33 137 -122 137z" />
    <glyph glyph-name="f_j" unicode="fj" horiz-adv-x="690" 
d="M394 -230c-40 0 -72 10 -107 22l31 133c18 -5 47 -10 79 -10c42 0 59 14 59 80v439h-186v-584h-166v584h-80v112h80v27c0 158 108 210 228 210c44 0 77 -5 119 -6c40 0 110 3 152 8l26 -126c-60 -20 -133 -26 -173 -26s-68 5 -126 5c-39 0 -59 -11 -59 -65v-27h352v-550
c0 -190 -105 -226 -229 -226z" />
    <glyph glyph-name="f_k" unicode="fk" horiz-adv-x="987" 
d="M952 -12c-87 4 -161 14 -232 107l-98 130v-225h-167v635c-40 0 -67 5 -125 5c-39 0 -59 -11 -59 -65v-29h116v-112h-117v-584h-166v584h-80v112h80v29c0 158 108 210 228 210c44 0 77 -5 119 -6c57 -1 115 4 171 11v-450l152 205h179l-199 -251l78 -89
c38 -43 70 -73 139 -91z" />
    <glyph glyph-name="f_f" unicode="ff" horiz-adv-x="753" 
d="M104 -150v582h-80v114h81v28c0 169 106 208 220 208c86 0 163 -17 206 -31c40 25 92 31 146 31c40 0 90 -8 129 -21l-32 -129s-45 8 -92 8c-41 0 -59 -23 -59 -66v-28h117v-114h-117v-582h-167v582h-185v-582h-167zM271 546h185v38c0 16 1 31 3 45c-40 8 -71 11 -129 11
c-41 0 -59 -23 -59 -66v-28z" />
    <glyph glyph-name="f_f_i" unicode="ffi" horiz-adv-x="1042" 
d="M104 -150v581h-80v115h81v28c0 169 106 208 220 208c92 0 173 -19 213 -34c41 26 92 37 146 37c44 0 77 -5 120 -6c39 0 109 3 151 8l26 -126c-60 -20 -132 -26 -172 -26c-41 -1 -69 5 -127 5c-39 0 -59 -11 -59 -65v-29h352v-546h-167v431h-185v-581h-167v581h-185v-581
h-167zM271 546h186v29c0 19 1 37 4 53c-41 9 -72 12 -131 12c-41 0 -59 -23 -59 -66v-28z" />
    <glyph glyph-name="f_f_l" unicode="ffl" horiz-adv-x="1042" 
d="M104 -150v582h-80v114h81v28c0 169 106 208 220 208c92 0 173 -19 213 -34c41 26 92 37 146 37c44 0 77 -5 120 -6c57 -1 114 4 171 11v-790h-167v635c-40 0 -68 5 -126 5c-39 0 -59 -11 -59 -65v-29h116v-114h-116v-582h-167v582h-185v-582h-167zM271 546h186v29
c0 19 1 37 4 53c-41 9 -72 12 -131 12c-41 0 -59 -23 -59 -66v-28z" />
    <glyph glyph-name="f_f_j" unicode="ffj" horiz-adv-x="1041" 
d="M752 -224c-39 0 -75 11 -108 23l31 129c18 -5 45 -11 76 -11c42 0 56 18 57 83v431h-185v-581h-167v581h-185v-581h-167v581h-80v115h81v28c0 169 106 208 220 208c92 0 173 -19 213 -34c41 26 92 37 146 37c44 0 77 -5 120 -6c39 0 109 3 151 8l26 -126
c-60 -20 -132 -26 -172 -26c-41 -1 -69 5 -127 5c-39 0 -59 -11 -59 -65v-29h352l-1 -546c-1 -188 -107 -224 -222 -224zM271 546h186v29c0 19 1 37 4 53c-41 9 -72 12 -131 12c-41 0 -59 -23 -59 -66v-28z" />
    <glyph glyph-name="f_idieresis" unicode="f&#xef;" horiz-adv-x="706" 
d="M104 -150v581h-80v115h80v30c0 151 83 194 197 194c34 0 61 -7 86 -16l-25 -123c-12 6 -31 10 -46 10c-29 0 -45 -20 -45 -57v-38h111v-115h-111v-581h-167zM472 0v546h167v-546h-167zM479 602l-91 92l91 91l92 -91zM686 602l-91 92l91 91l92 -91z" />
    <glyph glyph-name="f_igrave" unicode="f&#xec;" horiz-adv-x="706" 
d="M104 -150v581h-80v115h80v30c0 151 78 194 192 194c40 0 71 -5 104 -15l-26 -127c-21 10 -43 13 -63 13c-24 0 -40 -20 -40 -57v-38h111v-115h-111v-581h-167zM584 592l-161 172l97 84l149 -185zM472 0v546h167v-546h-167z" />
    <glyph glyph-name="aogonek_j" unicode="&#x105;j" horiz-adv-x="932" 
d="M509 -262c-118 0 -166 63 -166 123c0 58 29 102 84 139c-18 9 -39 35 -44 53c-40 -31 -97 -61 -157 -61c-120 0 -188 53 -188 162c0 138 126 168 234 168h95v33c0 48 -31 63 -99 63c-54 0 -112 -12 -163 -24l-33 121c64 24 134 44 221 44c115 0 237 -14 237 -172v-242
c0 -18 18 -22 49 -23l-8 -127c-45 -30 -81 -54 -81 -92c0 -18 19 -32 46 -32c86 0 162 65 162 140v535h166v-534c0 -171 -150 -274 -355 -274zM252 120c32 0 79 9 115 19v86l-82 -2c-73 -2 -84 -29 -84 -60c0 -28 20 -43 51 -43zM779 604l-111 112l111 111l112 -111z" />
    <glyph glyph-name=".notdef" horiz-adv-x="712" 
d="M305 375v27h27v-27h-27zM380 525v27h27v-27h-27zM305 525v27h27v-27h-27zM230 525v27h27v-27h-27zM80 0v27h27v-27h-27zM155 0v27h27v-27h-27zM230 0v27h27v-27h-27zM305 0v27h27v-27h-27zM380 0v27h27v-27h-27zM80 75v27h27v-27h-27zM80 150v27h27v-27h-27zM80 225v27
h27v-27h-27zM80 300v27h27v-27h-27zM80 375v27h27v-27h-27zM80 450v27h27v-27h-27zM80 525v27h27v-27h-27zM80 600v27h27v-27h-27zM80 675v27h27v-27h-27zM155 675v27h27v-27h-27zM230 675v27h27v-27h-27zM305 675v27h27v-27h-27zM380 675v27h27v-27h-27zM455 675v27h27v-27
h-27zM530 675v27h27v-27h-27zM530 0v27h27v-27h-27zM455 0v27h27v-27h-27zM605 0v27h27v-27h-27zM605 675v27h27v-27h-27zM305 300v27h27v-27h-27zM305 150v27h27v-27h-27zM380 375v27h27v-27h-27zM455 375v27h27v-27h-27zM455 450v27h27v-27h-27zM455 525v27h27v-27h-27z
M605 600v27h27v-27h-27zM605 525v27h27v-27h-27zM605 375v27h27v-27h-27zM605 300v27h27v-27h-27zM605 150v27h27v-27h-27zM605 75v27h27v-27h-27zM605 225v27h27v-27h-27zM605 450v27h27v-27h-27z" />
    <glyph glyph-name="space" unicode=" " horiz-adv-x="231" 
 />
    <glyph glyph-name="A" unicode="A" horiz-adv-x="718" 
d="M-14 0l272 707h219l238 -707h-176l-67 207h-239l-77 -207h-170zM278 330h154l-71 272z" />
    <glyph glyph-name="B" unicode="B" horiz-adv-x="681" 
d="M83 0v707h248c173 0 263 -62 263 -195c0 -59 -39 -106 -76 -126v-2c48 -14 127 -69 127 -166c0 -129 -76 -218 -284 -218h-278zM254 133h96c90 0 125 24 125 81c0 64 -39 87 -137 87h-84v-168zM254 417h61c74 0 111 18 111 81c0 60 -40 79 -120 79h-52v-160z" />
    <glyph glyph-name="C" unicode="C" horiz-adv-x="677" 
d="M429 -12c-259 0 -392 129 -392 361c0 230 147 369 388 369c105 0 167 -20 220 -44l-45 -123c-67 18 -95 25 -173 26c-128 2 -217 -70 -217 -218s94 -227 237 -227c69 0 110 6 164 20l36 -128c-68 -25 -127 -36 -218 -36z" />
    <glyph glyph-name="D" unicode="D" horiz-adv-x="787" 
d="M83 0v707h253c245 0 413 -105 413 -351c0 -245 -152 -356 -407 -356h-259zM252 133h101c163 0 226 74 226 213c0 152 -76 228 -246 228h-81v-441z" />
    <glyph glyph-name="E" unicode="E" horiz-adv-x="611" 
d="M83 0v707h464v-133h-294v-157h272v-124h-272v-160h317v-133h-487z" />
    <glyph glyph-name="F" unicode="F" horiz-adv-x="611" 
d="M83 0v707h494v-133h-324v-175h302v-123h-302v-276h-170z" />
    <glyph glyph-name="G" unicode="G" horiz-adv-x="709" 
d="M427 -10c-235 0 -388 114 -388 359c0 256 139 368 396 368c100 0 156 -20 212 -43l-45 -123c-67 17 -98 26 -170 26c-126 0 -220 -62 -220 -218s104 -227 233 -227c16 0 31 1 45 1v217h170v-319c-80 -31 -147 -41 -233 -41z" />
    <glyph glyph-name="H" unicode="H" horiz-adv-x="806" 
d="M83 0v707h170v-287h300v287h170v-707h-170v291h-300v-291h-170z" />
    <glyph glyph-name="I" unicode="I" horiz-adv-x="336" 
d="M83 0v707h170v-707h-170z" />
    <glyph glyph-name="J" unicode="J" horiz-adv-x="338" 
d="M2 -198l-61 122c119 66 145 109 145 227v556h171v-554c0 -142 -21 -275 -255 -351z" />
    <glyph glyph-name="K" unicode="K" horiz-adv-x="723" 
d="M83 0v707h170v-303l242 303h217l-286 -331l302 -376h-217l-258 354v-354h-170z" />
    <glyph glyph-name="L" unicode="L" horiz-adv-x="569" 
d="M83 0v707h170v-573h307v-134h-477z" />
    <glyph glyph-name="M" unicode="M" horiz-adv-x="993" 
d="M83 0v707h207l197 -555l226 555h197v-707h-170v263l7 166h-4l-166 -429h-190l-140 430h-4l10 -167v-263h-170z" />
    <glyph glyph-name="N" unicode="N" horiz-adv-x="806" 
d="M83 0v707h197l275 -485h3l-5 79v406h170v-707h-203l-267 473h-4l4 -94v-379h-170z" />
    <glyph glyph-name="O" unicode="O" horiz-adv-x="833" 
d="M408 -12c-248 0 -370 140 -370 367c0 223 148 363 389 363c257 0 368 -154 368 -365c0 -225 -135 -365 -387 -365zM411 122c156 0 211 100 211 232s-61 230 -204 230c-150 0 -208 -98 -208 -228c0 -129 57 -234 201 -234z" />
    <glyph glyph-name="P" unicode="P" horiz-adv-x="650" 
d="M83 0v707h275c159 0 273 -93 273 -251c0 -139 -114 -256 -325 -256h-52v-200h-171zM254 574v-243h58c106 0 144 55 144 121c0 71 -29 122 -120 122h-82z" />
    <glyph glyph-name="Q" unicode="Q" horiz-adv-x="833" 
d="M784 -192c-57 0 -145 -1 -196 12c-41 9 -74 17 -106 23c-27 5 -53 7 -82 7v117c41 0 75 -3 104 -7c51 -7 87 -18 122 -24c44 -8 100 -10 158 -10v-118zM408 -12c-248 0 -370 140 -370 367c0 223 148 363 389 363c257 0 368 -154 368 -365c0 -225 -135 -365 -387 -365z
M411 122c156 0 211 100 211 232s-61 230 -204 230c-150 0 -208 -98 -208 -228c0 -129 57 -234 201 -234z" />
    <glyph glyph-name="Q.alt" horiz-adv-x="847" 
d="M408 -12c-248 0 -370 140 -370 367c0 223 148 363 389 363c257 0 368 -154 368 -365c0 -96 -25 -177 -73 -238l85 -85l-80 -68l-84 83c-61 -37 -139 -57 -235 -57zM411 122c52 0 93 11 124 31l-110 111l82 69l95 -97c14 34 20 74 20 118c0 132 -61 230 -204 230
c-150 0 -208 -98 -208 -228c0 -129 57 -234 201 -234z" />
    <glyph glyph-name="R" unicode="R" horiz-adv-x="749" 
d="M711 -13c-138 7 -213 79 -287 165l-80 93c-12 -1 -25 -1 -38 -1h-52v-244h-171v707h275c159 0 273 -73 273 -231c0 -79 -38 -148 -114 -191l72 -78c39 -42 83 -70 160 -90zM254 363h58c101 0 144 42 144 109c0 71 -29 101 -120 101h-82v-210z" />
    <glyph glyph-name="S" unicode="S" horiz-adv-x="585" 
d="M263 -12c-116 0 -184 28 -237 57l49 126c62 -25 108 -43 186 -43c85 0 124 33 124 76c0 115 -336 70 -336 310c0 136 129 204 254 204c112 0 170 -23 221 -54l-49 -125c-52 23 -95 38 -167 38c-55 0 -93 -27 -93 -66c0 -94 342 -84 342 -301c0 -155 -148 -222 -294 -222z
" />
    <glyph glyph-name="T" unicode="T" horiz-adv-x="634" 
d="M232 0v574h-222v133h614v-133h-222v-574h-170z" />
    <glyph glyph-name="U" unicode="U" horiz-adv-x="793" 
d="M400 -13c-163 0 -329 72 -329 301v419h172v-413c0 -108 49 -168 157 -168c107 0 157 63 157 189v392h167v-395c0 -247 -166 -325 -324 -325z" />
    <glyph glyph-name="V" unicode="V" horiz-adv-x="722" 
d="M243 0l-241 707h179l175 -580l208 580h173l-275 -707h-219z" />
    <glyph glyph-name="W" unicode="W" horiz-adv-x="1068" 
d="M180 0l-152 707h165l110 -599l164 427l-60 172h169l185 -593l138 593h162l-194 -707h-214l-122 362l-132 -362h-219z" />
    <glyph glyph-name="X" unicode="X" horiz-adv-x="688" 
d="M-3 0l253 362l-225 345h195l128 -217l138 217h190l-238 -342l238 -365h-196l-141 238l-152 -238h-190z" />
    <glyph glyph-name="Y" unicode="Y" horiz-adv-x="698" 
d="M262 0v227l-261 480h196l156 -337l166 337h191l-278 -474v-233h-170z" />
    <glyph glyph-name="Z" unicode="Z" horiz-adv-x="624" 
d="M33 0v114l325 452h-299v141h508v-108l-329 -458h350v-141h-555z" />
    <glyph glyph-name="Aacute" unicode="&#xc1;" horiz-adv-x="718" 
d="M259 744l-23 113l271 67l27 -131zM-14 0l272 707h219l238 -707h-176l-67 207h-239l-77 -207h-170zM278 330h154l-71 272z" />
    <glyph glyph-name="Acircumflex" unicode="&#xc2;" horiz-adv-x="718" 
d="M228 741l-58 107l191 96l192 -96l-59 -107l-133 61zM-14 0l272 707h219l238 -707h-176l-67 207h-239l-77 -207h-170zM278 330h154l-71 272z" />
    <glyph glyph-name="Adieresis" unicode="&#xc4;" horiz-adv-x="718" 
d="M240 737l-99 100l99 100l100 -100zM484 737l-100 100l100 100l99 -100zM-14 0l272 707h219l238 -707h-176l-67 207h-239l-77 -207h-170zM278 330h154l-71 272z" />
    <glyph glyph-name="Aring" unicode="&#xc5;" horiz-adv-x="718" 
d="M-14 0l272 707h219l238 -707h-176l-67 207h-239l-77 -207h-170zM278 330h154l-71 272zM368 744c-63 0 -135 24 -135 113c0 84 67 121 132 121c52 0 134 -25 134 -119c0 -81 -63 -115 -131 -115zM366 808c35 0 52 19 55 50c0 31 -24 51 -55 51c-39 0 -55 -17 -55 -49
s20 -52 55 -52z" />
    <glyph glyph-name="Agrave" unicode="&#xc0;" horiz-adv-x="718" 
d="M473 744l-275 49l27 131l271 -67zM-14 0l272 707h219l238 -707h-176l-67 207h-239l-77 -207h-170zM278 330h154l-71 272z" />
    <glyph glyph-name="Atilde" unicode="&#xc3;" horiz-adv-x="718" 
d="M-14 0l272 707h219l238 -707h-176l-67 207h-239l-77 -207h-170zM278 330h154l-71 272zM425 755c-51 0 -89 38 -128 38c-19 0 -40 -2 -70 -28l-63 74c24 29 77 82 144 82c63 0 89 -38 123 -38c32 0 51 7 87 26l55 -74c-23 -25 -73 -80 -148 -80z" />
    <glyph glyph-name="Abreve" unicode="&#x102;" horiz-adv-x="718" 
d="M367 753c-109 0 -171 63 -201 111l86 74c36 -34 76 -62 119 -62c42 0 80 27 114 62l81 -73c-32 -47 -95 -112 -199 -112zM-14 0l272 707h219l238 -707h-176l-67 207h-239l-77 -207h-170zM278 330h154l-71 272z" />
    <glyph glyph-name="Amacron" unicode="&#x100;" horiz-adv-x="718" 
d="M202 764v129h328v-129h-328zM-14 0l272 707h219l238 -707h-176l-67 207h-239l-77 -207h-170zM278 330h154l-71 272z" />
    <glyph glyph-name="Aogonek" unicode="&#x104;" horiz-adv-x="718" 
d="M742 -234c-34 -15 -63 -26 -124 -26c-118 0 -167 34 -167 112c0 43 33 90 88 148l-67 208h-239l-77 -208h-170l272 707h219l237 -707c-47 -30 -105 -74 -105 -114c0 -18 19 -22 33 -22c19 0 49 2 72 9zM432 331l-38 138l-33 133l-39 -133l-44 -138h154z" />
    <glyph glyph-name="uni01FA" unicode="&#x1fa;" horiz-adv-x="718" 
d="M250 954l-23 113l271 67l27 -131zM-14 0l272 707h219l238 -707h-176l-67 207h-239l-77 -207h-170zM278 330h154l-71 272zM370 722c-63 0 -135 24 -135 113c0 84 67 121 132 121c52 0 134 -25 134 -119c0 -81 -63 -115 -131 -115zM368 786c35 0 52 19 55 50
c0 31 -24 51 -55 51c-39 0 -55 -17 -55 -49s20 -52 55 -52z" />
    <glyph glyph-name="uni01CD" unicode="&#x1cd;" horiz-adv-x="718" 
d="M-14 0l272 707h219l238 -707h-176l-67 207h-239l-77 -207h-170zM278 330h154l-71 272zM555 837l-192 -97l-191 97l58 106l133 -60l133 60z" />
    <glyph glyph-name="uni0226" unicode="&#x226;" horiz-adv-x="718" 
d="M-14 0l272 707h219l238 -707h-176l-67 207h-239l-77 -207h-170zM278 330h154l-71 272zM457 849l-94 -94l-94 94l94 94z" />
    <glyph glyph-name="uni1EA6" unicode="&#x1ea6;" horiz-adv-x="718" 
d="M-14 0l272 707h219l238 -707h-176l-67 207h-239l-77 -207h-170zM278 330h154l-71 272zM559 868l-181 121l79 104l171 -136zM227 740l-49 103l182 84l184 -84l-51 -103l-133 51z" />
    <glyph glyph-name="uni1EA4" unicode="&#x1ea4;" horiz-adv-x="718" 
d="M-14 0l272 707h219l238 -707h-176l-67 207h-239l-77 -207h-170zM278 330h154l-71 272zM227 740l-49 103l182 84l184 -84l-51 -103l-133 51zM523 869l-76 73l138 143l89 -93z" />
    <glyph glyph-name="uni1EAA" unicode="&#x1eaa;" horiz-adv-x="718" 
d="M-14 0l272 707h219l238 -707h-176l-67 207h-239l-77 -207h-170zM278 330h154l-71 272zM227 740l-49 105l182 73l184 -73l-51 -105l-133 41zM426 924c-48 0 -85 31 -121 31c-19 0 -43 -2 -67 -24l-58 77c24 27 70 73 135 73c60 0 86 -31 119 -31c27 0 46 5 81 22l51 -79
c-25 -22 -67 -69 -140 -69z" />
    <glyph glyph-name="uni1EA8" unicode="&#x1ea8;" horiz-adv-x="718" 
d="M-14 0l272 707h219l238 -707h-176l-67 207h-239l-77 -207h-170zM278 330h154l-71 272zM227 740l-49 103l182 84l184 -84l-51 -103l-133 51zM565 1005c0 -70 -47 -108 -70 -120l-76 69c15 9 29 22 29 39c0 14 -13 24 -27 24c-12 0 -24 -4 -39 -10l-28 92
c18 10 43 23 85 23c30 0 64 -9 87 -30c24 -22 39 -52 39 -87z" />
    <glyph glyph-name="uni1EAC" unicode="&#x1eac;" horiz-adv-x="717" 
d="M-15 0l272 707h219l238 -707h-176l-67 207h-239l-77 -207h-170zM277 330h154l-71 272zM461 -149l-111 -112l-112 112l112 111zM226 741l-58 107l191 96l192 -96l-59 -107l-133 61z" />
    <glyph glyph-name="uni1EB0" unicode="&#x1eb0;" horiz-adv-x="718" 
d="M-14 0l272 707h219l238 -707h-176l-67 207h-239l-77 -207h-170zM278 330h154l-71 272zM367 753c-108 0 -172 63 -201 111l85 70c36 -35 77 -63 120 -63s80 28 115 63l80 -69c-31 -47 -95 -112 -199 -112zM386 902l-186 108l73 110l179 -126z" />
    <glyph glyph-name="uni1EAE" unicode="&#x1eae;" horiz-adv-x="718" 
d="M-14 0l272 707h219l238 -707h-176l-67 207h-239l-77 -207h-170zM278 330h154l-71 272zM368 754c-108 0 -172 63 -201 111l85 70c36 -35 77 -63 120 -63s80 28 115 63l80 -69c-31 -47 -95 -112 -199 -112zM538 1012l-187 -109l-64 91l179 124z" />
    <glyph glyph-name="uni1EB4" unicode="&#x1eb4;" horiz-adv-x="718" 
d="M-14 0l272 707h219l238 -707h-176l-67 207h-239l-77 -207h-170zM278 330h154l-71 272zM368 754c-108 0 -172 63 -201 111l85 70c36 -35 77 -63 120 -63s80 28 115 63l80 -69c-31 -47 -95 -112 -199 -112zM427 943c-48 0 -85 31 -121 31c-19 0 -43 -2 -67 -24l-58 77
c24 27 70 73 135 73c60 0 86 -31 119 -31c27 0 46 5 81 22l51 -79c-25 -22 -67 -69 -140 -69z" />
    <glyph glyph-name="uni1EB2" unicode="&#x1eb2;" horiz-adv-x="718" 
d="M-14 0l272 707h219l238 -707h-176l-67 207h-239l-77 -207h-170zM278 330h154l-71 272zM467 1029c0 -73 -49 -114 -89 -134l-69 77c18 13 35 25 35 46c0 17 -16 28 -36 28c-9 0 -22 -3 -35 -5l-12 99c14 6 44 14 75 14c42 0 69 -11 94 -34c23 -21 37 -51 37 -91zM367 753
c-108 0 -172 63 -201 111l85 70c36 -35 77 -63 120 -63s80 28 115 63l80 -69c-31 -47 -95 -112 -199 -112z" />
    <glyph glyph-name="uni1EB6" unicode="&#x1eb6;" horiz-adv-x="717" 
d="M-15 0l272 707h219l238 -707h-176l-67 207h-239l-77 -207h-170zM277 330h154l-71 272zM363 753c-109 0 -171 63 -201 111l86 74c36 -34 76 -62 119 -62c42 0 80 27 114 62l81 -73c-32 -47 -95 -112 -199 -112zM461 -149l-111 -112l-112 112l112 111z" />
    <glyph glyph-name="uni1EA2" unicode="&#x1ea2;" horiz-adv-x="718" 
d="M-14 0l272 707h219l238 -707h-176l-67 207h-239l-77 -207h-170zM278 330h154l-71 272zM259 1001c15 6 47 13 73 13c73 0 135 -51 135 -129c0 -80 -60 -123 -118 -146l-59 76c32 9 59 27 59 57c0 25 -22 33 -45 33c-12 0 -24 -2 -32 -5z" />
    <glyph glyph-name="uni1EA0" unicode="&#x1ea0;" horiz-adv-x="717" 
d="M-15 0l272 707h219l238 -707h-176l-67 207h-239l-77 -207h-170zM277 330h154l-71 272zM461 -149l-111 -112l-112 112l112 111z" />
    <glyph glyph-name="uni1E02" unicode="&#x1e02;" horiz-adv-x="681" 
d="M83 0v707h248c173 0 263 -62 263 -195c0 -59 -39 -106 -76 -126v-2c48 -14 127 -69 127 -166c0 -129 -76 -218 -284 -218h-278zM254 133h96c90 0 125 24 125 81c0 64 -39 87 -137 87h-84v-168zM254 417h61c74 0 111 18 111 81c0 60 -40 79 -120 79h-52v-160zM410 849
l-94 -94l-94 94l94 94z" />
    <glyph glyph-name="uni1E04" unicode="&#x1e04;" horiz-adv-x="681" 
d="M83 0v707h248c173 0 263 -62 263 -195c0 -59 -39 -106 -76 -126v-2c48 -14 127 -69 127 -166c0 -129 -76 -218 -284 -218h-278zM254 133h96c90 0 125 24 125 81c0 64 -39 87 -137 87h-84v-168zM254 417h61c74 0 111 18 111 81c0 60 -40 79 -120 79h-52v-160zM336 -261
l-112 112l112 111l111 -111z" />
    <glyph glyph-name="uni1E06" unicode="&#x1e06;" horiz-adv-x="681" 
d="M83 0v707h248c173 0 263 -62 263 -195c0 -59 -39 -106 -76 -126v-2c48 -14 127 -69 127 -166c0 -129 -76 -218 -284 -218h-278zM254 133h96c90 0 125 24 125 81c0 64 -39 87 -137 87h-84v-168zM254 417h61c74 0 111 18 111 81c0 60 -40 79 -120 79h-52v-160zM170 -230
v129h328v-129h-328z" />
    <glyph glyph-name="Ccedilla" unicode="&#xc7;" horiz-adv-x="678" 
d="M333 -283l-57 100c25 15 76 35 76 70c0 20 -7 42 -12 62h129c11 -25 22 -53 22 -81c0 -81 -95 -125 -158 -151zM429 -12c-259 0 -392 129 -392 361c0 230 147 369 388 369c105 0 167 -20 220 -44l-45 -123c-67 18 -95 25 -173 26c-128 2 -217 -70 -217 -218
s94 -227 237 -227c69 0 110 6 164 20l36 -128c-68 -25 -127 -36 -218 -36z" />
    <glyph glyph-name="Cacute" unicode="&#x106;" horiz-adv-x="677" 
d="M290 744l-23 113l271 67l27 -131zM429 -12c-259 0 -392 129 -392 361c0 230 147 369 388 369c105 0 167 -20 220 -44l-45 -123c-67 18 -95 25 -173 26c-128 2 -217 -70 -217 -218s94 -227 237 -227c69 0 110 6 164 20l36 -128c-68 -25 -127 -36 -218 -36z" />
    <glyph glyph-name="Ccaron" unicode="&#x10c;" horiz-adv-x="677" 
d="M603 837l-192 -97l-191 97l58 106l133 -60l133 60zM429 -12c-259 0 -392 129 -392 361c0 230 147 369 388 369c105 0 167 -20 220 -44l-45 -123c-67 18 -95 25 -173 26c-128 2 -217 -70 -217 -218s94 -227 237 -227c69 0 110 6 164 20l36 -128c-68 -25 -127 -36 -218 -36
z" />
    <glyph glyph-name="Ccircumflex" unicode="&#x108;" horiz-adv-x="677" 
d="M295 741l-58 107l191 96l192 -96l-59 -107l-133 61zM429 -12c-259 0 -392 129 -392 361c0 230 147 369 388 369c105 0 167 -20 220 -44l-45 -123c-67 18 -95 25 -173 26c-128 2 -217 -70 -217 -218s94 -227 237 -227c69 0 110 6 164 20l36 -128
c-68 -25 -127 -36 -218 -36z" />
    <glyph glyph-name="Cdotaccent" unicode="&#x10a;" horiz-adv-x="677" 
d="M510 849l-94 -94l-94 94l94 94zM429 -12c-259 0 -392 129 -392 361c0 230 147 369 388 369c105 0 167 -20 220 -44l-45 -123c-67 18 -95 25 -173 26c-128 2 -217 -70 -217 -218s94 -227 237 -227c69 0 110 6 164 20l36 -128c-68 -25 -127 -36 -218 -36z" />
    <glyph glyph-name="Dcaron" unicode="&#x10e;" horiz-adv-x="787" 
d="M550 837l-192 -97l-191 97l58 106l133 -60l133 60zM83 0v707h253c245 0 413 -105 413 -351c0 -245 -152 -356 -407 -356h-259zM252 133h101c163 0 226 74 226 213c0 152 -76 228 -246 228h-81v-441z" />
    <glyph glyph-name="Dcroat" unicode="&#x110;" horiz-adv-x="817" 
d="M39 299v100h74v308h253c245 0 413 -105 413 -351c0 -245 -152 -356 -407 -356h-259v299h-74zM282 133h101c163 0 226 74 226 213c0 152 -76 228 -246 228h-81v-175h131v-100h-131v-166z" />
    <glyph glyph-name="uni1E0E" unicode="&#x1e0e;" horiz-adv-x="787" 
d="M83 0v707h253c245 0 413 -105 413 -351c0 -245 -152 -356 -407 -356h-259zM252 133h101c163 0 226 74 226 213c0 152 -76 228 -246 228h-81v-441zM204 -230v129h328v-129h-328z" />
    <glyph glyph-name="uni1E0C" unicode="&#x1e0c;" horiz-adv-x="787" 
d="M83 0v707h253c245 0 413 -105 413 -351c0 -245 -152 -356 -407 -356h-259zM252 133h101c163 0 226 74 226 213c0 152 -76 228 -246 228h-81v-441zM379 -261l-112 112l112 111l111 -111z" />
    <glyph glyph-name="uni1E0A" unicode="&#x1e0a;" horiz-adv-x="787" 
d="M83 0v707h253c245 0 413 -105 413 -351c0 -245 -152 -356 -407 -356h-259zM252 133h101c163 0 226 74 226 213c0 152 -76 228 -246 228h-81v-441zM459 849l-94 -94l-94 94l94 94z" />
    <glyph glyph-name="Eacute" unicode="&#xc9;" horiz-adv-x="611" 
d="M230 744l-23 113l271 67l27 -131zM83 0v707h464v-133h-294v-157h272v-124h-272v-160h317v-133h-487z" />
    <glyph glyph-name="Ecircumflex" unicode="&#xca;" horiz-adv-x="611" 
d="M190 741l-58 107l191 96l192 -96l-59 -107l-133 61zM83 0v707h464v-133h-294v-157h272v-124h-272v-160h317v-133h-487z" />
    <glyph glyph-name="Edieresis" unicode="&#xcb;" horiz-adv-x="611" 
d="M197 737l-99 100l99 100l100 -100zM441 737l-100 100l100 100l99 -100zM83 0v707h464v-133h-294v-157h272v-124h-272v-160h317v-133h-487z" />
    <glyph glyph-name="Egrave" unicode="&#xc8;" horiz-adv-x="611" 
d="M425 744l-275 49l27 131l271 -67zM83 0v707h464v-133h-294v-157h272v-124h-272v-160h317v-133h-487z" />
    <glyph glyph-name="Ebreve" unicode="&#x114;" horiz-adv-x="611" 
d="M318 753c-109 0 -171 63 -201 111l86 74c36 -34 76 -62 119 -62c42 0 80 27 114 62l81 -73c-32 -47 -95 -112 -199 -112zM83 0v707h464v-133h-294v-157h272v-124h-272v-160h317v-133h-487z" />
    <glyph glyph-name="Ecaron" unicode="&#x11a;" horiz-adv-x="611" 
d="M508 837l-192 -97l-191 97l58 106l133 -60l133 60zM83 0v707h464v-133h-294v-157h272v-124h-272v-160h317v-133h-487z" />
    <glyph glyph-name="Edotaccent" unicode="&#x116;" horiz-adv-x="611" 
d="M419 849l-94 -94l-94 94l94 94zM83 0v707h464v-133h-294v-157h272v-124h-272v-160h317v-133h-487z" />
    <glyph glyph-name="Emacron" unicode="&#x112;" horiz-adv-x="611" 
d="M155 764v129h328v-129h-328zM83 0v707h464v-133h-294v-157h272v-124h-272v-160h317v-133h-487z" />
    <glyph glyph-name="Eogonek" unicode="&#x118;" horiz-adv-x="611" 
d="M577 -234c-34 -15 -59 -26 -114 -26c-104 0 -144 47 -144 106c0 76 59 132 107 154h-343v707h464v-133h-294v-157h272v-124h-272v-160h317v-133c-57 -28 -117 -66 -117 -106c0 -18 14 -30 34 -30c19 0 39 2 62 9z" />
    <glyph glyph-name="uni0228" unicode="&#x228;" horiz-adv-x="611" 
d="M83 0v707h464v-133h-294v-157h272v-124h-272v-160h317v-133h-487zM266 -283l-57 100c25 15 76 35 76 70c0 20 -7 42 -12 62h129c11 -25 22 -53 22 -81c0 -81 -95 -125 -158 -151z" />
    <glyph glyph-name="uni1EC0" unicode="&#x1ec0;" horiz-adv-x="611" 
d="M83 0v707h464v-133h-294v-157h272v-124h-272v-160h317v-133h-487zM507 868l-181 121l79 104l171 -136zM175 740l-49 103l182 84l184 -84l-51 -103l-133 51z" />
    <glyph glyph-name="uni1EBE" unicode="&#x1ebe;" horiz-adv-x="611" 
d="M83 0v707h464v-133h-294v-157h272v-124h-272v-160h317v-133h-487zM177 740l-49 103l182 84l184 -84l-51 -103l-133 51zM473 869l-76 73l138 143l89 -93z" />
    <glyph glyph-name="uni1EC4" unicode="&#x1ec4;" horiz-adv-x="611" 
d="M83 0v707h464v-133h-294v-157h272v-124h-272v-160h317v-133h-487zM187 740l-49 105l182 73l184 -73l-51 -105l-133 41zM386 924c-48 0 -85 31 -121 31c-19 0 -43 -2 -67 -24l-58 77c24 27 70 73 135 73c60 0 86 -31 119 -31c27 0 46 5 81 22l51 -79
c-25 -22 -67 -69 -140 -69z" />
    <glyph glyph-name="uni1EC2" unicode="&#x1ec2;" horiz-adv-x="611" 
d="M83 0v707h464v-133h-294v-157h272v-124h-272v-160h317v-133h-487zM189 740l-49 103l182 84l184 -84l-51 -103l-133 51zM527 1005c0 -70 -47 -108 -70 -120l-76 69c15 9 29 22 29 39c0 14 -13 24 -27 24c-12 0 -24 -4 -39 -10l-28 92c18 10 43 23 85 23c30 0 64 -9 87 -30
c24 -22 39 -52 39 -87z" />
    <glyph glyph-name="uni1EC6" unicode="&#x1ec6;" horiz-adv-x="611" 
d="M83 0v707h464v-133h-294v-157h272v-124h-272v-160h317v-133h-487zM433 -149l-111 -112l-112 112l112 111zM185 741l-58 107l191 96l192 -96l-59 -107l-133 61z" />
    <glyph glyph-name="uni1EBA" unicode="&#x1eba;" horiz-adv-x="611" 
d="M83 0v707h464v-133h-294v-157h272v-124h-272v-160h317v-133h-487zM229 1001c15 6 47 13 73 13c73 0 135 -51 135 -129c0 -80 -60 -123 -118 -146l-59 76c32 9 59 27 59 57c0 25 -22 33 -45 33c-12 0 -24 -2 -32 -5z" />
    <glyph glyph-name="uni1EB8" unicode="&#x1eb8;" horiz-adv-x="611" 
d="M83 0v707h464v-133h-294v-157h272v-124h-272v-160h317v-133h-487zM436 -149l-111 -112l-112 112l112 111z" />
    <glyph glyph-name="uni1EBC" unicode="&#x1ebc;" horiz-adv-x="611" 
d="M378 755c-51 0 -89 38 -128 38c-19 0 -40 -2 -70 -28l-63 74c24 29 77 82 144 82c63 0 89 -38 123 -38c32 0 51 7 87 26l55 -74c-23 -25 -73 -80 -148 -80zM83 0v707h464v-133h-294v-157h272v-124h-272v-160h317v-133h-487z" />
    <glyph glyph-name="uni0045030A" horiz-adv-x="611" 
d="M333 745c-63 0 -135 24 -135 113c0 84 67 121 132 121c52 0 134 -25 134 -119c0 -81 -63 -115 -131 -115zM331 809c35 0 52 19 55 50c0 31 -24 51 -55 51c-39 0 -55 -17 -55 -49s20 -52 55 -52zM83 0v707h464v-133h-294v-157h272v-124h-272v-160h317v-133h-487z" />
    <glyph glyph-name="uni1E1E" unicode="&#x1e1e;" horiz-adv-x="611" 
d="M83 0v707h494v-133h-324v-175h302v-123h-302v-276h-170zM426 849l-94 -94l-94 94l94 94z" />
    <glyph glyph-name="uni00460304" horiz-adv-x="611" 
d="M165 764v129h328v-129h-328zM83 0v707h494v-133h-324v-175h302v-123h-302v-276h-170z" />
    <glyph glyph-name="Gbreve" unicode="&#x11e;" horiz-adv-x="709" 
d="M414 753c-109 0 -171 63 -201 111l86 74c36 -34 76 -62 119 -62c42 0 80 27 114 62l81 -73c-32 -47 -95 -112 -199 -112zM427 -10c-235 0 -388 114 -388 359c0 256 139 368 396 368c100 0 156 -20 212 -43l-45 -123c-67 17 -98 26 -170 26c-126 0 -220 -62 -220 -218
s104 -227 233 -227c16 0 31 1 45 1v217h170v-319c-80 -31 -147 -41 -233 -41z" />
    <glyph glyph-name="Gcommaaccent" unicode="&#x122;" horiz-adv-x="709" 
d="M511 -59l-45 -220h-116l21 220h140zM427 -10c-235 0 -388 114 -388 359c0 256 139 368 396 368c100 0 156 -20 212 -43l-45 -123c-67 17 -98 26 -170 26c-126 0 -220 -62 -220 -218s104 -227 233 -227c16 0 31 1 45 1v217h170v-319c-80 -31 -147 -41 -233 -41z" />
    <glyph glyph-name="Gcircumflex" unicode="&#x11c;" horiz-adv-x="709" 
d="M286 741l-58 107l191 96l192 -96l-59 -107l-133 61zM427 -10c-235 0 -388 114 -388 359c0 256 139 368 396 368c100 0 156 -20 212 -43l-45 -123c-67 17 -98 26 -170 26c-126 0 -220 -62 -220 -218s104 -227 233 -227c16 0 31 1 45 1v217h170v-319
c-80 -31 -147 -41 -233 -41z" />
    <glyph glyph-name="Gdotaccent" unicode="&#x120;" horiz-adv-x="709" 
d="M531 849l-94 -94l-94 94l94 94zM427 -10c-235 0 -388 114 -388 359c0 256 139 368 396 368c100 0 156 -20 212 -43l-45 -123c-67 17 -98 26 -170 26c-126 0 -220 -62 -220 -218s104 -227 233 -227c16 0 31 1 45 1v217h170v-319c-80 -31 -147 -41 -233 -41z" />
    <glyph glyph-name="uni01E6" unicode="&#x1e6;" horiz-adv-x="709" 
d="M427 -10c-235 0 -388 114 -388 359c0 256 139 368 396 368c100 0 156 -20 212 -43l-45 -123c-67 17 -98 26 -170 26c-126 0 -220 -62 -220 -218s104 -227 233 -227c16 0 31 1 45 1v217h170v-319c-80 -31 -147 -41 -233 -41zM598 837l-192 -97l-191 97l58 106l133 -60
l133 60z" />
    <glyph glyph-name="uni01F4" unicode="&#x1f4;" horiz-adv-x="709" 
d="M427 -10c-235 0 -388 114 -388 359c0 256 139 368 396 368c100 0 156 -20 212 -43l-45 -123c-67 17 -98 26 -170 26c-126 0 -220 -62 -220 -218s104 -227 233 -227c16 0 31 1 45 1v217h170v-319c-80 -31 -147 -41 -233 -41zM315 744l-23 113l271 67l27 -131z" />
    <glyph glyph-name="uni1E20" unicode="&#x1e20;" horiz-adv-x="709" 
d="M427 -10c-235 0 -388 114 -388 359c0 256 139 368 396 368c100 0 156 -20 212 -43l-45 -123c-67 17 -98 26 -170 26c-126 0 -220 -62 -220 -218s104 -227 233 -227c16 0 31 1 45 1v217h170v-319c-80 -31 -147 -41 -233 -41zM244 764v129h328v-129h-328z" />
    <glyph glyph-name="Hbar" unicode="&#x126;" horiz-adv-x="841" 
d="M31 517v79h70v111h170v-111h300v111h170v-111h68v-79h-68v-517h-170v291h-300v-291h-170v517h-70zM271 420h300v97h-300v-97z" />
    <glyph glyph-name="Hcircumflex" unicode="&#x124;" horiz-adv-x="806" 
d="M270 741l-58 107l191 96l192 -96l-59 -107l-133 61zM83 0v707h170v-287h300v287h170v-707h-170v291h-300v-291h-170z" />
    <glyph glyph-name="uni021E" unicode="&#x21e;" horiz-adv-x="806" 
d="M83 0v707h170v-287h300v287h170v-707h-170v291h-300v-291h-170zM594 837l-192 -97l-191 97l58 106l133 -60l133 60z" />
    <glyph glyph-name="uni1E24" unicode="&#x1e24;" horiz-adv-x="806" 
d="M83 0v707h170v-287h300v287h170v-707h-170v291h-300v-291h-170zM403 -261l-112 112l112 111l111 -111z" />
    <glyph glyph-name="uni00480331" horiz-adv-x="806" 
d="M83 0v707h170v-287h300v287h170v-707h-170v291h-300v-291h-170zM239 -230v129h328v-129h-328z" />
    <glyph glyph-name="uni1E2A" unicode="&#x1e2a;" horiz-adv-x="806" 
d="M83 0v707h170v-287h300v287h170v-707h-170v291h-300v-291h-170zM404 -234c-109 0 -171 63 -201 111l86 74c36 -34 76 -62 119 -62c42 0 80 27 114 62l81 -73c-32 -47 -95 -112 -199 -112z" />
    <glyph glyph-name="uni1E22" unicode="&#x1e22;" horiz-adv-x="806" 
d="M83 0v707h170v-287h300v287h170v-707h-170v291h-300v-291h-170zM496 849l-94 -94l-94 94l94 94z" />
    <glyph glyph-name="Iacute" unicode="&#xcd;" horiz-adv-x="336" 
d="M83 744l-23 113l271 67l27 -131zM83 0v707h170v-707h-170z" />
    <glyph glyph-name="Icircumflex" unicode="&#xce;" horiz-adv-x="336" 
d="M33 741l-58 107l191 96l192 -96l-59 -107l-133 61zM83 0v707h170v-707h-170z" />
    <glyph glyph-name="Idieresis" unicode="&#xcf;" horiz-adv-x="336" 
d="M44 737l-99 100l99 100l100 -100zM288 737l-100 100l100 100l99 -100zM83 0v707h170v-707h-170z" />
    <glyph glyph-name="Igrave" unicode="&#xcc;" horiz-adv-x="336" 
d="M257 744l-275 49l27 131l271 -67zM83 0v707h170v-707h-170z" />
    <glyph glyph-name="Ibreve" unicode="&#x12c;" horiz-adv-x="336" 
d="M167 753c-109 0 -171 63 -201 111l86 74c36 -34 76 -62 119 -62c42 0 80 27 114 62l81 -73c-32 -47 -95 -112 -199 -112zM83 0v707h170v-707h-170z" />
    <glyph glyph-name="Idotaccent" unicode="&#x130;" horiz-adv-x="336" 
d="M260 849l-94 -94l-94 94l94 94zM83 0v707h170v-707h-170z" />
    <glyph glyph-name="Imacron" unicode="&#x12a;" horiz-adv-x="336" 
d="M1 764v129h328v-129h-328zM83 0v707h170v-707h-170z" />
    <glyph glyph-name="Iogonek" unicode="&#x12e;" horiz-adv-x="336" 
d="M290 -234c-34 -15 -63 -26 -124 -26c-118 0 -154 46 -154 124c0 45 32 85 71 120v722h170v-706c-48 -31 -96 -66 -96 -106c0 -18 20 -32 34 -32c19 0 48 4 71 11z" />
    <glyph glyph-name="uni01CF" unicode="&#x1cf;" horiz-adv-x="336" 
d="M83 0v707h170v-707h-170zM359 837l-192 -97l-191 97l58 106l133 -60l133 60z" />
    <glyph glyph-name="uni1EC8" unicode="&#x1ec8;" horiz-adv-x="336" 
d="M83 0v707h170v-707h-170zM69 1001c15 6 47 13 73 13c73 0 135 -51 135 -129c0 -80 -60 -123 -118 -146l-59 76c32 9 59 27 59 57c0 25 -22 33 -45 33c-12 0 -24 -2 -32 -5z" />
    <glyph glyph-name="uni1ECA" unicode="&#x1eca;" horiz-adv-x="336" 
d="M83 0v707h170v-707h-170zM276 -149l-111 -112l-112 112l112 111z" />
    <glyph glyph-name="Itilde" unicode="&#x128;" horiz-adv-x="336" 
d="M221 755c-51 0 -89 38 -128 38c-19 0 -40 -2 -70 -28l-63 74c24 29 77 82 144 82c63 0 89 -38 123 -38c32 0 51 7 87 26l55 -74c-23 -25 -73 -80 -148 -80zM83 0v707h170v-707h-170z" />
    <glyph glyph-name="uni004A0301" horiz-adv-x="338" 
d="M83 744l-23 113l271 67l27 -131zM2 -198l-61 122c119 66 145 109 145 227v556h171v-554c0 -142 -21 -275 -255 -351z" />
    <glyph glyph-name="Jcircumflex" unicode="&#x134;" horiz-adv-x="338" 
d="M35 741l-58 107l191 96l192 -96l-59 -107l-133 61zM2 -198l-61 122c119 66 145 109 145 227v556h171v-554c0 -142 -21 -275 -255 -351z" />
    <glyph glyph-name="Kcommaaccent" unicode="&#x136;" horiz-adv-x="723" 
d="M83 0v707h170v-303l242 303h217l-286 -331l302 -376h-217l-258 354v-354h-170zM446 -59l-45 -220h-116l21 220h140z" />
    <glyph glyph-name="uni01E8" unicode="&#x1e8;" horiz-adv-x="723" 
d="M83 0v707h170v-303l242 303h217l-286 -331l302 -376h-217l-258 354v-354h-170zM562 837l-192 -97l-191 97l58 106l133 -60l133 60z" />
    <glyph glyph-name="uni1E34" unicode="&#x1e34;" horiz-adv-x="723" 
d="M83 0v707h170v-303l242 303h217l-286 -331l302 -376h-217l-258 354v-354h-170zM206 -230v129h328v-129h-328z" />
    <glyph glyph-name="uni1E32" unicode="&#x1e32;" horiz-adv-x="723" 
d="M83 0v707h170v-303l242 303h217l-286 -331l302 -376h-217l-258 354v-354h-170zM371 -261l-112 112l112 111l111 -111z" />
    <glyph glyph-name="Lacute" unicode="&#x139;" horiz-adv-x="569" 
d="M98 744l-23 113l271 67l27 -131zM83 0v707h170v-573h307v-134h-477z" />
    <glyph glyph-name="Lcaron" unicode="&#x13d;" horiz-adv-x="569" 
d="M477 792l-45 -220h-116l21 220h140zM83 0v707h170v-573h307v-134h-477z" />
    <glyph glyph-name="Lcommaaccent" unicode="&#x13b;" horiz-adv-x="568" 
d="M379 -59l-45 -220h-116l21 220h140zM83 0v707h170v-573h307v-134h-477z" />
    <glyph glyph-name="Ldot" unicode="&#x13f;" horiz-adv-x="569" 
d="M451 285l-104 104l104 103l103 -103zM83 0v707h170v-573h307v-134h-477z" />
    <glyph glyph-name="Lslash" unicode="&#x141;" horiz-adv-x="594" 
d="M38 216v114l70 40v337h170v-239l108 62v-112l-108 -63v-221h307v-134h-477v256z" />
    <glyph glyph-name="uni1E3A" unicode="&#x1e3a;" horiz-adv-x="568" 
d="M83 0v707h170v-573h307v-134h-477zM157 -230v129h328v-129h-328z" />
    <glyph glyph-name="uni1E36" unicode="&#x1e36;" horiz-adv-x="568" 
d="M83 0v707h170v-573h307v-134h-477zM316 -261l-112 112l112 111l111 -111z" />
    <glyph glyph-name="uni1E38" unicode="&#x1e38;" horiz-adv-x="568" 
d="M83 0v707h170v-573h307v-134h-477zM292 -261l-112 112l112 111l111 -111zM4 764v129h328v-129h-328z" />
    <glyph glyph-name="uni1E42" unicode="&#x1e42;" horiz-adv-x="993" 
d="M83 0v707h207l197 -555l226 555h197v-707h-170v263l7 166h-4l-166 -429h-190l-140 430h-4l10 -167v-263h-170zM486 -261l-112 112l112 111l111 -111z" />
    <glyph glyph-name="uni004D0310" horiz-adv-x="993" 
d="M83 0v707h207l197 -555l226 555h197v-707h-170v263l7 166h-4l-166 -429h-190l-140 430h-4l10 -167v-263h-170zM497 752c-109 0 -171 63 -201 111l86 74c36 -34 76 -62 119 -62c42 0 80 27 114 62l81 -73c-32 -47 -95 -112 -199 -112zM501 911l-94 96l94 94l95 -94z" />
    <glyph glyph-name="uni1E40" unicode="&#x1e40;" horiz-adv-x="993" 
d="M83 0v707h207l197 -555l226 555h197v-707h-170v263l7 166h-4l-166 -429h-190l-140 430h-4l10 -167v-263h-170zM586 849l-94 -94l-94 94l94 94z" />
    <glyph glyph-name="uni1E3E" unicode="&#x1e3e;" horiz-adv-x="993" 
d="M83 0v707h207l197 -555l226 555h197v-707h-170v263l7 166h-4l-166 -429h-190l-140 430h-4l10 -167v-263h-170zM420 744l-23 113l271 67l27 -131z" />
    <glyph glyph-name="Ntilde" unicode="&#xd1;" horiz-adv-x="806" 
d="M468 755c-51 0 -89 38 -128 38c-19 0 -40 -2 -70 -28l-63 74c24 29 77 82 144 82c63 0 89 -38 123 -38c32 0 51 7 87 26l55 -74c-23 -25 -73 -80 -148 -80zM83 0v707h197l275 -485h3l-5 79v406h170v-707h-203l-267 473h-4l4 -94v-379h-170z" />
    <glyph glyph-name="Nacute" unicode="&#x143;" horiz-adv-x="806" 
d="M294 744l-23 113l271 67l27 -131zM83 0v707h197l275 -485h3l-5 79v406h170v-707h-203l-267 473h-4l4 -94v-379h-170z" />
    <glyph glyph-name="Ncaron" unicode="&#x147;" horiz-adv-x="806" 
d="M592 837l-192 -97l-191 97l58 106l133 -60l133 60zM83 0v707h197l275 -485h3l-5 79v406h170v-707h-203l-267 473h-4l4 -94v-379h-170z" />
    <glyph glyph-name="Ncommaaccent" unicode="&#x145;" horiz-adv-x="806" 
d="M475 -59l-45 -220h-116l21 220h140zM83 0v707h197l275 -485h3l-5 79v406h170v-707h-203l-267 473h-4l4 -94v-379h-170z" />
    <glyph glyph-name="uni01F8" unicode="&#x1f8;" horiz-adv-x="806" 
d="M83 0v707h197l275 -485h3l-5 79v406h170v-707h-203l-267 473h-4l4 -94v-379h-170zM513 744l-275 49l27 131l271 -67z" />
    <glyph glyph-name="uni1E48" unicode="&#x1e48;" horiz-adv-x="806" 
d="M83 0v707h197l275 -485h3l-5 79v406h170v-707h-203l-267 473h-4l4 -94v-379h-170zM239 -230v129h328v-129h-328z" />
    <glyph glyph-name="uni1E44" unicode="&#x1e44;" horiz-adv-x="806" 
d="M83 0v707h197l275 -485h3l-5 79v406h170v-707h-203l-267 473h-4l4 -94v-379h-170zM502 849l-94 -94l-94 94l94 94z" />
    <glyph glyph-name="uni004E0304" horiz-adv-x="806" 
d="M234 764v129h328v-129h-328zM83 0v707h197l275 -485h3l-5 79v406h170v-707h-203l-267 473h-4l4 -94v-379h-170z" />
    <glyph glyph-name="Eng" unicode="&#x14a;" horiz-adv-x="805" 
d="M501 -220c-39 0 -95 11 -128 23l31 129s61 -11 92 -11c37 0 60 13 60 59v20h-36l-271 473l4 -94v-379h-170v707h197l278 -485l-5 79v406h170l-1 -707c-1 -188 -106 -220 -221 -220z" />
    <glyph glyph-name="uni1E46" unicode="&#x1e46;" horiz-adv-x="806" 
d="M83 0v707h197l275 -485h3l-5 79v406h170v-707h-203l-267 473h-4l4 -94v-379h-170zM402 -261l-112 112l112 111l111 -111z" />
    <glyph glyph-name="Ograve" unicode="&#xd2;" horiz-adv-x="833" 
d="M520 744l-275 49l27 131l271 -67zM408 -12c-248 0 -370 140 -370 367c0 223 148 363 389 363c257 0 368 -154 368 -365c0 -225 -135 -365 -387 -365zM411 122c156 0 211 100 211 232s-61 230 -204 230c-150 0 -208 -98 -208 -228c0 -129 57 -234 201 -234z" />
    <glyph glyph-name="Odieresis" unicode="&#xd6;" horiz-adv-x="833" 
d="M288 737l-99 100l99 100l100 -100zM532 737l-100 100l100 100l99 -100zM408 -12c-248 0 -370 140 -370 367c0 223 148 363 389 363c257 0 368 -154 368 -365c0 -225 -135 -365 -387 -365zM411 122c156 0 211 100 211 232s-61 230 -204 230c-150 0 -208 -98 -208 -228
c0 -129 57 -234 201 -234z" />
    <glyph glyph-name="Otilde" unicode="&#xd5;" horiz-adv-x="833" 
d="M480 755c-51 0 -89 38 -128 38c-19 0 -40 -2 -70 -28l-63 74c24 29 77 82 144 82c63 0 89 -38 123 -38c32 0 51 7 87 26l55 -74c-23 -25 -73 -80 -148 -80zM408 -12c-248 0 -370 140 -370 367c0 223 148 363 389 363c257 0 368 -154 368 -365c0 -225 -135 -365 -387 -365
zM411 122c156 0 211 100 211 232s-61 230 -204 230c-150 0 -208 -98 -208 -228c0 -129 57 -234 201 -234z" />
    <glyph glyph-name="Obreve" unicode="&#x14e;" horiz-adv-x="833" 
d="M420 753c-109 0 -171 63 -201 111l86 74c36 -34 76 -62 119 -62c42 0 80 27 114 62l81 -73c-32 -47 -95 -112 -199 -112zM408 -12c-248 0 -370 140 -370 367c0 223 148 363 389 363c257 0 368 -154 368 -365c0 -225 -135 -365 -387 -365zM411 122c156 0 211 100 211 232
s-61 230 -204 230c-150 0 -208 -98 -208 -228c0 -129 57 -234 201 -234z" />
    <glyph glyph-name="Oacute" unicode="&#xd3;" horiz-adv-x="833" 
d="M324 744l-23 113l271 67l27 -131zM408 -12c-248 0 -370 140 -370 367c0 223 148 363 389 363c257 0 368 -154 368 -365c0 -225 -135 -365 -387 -365zM411 122c156 0 211 100 211 232s-61 230 -204 230c-150 0 -208 -98 -208 -228c0 -129 57 -234 201 -234z" />
    <glyph glyph-name="Ocircumflex" unicode="&#xd4;" horiz-adv-x="833" 
d="M284 741l-58 107l191 96l192 -96l-59 -107l-133 61zM408 -12c-248 0 -370 140 -370 367c0 223 148 363 389 363c257 0 368 -154 368 -365c0 -225 -135 -365 -387 -365zM411 122c156 0 211 100 211 232s-61 230 -204 230c-150 0 -208 -98 -208 -228
c0 -129 57 -234 201 -234z" />
    <glyph glyph-name="Ohungarumlaut" unicode="&#x150;" horiz-adv-x="833" 
d="M477 889l-234 -154l-67 96l223 167zM775 787l-276 -49l-23 114l271 66zM408 -12c-248 0 -370 140 -370 367c0 223 148 363 389 363c257 0 368 -154 368 -365c0 -225 -135 -365 -387 -365zM411 122c156 0 211 100 211 232s-61 230 -204 230c-150 0 -208 -98 -208 -228
c0 -129 57 -234 201 -234z" />
    <glyph glyph-name="Omacron" unicode="&#x14c;" horiz-adv-x="833" 
d="M260 764v129h328v-129h-328zM408 -12c-248 0 -370 140 -370 367c0 223 148 363 389 363c257 0 368 -154 368 -365c0 -225 -135 -365 -387 -365zM411 122c156 0 211 100 211 232s-61 230 -204 230c-150 0 -208 -98 -208 -228c0 -129 57 -234 201 -234z" />
    <glyph glyph-name="Oslash" unicode="&#xd8;" horiz-adv-x="861" 
d="M104 -45l-70 70l86 89c-46 61 -69 143 -69 241c0 223 148 363 389 363c88 0 159 -18 214 -51l84 87l73 -68l-81 -84c53 -64 78 -150 78 -249c0 -225 -135 -365 -387 -365c-95 0 -171 21 -229 58zM424 122c156 0 211 100 211 232c0 47 -8 89 -24 125l-310 -320
c30 -24 71 -37 123 -37zM223 356c0 -42 6 -82 19 -116l303 314c-30 19 -67 30 -114 30c-150 0 -208 -98 -208 -228z" />
    <glyph glyph-name="Oslashacute" unicode="&#x1fe;" horiz-adv-x="860" 
d="M104 -45l-70 70l86 89c-46 61 -69 143 -69 241c0 223 148 363 389 363c88 0 159 -18 214 -51l84 87l73 -68l-81 -84c53 -64 78 -150 78 -249c0 -225 -135 -365 -387 -365c-95 0 -171 21 -229 58zM424 122c156 0 211 100 211 232c0 47 -8 89 -24 125l-310 -320
c30 -24 71 -37 123 -37zM223 356c0 -42 6 -82 19 -116l303 314c-30 19 -67 30 -114 30c-150 0 -208 -98 -208 -228zM346 744l-23 113l271 67l27 -131z" />
    <glyph glyph-name="uni01D1" unicode="&#x1d1;" horiz-adv-x="833" 
d="M408 -12c-248 0 -370 140 -370 367c0 223 148 363 389 363c257 0 368 -154 368 -365c0 -225 -135 -365 -387 -365zM411 122c156 0 211 100 211 232s-61 230 -204 230c-150 0 -208 -98 -208 -228c0 -129 57 -234 201 -234zM613 837l-192 -97l-191 97l58 106l133 -60
l133 60z" />
    <glyph glyph-name="uni01EA" unicode="&#x1ea;" horiz-adv-x="835" 
d="M588 -230c-36 -21 -77 -31 -116 -31c-83 0 -159 45 -159 133c0 44 22 83 56 117c-221 14 -330 151 -330 366c0 223 148 363 389 363c257 0 368 -154 368 -365c0 -175 -81 -298 -235 -345c-51 -29 -106 -70 -106 -113c0 -27 21 -42 40 -42c24 0 44 6 65 17zM412 122
c156 0 211 100 211 232s-61 230 -204 230c-150 0 -208 -98 -208 -228c0 -129 57 -234 201 -234z" />
    <glyph glyph-name="uni01EC" unicode="&#x1ec;" horiz-adv-x="835" 
d="M588 -230c-36 -21 -77 -31 -116 -31c-83 0 -159 45 -159 133c0 44 22 83 56 117c-221 14 -330 151 -330 366c0 223 148 363 389 363c257 0 368 -154 368 -365c0 -175 -81 -298 -235 -345c-51 -29 -106 -70 -106 -113c0 -27 21 -42 40 -42c24 0 44 6 65 17zM412 122
c156 0 211 100 211 232s-61 230 -204 230c-150 0 -208 -98 -208 -228c0 -129 57 -234 201 -234zM248 764v129h328v-129h-328z" />
    <glyph glyph-name="uni022E" unicode="&#x22e;" horiz-adv-x="833" 
d="M408 -12c-248 0 -370 140 -370 367c0 223 148 363 389 363c257 0 368 -154 368 -365c0 -225 -135 -365 -387 -365zM411 122c156 0 211 100 211 232s-61 230 -204 230c-150 0 -208 -98 -208 -228c0 -129 57 -234 201 -234zM508 849l-94 -94l-94 94l94 94z" />
    <glyph glyph-name="Ohorn" unicode="&#x1a0;" horiz-adv-x="852" 
d="M635 797h140c8 -19 12 -52 12 -70c0 -61 -30 -102 -66 -129c50 -63 74 -148 74 -245c0 -225 -135 -365 -387 -365c-248 0 -370 140 -370 367c0 223 148 363 389 363c72 0 133 -13 183 -35c26 15 33 38 33 64c0 16 -3 33 -8 50zM411 122c156 0 211 100 211 232
s-61 230 -204 230c-150 0 -208 -98 -208 -228c0 -129 57 -234 201 -234z" />
    <glyph glyph-name="uni1ED2" unicode="&#x1ed2;" horiz-adv-x="833" 
d="M408 -12c-248 0 -370 140 -370 367c0 223 148 363 389 363c257 0 368 -154 368 -365c0 -225 -135 -365 -387 -365zM411 122c156 0 211 100 211 232s-61 230 -204 230c-150 0 -208 -98 -208 -228c0 -129 57 -234 201 -234zM619 868l-181 121l79 104l171 -136zM287 740
l-49 103l182 84l184 -84l-51 -103l-133 51z" />
    <glyph glyph-name="uni1ED0" unicode="&#x1ed0;" horiz-adv-x="833" 
d="M408 -12c-248 0 -370 140 -370 367c0 223 148 363 389 363c257 0 368 -154 368 -365c0 -225 -135 -365 -387 -365zM411 122c156 0 211 100 211 232s-61 230 -204 230c-150 0 -208 -98 -208 -228c0 -129 57 -234 201 -234zM287 740l-49 103l182 84l184 -84l-51 -103
l-133 51zM583 869l-76 73l138 143l89 -93z" />
    <glyph glyph-name="uni1ED6" unicode="&#x1ed6;" horiz-adv-x="833" 
d="M408 -12c-248 0 -370 140 -370 367c0 223 148 363 389 363c257 0 368 -154 368 -365c0 -225 -135 -365 -387 -365zM411 122c156 0 211 100 211 232s-61 230 -204 230c-150 0 -208 -98 -208 -228c0 -129 57 -234 201 -234zM286 740l-49 105l182 73l184 -73l-51 -105
l-133 41zM485 924c-48 0 -85 31 -121 31c-19 0 -43 -2 -67 -24l-58 77c24 27 70 73 135 73c60 0 86 -31 119 -31c27 0 46 5 81 22l51 -79c-25 -22 -67 -69 -140 -69z" />
    <glyph glyph-name="uni1ED4" unicode="&#x1ed4;" horiz-adv-x="833" 
d="M408 -12c-248 0 -370 140 -370 367c0 223 148 363 389 363c257 0 368 -154 368 -365c0 -225 -135 -365 -387 -365zM411 122c156 0 211 100 211 232s-61 230 -204 230c-150 0 -208 -98 -208 -228c0 -129 57 -234 201 -234zM277 740l-49 103l182 84l184 -84l-51 -103
l-133 51zM615 1005c0 -70 -47 -108 -70 -120l-76 69c15 9 29 22 29 39c0 14 -13 24 -27 24c-12 0 -24 -4 -39 -10l-28 92c18 10 43 23 85 23c30 0 64 -9 87 -30c24 -22 39 -52 39 -87z" />
    <glyph glyph-name="uni1ED8" unicode="&#x1ed8;" horiz-adv-x="833" 
d="M408 -12c-248 0 -370 140 -370 367c0 223 148 363 389 363c257 0 368 -154 368 -365c0 -225 -135 -365 -387 -365zM411 122c156 0 211 100 211 232s-61 230 -204 230c-150 0 -208 -98 -208 -228c0 -129 57 -234 201 -234zM523 -149l-111 -112l-112 112l112 111zM281 741
l-58 107l191 96l192 -96l-59 -107l-133 61z" />
    <glyph glyph-name="uni1ECE" unicode="&#x1ece;" horiz-adv-x="833" 
d="M408 -12c-248 0 -370 140 -370 367c0 223 148 363 389 363c257 0 368 -154 368 -365c0 -225 -135 -365 -387 -365zM411 122c156 0 211 100 211 232s-61 230 -204 230c-150 0 -208 -98 -208 -228c0 -129 57 -234 201 -234zM309 1001c15 6 47 13 73 13
c73 0 135 -51 135 -129c0 -80 -60 -123 -118 -146l-59 76c32 9 59 27 59 57c0 25 -22 33 -45 33c-12 0 -24 -2 -32 -5z" />
    <glyph glyph-name="uni1ECC" unicode="&#x1ecc;" horiz-adv-x="833" 
d="M408 -12c-248 0 -370 140 -370 367c0 223 148 363 389 363c257 0 368 -154 368 -365c0 -225 -135 -365 -387 -365zM411 122c156 0 211 100 211 232s-61 230 -204 230c-150 0 -208 -98 -208 -228c0 -129 57 -234 201 -234zM532 -149l-111 -112l-112 112l112 111z" />
    <glyph glyph-name="uni1EDC" unicode="&#x1edc;" horiz-adv-x="852" 
d="M635 797h140c8 -19 12 -52 12 -70c0 -61 -30 -102 -66 -129c50 -63 74 -148 74 -245c0 -225 -135 -365 -387 -365c-248 0 -370 140 -370 367c0 223 148 363 389 363c72 0 133 -13 183 -35c26 15 33 38 33 64c0 16 -3 33 -8 50zM411 122c156 0 211 100 211 232
s-61 230 -204 230c-150 0 -208 -98 -208 -228c0 -129 57 -234 201 -234zM506 744l-275 49l27 131l271 -67z" />
    <glyph glyph-name="uni1EDA" unicode="&#x1eda;" horiz-adv-x="852" 
d="M635 797h140c8 -19 12 -52 12 -70c0 -61 -30 -102 -66 -129c50 -63 74 -148 74 -245c0 -225 -135 -365 -387 -365c-248 0 -370 140 -370 367c0 223 148 363 389 363c72 0 133 -13 183 -35c26 15 33 38 33 64c0 16 -3 33 -8 50zM411 122c156 0 211 100 211 232
s-61 230 -204 230c-150 0 -208 -98 -208 -228c0 -129 57 -234 201 -234zM319 744l-23 113l271 67l27 -131z" />
    <glyph glyph-name="uni1EE0" unicode="&#x1ee0;" horiz-adv-x="852" 
d="M635 797h140c8 -19 12 -52 12 -70c0 -61 -30 -102 -66 -129c50 -63 74 -148 74 -245c0 -225 -135 -365 -387 -365c-248 0 -370 140 -370 367c0 223 148 363 389 363c72 0 133 -13 183 -35c26 15 33 38 33 64c0 16 -3 33 -8 50zM411 122c156 0 211 100 211 232
s-61 230 -204 230c-150 0 -208 -98 -208 -228c0 -129 57 -234 201 -234zM477 755c-51 0 -89 38 -128 38c-19 0 -40 -2 -70 -28l-63 74c24 29 77 82 144 82c63 0 89 -38 123 -38c32 0 51 7 87 26l55 -74c-23 -25 -73 -80 -148 -80z" />
    <glyph glyph-name="uni1EDE" unicode="&#x1ede;" horiz-adv-x="852" 
d="M635 797h140c8 -19 12 -52 12 -70c0 -61 -30 -102 -66 -129c50 -63 74 -148 74 -245c0 -225 -135 -365 -387 -365c-248 0 -370 140 -370 367c0 223 148 363 389 363c72 0 133 -13 183 -35c26 15 33 38 33 64c0 16 -3 33 -8 50zM411 122c156 0 211 100 211 232
s-61 230 -204 230c-150 0 -208 -98 -208 -228c0 -129 57 -234 201 -234zM309 1001c15 6 47 13 73 13c73 0 135 -51 135 -129c0 -80 -60 -123 -118 -146l-59 76c32 9 59 27 59 57c0 25 -22 33 -45 33c-12 0 -24 -2 -32 -5z" />
    <glyph glyph-name="uni1EE2" unicode="&#x1ee2;" horiz-adv-x="852" 
d="M635 797h140c8 -19 12 -52 12 -70c0 -61 -30 -102 -66 -129c50 -63 74 -148 74 -245c0 -225 -135 -365 -387 -365c-248 0 -370 140 -370 367c0 223 148 363 389 363c72 0 133 -13 183 -35c26 15 33 38 33 64c0 16 -3 33 -8 50zM411 122c156 0 211 100 211 232
s-61 230 -204 230c-150 0 -208 -98 -208 -228c0 -129 57 -234 201 -234zM533 -149l-111 -112l-112 112l112 111z" />
    <glyph glyph-name="uni1E56" unicode="&#x1e56;" horiz-adv-x="650" 
d="M83 0v707h275c159 0 273 -93 273 -251c0 -139 -114 -256 -325 -256h-52v-200h-171zM254 574v-243h58c106 0 144 55 144 121c0 71 -29 122 -120 122h-82zM414 849l-94 -94l-94 94l94 94z" />
    <glyph glyph-name="uni00500304" horiz-adv-x="650" 
d="M83 0v707h275c159 0 273 -93 273 -251c0 -139 -114 -256 -325 -256h-52v-200h-171zM254 574v-243h58c106 0 144 55 144 121c0 71 -29 122 -120 122h-82zM158 764v129h328v-129h-328z" />
    <glyph glyph-name="Racute" unicode="&#x154;" horiz-adv-x="749" 
d="M235 744l-23 113l271 67l27 -131zM711 -13c-138 7 -213 79 -287 165l-80 93c-12 -1 -25 -1 -38 -1h-52v-244h-171v707h275c159 0 273 -73 273 -231c0 -79 -38 -148 -114 -191l72 -78c39 -42 83 -70 160 -90zM254 363h58c101 0 144 42 144 109c0 71 -29 101 -120 101h-82
v-210z" />
    <glyph glyph-name="Rcaron" unicode="&#x158;" horiz-adv-x="749" 
d="M517 837l-192 -97l-191 97l58 106l133 -60l133 60zM711 -13c-138 7 -213 79 -287 165l-80 93c-12 -1 -25 -1 -38 -1h-52v-244h-171v707h275c159 0 273 -73 273 -231c0 -79 -38 -148 -114 -191l72 -78c39 -42 83 -70 160 -90zM254 363h58c101 0 144 42 144 109
c0 71 -29 101 -120 101h-82v-210z" />
    <glyph glyph-name="uni00520300" horiz-adv-x="749" 
d="M386 744l-275 49l27 131l271 -67zM711 -13c-138 7 -213 79 -287 165l-80 93c-12 -1 -25 -1 -38 -1h-52v-244h-171v707h275c159 0 273 -73 273 -231c0 -79 -38 -148 -114 -191l72 -78c39 -42 83 -70 160 -90zM254 363h58c101 0 144 42 144 109c0 71 -29 101 -120 101h-82
v-210z" />
    <glyph glyph-name="Rcommaaccent" unicode="&#x156;" horiz-adv-x="750" 
d="M480 -59l-45 -220h-116l21 220h140zM711 -13c-138 7 -213 79 -287 165l-80 93c-12 -1 -25 -1 -38 -1h-52v-244h-171v707h275c159 0 273 -73 273 -231c0 -79 -38 -148 -114 -191l72 -78c39 -42 83 -70 160 -90zM254 363h58c101 0 144 42 144 109c0 71 -29 101 -120 101
h-82v-210z" />
    <glyph glyph-name="uni1E5E" unicode="&#x1e5e;" horiz-adv-x="750" 
d="M711 -13c-138 7 -213 79 -287 165l-80 93c-12 -1 -25 -1 -38 -1h-52v-244h-171v707h275c159 0 273 -73 273 -231c0 -79 -38 -148 -114 -191l72 -78c39 -42 83 -70 160 -90zM254 363h58c101 0 144 42 144 109c0 71 -29 101 -120 101h-82v-210zM217 -230v129h328v-129h-328
z" />
    <glyph glyph-name="uni1E5A" unicode="&#x1e5a;" horiz-adv-x="750" 
d="M711 -13c-138 7 -213 79 -287 165l-80 93c-12 -1 -25 -1 -38 -1h-52v-244h-171v707h275c159 0 273 -73 273 -231c0 -79 -38 -148 -114 -191l72 -78c39 -42 83 -70 160 -90zM254 363h58c101 0 144 42 144 109c0 71 -29 101 -120 101h-82v-210zM381 -261l-112 112l112 111
l111 -111z" />
    <glyph glyph-name="uni1E5C" unicode="&#x1e5c;" horiz-adv-x="750" 
d="M711 -13c-138 7 -213 79 -287 165l-80 93c-12 -1 -25 -1 -38 -1h-52v-244h-171v707h275c159 0 273 -73 273 -231c0 -79 -38 -148 -114 -191l72 -78c39 -42 83 -70 160 -90zM254 363h58c101 0 144 42 144 109c0 71 -29 101 -120 101h-82v-210zM381 -261l-112 112l112 111
l111 -111zM162 764v129h328v-129h-328z" />
    <glyph glyph-name="uni00520325" horiz-adv-x="750" 
d="M711 -13c-138 7 -213 79 -287 165l-80 93c-12 -1 -25 -1 -38 -1h-52v-244h-171v707h275c159 0 273 -73 273 -231c0 -79 -38 -148 -114 -191l72 -78c39 -42 83 -70 160 -90zM254 363h58c101 0 144 42 144 109c0 71 -29 101 -120 101h-82v-210zM383 -295
c-70 0 -150 27 -150 126c0 93 75 134 147 134c58 0 149 -28 149 -132c0 -90 -70 -128 -146 -128zM381 -224c39 0 58 21 61 56c0 34 -26 56 -61 56c-43 0 -61 -19 -61 -54c0 -36 22 -58 61 -58z" />
    <glyph glyph-name="uni005203250304" horiz-adv-x="750" 
d="M711 -13c-138 7 -213 79 -287 165l-80 93c-12 -1 -25 -1 -38 -1h-52v-244h-171v707h275c159 0 273 -73 273 -231c0 -79 -38 -148 -114 -191l72 -78c39 -42 83 -70 160 -90zM254 363h58c101 0 144 42 144 109c0 71 -29 101 -120 101h-82v-210zM383 -295
c-70 0 -150 27 -150 126c0 93 75 134 147 134c58 0 149 -28 149 -132c0 -90 -70 -128 -146 -128zM381 -224c39 0 58 21 61 56c0 34 -26 56 -61 56c-43 0 -61 -19 -61 -54c0 -36 22 -58 61 -58zM165 764v129h328v-129h-328z" />
    <glyph glyph-name="uni1E58" unicode="&#x1e58;" horiz-adv-x="749" 
d="M711 -13c-138 7 -213 79 -287 165l-80 93c-12 -1 -25 -1 -38 -1h-52v-244h-171v707h275c159 0 273 -73 273 -231c0 -79 -38 -148 -114 -191l72 -78c39 -42 83 -70 160 -90zM254 363h58c101 0 144 42 144 109c0 71 -29 101 -120 101h-82v-210zM417 849l-94 -94l-94 94
l94 94z" />
    <glyph glyph-name="Sacute" unicode="&#x15a;" horiz-adv-x="585" 
d="M194 744l-23 113l271 67l27 -131zM263 -12c-116 0 -184 28 -237 57l49 126c62 -25 108 -43 186 -43c85 0 124 33 124 76c0 115 -336 70 -336 310c0 136 129 204 254 204c112 0 170 -23 221 -54l-49 -125c-52 23 -95 38 -167 38c-55 0 -93 -27 -93 -66
c0 -94 342 -84 342 -301c0 -155 -148 -222 -294 -222z" />
    <glyph glyph-name="Scedilla" unicode="&#x15e;" horiz-adv-x="586" 
d="M222 -283l-57 100c25 15 76 35 76 70c0 20 -7 42 -12 62h129c11 -25 22 -53 22 -81c0 -81 -95 -125 -158 -151zM264 -12c-116 0 -184 28 -237 57l49 126c62 -25 108 -43 186 -43c85 0 124 33 124 76c0 115 -336 70 -336 310c0 136 129 204 254 204c112 0 170 -23 221 -54
l-49 -125c-52 23 -95 38 -167 38c-55 0 -93 -27 -93 -66c0 -94 342 -84 342 -301c0 -155 -148 -222 -294 -222z" />
    <glyph glyph-name="Scaron" unicode="&#x160;" horiz-adv-x="585" 
d="M481 837l-192 -97l-191 97l58 106l133 -60l133 60zM263 -12c-116 0 -184 28 -237 57l49 126c62 -25 108 -43 186 -43c85 0 124 33 124 76c0 115 -336 70 -336 310c0 136 129 204 254 204c112 0 170 -23 221 -54l-49 -125c-52 23 -95 38 -167 38c-55 0 -93 -27 -93 -66
c0 -94 342 -84 342 -301c0 -155 -148 -222 -294 -222z" />
    <glyph glyph-name="Scircumflex" unicode="&#x15c;" horiz-adv-x="585" 
d="M180 741l-58 107l191 96l192 -96l-59 -107l-133 61zM263 -12c-116 0 -184 28 -237 57l49 126c62 -25 108 -43 186 -43c85 0 124 33 124 76c0 115 -336 70 -336 310c0 136 129 204 254 204c112 0 170 -23 221 -54l-49 -125c-52 23 -95 38 -167 38c-55 0 -93 -27 -93 -66
c0 -94 342 -84 342 -301c0 -155 -148 -222 -294 -222z" />
    <glyph glyph-name="Scommaaccent" unicode="&#x218;" horiz-adv-x="586" 
d="M358 -59l-45 -220h-116l21 220h140zM264 -12c-116 0 -184 28 -237 57l49 126c62 -25 108 -43 186 -43c85 0 124 33 124 76c0 115 -336 70 -336 310c0 136 129 204 254 204c112 0 170 -23 221 -54l-49 -125c-52 23 -95 38 -167 38c-55 0 -93 -27 -93 -66
c0 -94 342 -84 342 -301c0 -155 -148 -222 -294 -222z" />
    <glyph glyph-name="uni00530331" horiz-adv-x="586" 
d="M264 -12c-116 0 -184 28 -237 57l49 126c62 -25 108 -43 186 -43c85 0 124 33 124 76c0 115 -336 70 -336 310c0 136 129 204 254 204c112 0 170 -23 221 -54l-49 -125c-52 23 -95 38 -167 38c-55 0 -93 -27 -93 -66c0 -94 342 -84 342 -301c0 -155 -148 -222 -294 -222z
M123 -230v129h328v-129h-328z" />
    <glyph glyph-name="uni00530300" horiz-adv-x="585" 
d="M263 -12c-116 0 -184 28 -237 57l49 126c62 -25 108 -43 186 -43c85 0 124 33 124 76c0 115 -336 70 -336 310c0 136 129 204 254 204c112 0 170 -23 221 -54l-49 -125c-52 23 -95 38 -167 38c-55 0 -93 -27 -93 -66c0 -94 342 -84 342 -301c0 -155 -148 -222 -294 -222z
M407 744l-275 49l27 131l271 -67z" />
    <glyph glyph-name="uni1E60" unicode="&#x1e60;" horiz-adv-x="585" 
d="M263 -12c-116 0 -184 28 -237 57l49 126c62 -25 108 -43 186 -43c85 0 124 33 124 76c0 115 -336 70 -336 310c0 136 129 204 254 204c112 0 170 -23 221 -54l-49 -125c-52 23 -95 38 -167 38c-55 0 -93 -27 -93 -66c0 -94 342 -84 342 -301c0 -155 -148 -222 -294 -222z
M389 849l-94 -94l-94 94l94 94z" />
    <glyph glyph-name="uni00530306" horiz-adv-x="585" 
d="M280 752c-109 0 -171 63 -201 111l86 74c36 -34 76 -62 119 -62c42 0 80 27 114 62l81 -73c-32 -47 -95 -112 -199 -112zM263 -12c-116 0 -184 28 -237 57l49 126c62 -25 108 -43 186 -43c85 0 124 33 124 76c0 115 -336 70 -336 310c0 136 129 204 254 204
c112 0 170 -23 221 -54l-49 -125c-52 23 -95 38 -167 38c-55 0 -93 -27 -93 -66c0 -94 342 -84 342 -301c0 -155 -148 -222 -294 -222z" />
    <glyph glyph-name="uni1E62" unicode="&#x1e62;" horiz-adv-x="586" 
d="M298 -261l-112 112l112 111l111 -111zM264 -12c-116 0 -184 28 -237 57l49 126c62 -25 108 -43 186 -43c85 0 124 33 124 76c0 115 -336 70 -336 310c0 136 129 204 254 204c112 0 170 -23 221 -54l-49 -125c-52 23 -95 38 -167 38c-55 0 -93 -27 -93 -66
c0 -94 342 -84 342 -301c0 -155 -148 -222 -294 -222z" />
    <glyph glyph-name="Tbar" unicode="&#x166;" horiz-adv-x="634" 
d="M91 300v87h141v187h-222v133h614v-133h-222v-187h141v-87h-141v-300h-170v300h-141z" />
    <glyph glyph-name="Tcaron" unicode="&#x164;" horiz-adv-x="634" 
d="M508 837l-192 -97l-191 97l58 106l133 -60l133 60zM232 0v574h-222v133h614v-133h-222v-574h-170z" />
    <glyph glyph-name="Tcommaaccent" unicode="&#x162;" horiz-adv-x="636" 
d="M386 -59l-45 -220h-116l21 220h140zM233 0v574h-222v133h614v-133h-222v-574h-170z" />
    <glyph glyph-name="uni021A" unicode="&#x21a;" horiz-adv-x="636" 
d="M386 -59l-45 -220h-116l21 220h140zM233 0v574h-222v133h614v-133h-222v-574h-170z" />
    <glyph glyph-name="uni1E6E" unicode="&#x1e6e;" horiz-adv-x="636" 
d="M233 0v574h-222v133h614v-133h-222v-574h-170zM154 -230v129h328v-129h-328z" />
    <glyph glyph-name="uni1E6C" unicode="&#x1e6c;" horiz-adv-x="636" 
d="M233 0v574h-222v133h614v-133h-222v-574h-170zM318 -261l-112 112l112 111l111 -111z" />
    <glyph glyph-name="uni00540308" horiz-adv-x="634" 
d="M232 0v574h-222v133h614v-133h-222v-574h-170zM196 737l-99 100l99 100l100 -100zM440 737l-100 100l100 100l99 -100z" />
    <glyph glyph-name="uni1E6A" unicode="&#x1e6a;" horiz-adv-x="634" 
d="M232 0v574h-222v133h614v-133h-222v-574h-170zM411 849l-94 -94l-94 94l94 94z" />
    <glyph glyph-name="Uacute" unicode="&#xda;" horiz-adv-x="795" 
d="M317 744l-23 113l271 67l27 -131zM401 -13c-163 0 -329 72 -329 301v419h172v-413c0 -108 49 -168 157 -168c107 0 157 63 157 189v392h167v-395c0 -247 -166 -325 -324 -325z" />
    <glyph glyph-name="Ucircumflex" unicode="&#xdb;" horiz-adv-x="795" 
d="M270 741l-58 107l191 96l192 -96l-59 -107l-133 61zM401 -13c-163 0 -329 72 -329 301v419h172v-413c0 -108 49 -168 157 -168c107 0 157 63 157 189v392h167v-395c0 -247 -166 -325 -324 -325z" />
    <glyph glyph-name="Ugrave" unicode="&#xd9;" horiz-adv-x="795" 
d="M506 744l-275 49l27 131l271 -67zM401 -13c-163 0 -329 72 -329 301v419h172v-413c0 -108 49 -168 157 -168c107 0 157 63 157 189v392h167v-395c0 -247 -166 -325 -324 -325z" />
    <glyph glyph-name="Udieresis" unicode="&#xdc;" horiz-adv-x="795" 
d="M279 737l-99 100l99 100l100 -100zM523 737l-100 100l100 100l99 -100zM401 -13c-163 0 -329 72 -329 301v419h172v-413c0 -108 49 -168 157 -168c107 0 157 63 157 189v392h167v-395c0 -247 -166 -325 -324 -325z" />
    <glyph glyph-name="Ubreve" unicode="&#x16c;" horiz-adv-x="795" 
d="M397 753c-109 0 -171 63 -201 111l86 74c36 -34 76 -62 119 -62c42 0 80 27 114 62l81 -73c-32 -47 -95 -112 -199 -112zM401 -13c-163 0 -329 72 -329 301v419h172v-413c0 -108 49 -168 157 -168c107 0 157 63 157 189v392h167v-395c0 -247 -166 -325 -324 -325z" />
    <glyph glyph-name="Uhungarumlaut" unicode="&#x170;" horiz-adv-x="795" 
d="M438 889l-234 -154l-67 96l223 167zM736 787l-276 -49l-23 114l271 66zM401 -13c-163 0 -329 72 -329 301v419h172v-413c0 -108 49 -168 157 -168c107 0 157 63 157 189v392h167v-395c0 -247 -166 -325 -324 -325z" />
    <glyph glyph-name="Umacron" unicode="&#x16a;" horiz-adv-x="795" 
d="M236 764v129h328v-129h-328zM401 -13c-163 0 -329 72 -329 301v419h172v-413c0 -108 49 -168 157 -168c107 0 157 63 157 189v392h167v-395c0 -247 -166 -325 -324 -325z" />
    <glyph glyph-name="Uogonek" unicode="&#x172;" horiz-adv-x="800" 
d="M553 -230c-36 -21 -77 -31 -116 -31c-83 0 -159 45 -159 133c0 45 23 85 58 119c-139 18 -262 99 -262 297v419h172v-413c0 -108 49 -168 157 -168c107 0 157 63 157 189v392h167v-395c0 -189 -97 -279 -213 -311c-47 -28 -94 -66 -94 -106c0 -27 21 -42 40 -42
c24 0 44 6 65 17z" />
    <glyph glyph-name="Uring" unicode="&#x16e;" horiz-adv-x="795" 
d="M402 714c-63 0 -135 24 -135 113c0 84 67 121 132 121c52 0 134 -25 134 -119c0 -81 -63 -115 -131 -115zM400 778c35 0 52 19 55 50c0 31 -24 51 -55 51c-39 0 -55 -17 -55 -49s20 -52 55 -52zM401 -13c-163 0 -329 72 -329 301v419h172v-413c0 -108 49 -168 157 -168
c107 0 157 63 157 189v392h167v-395c0 -247 -166 -325 -324 -325z" />
    <glyph glyph-name="Utilde" unicode="&#x168;" horiz-adv-x="795" 
d="M445 755c-51 0 -89 38 -128 38c-19 0 -40 -2 -70 -28l-63 74c24 29 77 82 144 82c63 0 89 -38 123 -38c32 0 51 7 87 26l55 -74c-23 -25 -73 -80 -148 -80zM401 -13c-163 0 -329 72 -329 301v419h172v-413c0 -108 49 -168 157 -168c107 0 157 63 157 189v392h167v-395
c0 -247 -166 -325 -324 -325z" />
    <glyph glyph-name="Uhorn" unicode="&#x1af;" horiz-adv-x="840" 
d="M697 834h140c8 -19 12 -52 12 -70c0 -90 -57 -150 -125 -172v-280c0 -247 -166 -325 -324 -325c-163 0 -329 72 -329 301v419h172v-413c0 -108 49 -168 157 -168c107 0 157 63 157 189v392h109c39 14 39 47 39 77c0 16 -3 33 -8 50z" />
    <glyph glyph-name="uni1EE6" unicode="&#x1ee6;" horiz-adv-x="795" 
d="M401 -13c-163 0 -329 72 -329 301v419h172v-413c0 -108 49 -168 157 -168c107 0 157 63 157 189v392h167v-395c0 -247 -166 -325 -324 -325zM303 1001c15 6 47 13 73 13c73 0 135 -51 135 -129c0 -80 -60 -123 -118 -146l-59 76c32 9 59 27 59 57c0 25 -22 33 -45 33
c-12 0 -24 -2 -32 -5z" />
    <glyph glyph-name="uni1EE4" unicode="&#x1ee4;" horiz-adv-x="795" 
d="M401 -13c-163 0 -329 72 -329 301v419h172v-413c0 -108 49 -168 157 -168c107 0 157 63 157 189v392h167v-395c0 -247 -166 -325 -324 -325zM508 -149l-111 -112l-112 112l112 111z" />
    <glyph glyph-name="uni1EEA" unicode="&#x1eea;" horiz-adv-x="840" 
d="M697 834h140c8 -19 12 -52 12 -70c0 -90 -57 -150 -125 -172v-280c0 -247 -166 -325 -324 -325c-163 0 -329 72 -329 301v419h172v-413c0 -108 49 -168 157 -168c107 0 157 63 157 189v392h109c39 14 39 47 39 77c0 16 -3 33 -8 50zM506 744l-275 49l27 131l271 -67z" />
    <glyph glyph-name="uni1EE8" unicode="&#x1ee8;" horiz-adv-x="840" 
d="M697 834h140c8 -19 12 -52 12 -70c0 -90 -57 -150 -125 -172v-280c0 -247 -166 -325 -324 -325c-163 0 -329 72 -329 301v419h172v-413c0 -108 49 -168 157 -168c107 0 157 63 157 189v392h109c39 14 39 47 39 77c0 16 -3 33 -8 50zM312 744l-23 113l271 67l27 -131z" />
    <glyph glyph-name="uni1EEE" unicode="&#x1eee;" horiz-adv-x="840" 
d="M697 834h140c8 -19 12 -52 12 -70c0 -90 -57 -150 -125 -172v-280c0 -247 -166 -325 -324 -325c-163 0 -329 72 -329 301v419h172v-413c0 -108 49 -168 157 -168c107 0 157 63 157 189v392h109c39 14 39 47 39 77c0 16 -3 33 -8 50zM458 755c-51 0 -89 38 -128 38
c-19 0 -40 -2 -70 -28l-63 74c24 29 77 82 144 82c63 0 89 -38 123 -38c32 0 51 7 87 26l55 -74c-23 -25 -73 -80 -148 -80z" />
    <glyph glyph-name="uni1EEC" unicode="&#x1eec;" horiz-adv-x="840" 
d="M697 834h140c8 -19 12 -52 12 -70c0 -90 -57 -150 -125 -172v-280c0 -247 -166 -325 -324 -325c-163 0 -329 72 -329 301v419h172v-413c0 -108 49 -168 157 -168c107 0 157 63 157 189v392h109c39 14 39 47 39 77c0 16 -3 33 -8 50zM302 1001c15 6 47 13 73 13
c73 0 135 -51 135 -129c0 -80 -60 -123 -118 -146l-59 76c32 9 59 27 59 57c0 25 -22 33 -45 33c-12 0 -24 -2 -32 -5z" />
    <glyph glyph-name="uni1EF0" unicode="&#x1ef0;" horiz-adv-x="840" 
d="M698 834h140c8 -19 12 -52 12 -70c0 -90 -57 -150 -125 -172v-280c0 -247 -166 -325 -324 -325c-163 0 -329 72 -329 301v419h172v-413c0 -108 49 -168 157 -168c107 0 157 63 157 189v392h109c39 14 39 47 39 77c0 16 -3 33 -8 50zM520 -149l-111 -112l-112 112l112 111
z" />
    <glyph glyph-name="uni01D3" unicode="&#x1d3;" horiz-adv-x="795" 
d="M594 837l-192 -97l-191 97l58 106l133 -60l133 60zM401 -13c-163 0 -329 72 -329 301v419h172v-413c0 -108 49 -168 157 -168c107 0 157 63 157 189v392h167v-395c0 -247 -166 -325 -324 -325z" />
    <glyph glyph-name="uni01D5" unicode="&#x1d5;" horiz-adv-x="795" 
d="M279 727l-99 100l99 100l100 -100zM523 727l-100 100l100 100l99 -100zM401 -13c-163 0 -329 72 -329 301v419h172v-413c0 -108 49 -168 157 -168c107 0 157 63 157 189v392h167v-395c0 -247 -166 -325 -324 -325zM234 945v129h328v-129h-328z" />
    <glyph glyph-name="uni01D7" unicode="&#x1d7;" horiz-adv-x="795" 
d="M279 727l-99 100l99 100l100 -100zM523 727l-100 100l100 100l99 -100zM401 -13c-163 0 -329 72 -329 301v419h172v-413c0 -108 49 -168 157 -168c107 0 157 63 157 189v392h167v-395c0 -247 -166 -325 -324 -325zM340 911l-23 113l271 67l27 -131z" />
    <glyph glyph-name="uni01D9" unicode="&#x1d9;" horiz-adv-x="795" 
d="M279 727l-99 100l99 100l100 -100zM523 727l-100 100l100 100l99 -100zM401 -13c-163 0 -329 72 -329 301v419h172v-413c0 -108 49 -168 157 -168c107 0 157 63 157 189v392h167v-395c0 -247 -166 -325 -324 -325zM592 1000l-192 -97l-191 97l58 106l133 -60l133 60z" />
    <glyph glyph-name="uni01DB" unicode="&#x1db;" horiz-adv-x="795" 
d="M279 727l-99 100l99 100l100 -100zM523 727l-100 100l100 100l99 -100zM401 -13c-163 0 -329 72 -329 301v419h172v-413c0 -108 49 -168 157 -168c107 0 157 63 157 189v392h167v-395c0 -247 -166 -325 -324 -325zM442 920l-275 49l27 131l271 -67z" />
    <glyph glyph-name="uni1E7E" unicode="&#x1e7e;" horiz-adv-x="724" 
d="M244 0l-241 707h179l175 -580l208 580h173l-275 -707h-219zM357 -261l-112 112l112 111l111 -111z" />
    <glyph glyph-name="uni1E7C" unicode="&#x1e7c;" horiz-adv-x="722" 
d="M243 0l-241 707h179l175 -580l208 580h173l-275 -707h-219zM426 755c-51 0 -89 38 -128 38c-19 0 -40 -2 -70 -28l-63 74c24 29 77 82 144 82c63 0 89 -38 123 -38c32 0 51 7 87 26l55 -74c-23 -25 -73 -80 -148 -80z" />
    <glyph glyph-name="uni00560304" horiz-adv-x="722" 
d="M191 764v129h328v-129h-328zM243 0l-241 707h179l175 -580l208 580h173l-275 -707h-219z" />
    <glyph glyph-name="Wacute" unicode="&#x1e82;" horiz-adv-x="1068" 
d="M416 744l-23 113l271 67l27 -131zM180 0l-152 707h165l110 -599l164 427l-60 172h169l185 -593l138 593h162l-194 -707h-214l-122 362l-132 -362h-219z" />
    <glyph glyph-name="Wcircumflex" unicode="&#x174;" horiz-adv-x="1068" 
d="M399 741l-58 107l191 96l192 -96l-59 -107l-133 61zM180 0l-152 707h165l110 -599l164 427l-60 172h169l185 -593l138 593h162l-194 -707h-214l-122 362l-132 -362h-219z" />
    <glyph glyph-name="Wdieresis" unicode="&#x1e84;" horiz-adv-x="1068" 
d="M407 737l-99 100l99 100l100 -100zM651 737l-100 100l100 100l99 -100zM180 0l-152 707h165l110 -599l164 427l-60 172h169l185 -593l138 593h162l-194 -707h-214l-122 362l-132 -362h-219z" />
    <glyph glyph-name="Wgrave" unicode="&#x1e80;" horiz-adv-x="1068" 
d="M618 744l-275 49l27 131l271 -67zM180 0l-152 707h165l110 -599l164 427l-60 172h169l185 -593l138 593h162l-194 -707h-214l-122 362l-132 -362h-219z" />
    <glyph glyph-name="uni1E86" unicode="&#x1e86;" horiz-adv-x="1068" 
d="M180 0l-152 707h165l110 -599l164 427l-60 172h169l185 -593l138 593h162l-194 -707h-214l-122 362l-132 -362h-219zM648 849l-94 -94l-94 94l94 94z" />
    <glyph glyph-name="uni1E88" unicode="&#x1e88;" horiz-adv-x="1070" 
d="M182 0l-152 707h165l110 -599l164 427l-60 172h169l185 -593l138 593h162l-194 -707h-214l-122 362l-132 -362h-219zM525 -261l-112 112l112 111l111 -111z" />
    <glyph glyph-name="uni1E8A" unicode="&#x1e8a;" horiz-adv-x="688" 
d="M-3 0l253 362l-225 345h195l128 -217l138 217h190l-238 -342l238 -365h-196l-141 238l-152 -238h-190zM442 849l-94 -94l-94 94l94 94z" />
    <glyph glyph-name="uni00580304" horiz-adv-x="688" 
d="M167 764v129h328v-129h-328zM-3 0l253 362l-225 345h195l128 -217l138 217h190l-238 -342l238 -365h-196l-141 238l-152 -238h-190z" />
    <glyph glyph-name="Ydieresis" unicode="&#x178;" horiz-adv-x="698" 
d="M228 737l-99 100l99 100l100 -100zM472 737l-100 100l100 100l99 -100zM262 0v227l-261 480h196l156 -337l166 337h191l-278 -474v-233h-170z" />
    <glyph glyph-name="Ycircumflex" unicode="&#x176;" horiz-adv-x="698" 
d="M222 741l-58 107l191 96l192 -96l-59 -107l-133 61zM262 0v227l-261 480h196l156 -337l166 337h191l-278 -474v-233h-170z" />
    <glyph glyph-name="Ygrave" unicode="&#x1ef2;" horiz-adv-x="698" 
d="M451 744l-275 49l27 131l271 -67zM262 0v227l-261 480h196l156 -337l166 337h191l-278 -474v-233h-170z" />
    <glyph glyph-name="Yacute" unicode="&#xdd;" horiz-adv-x="698" 
d="M274 744l-23 113l271 67l27 -131zM262 0v227l-261 480h196l156 -337l166 337h191l-278 -474v-233h-170z" />
    <glyph glyph-name="uni0232" unicode="&#x232;" horiz-adv-x="698" 
d="M188 764v129h328v-129h-328zM262 0v227l-261 480h196l156 -337l166 337h191l-278 -474v-233h-170z" />
    <glyph glyph-name="uni1E8E" unicode="&#x1e8e;" horiz-adv-x="698" 
d="M262 0v227l-261 480h196l156 -337l166 337h191l-278 -474v-233h-170zM447 849l-94 -94l-94 94l94 94z" />
    <glyph glyph-name="uni1EF8" unicode="&#x1ef8;" horiz-adv-x="698" 
d="M262 0v227l-261 480h196l156 -337l166 337h191l-278 -474v-233h-170zM411 755c-51 0 -89 38 -128 38c-19 0 -40 -2 -70 -28l-63 74c24 29 77 82 144 82c63 0 89 -38 123 -38c32 0 51 7 87 26l55 -74c-23 -25 -73 -80 -148 -80z" />
    <glyph glyph-name="uni1EF6" unicode="&#x1ef6;" horiz-adv-x="698" 
d="M262 0v227l-261 480h196l156 -337l166 337h191l-278 -474v-233h-170zM245 1001c15 6 47 13 73 13c73 0 135 -51 135 -129c0 -80 -60 -123 -118 -146l-59 76c32 9 59 27 59 57c0 25 -22 33 -45 33c-12 0 -24 -2 -32 -5z" />
    <glyph glyph-name="uni1EF4" unicode="&#x1ef4;" horiz-adv-x="700" 
d="M263 0v227l-261 480h196l156 -337l166 337h191l-278 -474v-233h-170zM460 -149l-111 -112l-112 112l112 111z" />
    <glyph glyph-name="Zacute" unicode="&#x179;" horiz-adv-x="624" 
d="M219 744l-23 113l271 67l27 -131zM33 0v114l325 452h-299v141h508v-108l-329 -458h350v-141h-555z" />
    <glyph glyph-name="Zcaron" unicode="&#x17d;" horiz-adv-x="624" 
d="M498 837l-192 -97l-191 97l58 106l133 -60l133 60zM33 0v114l325 452h-299v141h508v-108l-329 -458h350v-141h-555z" />
    <glyph glyph-name="Zdotaccent" unicode="&#x17b;" horiz-adv-x="624" 
d="M410 849l-94 -94l-94 94l94 94zM33 0v114l325 452h-299v141h508v-108l-329 -458h350v-141h-555z" />
    <glyph glyph-name="uni1E94" unicode="&#x1e94;" horiz-adv-x="622" 
d="M32 0v114l325 452h-299v141h508v-108l-329 -458h350v-141h-555zM147 -230v129h328v-129h-328z" />
    <glyph glyph-name="uni1E92" unicode="&#x1e92;" horiz-adv-x="622" 
d="M32 0v114l325 452h-299v141h508v-108l-329 -458h350v-141h-555zM313 -261l-112 112l112 111l111 -111z" />
    <glyph glyph-name="uni005A0324" horiz-adv-x="622" 
d="M32 0v114l325 452h-299v141h508v-108l-329 -458h350v-141h-555zM187 -244l-93 94l93 94l94 -94zM431 -244l-94 94l94 94l93 -94z" />
    <glyph glyph-name="uni018F" unicode="&#x18f;" horiz-adv-x="788" 
d="M382 -12c-242 0 -345 133 -350 350v74h540c-16 102 -86 172 -207 172c-85 0 -145 -12 -228 -57l-66 110c104 66 203 81 318 81c237 -1 360 -154 360 -365c0 -225 -125 -365 -367 -365zM385 122c132 0 172 72 187 174h-364c16 -100 56 -174 177 -174z" />
    <glyph glyph-name="Thorn" unicode="&#xde;" horiz-adv-x="651" 
d="M83 0v707h171v-98h104c159 0 273 -93 273 -251c0 -139 -114 -256 -325 -256h-52v-102h-171zM254 476v-243h58c106 0 144 55 144 121c0 71 -29 122 -120 122h-82z" />
    <glyph glyph-name="Eth" unicode="&#xd0;" horiz-adv-x="817" 
d="M39 299v100h74v308h253c245 0 413 -105 413 -351c0 -245 -152 -356 -407 -356h-259v299h-74zM282 133h101c163 0 226 74 226 213c0 152 -76 228 -246 228h-81v-175h131v-100h-131v-166z" />
    <glyph glyph-name="uni01C4" unicode="&#x1c4;" horiz-adv-x="1411" 
d="M83 0v707h253c245 0 413 -105 413 -351c0 -245 -152 -356 -407 -356h-259zM252 133h101c163 0 226 74 226 213c0 152 -76 228 -246 228h-81v-441zM1295 837l-192 -97l-191 97l58 106l133 -60l133 60zM820 0v114l325 452h-299v141h508v-108l-329 -458h350v-141h-555z" />
    <glyph glyph-name="uni01C5" unicode="&#x1c5;" horiz-adv-x="1304" 
d="M62 0v707h253c245 0 413 -105 413 -351c0 -245 -152 -356 -407 -356h-259zM231 133h101c163 0 226 74 226 213c0 152 -76 228 -246 228h-81v-441zM809 0v109l256 303h-240v134h436v-106l-250 -308h254v-132h-456zM1045 599l-196 131l68 92l129 -90l128 89l73 -92z" />
    <glyph glyph-name="uni01C7" unicode="&#x1c7;" horiz-adv-x="908" 
d="M83 0v707h170v-573h307v-134h-477zM572 -198l-61 122c119 66 145 109 145 227v556h171v-554c0 -142 -21 -275 -255 -351z" />
    <glyph glyph-name="uni01CA" unicode="&#x1ca;" horiz-adv-x="1131" 
d="M83 0v707h197l275 -485h3l-5 79v406h170v-707h-203l-267 473h-4l4 -94v-379h-170zM795 -198l-61 122c119 66 145 109 145 227v556h171v-554c0 -142 -21 -275 -255 -351z" />
    <glyph glyph-name="uni01F1" unicode="&#x1f1;" horiz-adv-x="1411" 
d="M83 0v707h253c245 0 413 -105 413 -351c0 -245 -152 -356 -407 -356h-259zM252 133h101c163 0 226 74 226 213c0 152 -76 228 -246 228h-81v-441zM820 0v114l325 452h-299v141h508v-108l-329 -458h350v-141h-555z" />
    <glyph glyph-name="uni01F2" unicode="&#x1f2;" horiz-adv-x="1304" 
d="M62 0v707h253c245 0 413 -105 413 -351c0 -245 -152 -356 -407 -356h-259zM231 133h101c163 0 226 74 226 213c0 152 -76 228 -246 228h-81v-441zM809 0v109l256 303h-240v134h436v-106l-250 -308h254v-132h-456z" />
    <glyph glyph-name="uni01C8" unicode="&#x1c8;" horiz-adv-x="859" 
d="M62 0v707h170v-573h307v-134h-477zM571 -225c-39 0 -93 12 -128 28l31 129c28 -10 60 -16 91 -16c43 0 61 19 61 87v543h166v-544c0 -190 -105 -227 -221 -227zM707 604l-111 112l111 111l112 -111z" />
    <glyph glyph-name="uni01CB" unicode="&#x1cb;" horiz-adv-x="1082" 
d="M62 0v707h197l275 -485h3l-5 79v406h170v-707h-203l-267 473h-4l4 -94v-379h-170zM794 -225c-39 0 -93 12 -128 28l31 129c28 -10 60 -16 91 -16c43 0 61 19 61 87v543h166v-544c0 -190 -105 -227 -221 -227zM930 604l-111 112l111 111l112 -111z" />
    <glyph glyph-name="uni021C" unicode="&#x21c;" horiz-adv-x="563" 
d="M159 401l146 165h-261v141h456v-108l-182 -199c110 -18 204 -75 204 -195c0 -163 -144 -217 -283 -217c-129 0 -204 28 -204 28l30 134c43 -11 110 -22 171 -22c80 0 117 22 117 79c0 74 -59 86 -132 89c-13 1 -27 1 -41 1z" />
    <glyph glyph-name="uni01EE" unicode="&#x1ee;" horiz-adv-x="563" 
d="M159 401l146 165h-261v141h456v-108l-182 -199c110 -18 204 -75 204 -195c0 -163 -144 -217 -283 -217c-129 0 -204 28 -204 28l30 134c43 -11 110 -22 171 -22c80 0 117 22 117 79c0 74 -59 86 -132 89c-13 1 -27 1 -41 1zM466 837l-192 -97l-191 97l58 106l133 -60
l133 60z" />
    <glyph glyph-name="uni018E" unicode="&#x18e;" horiz-adv-x="597" 
d="M514 707v-707h-465v133h295v160h-252v124h252v157h-294v133h464z" />
    <glyph glyph-name="AE" unicode="&#xc6;" horiz-adv-x="977" 
d="M-24 0l332 707h605v-133h-294v-157h272v-124h-272v-160h317v-133h-487v244h-179l-102 -244h-192zM321 368h128v206h-42z" />
    <glyph glyph-name="AEacute" unicode="&#x1fc;" horiz-adv-x="977" 
d="M471 744l-23 113l271 67l27 -131zM-24 0l332 707h605v-133h-294v-157h272v-124h-272v-160h317v-133h-487v244h-179l-102 -244h-192zM321 368h128v206h-42z" />
    <glyph glyph-name="uni01E2" unicode="&#x1e2;" horiz-adv-x="977" 
d="M420 764v129h328v-129h-328zM-24 0l332 707h605v-133h-294v-157h272v-124h-272v-160h317v-133h-487v244h-179l-102 -244h-192zM321 368h128v206h-42z" />
    <glyph glyph-name="OE" unicode="&#x152;" horiz-adv-x="1108" 
d="M409 -12c-248 0 -370 140 -370 367c0 239 148 363 389 363c65 0 115 -9 152 -27v16h464v-133h-294v-157h272v-124h-272v-160h317v-133h-487v21c-41 -22 -97 -33 -171 -33zM412 122c81 0 135 27 168 72v318c-33 45 -86 72 -161 72c-150 0 -208 -98 -208 -228
c0 -129 57 -234 201 -234z" />
    <glyph glyph-name="IJ" unicode="&#x132;" horiz-adv-x="650" 
d="M83 0v707h170v-707h-170zM314 -198l-61 122c119 66 145 109 145 227v556h171v-554c0 -142 -21 -275 -255 -351z" />
    <glyph glyph-name="Iacute_Jacute" horiz-adv-x="650" 
d="M83 0v707h170v-707h-170zM314 -198l-61 122c119 66 145 109 145 227v556h171v-554c0 -142 -21 -275 -255 -351zM84 744l-23 113l271 67l27 -131zM403 744l-23 113l271 67l27 -131z" />
    <glyph glyph-name="a" unicode="a" horiz-adv-x="594" 
d="M215 -9c-120 0 -188 56 -188 165c0 138 126 166 234 166h95v34c0 48 -31 62 -99 62c-54 0 -112 -10 -163 -24l-33 121c62 24 134 44 221 44c169 0 237 -48 237 -171v-243c0 -18 18 -22 49 -23l-6 -126c-13 -1 -26 -1 -39 -1c-66 0 -136 11 -151 58
c-40 -31 -97 -62 -157 -62zM250 120c32 0 70 7 106 19v86l-82 -2c-49 -1 -85 -17 -85 -57c0 -32 31 -46 61 -46z" />
    <glyph glyph-name="b" unicode="b" horiz-adv-x="635" 
d="M295 -11c-113 0 -172 16 -233 36v729h166v-217c32 13 68 22 111 22c164 0 262 -65 262 -257c0 -236 -148 -313 -306 -313zM309 435c-30 0 -57 -5 -81 -13v-292c19 -4 43 -11 70 -11c85 0 133 80 133 182c0 103 -33 134 -122 134z" />
    <glyph glyph-name="c" unicode="c" horiz-adv-x="531" 
d="M351 -11c-231 0 -318 85 -318 289c0 170 114 282 299 282c80 0 131 -15 174 -38l-43 -121c-44 17 -68 23 -124 23c-69 0 -135 -31 -135 -148c0 -105 25 -154 156 -154c46 0 71 6 116 14l23 -127c-59 -13 -87 -20 -148 -20z" />
    <glyph glyph-name="d" unicode="d" horiz-adv-x="637" 
d="M279 -8c-110 0 -245 53 -245 290c0 187 131 278 297 278c30 0 55 -4 72 -6v200h167v-754h-167v39c-24 -19 -55 -47 -124 -47zM312 130c30 0 66 8 91 18v273c-17 3 -39 7 -69 7c-95 0 -134 -54 -134 -149c0 -119 53 -149 112 -149z" />
    <glyph glyph-name="e" unicode="e" horiz-adv-x="587" 
d="M331 -12c-180 0 -296 59 -296 277c0 223 115 294 280 294c172 0 240 -112 240 -277v-60h-354c-1 -86 67 -102 154 -102c37 0 99 9 156 22l25 -123c-61 -20 -139 -31 -205 -31zM206 329h178c2 66 -27 112 -81 112c-57 0 -94 -40 -97 -112z" />
    <glyph glyph-name="f" unicode="f" horiz-adv-x="401" 
d="M104 -150v581h-80v115h80v20c0 169 103 204 217 204c40 0 65 -5 98 -15l-26 -124c-20 5 -46 8 -66 8c-41 0 -56 -31 -56 -74v-19h117v-115h-117v-581h-167z" />
    <glyph glyph-name="f.alt" horiz-adv-x="401" 
d="M104 0v431h-80v115h80v20c0 169 103 204 217 204c40 0 65 -5 98 -15l-26 -124c-20 5 -46 8 -66 8c-41 0 -56 -31 -56 -74v-19h117v-115h-117v-431h-167z" />
    <glyph glyph-name="g" unicode="g" horiz-adv-x="633" 
d="M297 -230c-85 0 -163 10 -226 33l26 140c67 -20 138 -28 178 -28c80 0 128 17 128 96v7c-22 -12 -52 -23 -92 -23c-157 0 -278 46 -278 275c0 187 138 290 303 290c81 0 148 -8 233 -28v-537c0 -160 -152 -225 -272 -225zM323 118c28 0 52 1 79 9v286
c-18 5 -39 10 -67 10c-95 0 -136 -59 -136 -153c0 -118 50 -152 124 -152z" />
    <glyph glyph-name="g.alt" horiz-adv-x="605" 
d="M274 191c-31 0 -62 2 -90 8c-10 -12 -15 -25 -15 -35c0 -17 14 -30 43 -30h103c150 0 228 -46 228 -161c0 -112 -89 -203 -274 -203c-161 0 -238 49 -238 140c0 34 19 85 61 113c-29 20 -43 49 -43 81c0 41 23 86 66 118c-45 25 -76 68 -76 140c0 108 91 197 231 197
c70 0 118 -19 138 -29l175 13v-117h-83c2 -11 6 -47 6 -59c0 -112 -110 -176 -232 -176zM329 0h-144c-9 0 -18 0 -26 1c-8 -14 -12 -29 -12 -43c0 -36 32 -65 117 -65c90 0 146 22 146 58c0 38 -37 49 -81 49zM273 289c52 0 85 37 85 80c0 44 -30 83 -83 83
c-60 0 -89 -36 -89 -88c0 -44 29 -75 87 -75z" />
    <glyph glyph-name="h" unicode="h" horiz-adv-x="657" 
d="M67 0v754h167v-266c36 29 105 71 178 71c171 0 183 -95 183 -219v-340h-166v326c0 75 -17 88 -73 88c-50 0 -95 -17 -122 -30v-384h-167z" />
    <glyph glyph-name="i" unicode="i" horiz-adv-x="301" 
d="M67 0v546h167v-546h-167zM149 604l-111 112l111 111l112 -111z" />
    <glyph glyph-name="j" unicode="j" horiz-adv-x="300" 
d="M12 -225c-39 0 -93 12 -128 28l31 129c28 -10 60 -16 91 -16c43 0 61 19 61 87v543h166v-544c0 -190 -105 -227 -221 -227zM148 604l-111 112l111 111l112 -111z" />
    <glyph glyph-name="k" unicode="k" horiz-adv-x="598" 
d="M67 0v754h167v-413l151 205h179l-199 -252l78 -89c38 -43 70 -73 139 -91l-19 -126c-87 4 -161 14 -232 107l-97 128v-223h-167z" />
    <glyph glyph-name="l" unicode="l" horiz-adv-x="301" 
d="M67 0v754h167v-754h-167z" />
    <glyph glyph-name="m" unicode="m" horiz-adv-x="989" 
d="M67 0v546h167v-55c46 35 112 70 177 70c78 0 131 -32 153 -83c42 38 117 83 188 83c178 0 175 -127 175 -219v-342h-167v328c0 67 -17 88 -69 88c-36 0 -82 -15 -113 -31c2 -14 2 -28 2 -42v-343h-166v328c0 75 -18 86 -68 86c-37 0 -82 -11 -112 -27v-387h-167z" />
    <glyph glyph-name="n" unicode="n" horiz-adv-x="657" 
d="M67 0v546h167v-55c33 25 105 69 178 69c171 0 183 -94 183 -218v-342h-166v328c0 75 -17 88 -73 88c-50 0 -95 -16 -122 -29v-387h-167z" />
    <glyph glyph-name="o" unicode="o" horiz-adv-x="632" 
d="M309 -12c-180 0 -277 109 -277 280c0 181 113 292 286 292c194 0 281 -109 281 -287c0 -186 -122 -285 -290 -285zM317 121c90 0 112 59 112 152c0 88 -22 155 -114 155c-90 0 -115 -67 -115 -156c0 -94 28 -151 117 -151z" />
    <glyph glyph-name="p" unicode="p" horiz-adv-x="640" 
d="M67 -220v766h166v-39c22 19 82 53 132 53c150 0 241 -69 241 -262c0 -228 -147 -308 -306 -308c-25 0 -47 3 -67 4v-214h-166zM304 117c85 0 134 74 134 176c0 98 -39 127 -123 127c-28 0 -61 -8 -82 -15v-282c16 -2 44 -6 71 -6z" />
    <glyph glyph-name="q" unicode="q" horiz-adv-x="635" 
d="M403 -220v240c-23 -14 -55 -28 -105 -28c-117 0 -264 41 -264 288c0 187 131 280 297 280c113 0 159 -8 239 -29v-751h-167zM312 131c30 0 69 7 91 13v277c-17 3 -39 7 -69 7c-95 0 -134 -56 -134 -151c0 -119 53 -146 112 -146z" />
    <glyph glyph-name="r" unicode="r" horiz-adv-x="452" 
d="M67 0v546h167v-73c27 35 78 84 141 84c30 0 52 -2 75 -9l-22 -137c-32 6 -43 6 -73 6c-49 0 -99 -23 -121 -47v-370h-167z" />
    <glyph glyph-name="s" unicode="s" horiz-adv-x="503" 
d="M234 -12c-79 0 -143 7 -199 23l18 126c71 -10 128 -15 165 -15c75 0 94 16 94 38c0 59 -275 31 -275 227c0 118 111 173 230 173c67 0 127 -11 184 -31l-28 -121c-53 12 -95 20 -151 20c-46 0 -68 -13 -68 -33c0 -62 273 -45 273 -228c0 -144 -151 -179 -243 -179z" />
    <glyph glyph-name="t" unicode="t" horiz-adv-x="485" 
d="M303 -13c-131 0 -205 45 -205 183v253h-80v123h80v112h166v-112h169v-123h-169v-243c0 -40 15 -53 60 -53c37 0 78 7 118 16l16 -131c-42 -15 -115 -25 -155 -25z" />
    <glyph glyph-name="u" unicode="u" horiz-adv-x="657" 
d="M245 -12c-171 0 -183 95 -183 219v339h166v-325c0 -75 17 -88 73 -88c50 0 95 14 122 27v386h167v-546h-167v56c-33 -25 -105 -68 -178 -68z" />
    <glyph glyph-name="v" unicode="v" horiz-adv-x="599" 
d="M196 0l-197 546h179l92 -296l28 -109l31 109l102 296h175l-212 -546h-198z" />
    <glyph glyph-name="w" unicode="w" horiz-adv-x="913" 
d="M158 0l-140 546h175l70 -410l100 410h197l85 -410l90 410h171l-162 -546h-205l-64 298l-18 91l-21 -91l-71 -298h-207z" />
    <glyph glyph-name="x" unicode="x" horiz-adv-x="602" 
d="M4 0l202 279l-187 267h192l89 -166l92 166h189l-187 -267l204 -279h-199l-99 178l-100 -178h-196z" />
    <glyph glyph-name="y" unicode="y" horiz-adv-x="597" 
d="M173 -220l74 220h-60l-188 546h179l94 -324l23 -89l27 89l109 324h168l-267 -766h-159z" />
    <glyph glyph-name="z" unicode="z" horiz-adv-x="529" 
d="M34 0v109l256 303h-240v134h436v-106l-250 -308h254v-132h-456z" />
    <glyph glyph-name="aacute" unicode="&#xe1;" horiz-adv-x="594" 
d="M213 602l-47 100l238 121l54 -117zM215 -9c-120 0 -188 56 -188 165c0 138 126 166 234 166h95v34c0 48 -31 62 -99 62c-54 0 -112 -10 -163 -24l-33 121c62 24 134 44 221 44c169 0 237 -48 237 -171v-243c0 -18 18 -22 49 -23l-6 -126c-13 -1 -26 -1 -39 -1
c-66 0 -136 11 -151 58c-40 -31 -97 -62 -157 -62zM250 120c32 0 70 7 106 19v86l-82 -2c-49 -1 -85 -17 -85 -57c0 -32 31 -46 61 -46z" />
    <glyph glyph-name="agrave" unicode="&#xe0;" horiz-adv-x="594" 
d="M361 602l-244 104l54 117l238 -121zM215 -9c-120 0 -188 56 -188 165c0 138 126 166 234 166h95v34c0 48 -31 62 -99 62c-54 0 -112 -10 -163 -24l-33 121c62 24 134 44 221 44c169 0 237 -48 237 -171v-243c0 -18 18 -22 49 -23l-6 -126c-13 -1 -26 -1 -39 -1
c-66 0 -136 11 -151 58c-40 -31 -97 -62 -157 -62zM250 120c32 0 70 7 106 19v86l-82 -2c-49 -1 -85 -17 -85 -57c0 -32 31 -46 61 -46z" />
    <glyph glyph-name="acircumflex" unicode="&#xe2;" horiz-adv-x="594" 
d="M415 606l-129 90l-128 -89l-73 92l202 130l196 -131zM215 -9c-120 0 -188 56 -188 165c0 138 126 166 234 166h95v34c0 48 -31 62 -99 62c-54 0 -112 -10 -163 -24l-33 121c62 24 134 44 221 44c169 0 237 -48 237 -171v-243c0 -18 18 -22 49 -23l-6 -126
c-13 -1 -26 -1 -39 -1c-66 0 -136 11 -151 58c-40 -31 -97 -62 -157 -62zM250 120c32 0 70 7 106 19v86l-82 -2c-49 -1 -85 -17 -85 -57c0 -32 31 -46 61 -46z" />
    <glyph glyph-name="adieresis" unicode="&#xe4;" horiz-adv-x="594" 
d="M169 622l-93 94l93 94l94 -94zM413 622l-94 94l94 94l93 -94zM215 -9c-120 0 -188 56 -188 165c0 138 126 166 234 166h95v34c0 48 -31 62 -99 62c-54 0 -112 -10 -163 -24l-33 121c62 24 134 44 221 44c169 0 237 -48 237 -171v-243c0 -18 18 -22 49 -23l-6 -126
c-13 -1 -26 -1 -39 -1c-66 0 -136 11 -151 58c-40 -31 -97 -62 -157 -62zM250 120c32 0 70 7 106 19v86l-82 -2c-49 -1 -85 -17 -85 -57c0 -32 31 -46 61 -46z" />
    <glyph glyph-name="atilde" unicode="&#xe3;" horiz-adv-x="594" 
d="M338 634c-51 0 -89 38 -128 38c-19 0 -40 -2 -70 -28l-63 74c24 29 77 82 144 82c63 0 89 -38 123 -38c32 0 51 7 87 26l55 -74c-23 -25 -73 -80 -148 -80zM215 -9c-120 0 -188 56 -188 165c0 138 126 166 234 166h95v34c0 48 -31 62 -99 62c-54 0 -112 -10 -163 -24
l-33 121c62 24 134 44 221 44c169 0 237 -48 237 -171v-243c0 -18 18 -22 49 -23l-6 -126c-13 -1 -26 -1 -39 -1c-66 0 -136 11 -151 58c-40 -31 -97 -62 -157 -62zM250 120c32 0 70 7 106 19v86l-82 -2c-49 -1 -85 -17 -85 -57c0 -32 31 -46 61 -46z" />
    <glyph glyph-name="aring" unicode="&#xe5;" horiz-adv-x="594" 
d="M294 586c-70 0 -150 27 -150 126c0 93 75 134 147 134c58 0 149 -28 149 -132c0 -90 -70 -128 -146 -128zM292 657c39 0 58 21 61 56c0 34 -26 56 -61 56c-43 0 -61 -19 -61 -54c0 -36 22 -58 61 -58zM215 -9c-120 0 -188 56 -188 165c0 138 126 166 234 166h95v34
c0 48 -31 62 -99 62c-54 0 -112 -10 -163 -24l-33 121c62 24 134 44 221 44c169 0 237 -48 237 -171v-243c0 -18 18 -22 49 -23l-6 -126c-13 -1 -26 -1 -39 -1c-66 0 -136 11 -151 58c-40 -31 -97 -62 -157 -62zM250 120c32 0 70 7 106 19v86l-82 -2c-49 -1 -85 -17 -85 -57
c0 -32 31 -46 61 -46z" />
    <glyph glyph-name="abreve" unicode="&#x103;" horiz-adv-x="594" 
d="M304 614c-109 0 -171 63 -201 111l86 74c36 -34 76 -62 119 -62c42 0 80 27 114 62l81 -73c-32 -47 -95 -112 -199 -112zM215 -9c-120 0 -188 56 -188 165c0 138 126 166 234 166h95v34c0 48 -31 62 -99 62c-54 0 -112 -10 -163 -24l-33 121c62 24 134 44 221 44
c169 0 237 -48 237 -171v-243c0 -18 18 -22 49 -23l-6 -126c-13 -1 -26 -1 -39 -1c-66 0 -136 11 -151 58c-40 -31 -97 -62 -157 -62zM250 120c32 0 70 7 106 19v86l-82 -2c-49 -1 -85 -17 -85 -57c0 -32 31 -46 61 -46z" />
    <glyph glyph-name="amacron" unicode="&#x101;" horiz-adv-x="594" 
d="M135 647v129h328v-129h-328zM215 -9c-120 0 -188 56 -188 165c0 138 126 166 234 166h95v34c0 48 -31 62 -99 62c-54 0 -112 -10 -163 -24l-33 121c62 24 134 44 221 44c169 0 237 -48 237 -171v-243c0 -18 18 -22 49 -23l-6 -126c-13 -1 -26 -1 -39 -1
c-66 0 -136 11 -151 58c-40 -31 -97 -62 -157 -62zM250 120c32 0 70 7 106 19v86l-82 -2c-49 -1 -85 -17 -85 -57c0 -32 31 -46 61 -46z" />
    <glyph glyph-name="aogonek" unicode="&#x105;" horiz-adv-x="593" 
d="M575 -234c-34 -15 -63 -26 -124 -26c-118 0 -152 51 -152 111c0 58 62 112 117 149c-18 9 -39 35 -44 53c-40 -31 -97 -61 -157 -61c-120 0 -188 53 -188 162c0 138 126 169 234 169h95v34c0 48 -31 61 -99 61c-54 0 -112 -12 -163 -24l-33 121c64 24 134 44 221 44
c115 0 237 -14 237 -172v-242c0 -18 18 -22 49 -23l-8 -127c-45 -30 -118 -71 -118 -109c0 -18 19 -22 33 -22c19 0 49 2 72 9zM356 139v86l-82 -2c-73 -2 -84 -26 -84 -58c0 -28 24 -45 61 -45c32 0 69 9 105 19z" />
    <glyph glyph-name="uni01FB" unicode="&#x1fb;" horiz-adv-x="594" 
d="M215 -9c-120 0 -188 56 -188 165c0 138 126 166 234 166h95v34c0 48 -31 62 -99 62c-54 0 -112 -10 -163 -24l-33 121c62 24 134 44 221 44c169 0 237 -48 237 -171v-243c0 -18 18 -22 49 -23l-6 -126c-13 -1 -26 -1 -39 -1c-66 0 -136 11 -151 58
c-40 -31 -97 -62 -157 -62zM250 120c32 0 70 7 106 19v86l-82 -2c-49 -1 -85 -17 -85 -57c0 -32 31 -46 61 -46zM296 581c-70 0 -150 27 -150 126c0 93 75 134 147 134c58 0 149 -28 149 -132c0 -90 -70 -128 -146 -128zM294 652c39 0 58 21 61 56c0 34 -26 56 -61 56
c-43 0 -61 -19 -61 -54c0 -36 22 -58 61 -58zM177 851l-23 113l271 67l27 -131z" />
    <glyph glyph-name="uni01CE" unicode="&#x1ce;" horiz-adv-x="594" 
d="M215 -9c-120 0 -188 56 -188 165c0 138 126 166 234 166h95v34c0 48 -31 62 -99 62c-54 0 -112 -10 -163 -24l-33 121c62 24 134 44 221 44c169 0 237 -48 237 -171v-243c0 -18 18 -22 49 -23l-6 -126c-13 -1 -26 -1 -39 -1c-66 0 -136 11 -151 58
c-40 -31 -97 -62 -157 -62zM250 120c32 0 70 7 106 19v86l-82 -2c-49 -1 -85 -17 -85 -57c0 -32 31 -46 61 -46zM297 599l-196 131l68 92l129 -90l128 89l73 -92z" />
    <glyph glyph-name="uni0227" unicode="&#x227;" horiz-adv-x="594" 
d="M215 -9c-120 0 -188 56 -188 165c0 138 126 166 234 166h95v34c0 48 -31 62 -99 62c-54 0 -112 -10 -163 -24l-33 121c62 24 134 44 221 44c169 0 237 -48 237 -171v-243c0 -18 18 -22 49 -23l-6 -126c-13 -1 -26 -1 -39 -1c-66 0 -136 11 -151 58
c-40 -31 -97 -62 -157 -62zM250 120c32 0 70 7 106 19v86l-82 -2c-49 -1 -85 -17 -85 -57c0 -32 31 -46 61 -46zM302 604l-111 112l111 111l112 -111z" />
    <glyph glyph-name="uni1EA7" unicode="&#x1ea7;" horiz-adv-x="594" 
d="M215 -9c-120 0 -188 56 -188 165c0 138 126 166 234 166h95v34c0 48 -31 62 -99 62c-54 0 -112 -10 -163 -24l-33 121c62 24 134 44 221 44c169 0 237 -48 237 -171v-243c0 -18 18 -22 49 -23l-6 -126c-13 -1 -26 -1 -39 -1c-66 0 -136 11 -151 58
c-40 -31 -97 -62 -157 -62zM250 120c32 0 70 7 106 19v86l-82 -2c-49 -1 -85 -17 -85 -57c0 -32 31 -46 61 -46zM583 773l-82 -74l-165 163l94 88zM467 697l-73 -92l-114 90l-113 -89l-70 92l184 130z" />
    <glyph glyph-name="uni1EA5" unicode="&#x1ea5;" horiz-adv-x="594" 
d="M215 -9c-120 0 -188 56 -188 165c0 138 126 166 234 166h95v34c0 48 -31 62 -99 62c-54 0 -112 -10 -163 -24l-33 121c62 24 134 44 221 44c169 0 237 -48 237 -171v-243c0 -18 18 -22 49 -23l-6 -126c-13 -1 -26 -1 -39 -1c-66 0 -136 11 -151 58
c-40 -31 -97 -62 -157 -62zM250 120c32 0 70 7 106 19v86l-82 -2c-49 -1 -85 -17 -85 -57c0 -32 31 -46 61 -46zM427 746l-74 82l149 138l86 -96zM385 606l-114 90l-113 -89l-70 92l184 130l186 -131z" />
    <glyph glyph-name="uni1EAB" unicode="&#x1eab;" horiz-adv-x="594" 
d="M215 -9c-120 0 -188 56 -188 165c0 138 126 166 234 166h95v34c0 48 -31 62 -99 62c-54 0 -112 -10 -163 -24l-33 121c62 24 134 44 221 44c169 0 237 -48 237 -171v-243c0 -18 18 -22 49 -23l-6 -126c-13 -1 -26 -1 -39 -1c-66 0 -136 11 -151 58
c-40 -31 -97 -62 -157 -62zM250 120c32 0 70 7 106 19v86l-82 -2c-49 -1 -85 -17 -85 -57c0 -32 31 -46 61 -46zM346 807c-48 0 -85 28 -121 28c-19 0 -38 -2 -62 -24l-57 72c24 27 65 70 130 70c60 0 86 -28 119 -28c27 0 42 5 77 22l50 -74c-25 -22 -63 -66 -136 -66z
M414 585l-129 80l-128 -79l-70 92l199 120l194 -121z" />
    <glyph glyph-name="uni1EA9" unicode="&#x1ea9;" horiz-adv-x="594" 
d="M215 -9c-120 0 -188 56 -188 165c0 138 126 166 234 166h95v34c0 48 -31 62 -99 62c-54 0 -112 -10 -163 -24l-33 121c62 24 134 44 221 44c169 0 237 -48 237 -171v-243c0 -18 18 -22 49 -23l-6 -126c-13 -1 -26 -1 -39 -1c-66 0 -136 11 -151 58
c-40 -31 -97 -62 -157 -62zM250 120c32 0 70 7 106 19v86l-82 -2c-49 -1 -85 -17 -85 -57c0 -32 31 -46 61 -46zM512 855c0 -62 -38 -105 -75 -126l-77 73c15 10 28 25 28 43c0 20 -16 30 -36 30c-9 0 -22 -3 -35 -5l-13 99c15 6 47 13 73 13c38 0 72 -10 97 -33
c23 -21 38 -54 38 -94zM415 586l-129 80l-128 -79l-70 92l199 120l194 -121z" />
    <glyph glyph-name="uni1EAD" unicode="&#x1ead;" horiz-adv-x="594" 
d="M398 -149l-111 -112l-112 112l112 111zM215 -9c-120 0 -188 56 -188 165c0 138 126 166 234 166h95v34c0 48 -31 62 -99 62c-54 0 -112 -10 -163 -24l-33 121c62 24 134 44 221 44c169 0 237 -48 237 -171v-243c0 -18 18 -22 49 -23l-6 -126c-13 -1 -26 -1 -39 -1
c-66 0 -136 11 -151 58c-40 -31 -97 -62 -157 -62zM250 120c32 0 70 7 106 19v86l-82 -2c-49 -1 -85 -17 -85 -57c0 -32 31 -46 61 -46zM416 605l-129 90l-128 -89l-73 92l202 130l196 -131z" />
    <glyph glyph-name="uni1EB1" unicode="&#x1eb1;" horiz-adv-x="594" 
d="M215 -9c-120 0 -188 56 -188 165c0 138 126 166 234 166h95v34c0 48 -31 62 -99 62c-54 0 -112 -10 -163 -24l-33 121c62 24 134 44 221 44c169 0 237 -48 237 -171v-243c0 -18 18 -22 49 -23l-6 -126c-13 -1 -26 -1 -39 -1c-66 0 -136 11 -151 58
c-40 -31 -97 -62 -157 -62zM250 120c32 0 70 7 106 19v86l-82 -2c-49 -1 -85 -17 -85 -57c0 -32 31 -46 61 -46zM316 738l-180 121l78 104l169 -140zM303 588c-108 0 -172 63 -201 111l86 74c36 -35 76 -62 119 -62s79 27 114 62l81 -73c-31 -47 -95 -112 -199 -112z" />
    <glyph glyph-name="uni1EAF" unicode="&#x1eaf;" horiz-adv-x="594" 
d="M215 -9c-120 0 -188 56 -188 165c0 138 126 166 234 166h95v34c0 48 -31 62 -99 62c-54 0 -112 -10 -163 -24l-33 121c62 24 134 44 221 44c169 0 237 -48 237 -171v-243c0 -18 18 -22 49 -23l-6 -126c-13 -1 -26 -1 -39 -1c-66 0 -136 11 -151 58
c-40 -31 -97 -62 -157 -62zM250 120c32 0 70 7 106 19v86l-82 -2c-49 -1 -85 -17 -85 -57c0 -32 31 -46 61 -46zM481 848l-202 -97l-53 89l192 119zM304 589c-108 0 -172 63 -201 111l86 74c36 -35 76 -62 119 -62s79 27 114 62l81 -73c-31 -47 -95 -112 -199 -112z" />
    <glyph glyph-name="uni1EB5" unicode="&#x1eb5;" horiz-adv-x="594" 
d="M215 -9c-120 0 -188 56 -188 165c0 138 126 166 234 166h95v34c0 48 -31 62 -99 62c-54 0 -112 -10 -163 -24l-33 121c62 24 134 44 221 44c169 0 237 -48 237 -171v-243c0 -18 18 -22 49 -23l-6 -126c-13 -1 -26 -1 -39 -1c-66 0 -136 11 -151 58
c-40 -31 -97 -62 -157 -62zM250 120c32 0 70 7 106 19v86l-82 -2c-49 -1 -85 -17 -85 -57c0 -32 31 -46 61 -46zM356 789c-48 0 -85 28 -121 28c-19 0 -38 -2 -62 -24l-57 72c24 27 65 70 130 70c60 0 86 -28 119 -28c27 0 42 5 77 22l50 -74c-25 -22 -63 -66 -136 -66z
M303 588c-108 0 -172 63 -201 111l86 74c36 -35 76 -62 119 -62s79 27 114 62l81 -73c-31 -47 -95 -112 -199 -112z" />
    <glyph glyph-name="uni1EB3" unicode="&#x1eb3;" horiz-adv-x="594" 
d="M215 -9c-120 0 -188 56 -188 165c0 138 126 166 234 166h95v34c0 48 -31 62 -99 62c-54 0 -112 -10 -163 -24l-33 121c62 24 134 44 221 44c169 0 237 -48 237 -171v-243c0 -18 18 -22 49 -23l-6 -126c-13 -1 -26 -1 -39 -1c-66 0 -136 11 -151 58
c-40 -31 -97 -62 -157 -62zM250 120c32 0 70 7 106 19v86l-82 -2c-49 -1 -85 -17 -85 -57c0 -32 31 -46 61 -46zM391 871c0 -69 -40 -107 -80 -127c-22 21 -51 52 -73 75c18 13 30 22 30 43c0 17 -16 28 -36 28c-9 0 -22 -3 -35 -5l-12 98c14 6 44 16 75 16
c33 0 69 -14 94 -37c23 -21 37 -51 37 -91zM303 588c-108 0 -172 63 -201 111l86 74c36 -35 76 -62 119 -62s79 27 114 62l81 -73c-31 -47 -95 -112 -199 -112z" />
    <glyph glyph-name="uni1EB7" unicode="&#x1eb7;" horiz-adv-x="594" 
d="M419 -149l-111 -112l-112 112l112 111zM215 -9c-120 0 -188 56 -188 165c0 138 126 166 234 166h95v34c0 48 -31 62 -99 62c-54 0 -112 -10 -163 -24l-33 121c62 24 134 44 221 44c169 0 237 -48 237 -171v-243c0 -18 18 -22 49 -23l-6 -126c-13 -1 -26 -1 -39 -1
c-66 0 -136 11 -151 58c-40 -31 -97 -62 -157 -62zM250 120c32 0 70 7 106 19v86l-82 -2c-49 -1 -85 -17 -85 -57c0 -32 31 -46 61 -46zM304 613c-109 0 -171 63 -201 111l86 74c36 -34 76 -62 119 -62c42 0 80 27 114 62l81 -73c-32 -47 -95 -112 -199 -112z" />
    <glyph glyph-name="uni1EA3" unicode="&#x1ea3;" horiz-adv-x="594" 
d="M215 -9c-120 0 -188 56 -188 165c0 138 126 166 234 166h95v34c0 48 -31 62 -99 62c-54 0 -112 -10 -163 -24l-33 121c62 24 134 44 221 44c169 0 237 -48 237 -171v-243c0 -18 18 -22 49 -23l-6 -126c-13 -1 -26 -1 -39 -1c-66 0 -136 11 -151 58
c-40 -31 -97 -62 -157 -62zM250 120c32 0 70 7 106 19v86l-82 -2c-49 -1 -85 -17 -85 -57c0 -32 31 -46 61 -46zM405 754c0 -80 -60 -128 -118 -151l-59 75c24 10 51 33 51 63c0 24 -18 33 -38 33c-12 0 -24 -3 -33 -8l-13 101c15 6 47 13 73 13c73 0 137 -48 137 -126z" />
    <glyph glyph-name="uni1EA1" unicode="&#x1ea1;" horiz-adv-x="594" 
d="M215 -9c-120 0 -188 56 -188 165c0 138 126 166 234 166h95v34c0 48 -31 62 -99 62c-54 0 -112 -10 -163 -24l-33 121c62 24 134 44 221 44c169 0 237 -48 237 -171v-243c0 -18 18 -22 49 -23l-6 -126c-13 -1 -26 -1 -39 -1c-66 0 -136 11 -151 58
c-40 -31 -97 -62 -157 -62zM250 120c32 0 70 7 106 19v86l-82 -2c-49 -1 -85 -17 -85 -57c0 -32 31 -46 61 -46zM417 -149l-111 -112l-112 112l112 111z" />
    <glyph glyph-name="uni1E05" unicode="&#x1e05;" horiz-adv-x="635" 
d="M295 -11c-113 0 -172 16 -233 36v729h166v-217c32 13 68 22 111 22c164 0 262 -65 262 -257c0 -236 -148 -313 -306 -313zM309 435c-30 0 -57 -5 -81 -13v-292c19 -4 43 -11 70 -11c85 0 133 80 133 182c0 103 -33 134 -122 134zM306 -261l-112 112l112 111l111 -111z
" />
    <glyph glyph-name="uni1E07" unicode="&#x1e07;" horiz-adv-x="635" 
d="M295 -11c-113 0 -172 16 -233 36v729h166v-217c32 13 68 22 111 22c164 0 262 -65 262 -257c0 -236 -148 -313 -306 -313zM309 435c-30 0 -57 -5 -81 -13v-292c19 -4 43 -11 70 -11c85 0 133 80 133 182c0 103 -33 134 -122 134zM135 -230v129h328v-129h-328z" />
    <glyph glyph-name="uni1E03" unicode="&#x1e03;" horiz-adv-x="635" 
d="M295 -11c-113 0 -172 16 -233 36v729h166v-217c32 13 68 22 111 22c164 0 262 -65 262 -257c0 -236 -148 -313 -306 -313zM309 435c-30 0 -57 -5 -81 -13v-292c19 -4 43 -11 70 -11c85 0 133 80 133 182c0 103 -33 134 -122 134zM375 604l-111 112l111 111l112 -111z" />
    <glyph glyph-name="ccedilla" unicode="&#xe7;" horiz-adv-x="531" 
d="M351 -11c-231 0 -318 85 -318 289c0 170 114 282 299 282c80 0 131 -15 174 -38l-43 -121c-44 17 -68 23 -124 23c-69 0 -135 -31 -135 -148c0 -105 25 -154 156 -154c46 0 71 6 116 14l23 -127c-59 -13 -87 -20 -148 -20zM243 -283l-57 100c25 15 76 35 76 70
c0 20 -7 42 -12 62h129c11 -25 22 -53 22 -81c0 -81 -95 -125 -158 -151z" />
    <glyph glyph-name="cacute" unicode="&#x107;" horiz-adv-x="531" 
d="M210 602l-47 100l238 121l54 -117zM351 -11c-231 0 -318 85 -318 289c0 170 114 282 299 282c80 0 131 -15 174 -38l-43 -121c-44 17 -68 23 -124 23c-69 0 -135 -31 -135 -148c0 -105 25 -154 156 -154c46 0 71 6 116 14l23 -127c-59 -13 -87 -20 -148 -20z" />
    <glyph glyph-name="ccaron" unicode="&#x10d;" horiz-adv-x="531" 
d="M297 600l-196 131l68 92l129 -90l128 89l73 -92zM351 -11c-231 0 -318 85 -318 289c0 170 114 282 299 282c80 0 131 -15 174 -38l-43 -121c-44 17 -68 23 -124 23c-69 0 -135 -31 -135 -148c0 -105 25 -154 156 -154c46 0 71 6 116 14l23 -127c-59 -13 -87 -20 -148 -20
z" />
    <glyph glyph-name="ccircumflex" unicode="&#x109;" horiz-adv-x="531" 
d="M449 606l-129 90l-128 -89l-73 92l202 130l196 -131zM351 -11c-231 0 -318 85 -318 289c0 170 114 282 299 282c80 0 131 -15 174 -38l-43 -121c-44 17 -68 23 -124 23c-69 0 -135 -31 -135 -148c0 -105 25 -154 156 -154c46 0 71 6 116 14l23 -127
c-59 -13 -87 -20 -148 -20z" />
    <glyph glyph-name="cdotaccent" unicode="&#x10b;" horiz-adv-x="531" 
d="M325 604l-111 112l111 111l112 -111zM351 -11c-231 0 -318 85 -318 289c0 170 114 282 299 282c80 0 131 -15 174 -38l-43 -121c-44 17 -68 23 -124 23c-69 0 -135 -31 -135 -148c0 -105 25 -154 156 -154c46 0 71 6 116 14l23 -127c-59 -13 -87 -20 -148 -20z" />
    <glyph glyph-name="dcaron" unicode="&#x10f;" horiz-adv-x="733" 
d="M767 754l-45 -220h-116l21 220h140zM279 -8c-110 0 -245 53 -245 290c0 187 131 278 297 278c30 0 55 -4 72 -6v200h167v-754h-167v39c-24 -19 -55 -47 -124 -47zM312 130c30 0 66 8 91 18v273c-17 3 -39 7 -69 7c-95 0 -134 -54 -134 -149c0 -119 53 -149 112 -149z" />
    <glyph glyph-name="dcroat" unicode="&#x111;" horiz-adv-x="637" 
d="M301 611v79h102v64h167v-64h59v-79h-59v-611h-167v39c-24 -19 -55 -46 -124 -46c-110 0 -245 52 -245 289c0 187 131 278 297 278c30 0 55 -4 72 -6v57h-102zM312 131c30 0 66 7 91 17v273c-17 3 -39 7 -69 7c-95 0 -134 -54 -134 -149c0 -119 53 -148 112 -148z" />
    <glyph glyph-name="uni1E0F" unicode="&#x1e0f;" horiz-adv-x="637" 
d="M279 -8c-110 0 -245 53 -245 290c0 187 131 278 297 278c30 0 55 -4 72 -6v200h167v-754h-167v39c-24 -19 -55 -47 -124 -47zM312 130c30 0 66 8 91 18v273c-17 3 -39 7 -69 7c-95 0 -134 -54 -134 -149c0 -119 53 -149 112 -149zM183 -230v129h328v-129h-328z" />
    <glyph glyph-name="uni1E0D" unicode="&#x1e0d;" horiz-adv-x="637" 
d="M279 -8c-110 0 -245 53 -245 290c0 187 131 278 297 278c30 0 55 -4 72 -6v200h167v-754h-167v39c-24 -19 -55 -47 -124 -47zM312 130c30 0 66 8 91 18v273c-17 3 -39 7 -69 7c-95 0 -134 -54 -134 -149c0 -119 53 -149 112 -149zM347 -261l-112 112l112 111l111 -111z
" />
    <glyph glyph-name="uni1E0B" unicode="&#x1e0b;" horiz-adv-x="637" 
d="M279 -8c-110 0 -245 53 -245 290c0 187 131 278 297 278c30 0 55 -4 72 -6v200h167v-754h-167v39c-24 -19 -55 -47 -124 -47zM312 130c30 0 66 8 91 18v273c-17 3 -39 7 -69 7c-95 0 -134 -54 -134 -149c0 -119 53 -149 112 -149zM247 604l-111 112l111 111l112 -111z
" />
    <glyph glyph-name="eacute" unicode="&#xe9;" horiz-adv-x="587" 
d="M225 602l-47 100l238 121l54 -117zM331 -12c-180 0 -296 59 -296 277c0 223 115 294 280 294c172 0 240 -112 240 -277v-60h-354c-1 -86 67 -102 154 -102c37 0 99 9 156 22l25 -123c-61 -20 -139 -31 -205 -31zM206 329h178c2 66 -27 112 -81 112
c-57 0 -94 -40 -97 -112z" />
    <glyph glyph-name="egrave" unicode="&#xe8;" horiz-adv-x="587" 
d="M371 602l-244 104l54 117l238 -121zM331 -12c-180 0 -296 59 -296 277c0 223 115 294 280 294c172 0 240 -112 240 -277v-60h-354c-1 -86 67 -102 154 -102c37 0 99 9 156 22l25 -123c-61 -20 -139 -31 -205 -31zM206 329h178c2 66 -27 112 -81 112
c-57 0 -94 -40 -97 -112z" />
    <glyph glyph-name="ecircumflex" unicode="&#xea;" horiz-adv-x="587" 
d="M425 606l-129 90l-128 -89l-73 92l202 130l196 -131zM331 -12c-180 0 -296 59 -296 277c0 223 115 294 280 294c172 0 240 -112 240 -277v-60h-354c-1 -86 67 -102 154 -102c37 0 99 9 156 22l25 -123c-61 -20 -139 -31 -205 -31zM206 329h178c2 66 -27 112 -81 112
c-57 0 -94 -40 -97 -112z" />
    <glyph glyph-name="edieresis" unicode="&#xeb;" horiz-adv-x="587" 
d="M178 622l-93 94l93 94l94 -94zM422 622l-94 94l94 94l93 -94zM331 -12c-180 0 -296 59 -296 277c0 223 115 294 280 294c172 0 240 -112 240 -277v-60h-354c-1 -86 67 -102 154 -102c37 0 99 9 156 22l25 -123c-61 -20 -139 -31 -205 -31zM206 329h178
c2 66 -27 112 -81 112c-57 0 -94 -40 -97 -112z" />
    <glyph glyph-name="ebreve" unicode="&#x115;" horiz-adv-x="587" 
d="M311 614c-109 0 -171 63 -201 111l86 74c36 -34 76 -62 119 -62c42 0 80 27 114 62l81 -73c-32 -47 -95 -112 -199 -112zM331 -12c-180 0 -296 59 -296 277c0 223 115 294 280 294c172 0 240 -112 240 -277v-60h-354c-1 -86 67 -102 154 -102c37 0 99 9 156 22l25 -123
c-61 -20 -139 -31 -205 -31zM206 329h178c2 66 -27 112 -81 112c-57 0 -94 -40 -97 -112z" />
    <glyph glyph-name="ecaron" unicode="&#x11b;" horiz-adv-x="587" 
d="M302 600l-196 131l68 92l129 -90l128 89l73 -92zM331 -12c-180 0 -296 59 -296 277c0 223 115 294 280 294c172 0 240 -112 240 -277v-60h-354c-1 -86 67 -102 154 -102c37 0 99 9 156 22l25 -123c-61 -20 -139 -31 -205 -31zM206 329h178c2 66 -27 112 -81 112
c-57 0 -94 -40 -97 -112z" />
    <glyph glyph-name="edotaccent" unicode="&#x117;" horiz-adv-x="587" 
d="M308 604l-111 112l111 111l112 -111zM331 -12c-180 0 -296 59 -296 277c0 223 115 294 280 294c172 0 240 -112 240 -277v-60h-354c-1 -86 67 -102 154 -102c37 0 99 9 156 22l25 -123c-61 -20 -139 -31 -205 -31zM206 329h178c2 66 -27 112 -81 112
c-57 0 -94 -40 -97 -112z" />
    <glyph glyph-name="emacron" unicode="&#x113;" horiz-adv-x="587" 
d="M143 647v129h328v-129h-328zM331 -12c-180 0 -296 59 -296 277c0 223 115 294 280 294c172 0 240 -112 240 -277v-60h-354c-1 -86 67 -102 154 -102c37 0 99 9 156 22l25 -123c-61 -20 -139 -31 -205 -31zM206 329h178c2 66 -27 112 -81 112c-57 0 -94 -40 -97 -112z" />
    <glyph glyph-name="uni1EBD" unicode="&#x1ebd;" horiz-adv-x="587" 
d="M354 634c-51 0 -89 38 -128 38c-19 0 -40 -2 -70 -28l-63 74c24 29 77 82 144 82c63 0 89 -38 123 -38c32 0 51 7 87 26l55 -74c-23 -25 -73 -80 -148 -80zM331 -12c-180 0 -296 59 -296 277c0 223 115 294 280 294c172 0 240 -112 240 -277v-60h-354
c-1 -86 67 -102 154 -102c37 0 99 9 156 22l25 -123c-61 -20 -139 -31 -205 -31zM206 329h178c2 66 -27 112 -81 112c-57 0 -94 -40 -97 -112z" />
    <glyph glyph-name="eogonek" unicode="&#x119;" horiz-adv-x="587" 
d="M418 -260c-108 0 -153 38 -153 116c0 49 40 100 79 135c-14 -1 -28 -2 -41 -2c-161 0 -269 75 -269 276c0 223 117 294 282 294c172 0 238 -112 238 -277v-60h-354c-1 -86 67 -102 154 -102c37 0 99 10 156 20l24 -127c-53 -30 -117 -77 -117 -123c0 -21 18 -31 36 -31
c19 0 43 4 69 14l28 -107c-34 -15 -71 -26 -132 -26zM205 330h178c2 66 -27 112 -79 112c-54 0 -96 -40 -99 -112z" />
    <glyph glyph-name="uni0229" unicode="&#x229;" horiz-adv-x="587" 
d="M331 -12c-180 0 -296 59 -296 277c0 223 115 294 280 294c172 0 240 -112 240 -277v-60h-354c-1 -86 67 -102 154 -102c37 0 99 9 156 22l25 -123c-61 -20 -139 -31 -205 -31zM206 329h178c2 66 -27 112 -81 112c-57 0 -94 -40 -97 -112zM250 -283l-57 100
c25 15 76 35 76 70c0 20 -7 42 -12 62h129c11 -25 22 -53 22 -81c0 -81 -95 -125 -158 -151z" />
    <glyph glyph-name="uni1EC1" unicode="&#x1ec1;" horiz-adv-x="587" 
d="M331 -12c-180 0 -296 59 -296 277c0 223 115 294 280 294c172 0 240 -112 240 -277v-60h-354c-1 -86 67 -102 154 -102c37 0 99 9 156 22l25 -123c-61 -20 -139 -31 -205 -31zM206 329h178c2 66 -27 112 -81 112c-57 0 -94 -40 -97 -112zM581 773l-82 -74l-165 163l94 88
zM465 697l-73 -92l-114 90l-113 -89l-70 92l184 130z" />
    <glyph glyph-name="uni1EBF" unicode="&#x1ebf;" horiz-adv-x="587" 
d="M331 -12c-180 0 -296 59 -296 277c0 223 115 294 280 294c172 0 240 -112 240 -277v-60h-354c-1 -86 67 -102 154 -102c37 0 99 9 156 22l25 -123c-61 -20 -139 -31 -205 -31zM206 329h178c2 66 -27 112 -81 112c-57 0 -94 -40 -97 -112zM445 746l-74 82l149 138l86 -96z
M403 606l-114 90l-113 -89l-70 92l184 130l186 -131z" />
    <glyph glyph-name="uni1EC5" unicode="&#x1ec5;" horiz-adv-x="587" 
d="M331 -12c-180 0 -296 59 -296 277c0 223 115 294 280 294c172 0 240 -112 240 -277v-60h-354c-1 -86 67 -102 154 -102c37 0 99 9 156 22l25 -123c-61 -20 -139 -31 -205 -31zM206 329h178c2 66 -27 112 -81 112c-57 0 -94 -40 -97 -112zM354 807c-48 0 -85 28 -121 28
c-19 0 -38 -2 -62 -24l-57 72c24 27 65 70 130 70c60 0 86 -28 119 -28c27 0 42 5 77 22l50 -74c-25 -22 -63 -66 -136 -66zM422 585l-129 80l-128 -79l-70 92l199 120l194 -121z" />
    <glyph glyph-name="uni1EC3" unicode="&#x1ec3;" horiz-adv-x="587" 
d="M331 -12c-180 0 -296 59 -296 277c0 223 115 294 280 294c172 0 240 -112 240 -277v-60h-354c-1 -86 67 -102 154 -102c37 0 99 9 156 22l25 -123c-61 -20 -139 -31 -205 -31zM206 329h178c2 66 -27 112 -81 112c-57 0 -94 -40 -97 -112zM520 855
c0 -62 -38 -105 -75 -126l-77 73c15 10 28 25 28 43c0 20 -16 30 -36 30c-9 0 -22 -3 -35 -5l-13 99c15 6 47 13 73 13c38 0 72 -10 97 -33c23 -21 38 -54 38 -94zM423 586l-129 80l-128 -79l-70 92l199 120l194 -121z" />
    <glyph glyph-name="uni1EC7" unicode="&#x1ec7;" horiz-adv-x="587" 
d="M331 -12c-180 0 -296 59 -296 277c0 223 115 294 280 294c172 0 240 -112 240 -277v-60h-354c-1 -86 67 -102 154 -102c37 0 99 9 156 22l25 -123c-61 -20 -139 -31 -205 -31zM206 329h178c2 66 -27 112 -81 112c-57 0 -94 -40 -97 -112zM424 605l-129 90l-128 -89
l-73 92l202 130l196 -131zM415 -149l-111 -112l-112 112l112 111z" />
    <glyph glyph-name="uni1EBB" unicode="&#x1ebb;" horiz-adv-x="587" 
d="M331 -12c-180 0 -296 59 -296 277c0 223 115 294 280 294c172 0 240 -112 240 -277v-60h-354c-1 -86 67 -102 154 -102c37 0 99 9 156 22l25 -123c-61 -20 -139 -31 -205 -31zM206 329h178c2 66 -27 112 -81 112c-57 0 -94 -40 -97 -112zM413 754
c0 -80 -60 -128 -118 -151l-59 75c24 10 51 33 51 63c0 24 -18 33 -38 33c-12 0 -24 -3 -33 -8l-13 101c15 6 47 13 73 13c73 0 137 -48 137 -126z" />
    <glyph glyph-name="uni1EB9" unicode="&#x1eb9;" horiz-adv-x="587" 
d="M331 -12c-180 0 -296 59 -296 277c0 223 115 294 280 294c172 0 240 -112 240 -277v-60h-354c-1 -86 67 -102 154 -102c37 0 99 9 156 22l25 -123c-61 -20 -139 -31 -205 -31zM206 329h178c2 66 -27 112 -81 112c-57 0 -94 -40 -97 -112zM415 -149l-111 -112l-112 112
l112 111z" />
    <glyph glyph-name="uni0065030A" horiz-adv-x="587" 
d="M300 586c-70 0 -150 27 -150 126c0 93 75 134 147 134c58 0 149 -28 149 -132c0 -90 -70 -128 -146 -128zM298 657c39 0 58 21 61 56c0 34 -26 56 -61 56c-43 0 -61 -19 -61 -54c0 -36 22 -58 61 -58zM331 -12c-180 0 -296 59 -296 277c0 223 115 294 280 294
c172 0 240 -112 240 -277v-60h-354c-1 -86 67 -102 154 -102c37 0 99 9 156 22l25 -123c-61 -20 -139 -31 -205 -31zM206 329h178c2 66 -27 112 -81 112c-57 0 -94 -40 -97 -112z" />
    <glyph glyph-name="uni1E1F" unicode="&#x1e1f;" horiz-adv-x="401" 
d="M104 -150v581h-80v115h80v20c0 169 103 204 217 204c40 0 65 -5 98 -15l-26 -124c-20 5 -46 8 -66 8c-41 0 -56 -31 -56 -74v-19h117v-115h-117v-581h-167zM195 849l-94 -94l-94 94l94 94z" />
    <glyph glyph-name="uni00660304" horiz-adv-x="401" 
d="M99 810v129h328v-129h-328zM104 -150v581h-80v115h80v20c0 169 103 204 217 204c40 0 65 -5 98 -15l-26 -124c-20 5 -46 8 -66 8c-41 0 -56 -31 -56 -74v-19h117v-115h-117v-581h-167z" />
    <glyph glyph-name="gbreve" unicode="&#x11f;" horiz-adv-x="633" 
d="M334 614c-109 0 -171 63 -201 111l86 74c36 -34 76 -62 119 -62c42 0 80 27 114 62l81 -73c-32 -47 -95 -112 -199 -112zM297 -230c-85 0 -163 10 -226 33l26 140c67 -20 138 -28 178 -28c80 0 128 17 128 96v7c-22 -12 -52 -23 -92 -23c-157 0 -278 46 -278 275
c0 187 138 290 303 290c81 0 148 -8 233 -28v-537c0 -160 -152 -225 -272 -225zM323 118c28 0 52 1 79 9v286c-18 5 -39 10 -67 10c-95 0 -136 -59 -136 -153c0 -118 50 -152 124 -152z" />
    <glyph glyph-name="gcircumflex" unicode="&#x11d;" horiz-adv-x="633" 
d="M478 606l-129 90l-128 -89l-73 92l202 130l196 -131zM297 -230c-85 0 -163 10 -226 33l26 140c67 -20 138 -28 178 -28c80 0 128 17 128 96v7c-22 -12 -52 -23 -92 -23c-157 0 -278 46 -278 275c0 187 138 290 303 290c81 0 148 -8 233 -28v-537
c0 -160 -152 -225 -272 -225zM323 118c28 0 52 1 79 9v286c-18 5 -39 10 -67 10c-95 0 -136 -59 -136 -153c0 -118 50 -152 124 -152z" />
    <glyph glyph-name="gcommaaccent" unicode="&#x123;" horiz-adv-x="633" 
d="M270 603l53 200h134l-31 -200h-156zM297 -230c-85 0 -163 10 -226 33l26 140c67 -20 138 -28 178 -28c80 0 128 17 128 96v7c-22 -12 -52 -23 -92 -23c-157 0 -278 46 -278 275c0 187 138 290 303 290c81 0 148 -8 233 -28v-537c0 -160 -152 -225 -272 -225zM323 118
c28 0 52 1 79 9v286c-18 5 -39 10 -67 10c-95 0 -136 -59 -136 -153c0 -118 50 -152 124 -152z" />
    <glyph glyph-name="gdotaccent" unicode="&#x121;" horiz-adv-x="633" 
d="M355 604l-111 112l111 111l112 -111zM297 -230c-85 0 -163 10 -226 33l26 140c67 -20 138 -28 178 -28c80 0 128 17 128 96v7c-22 -12 -52 -23 -92 -23c-157 0 -278 46 -278 275c0 187 138 290 303 290c81 0 148 -8 233 -28v-537c0 -160 -152 -225 -272 -225zM323 118
c28 0 52 1 79 9v286c-18 5 -39 10 -67 10c-95 0 -136 -59 -136 -153c0 -118 50 -152 124 -152z" />
    <glyph glyph-name="gbreve.alt" horiz-adv-x="605" 
d="M274 191c-31 0 -62 2 -90 8c-10 -12 -15 -25 -15 -35c0 -17 14 -30 43 -30h103c150 0 228 -46 228 -161c0 -112 -89 -203 -274 -203c-161 0 -238 49 -238 140c0 34 19 85 61 113c-29 20 -43 49 -43 81c0 41 23 86 66 118c-45 25 -76 68 -76 140c0 108 91 197 231 197
c70 0 118 -19 138 -29l175 13v-117h-83c2 -11 6 -47 6 -59c0 -112 -110 -176 -232 -176zM270 614c-109 0 -171 63 -201 111l86 74c36 -34 76 -62 119 -62c42 0 80 27 114 62l81 -73c-32 -47 -95 -112 -199 -112zM329 0h-144c-9 0 -18 0 -26 1c-8 -14 -12 -29 -12 -43
c0 -36 32 -65 117 -65c90 0 146 22 146 58c0 38 -37 49 -81 49zM273 289c52 0 85 37 85 80c0 44 -30 83 -83 83c-60 0 -89 -36 -89 -88c0 -44 29 -75 87 -75z" />
    <glyph glyph-name="gcircumflex.alt" horiz-adv-x="605" 
d="M274 191c-31 0 -62 2 -90 8c-10 -12 -15 -25 -15 -35c0 -17 14 -30 43 -30h103c150 0 228 -46 228 -161c0 -112 -89 -203 -274 -203c-161 0 -238 49 -238 140c0 34 19 85 61 113c-29 20 -43 49 -43 81c0 41 23 86 66 118c-45 25 -76 68 -76 140c0 108 91 197 231 197
c70 0 118 -19 138 -29l175 13v-117h-83c2 -11 6 -47 6 -59c0 -112 -110 -176 -232 -176zM402 606l-129 90l-128 -89l-73 92l202 130l196 -131zM329 0h-144c-9 0 -18 0 -26 1c-8 -14 -12 -29 -12 -43c0 -36 32 -65 117 -65c90 0 146 22 146 58c0 38 -37 49 -81 49zM273 289
c52 0 85 37 85 80c0 44 -30 83 -83 83c-60 0 -89 -36 -89 -88c0 -44 29 -75 87 -75z" />
    <glyph glyph-name="gcommaaccent.alt" horiz-adv-x="605" 
d="M274 191c-31 0 -62 2 -90 8c-10 -12 -15 -25 -15 -35c0 -17 14 -30 43 -30h103c150 0 228 -46 228 -161c0 -112 -89 -203 -274 -203c-161 0 -238 49 -238 140c0 34 19 85 61 113c-29 20 -43 49 -43 81c0 41 23 86 66 118c-45 25 -76 68 -76 140c0 108 91 197 231 197
c70 0 118 -19 138 -29l175 13v-117h-83c2 -11 6 -47 6 -59c0 -112 -110 -176 -232 -176zM185 607l45 220h116l-21 -220h-140zM329 0h-144c-9 0 -18 0 -26 1c-8 -14 -12 -29 -12 -43c0 -36 32 -65 117 -65c90 0 146 22 146 58c0 38 -37 49 -81 49zM273 289c52 0 85 37 85 80
c0 44 -30 83 -83 83c-60 0 -89 -36 -89 -88c0 -44 29 -75 87 -75z" />
    <glyph glyph-name="gdotaccent.alt" horiz-adv-x="605" 
d="M274 191c-31 0 -62 2 -90 8c-10 -12 -15 -25 -15 -35c0 -17 14 -30 43 -30h103c150 0 228 -46 228 -161c0 -112 -89 -203 -274 -203c-161 0 -238 49 -238 140c0 34 19 85 61 113c-29 20 -43 49 -43 81c0 41 23 86 66 118c-45 25 -76 68 -76 140c0 108 91 197 231 197
c70 0 118 -19 138 -29l175 13v-117h-83c2 -11 6 -47 6 -59c0 -112 -110 -176 -232 -176zM270 604l-111 112l111 111l112 -111zM329 0h-144c-9 0 -18 0 -26 1c-8 -14 -12 -29 -12 -43c0 -36 32 -65 117 -65c90 0 146 22 146 58c0 38 -37 49 -81 49zM273 289c52 0 85 37 85 80
c0 44 -30 83 -83 83c-60 0 -89 -36 -89 -88c0 -44 29 -75 87 -75z" />
    <glyph glyph-name="uni01E7" unicode="&#x1e7;" horiz-adv-x="633" 
d="M297 -230c-85 0 -163 10 -226 33l26 140c67 -20 138 -28 178 -28c80 0 128 17 128 96v7c-22 -12 -52 -23 -92 -23c-157 0 -278 46 -278 275c0 187 138 290 303 290c81 0 148 -8 233 -28v-537c0 -160 -152 -225 -272 -225zM323 118c28 0 52 1 79 9v286
c-18 5 -39 10 -67 10c-95 0 -136 -59 -136 -153c0 -118 50 -152 124 -152zM341 599l-196 131l68 92l129 -90l128 89l73 -92z" />
    <glyph glyph-name="uni01F5" unicode="&#x1f5;" horiz-adv-x="633" 
d="M297 -230c-85 0 -163 10 -226 33l26 140c67 -20 138 -28 178 -28c80 0 128 17 128 96v7c-22 -12 -52 -23 -92 -23c-157 0 -278 46 -278 275c0 187 138 290 303 290c81 0 148 -8 233 -28v-537c0 -160 -152 -225 -272 -225zM323 118c28 0 52 1 79 9v286
c-18 5 -39 10 -67 10c-95 0 -136 -59 -136 -153c0 -118 50 -152 124 -152zM256 601l-47 100l238 121l54 -117z" />
    <glyph glyph-name="uni1E21" unicode="&#x1e21;" horiz-adv-x="633" 
d="M297 -230c-85 0 -163 10 -226 33l26 140c67 -20 138 -28 178 -28c80 0 128 17 128 96v7c-22 -12 -52 -23 -92 -23c-157 0 -278 46 -278 275c0 187 138 290 303 290c81 0 148 -8 233 -28v-537c0 -160 -152 -225 -272 -225zM323 118c28 0 52 1 79 9v286
c-18 5 -39 10 -67 10c-95 0 -136 -59 -136 -153c0 -118 50 -152 124 -152zM168 646v129h328v-129h-328z" />
    <glyph glyph-name="hbar" unicode="&#x127;" horiz-adv-x="657" 
d="M67 0v611h-60v79h60v64h167v-64h101v-79h-101v-120c33 25 105 71 178 71c171 0 183 -95 183 -219v-343h-166v329c0 75 -17 88 -73 88c-50 0 -95 -17 -122 -30v-387h-167z" />
    <glyph glyph-name="hcircumflex" unicode="&#x125;" horiz-adv-x="657" 
d="M67 0v754h167v-266c36 29 105 71 178 71c171 0 183 -95 183 -219v-340h-166v326c0 75 -17 88 -73 88c-50 0 -95 -17 -122 -30v-384h-167zM17 765l-58 107l191 96l192 -96l-59 -107l-133 61z" />
    <glyph glyph-name="uni021F" unicode="&#x21f;" horiz-adv-x="657" 
d="M67 0v754h167v-266c36 29 105 71 178 71c171 0 183 -95 183 -219v-340h-166v326c0 75 -17 88 -73 88c-50 0 -95 -17 -122 -30v-384h-167zM547 837l-192 -97l-191 97l58 106l133 -60l133 60z" />
    <glyph glyph-name="uni1E25" unicode="&#x1e25;" horiz-adv-x="658" 
d="M67 0v754h167v-266c36 29 105 71 178 71c171 0 183 -95 183 -219v-340h-166v326c0 75 -17 88 -73 88c-50 0 -95 -17 -122 -30v-384h-167zM331 -261l-112 112l112 111l111 -111z" />
    <glyph glyph-name="uni1E96" unicode="&#x1e96;" horiz-adv-x="658" 
d="M67 0v754h167v-266c36 29 105 71 178 71c171 0 183 -95 183 -219v-340h-166v326c0 75 -17 88 -73 88c-50 0 -95 -17 -122 -30v-384h-167zM167 -230v129h328v-129h-328z" />
    <glyph glyph-name="uni1E2B" unicode="&#x1e2b;" horiz-adv-x="658" 
d="M67 0v754h167v-266c36 29 105 71 178 71c171 0 183 -95 183 -219v-340h-166v326c0 75 -17 88 -73 88c-50 0 -95 -17 -122 -30v-384h-167zM333 -234c-109 0 -171 63 -201 111l86 74c36 -34 76 -62 119 -62c42 0 80 27 114 62l81 -73c-32 -47 -95 -112 -199 -112z" />
    <glyph glyph-name="uni1E23" unicode="&#x1e23;" horiz-adv-x="657" 
d="M67 0v754h167v-266c36 29 105 71 178 71c171 0 183 -95 183 -219v-340h-166v326c0 75 -17 88 -73 88c-50 0 -95 -17 -122 -30v-384h-167zM401 604l-111 112l111 111l112 -111z" />
    <glyph glyph-name="iacute" unicode="&#xed;" horiz-adv-x="301" 
d="M75 602l-47 100l238 121l54 -117zM67 0v546h167v-546h-167z" />
    <glyph glyph-name="igrave" unicode="&#xec;" horiz-adv-x="301" 
d="M216 602l-244 104l54 117l238 -121zM67 0v546h167v-546h-167z" />
    <glyph glyph-name="icircumflex" unicode="&#xee;" horiz-adv-x="301" 
d="M280 606l-129 90l-128 -89l-73 92l202 130l196 -131zM67 0v546h167v-546h-167z" />
    <glyph glyph-name="idieresis" unicode="&#xef;" horiz-adv-x="301" 
d="M33 622l-93 94l93 94l94 -94zM277 622l-94 94l94 94l93 -94zM67 0v546h167v-546h-167z" />
    <glyph glyph-name="ibreve" unicode="&#x12d;" horiz-adv-x="301" 
d="M156 614c-109 0 -171 63 -201 111l86 74c36 -34 76 -62 119 -62c42 0 80 27 114 62l81 -73c-32 -47 -95 -112 -199 -112zM67 0v546h167v-546h-167z" />
    <glyph glyph-name="dotlessi" unicode="&#x131;" horiz-adv-x="301" 
d="M67 0v546h167v-546h-167z" />
    <glyph glyph-name="imacron" unicode="&#x12b;" horiz-adv-x="301" 
d="M-13 647v129h328v-129h-328zM67 0v546h167v-546h-167z" />
    <glyph glyph-name="iogonek" unicode="&#x12f;" horiz-adv-x="300" 
d="M146 -260c-118 0 -157 46 -157 124c0 46 37 92 78 127v555h166v-546c-48 -31 -110 -74 -110 -114c0 -18 20 -27 42 -27c24 0 54 7 77 14l28 -107c-34 -15 -63 -26 -124 -26zM150 604l-111 112l111 111l112 -111z" />
    <glyph glyph-name="itilde" unicode="&#x129;" horiz-adv-x="301" 
d="M204 634c-51 0 -89 38 -128 38c-19 0 -40 -2 -70 -28l-63 74c24 29 77 82 144 82c63 0 89 -38 123 -38c32 0 51 7 87 26l55 -74c-23 -25 -73 -80 -148 -80zM67 0v546h167v-546h-167z" />
    <glyph glyph-name="uni01D0" unicode="&#x1d0;" horiz-adv-x="301" 
d="M67 0v546h167v-546h-167zM147 599l-196 131l68 92l129 -90l128 89l73 -92z" />
    <glyph glyph-name="uni1EC9" unicode="&#x1ec9;" horiz-adv-x="301" 
d="M67 0v546h167v-546h-167zM255 754c0 -80 -60 -128 -118 -151l-59 75c24 10 51 33 51 63c0 24 -18 33 -38 33c-12 0 -24 -3 -33 -8l-13 101c15 6 47 13 73 13c73 0 137 -48 137 -126z" />
    <glyph glyph-name="uni1ECB" unicode="&#x1ecb;" horiz-adv-x="301" 
d="M67 0v546h167v-546h-167zM149 604l-111 112l111 111l112 -111zM260 -149l-111 -112l-112 112l112 111z" />
    <glyph glyph-name="jcircumflex" unicode="&#x135;" horiz-adv-x="300" 
d="M278 606l-129 90l-128 -89l-73 92l202 130l196 -131zM12 -225c-39 0 -93 12 -128 28l31 129c28 -10 60 -16 91 -16c43 0 61 19 61 87v543h166v-544c0 -190 -105 -227 -221 -227z" />
    <glyph glyph-name="uni006A0301" horiz-adv-x="300" 
d="M71 602l-47 100l238 121l54 -117zM12 -225c-39 0 -93 12 -128 28l31 129c28 -10 60 -16 91 -16c43 0 61 19 61 87v543h166v-544c0 -190 -105 -227 -221 -227z" />
    <glyph glyph-name="uni0237" unicode="&#x237;" horiz-adv-x="300" 
d="M12 -225c-39 0 -93 12 -128 28l31 129c28 -10 60 -16 91 -16c43 0 61 19 61 87v543h166v-544c0 -190 -105 -227 -221 -227z" />
    <glyph glyph-name="kcommaaccent" unicode="&#x137;" horiz-adv-x="598" 
d="M67 0v754h167v-413l151 205h179l-199 -252l78 -89c38 -43 70 -73 139 -91l-19 -126c-87 4 -161 14 -232 107l-97 128v-223h-167zM397 -59l-45 -220h-116l21 220h140z" />
    <glyph glyph-name="uni01E9" unicode="&#x1e9;" horiz-adv-x="598" 
d="M67 0v754h167v-413l151 205h179l-199 -252l78 -89c38 -43 70 -73 139 -91l-19 -126c-87 4 -161 14 -232 107l-97 128v-223h-167zM518 837l-192 -97l-191 97l58 106l133 -60l133 60z" />
    <glyph glyph-name="uni1E35" unicode="&#x1e35;" horiz-adv-x="598" 
d="M67 0v754h167v-413l151 205h179l-199 -252l78 -89c38 -43 70 -73 139 -91l-19 -126c-87 4 -161 14 -232 107l-97 128v-223h-167zM143 -230v129h328v-129h-328z" />
    <glyph glyph-name="uni1E33" unicode="&#x1e33;" horiz-adv-x="598" 
d="M67 0v754h167v-413l151 205h179l-199 -252l78 -89c38 -43 70 -73 139 -91l-19 -126c-87 4 -161 14 -232 107l-97 128v-223h-167zM301 -261l-112 112l112 111l111 -111z" />
    <glyph glyph-name="lacute" unicode="&#x13a;" horiz-adv-x="301" 
d="M67 0v754h167v-754h-167zM83 796l-23 113l271 67l27 -131z" />
    <glyph glyph-name="lcaron" unicode="&#x13e;" horiz-adv-x="400" 
d="M67 0v754h167v-754h-167zM435 754l-45 -220h-116l21 220h140z" />
    <glyph glyph-name="lcommaaccent" unicode="&#x13c;" horiz-adv-x="301" 
d="M221 -58l-45 -220h-116l21 220h140zM67 0v754h167v-754h-167z" />
    <glyph glyph-name="ldot" unicode="&#x140;" horiz-adv-x="492" 
d="M388 285l-104 104l104 103l103 -103zM67 0v754h167v-754h-167z" />
    <glyph glyph-name="lslash" unicode="&#x142;" horiz-adv-x="388" 
d="M113 0v298l-90 -52l-1 114l91 52v342h167v-246l91 52v-112l-91 -53v-395h-167z" />
    <glyph glyph-name="uni1E3B" unicode="&#x1e3b;" horiz-adv-x="301" 
d="M67 0v754h167v-754h-167zM-14 -230v129h328v-129h-328z" />
    <glyph glyph-name="uni1E37" unicode="&#x1e37;" horiz-adv-x="301" 
d="M67 0v754h167v-754h-167zM151 -261l-112 112l112 111l111 -111z" />
    <glyph glyph-name="uni1E39" unicode="&#x1e39;" horiz-adv-x="301" 
d="M67 0v754h167v-754h-167zM149 -261l-112 112l112 111l111 -111zM-12 814v129h328v-129h-328z" />
    <glyph glyph-name="uni1E43" unicode="&#x1e43;" horiz-adv-x="989" 
d="M67 0v546h167v-55c46 35 112 70 177 70c78 0 131 -32 153 -83c42 38 117 83 188 83c178 0 175 -127 175 -219v-342h-167v328c0 67 -17 88 -69 88c-36 0 -82 -15 -113 -31c2 -14 2 -28 2 -42v-343h-166v328c0 75 -18 86 -68 86c-37 0 -82 -11 -112 -27v-387h-167z
M497 -261l-112 112l112 111l111 -111z" />
    <glyph glyph-name="uni006D0310" horiz-adv-x="989" 
d="M67 0v546h167v-55c46 35 112 70 177 70c78 0 131 -32 153 -83c42 38 117 83 188 83c178 0 175 -127 175 -219v-342h-167v328c0 67 -17 88 -69 88c-36 0 -82 -15 -113 -31c2 -14 2 -28 2 -42v-343h-166v328c0 75 -18 86 -68 86c-37 0 -82 -11 -112 -27v-387h-167zM508 613
c-109 0 -171 63 -201 111l86 74c36 -34 76 -62 119 -62c42 0 80 27 114 62l81 -73c-32 -47 -95 -112 -199 -112zM514 786l-94 96l94 94l95 -94z" />
    <glyph glyph-name="uni1E41" unicode="&#x1e41;" horiz-adv-x="989" 
d="M67 0v546h167v-55c46 35 112 70 177 70c78 0 131 -32 153 -83c42 38 117 83 188 83c178 0 175 -127 175 -219v-342h-167v328c0 67 -17 88 -69 88c-36 0 -82 -15 -113 -31c2 -14 2 -28 2 -42v-343h-166v328c0 75 -18 86 -68 86c-37 0 -82 -11 -112 -27v-387h-167zM496 604
l-111 112l111 111l112 -111z" />
    <glyph glyph-name="uni1E3F" unicode="&#x1e3f;" horiz-adv-x="989" 
d="M67 0v546h167v-55c46 35 112 70 177 70c78 0 131 -32 153 -83c42 38 117 83 188 83c178 0 175 -127 175 -219v-342h-167v328c0 67 -17 88 -69 88c-36 0 -82 -15 -113 -31c2 -14 2 -28 2 -42v-343h-166v328c0 75 -18 86 -68 86c-37 0 -82 -11 -112 -27v-387h-167zM458 601
l-47 100l238 121l54 -117z" />
    <glyph glyph-name="ntilde" unicode="&#xf1;" horiz-adv-x="657" 
d="M385 634c-51 0 -89 38 -128 38c-19 0 -40 -2 -70 -28l-63 74c24 29 77 82 144 82c63 0 89 -38 123 -38c32 0 51 7 87 26l55 -74c-23 -25 -73 -80 -148 -80zM67 0v546h167v-55c33 25 105 69 178 69c171 0 183 -94 183 -218v-342h-166v328c0 75 -17 88 -73 88
c-50 0 -95 -16 -122 -29v-387h-167z" />
    <glyph glyph-name="nacute" unicode="&#x144;" horiz-adv-x="657" 
d="M256 602l-47 100l238 121l54 -117zM67 0v546h167v-55c33 25 105 69 178 69c171 0 183 -94 183 -218v-342h-166v328c0 75 -17 88 -73 88c-50 0 -95 -16 -122 -29v-387h-167z" />
    <glyph glyph-name="napostrophe" unicode="&#x149;" horiz-adv-x="763" 
d="M-23 485c31 57 32 115 32 134v135h151v-97c0 -63 -25 -126 -63 -172h-120zM173 0v546h167v-55c33 25 105 69 178 69c171 0 183 -94 183 -218v-342h-166v328c0 75 -17 88 -73 88c-50 0 -95 -16 -122 -29v-387h-167z" />
    <glyph glyph-name="ncaron" unicode="&#x148;" horiz-adv-x="657" 
d="M327 600l-196 131l68 92l129 -90l128 89l73 -92zM67 0v546h167v-55c33 25 105 69 178 69c171 0 183 -94 183 -218v-342h-166v328c0 75 -17 88 -73 88c-50 0 -95 -16 -122 -29v-387h-167z" />
    <glyph glyph-name="ncommaaccent" unicode="&#x146;" horiz-adv-x="657" 
d="M67 0v546h167v-55c33 25 105 69 178 69c171 0 183 -94 183 -218v-342h-166v328c0 75 -17 88 -73 88c-50 0 -95 -16 -122 -29v-387h-167zM404 -59l-45 -220h-116l21 220h140z" />
    <glyph glyph-name="uni01F9" unicode="&#x1f9;" horiz-adv-x="657" 
d="M67 0v546h167v-55c33 25 105 69 178 69c171 0 183 -94 183 -218v-342h-166v328c0 75 -17 88 -73 88c-50 0 -95 -16 -122 -29v-387h-167zM406 601l-244 104l54 117l238 -121z" />
    <glyph glyph-name="uni1E49" unicode="&#x1e49;" horiz-adv-x="657" 
d="M67 0v546h167v-55c33 25 105 69 178 69c171 0 183 -94 183 -218v-342h-166v328c0 75 -17 88 -73 88c-50 0 -95 -16 -122 -29v-387h-167zM167 -230v129h328v-129h-328z" />
    <glyph glyph-name="uni1E45" unicode="&#x1e45;" horiz-adv-x="657" 
d="M67 0v546h167v-55c33 25 105 69 178 69c171 0 183 -94 183 -218v-342h-166v328c0 75 -17 88 -73 88c-50 0 -95 -16 -122 -29v-387h-167zM333 604l-111 112l111 111l112 -111z" />
    <glyph glyph-name="uni1E47" unicode="&#x1e47;" horiz-adv-x="657" 
d="M67 0v546h167v-55c33 25 105 69 178 69c171 0 183 -94 183 -218v-342h-166v328c0 75 -17 88 -73 88c-50 0 -95 -16 -122 -29v-387h-167zM333 -261l-112 112l112 111l111 -111z" />
    <glyph glyph-name="uni006E0304" horiz-adv-x="657" 
d="M164 647v129h328v-129h-328zM67 0v546h167v-55c33 25 105 69 178 69c171 0 183 -94 183 -218v-342h-166v328c0 75 -17 88 -73 88c-50 0 -95 -16 -122 -29v-387h-167z" />
    <glyph glyph-name="eng" unicode="&#x14b;" horiz-adv-x="657" 
d="M595 2c0 -190 -105 -222 -221 -222c-39 0 -95 11 -128 23l31 129s61 -11 92 -11c43 0 60 14 60 82v326c0 75 -17 88 -73 88c-50 0 -95 -17 -122 -30v-387h-167v546h167v-55c33 25 105 71 178 71c171 0 183 -95 183 -219v-341z" />
    <glyph glyph-name="oacute" unicode="&#xf3;" horiz-adv-x="632" 
d="M226 602l-47 100l238 121l54 -117zM309 -12c-180 0 -277 109 -277 280c0 181 113 292 286 292c194 0 281 -109 281 -287c0 -186 -122 -285 -290 -285zM317 121c90 0 112 59 112 152c0 88 -22 155 -114 155c-90 0 -115 -67 -115 -156c0 -94 28 -151 117 -151z" />
    <glyph glyph-name="ograve" unicode="&#xf2;" horiz-adv-x="632" 
d="M396 602l-244 104l54 117l238 -121zM309 -12c-180 0 -277 109 -277 280c0 181 113 292 286 292c194 0 281 -109 281 -287c0 -186 -122 -285 -290 -285zM317 121c90 0 112 59 112 152c0 88 -22 155 -114 155c-90 0 -115 -67 -115 -156c0 -94 28 -151 117 -151z" />
    <glyph glyph-name="ocircumflex" unicode="&#xf4;" horiz-adv-x="632" 
d="M445 606l-129 90l-128 -89l-73 92l202 130l196 -131zM309 -12c-180 0 -277 109 -277 280c0 181 113 292 286 292c194 0 281 -109 281 -287c0 -186 -122 -285 -290 -285zM317 121c90 0 112 59 112 152c0 88 -22 155 -114 155c-90 0 -115 -67 -115 -156
c0 -94 28 -151 117 -151z" />
    <glyph glyph-name="odieresis" unicode="&#xf6;" horiz-adv-x="632" 
d="M198 622l-93 94l93 94l94 -94zM442 622l-94 94l94 94l93 -94zM309 -12c-180 0 -277 109 -277 280c0 181 113 292 286 292c194 0 281 -109 281 -287c0 -186 -122 -285 -290 -285zM317 121c90 0 112 59 112 152c0 88 -22 155 -114 155c-90 0 -115 -67 -115 -156
c0 -94 28 -151 117 -151z" />
    <glyph glyph-name="otilde" unicode="&#xf5;" horiz-adv-x="632" 
d="M369 634c-51 0 -89 38 -128 38c-19 0 -40 -2 -70 -28l-63 74c24 29 77 82 144 82c63 0 89 -38 123 -38c32 0 51 7 87 26l55 -74c-23 -25 -73 -80 -148 -80zM309 -12c-180 0 -277 109 -277 280c0 181 113 292 286 292c194 0 281 -109 281 -287c0 -186 -122 -285 -290 -285
zM317 121c90 0 112 59 112 152c0 88 -22 155 -114 155c-90 0 -115 -67 -115 -156c0 -94 28 -151 117 -151z" />
    <glyph glyph-name="obreve" unicode="&#x14f;" horiz-adv-x="632" 
d="M317 614c-109 0 -171 63 -201 111l86 74c36 -34 76 -62 119 -62c42 0 80 27 114 62l81 -73c-32 -47 -95 -112 -199 -112zM309 -12c-180 0 -277 109 -277 280c0 181 113 292 286 292c194 0 281 -109 281 -287c0 -186 -122 -285 -290 -285zM317 121c90 0 112 59 112 152
c0 88 -22 155 -114 155c-90 0 -115 -67 -115 -156c0 -94 28 -151 117 -151z" />
    <glyph glyph-name="ohungarumlaut" unicode="&#x151;" horiz-adv-x="632" 
d="M166 595l-72 80l190 181l83 -94zM389 594l-46 97l236 117l53 -113zM309 -12c-180 0 -277 109 -277 280c0 181 113 292 286 292c194 0 281 -109 281 -287c0 -186 -122 -285 -290 -285zM317 121c90 0 112 59 112 152c0 88 -22 155 -114 155c-90 0 -115 -67 -115 -156
c0 -94 28 -151 117 -151z" />
    <glyph glyph-name="omacron" unicode="&#x14d;" horiz-adv-x="632" 
d="M148 647v129h328v-129h-328zM309 -12c-180 0 -277 109 -277 280c0 181 113 292 286 292c194 0 281 -109 281 -287c0 -186 -122 -285 -290 -285zM317 121c90 0 112 59 112 152c0 88 -22 155 -114 155c-90 0 -115 -67 -115 -156c0 -94 28 -151 117 -151z" />
    <glyph glyph-name="oslash" unicode="&#xf8;" horiz-adv-x="651" 
d="M318 -12c-74 0 -133 18 -178 51l-61 -61l-50 49l62 62c-33 47 -50 107 -50 179c0 181 113 292 286 292c77 0 137 -17 181 -49l59 59l49 -49l-59 -59c34 -48 51 -112 51 -189c0 -186 -122 -285 -290 -285zM326 121c90 0 112 59 112 152c0 22 -2 43 -5 62l-187 -188
c18 -17 44 -26 80 -26zM209 272c0 -22 1 -41 4 -59l187 189c-17 16 -42 26 -76 26c-90 0 -115 -67 -115 -156z" />
    <glyph glyph-name="oslashacute" unicode="&#x1ff;" horiz-adv-x="651" 
d="M318 -12c-74 0 -133 18 -178 51l-61 -61l-50 49l62 62c-33 47 -50 107 -50 179c0 181 113 292 286 292c77 0 137 -17 181 -49l59 59l49 -49l-59 -59c34 -48 51 -112 51 -189c0 -186 -122 -285 -290 -285zM251 602l-47 100l238 121l54 -117zM326 121c90 0 112 59 112 152
c0 22 -2 43 -5 62l-187 -188c18 -17 44 -26 80 -26zM209 272c0 -22 1 -41 4 -59l187 189c-17 16 -42 26 -76 26c-90 0 -115 -67 -115 -156z" />
    <glyph glyph-name="uni01D2" unicode="&#x1d2;" horiz-adv-x="632" 
d="M309 -12c-180 0 -277 109 -277 280c0 181 113 292 286 292c194 0 281 -109 281 -287c0 -186 -122 -285 -290 -285zM317 121c90 0 112 59 112 152c0 88 -22 155 -114 155c-90 0 -115 -67 -115 -156c0 -94 28 -151 117 -151zM313 599l-196 131l68 92l129 -90l128 89l73 -92
z" />
    <glyph glyph-name="uni01EB" unicode="&#x1eb;" horiz-adv-x="633" 
d="M454 -230c-36 -21 -77 -31 -116 -31c-83 0 -159 45 -159 133c0 46 24 87 61 122c-135 25 -207 126 -207 274c0 181 113 292 286 292c194 0 281 -109 281 -287c0 -142 -71 -233 -180 -269c-49 -29 -99 -68 -99 -109c0 -27 21 -42 40 -42c24 0 44 6 65 17zM318 121
c90 0 112 59 112 152c0 88 -22 155 -114 155c-90 0 -115 -67 -115 -156c0 -94 28 -151 117 -151z" />
    <glyph glyph-name="uni01ED" unicode="&#x1ed;" horiz-adv-x="633" 
d="M454 -230c-36 -21 -77 -31 -116 -31c-83 0 -159 45 -159 133c0 46 24 87 61 122c-135 25 -207 126 -207 274c0 181 113 292 286 292c194 0 281 -109 281 -287c0 -142 -71 -233 -180 -269c-49 -29 -99 -68 -99 -109c0 -27 21 -42 40 -42c24 0 44 6 65 17zM318 121
c90 0 112 59 112 152c0 88 -22 155 -114 155c-90 0 -115 -67 -115 -156c0 -94 28 -151 117 -151zM148 646v129h328v-129h-328z" />
    <glyph glyph-name="uni022F" unicode="&#x22f;" horiz-adv-x="632" 
d="M309 -12c-180 0 -277 109 -277 280c0 181 113 292 286 292c194 0 281 -109 281 -287c0 -186 -122 -285 -290 -285zM317 121c90 0 112 59 112 152c0 88 -22 155 -114 155c-90 0 -115 -67 -115 -156c0 -94 28 -151 117 -151zM315 604l-111 112l111 111l112 -111z" />
    <glyph glyph-name="ohorn" unicode="&#x1a1;" horiz-adv-x="657" 
d="M486 653h147c8 -18 11 -49 11 -65c0 -67 -36 -117 -83 -148c25 -45 38 -101 38 -167c0 -186 -122 -285 -290 -285c-180 0 -277 109 -277 280c0 181 113 292 286 292c55 0 101 -9 139 -25c34 15 37 42 37 71c0 15 -3 31 -8 47zM317 121c90 0 112 59 112 152
c0 88 -22 155 -114 155c-90 0 -115 -67 -115 -156c0 -94 28 -151 117 -151z" />
    <glyph glyph-name="uni1ED3" unicode="&#x1ed3;" horiz-adv-x="632" 
d="M309 -12c-180 0 -277 109 -277 280c0 181 113 292 286 292c194 0 281 -109 281 -287c0 -186 -122 -285 -290 -285zM317 121c90 0 112 59 112 152c0 88 -22 155 -114 155c-90 0 -115 -67 -115 -156c0 -94 28 -151 117 -151zM608 773l-82 -74l-165 163l94 88zM492 697
l-73 -92l-114 90l-113 -89l-70 92l184 130z" />
    <glyph glyph-name="uni1ED1" unicode="&#x1ed1;" horiz-adv-x="632" 
d="M309 -12c-180 0 -277 109 -277 280c0 181 113 292 286 292c194 0 281 -109 281 -287c0 -186 -122 -285 -290 -285zM317 121c90 0 112 59 112 152c0 88 -22 155 -114 155c-90 0 -115 -67 -115 -156c0 -94 28 -151 117 -151zM472 746l-74 82l149 138l86 -96zM430 606
l-114 90l-113 -89l-70 92l184 130l186 -131z" />
    <glyph glyph-name="uni1ED7" unicode="&#x1ed7;" horiz-adv-x="632" 
d="M309 -12c-180 0 -277 109 -277 280c0 181 113 292 286 292c194 0 281 -109 281 -287c0 -186 -122 -285 -290 -285zM317 121c90 0 112 59 112 152c0 88 -22 155 -114 155c-90 0 -115 -67 -115 -156c0 -94 28 -151 117 -151zM376 807c-48 0 -85 28 -121 28
c-19 0 -38 -2 -62 -24l-57 72c24 27 65 70 130 70c60 0 86 -28 119 -28c27 0 42 5 77 22l50 -74c-25 -22 -63 -66 -136 -66zM444 585l-129 80l-128 -79l-70 92l199 120l194 -121z" />
    <glyph glyph-name="uni1ED5" unicode="&#x1ed5;" horiz-adv-x="632" 
d="M309 -12c-180 0 -277 109 -277 280c0 181 113 292 286 292c194 0 281 -109 281 -287c0 -186 -122 -285 -290 -285zM317 121c90 0 112 59 112 152c0 88 -22 155 -114 155c-90 0 -115 -67 -115 -156c0 -94 28 -151 117 -151zM541 855c0 -62 -38 -105 -75 -126l-77 73
c15 10 28 25 28 43c0 20 -16 30 -36 30c-9 0 -22 -3 -35 -5l-13 99c15 6 47 13 73 13c38 0 72 -10 97 -33c23 -21 38 -54 38 -94zM444 586l-129 80l-128 -79l-70 92l199 120l194 -121z" />
    <glyph glyph-name="uni1ED9" unicode="&#x1ed9;" horiz-adv-x="632" 
d="M309 -12c-180 0 -277 109 -277 280c0 181 113 292 286 292c194 0 281 -109 281 -287c0 -186 -122 -285 -290 -285zM317 121c90 0 112 59 112 152c0 88 -22 155 -114 155c-90 0 -115 -67 -115 -156c0 -94 28 -151 117 -151zM439 605l-129 90l-128 -89l-73 92l202 130
l196 -131zM425 -149l-111 -112l-112 112l112 111z" />
    <glyph glyph-name="uni1ECF" unicode="&#x1ecf;" horiz-adv-x="632" 
d="M309 -12c-180 0 -277 109 -277 280c0 181 113 292 286 292c194 0 281 -109 281 -287c0 -186 -122 -285 -290 -285zM317 121c90 0 112 59 112 152c0 88 -22 155 -114 155c-90 0 -115 -67 -115 -156c0 -94 28 -151 117 -151zM420 754c0 -80 -60 -128 -118 -151l-59 75
c24 10 51 33 51 63c0 24 -18 33 -38 33c-12 0 -24 -3 -33 -8l-13 101c15 6 47 13 73 13c73 0 137 -48 137 -126z" />
    <glyph glyph-name="uni1ECD" unicode="&#x1ecd;" horiz-adv-x="632" 
d="M309 -12c-180 0 -277 109 -277 280c0 181 113 292 286 292c194 0 281 -109 281 -287c0 -186 -122 -285 -290 -285zM317 121c90 0 112 59 112 152c0 88 -22 155 -114 155c-90 0 -115 -67 -115 -156c0 -94 28 -151 117 -151zM428 -149l-111 -112l-112 112l112 111z" />
    <glyph glyph-name="uni1EDD" unicode="&#x1edd;" horiz-adv-x="657" 
d="M486 653h147c8 -18 11 -49 11 -65c0 -67 -36 -117 -83 -148c25 -45 38 -101 38 -167c0 -186 -122 -285 -290 -285c-180 0 -277 109 -277 280c0 181 113 292 286 292c55 0 101 -9 139 -25c34 15 37 42 37 71c0 15 -3 31 -8 47zM317 121c90 0 112 59 112 152
c0 88 -22 155 -114 155c-90 0 -115 -67 -115 -156c0 -94 28 -151 117 -151zM401 601l-244 104l54 117l238 -121z" />
    <glyph glyph-name="uni1EDB" unicode="&#x1edb;" horiz-adv-x="657" 
d="M486 653h147c8 -18 11 -49 11 -65c0 -67 -36 -117 -83 -148c25 -45 38 -101 38 -167c0 -186 -122 -285 -290 -285c-180 0 -277 109 -277 280c0 181 113 292 286 292c54 0 101 -9 139 -25c34 15 37 42 37 71c0 15 -3 31 -8 47zM317 121c90 0 112 59 112 152
c0 88 -22 155 -114 155c-90 0 -115 -67 -115 -156c0 -94 28 -151 117 -151zM266 601l-47 100l238 121l54 -117z" />
    <glyph glyph-name="uni1EE1" unicode="&#x1ee1;" horiz-adv-x="657" 
d="M486 653h147c8 -18 11 -49 11 -65c0 -67 -36 -117 -83 -148c25 -45 38 -101 38 -167c0 -186 -122 -285 -290 -285c-180 0 -277 109 -277 280c0 181 113 292 286 292c55 0 101 -9 139 -25c34 15 37 42 37 71c0 15 -3 31 -8 47zM317 121c90 0 112 59 112 152
c0 88 -22 155 -114 155c-90 0 -115 -67 -115 -156c0 -94 28 -151 117 -151zM375 633c-51 0 -89 38 -128 38c-19 0 -40 -2 -70 -28l-63 74c24 29 77 82 144 82c63 0 89 -38 123 -38c32 0 51 7 87 26l55 -74c-23 -25 -73 -80 -148 -80z" />
    <glyph glyph-name="uni1EDF" unicode="&#x1edf;" horiz-adv-x="657" 
d="M486 653h147c8 -18 11 -49 11 -65c0 -67 -36 -117 -83 -148c25 -45 38 -101 38 -167c0 -186 -122 -285 -290 -285c-180 0 -277 109 -277 280c0 181 113 292 286 292c55 0 101 -9 139 -25c34 15 37 42 37 71c0 15 -3 31 -8 47zM317 121c90 0 112 59 112 152
c0 88 -22 155 -114 155c-90 0 -115 -67 -115 -156c0 -94 28 -151 117 -151zM420 754c0 -80 -60 -128 -118 -151l-59 75c24 10 51 33 51 63c0 24 -18 33 -38 33c-12 0 -24 -3 -33 -8l-13 101c15 6 47 13 73 13c73 0 137 -48 137 -126z" />
    <glyph glyph-name="uni1EE3" unicode="&#x1ee3;" horiz-adv-x="658" 
d="M486 653h147c8 -18 11 -49 11 -65c0 -67 -36 -117 -83 -148c25 -45 38 -101 38 -167c0 -186 -122 -285 -290 -285c-180 0 -277 109 -277 280c0 181 113 292 286 292c54 0 101 -9 139 -25c34 15 37 42 37 71c0 15 -3 31 -8 47zM317 121c90 0 112 59 112 152
c0 88 -22 155 -114 155c-90 0 -115 -67 -115 -156c0 -94 28 -151 117 -151zM430 -149l-111 -112l-112 112l112 111z" />
    <glyph glyph-name="uni007000AF" horiz-adv-x="643" 
d="M142 647v129h328v-129h-328zM68 -220v766h166v-39c22 19 82 53 132 53c150 0 241 -69 241 -262c0 -228 -147 -308 -306 -308c-25 0 -47 3 -67 4v-214h-166zM305 117c85 0 134 74 134 176c0 98 -39 127 -123 127c-28 0 -61 -8 -82 -15v-282c16 -2 44 -6 71 -6z" />
    <glyph glyph-name="uni1E57" unicode="&#x1e57;" horiz-adv-x="640" 
d="M67 -220v766h166v-39c22 19 82 53 132 53c150 0 241 -69 241 -262c0 -228 -147 -308 -306 -308c-25 0 -47 3 -67 4v-214h-166zM304 117c85 0 134 74 134 176c0 98 -39 127 -123 127c-28 0 -61 -8 -82 -15v-282c16 -2 44 -6 71 -6zM321 604l-111 112l111 111l112 -111z
" />
    <glyph glyph-name="racute" unicode="&#x155;" horiz-adv-x="452" 
d="M177 602l-47 100l238 121l54 -117zM67 0v546h167v-73c27 35 78 84 141 84c30 0 52 -2 75 -9l-22 -137c-32 6 -43 6 -73 6c-49 0 -99 -23 -121 -47v-370h-167z" />
    <glyph glyph-name="rcaron" unicode="&#x159;" horiz-adv-x="452" 
d="M225 600l-196 131l68 92l129 -90l128 89l73 -92zM67 0v546h167v-73c27 35 78 84 141 84c30 0 52 -2 75 -9l-22 -137c-32 6 -43 6 -73 6c-49 0 -99 -23 -121 -47v-370h-167z" />
    <glyph glyph-name="rcommaaccent" unicode="&#x157;" horiz-adv-x="452" 
d="M67 0v546h167v-73c27 35 78 84 141 84c30 0 52 -2 75 -9l-22 -137c-32 6 -43 6 -73 6c-49 0 -99 -23 -121 -47v-370h-167zM224 -59l-45 -220h-116l21 220h140z" />
    <glyph glyph-name="uni1E5F" unicode="&#x1e5f;" horiz-adv-x="452" 
d="M67 0v546h167v-73c27 35 78 84 141 84c30 0 52 -2 75 -9l-22 -137c-32 6 -43 6 -73 6c-49 0 -99 -23 -121 -47v-370h-167zM-16 -230v129h328v-129h-328z" />
    <glyph glyph-name="uni1E5B" unicode="&#x1e5b;" horiz-adv-x="452" 
d="M67 0v546h167v-73c27 35 78 84 141 84c30 0 52 -2 75 -9l-22 -137c-32 6 -43 6 -73 6c-49 0 -99 -23 -121 -47v-370h-167zM152 -261l-112 112l112 111l111 -111z" />
    <glyph glyph-name="uni1E5D" unicode="&#x1e5d;" horiz-adv-x="452" 
d="M67 0v546h167v-73c27 35 78 84 141 84c30 0 52 -2 75 -9l-22 -137c-32 6 -43 6 -73 6c-49 0 -99 -23 -121 -47v-370h-167zM151 -261l-112 112l112 111l111 -111zM95 646v129h328v-129h-328z" />
    <glyph glyph-name="uni00720325" horiz-adv-x="452" 
d="M67 0v546h167v-73c27 35 78 84 141 84c30 0 52 -2 75 -9l-22 -137c-32 6 -43 6 -73 6c-49 0 -99 -23 -121 -47v-370h-167zM154 -295c-70 0 -150 27 -150 126c0 93 75 134 147 134c58 0 149 -28 149 -132c0 -90 -70 -128 -146 -128zM152 -224c39 0 58 21 61 56
c0 34 -26 56 -61 56c-43 0 -61 -19 -61 -54c0 -36 22 -58 61 -58z" />
    <glyph glyph-name="uni007203250304" horiz-adv-x="452" 
d="M67 0v546h167v-73c27 35 78 84 141 84c30 0 52 -2 75 -9l-22 -137c-32 6 -43 6 -73 6c-49 0 -99 -23 -121 -47v-370h-167zM151 -295c-70 0 -150 27 -150 126c0 93 75 134 147 134c58 0 149 -28 149 -132c0 -90 -70 -128 -146 -128zM149 -224c39 0 58 21 61 56
c0 34 -26 56 -61 56c-43 0 -61 -19 -61 -54c0 -36 22 -58 61 -58zM90 646v129h328v-129h-328z" />
    <glyph glyph-name="uni1E59" unicode="&#x1e59;" horiz-adv-x="452" 
d="M67 0v546h167v-73c27 35 78 84 141 84c30 0 52 -2 75 -9l-22 -137c-32 6 -43 6 -73 6c-49 0 -99 -23 -121 -47v-370h-167zM255 604l-111 112l111 111l112 -111z" />
    <glyph glyph-name="uni00720300" horiz-adv-x="452" 
d="M296 602l-244 104l54 117l238 -121zM67 0v546h167v-73c27 35 78 84 141 84c30 0 52 -2 75 -9l-22 -137c-32 6 -43 6 -73 6c-49 0 -99 -23 -121 -47v-370h-167z" />
    <glyph glyph-name="sacute" unicode="&#x15b;" horiz-adv-x="503" 
d="M167 602l-47 100l238 121l54 -117zM234 -12c-79 0 -143 7 -199 23l18 126c71 -10 128 -15 165 -15c75 0 94 16 94 38c0 59 -275 31 -275 227c0 118 111 173 230 173c67 0 127 -11 184 -31l-28 -121c-53 12 -95 20 -151 20c-46 0 -68 -13 -68 -33c0 -62 273 -45 273 -228
c0 -144 -151 -179 -243 -179z" />
    <glyph glyph-name="scedilla" unicode="&#x15f;" horiz-adv-x="503" 
d="M211 -283l-57 100c25 15 76 35 76 70c0 20 -7 42 -12 62h129c11 -25 22 -53 22 -81c0 -81 -95 -125 -158 -151zM234 -12c-79 0 -143 7 -199 23l18 126c71 -10 128 -15 165 -15c75 0 94 16 94 38c0 59 -275 31 -275 227c0 118 111 173 230 173c67 0 127 -11 184 -31
l-28 -121c-53 12 -95 20 -151 20c-46 0 -68 -13 -68 -33c0 -62 273 -45 273 -228c0 -144 -151 -179 -243 -179z" />
    <glyph glyph-name="scaron" unicode="&#x161;" horiz-adv-x="503" 
d="M252 600l-196 131l68 92l129 -90l128 89l73 -92zM234 -12c-79 0 -143 7 -199 23l18 126c71 -10 128 -15 165 -15c75 0 94 16 94 38c0 59 -275 31 -275 227c0 118 111 173 230 173c67 0 127 -11 184 -31l-28 -121c-53 12 -95 20 -151 20c-46 0 -68 -13 -68 -33
c0 -62 273 -45 273 -228c0 -144 -151 -179 -243 -179z" />
    <glyph glyph-name="scircumflex" unicode="&#x15d;" horiz-adv-x="503" 
d="M386 606l-129 90l-128 -89l-73 92l202 130l196 -131zM234 -12c-79 0 -143 7 -199 23l18 126c71 -10 128 -15 165 -15c75 0 94 16 94 38c0 59 -275 31 -275 227c0 118 111 173 230 173c67 0 127 -11 184 -31l-28 -121c-53 12 -95 20 -151 20c-46 0 -68 -13 -68 -33
c0 -62 273 -45 273 -228c0 -144 -151 -179 -243 -179z" />
    <glyph glyph-name="uni00730331" horiz-adv-x="503" 
d="M234 -12c-79 0 -143 7 -199 23l18 126c71 -10 128 -15 165 -15c75 0 94 16 94 38c0 59 -275 31 -275 227c0 118 111 173 230 173c67 0 127 -11 184 -31l-28 -121c-53 12 -95 20 -151 20c-46 0 -68 -13 -68 -33c0 -62 273 -45 273 -228c0 -144 -151 -179 -243 -179z
M92 -230v129h328v-129h-328z" />
    <glyph glyph-name="uni00730300" horiz-adv-x="503" 
d="M234 -12c-79 0 -143 7 -199 23l18 126c71 -10 128 -15 165 -15c75 0 94 16 94 38c0 59 -275 31 -275 227c0 118 111 173 230 173c67 0 127 -11 184 -31l-28 -121c-53 12 -95 20 -151 20c-46 0 -68 -13 -68 -33c0 -62 273 -45 273 -228c0 -144 -151 -179 -243 -179z
M341 601l-244 104l54 117l238 -121z" />
    <glyph glyph-name="uni1E61" unicode="&#x1e61;" horiz-adv-x="503" 
d="M234 -12c-79 0 -143 7 -199 23l18 126c71 -10 128 -15 165 -15c75 0 94 16 94 38c0 59 -275 31 -275 227c0 118 111 173 230 173c67 0 127 -11 184 -31l-28 -121c-53 12 -95 20 -151 20c-46 0 -68 -13 -68 -33c0 -62 273 -45 273 -228c0 -144 -151 -179 -243 -179z
M253 604l-111 112l111 111l112 -111z" />
    <glyph glyph-name="uni00730306" horiz-adv-x="503" 
d="M248 614c-109 0 -171 63 -201 111l86 74c36 -34 76 -62 119 -62c42 0 80 27 114 62l81 -73c-32 -47 -95 -112 -199 -112zM234 -12c-79 0 -143 7 -199 23l18 126c71 -10 128 -15 165 -15c75 0 94 16 94 38c0 59 -275 31 -275 227c0 118 111 173 230 173
c67 0 127 -11 184 -31l-28 -121c-53 12 -95 20 -151 20c-46 0 -68 -13 -68 -33c0 -62 273 -45 273 -228c0 -144 -151 -179 -243 -179z" />
    <glyph glyph-name="uni1E63" unicode="&#x1e63;" horiz-adv-x="503" 
d="M234 -12c-79 0 -143 7 -199 23l18 126c71 -10 128 -15 165 -15c75 0 94 16 94 38c0 59 -275 31 -275 227c0 118 111 173 230 173c67 0 127 -11 184 -31l-28 -121c-53 12 -95 20 -151 20c-46 0 -68 -13 -68 -33c0 -62 273 -45 273 -228c0 -144 -151 -179 -243 -179z
M260 -261l-112 112l112 111l111 -111z" />
    <glyph glyph-name="scommaaccent" unicode="&#x219;" horiz-adv-x="503" 
d="M234 -12c-79 0 -143 7 -199 23l18 126c71 -10 128 -15 165 -15c75 0 94 16 94 38c0 59 -275 31 -275 227c0 118 111 173 230 173c67 0 127 -11 184 -31l-28 -121c-53 12 -95 20 -151 20c-46 0 -68 -13 -68 -33c0 -62 273 -45 273 -228c0 -144 -151 -179 -243 -179z
M344 -59l-45 -220h-116l21 220h140z" />
    <glyph glyph-name="germandbls" unicode="&#xdf;" horiz-adv-x="668" 
d="M67 -150v688c0 174 115 232 264 232c70 0 237 -29 237 -184c0 -102 -107 -144 -107 -202c0 -72 190 -72 190 -219c0 -137 -129 -178 -217 -178c-61 0 -126 6 -166 20l20 128c45 -10 78 -16 113 -16c41 0 86 9 86 36c0 59 -191 56 -191 223c0 86 95 139 95 197
c0 35 -39 60 -74 60c-62 0 -84 -36 -84 -98v-687h-166z" />
    <glyph glyph-name="germandbls.alt" horiz-adv-x="668" 
d="M67 0v538c0 174 115 232 264 232c70 0 237 -29 237 -184c0 -102 -107 -144 -107 -202c0 -72 190 -72 190 -219c0 -137 -129 -178 -217 -178c-61 0 -126 6 -166 20l20 128c45 -10 78 -16 113 -16c41 0 86 9 86 36c0 59 -191 56 -191 223c0 86 95 139 95 197
c0 35 -39 60 -74 60c-62 0 -84 -36 -84 -98v-537h-166z" />
    <glyph glyph-name="tbar" unicode="&#x167;" horiz-adv-x="485" 
d="M34 259v79h64v85h-80v123h80v112h166v-112h169v-123h-169v-85h116v-79h-116v-79c0 -40 15 -53 60 -53c37 0 78 7 118 16l16 -131c-42 -15 -115 -25 -155 -25c-131 0 -205 45 -205 183v89h-64z" />
    <glyph glyph-name="tcaron" unicode="&#x165;" horiz-adv-x="485" 
d="M303 -13c-131 0 -205 45 -205 183v253h-80v123h80v112h166v-112h169v-123h-169v-243c0 -40 15 -53 60 -53c37 0 78 7 118 16l16 -131c-42 -15 -115 -25 -155 -25zM501 803l-45 -220h-116l21 220h140z" />
    <glyph glyph-name="uni021B" unicode="&#x21b;" horiz-adv-x="486" 
d="M304 -13c-131 0 -205 45 -205 183v253h-80v123h80v112h166v-112h169v-123h-169v-243c0 -40 15 -53 60 -53c37 0 78 7 118 16l16 -131c-42 -15 -115 -25 -155 -25zM366 -59l-45 -220h-116l21 220h140z" />
    <glyph glyph-name="tcommaaccent" unicode="&#x163;" horiz-adv-x="486" 
d="M304 -13c-131 0 -205 45 -205 183v253h-80v123h80v112h166v-112h169v-123h-169v-243c0 -40 15 -53 60 -53c37 0 78 7 118 16l16 -131c-42 -15 -115 -25 -155 -25zM356 -59l-45 -220h-116l21 220h140z" />
    <glyph glyph-name="uni1E6F" unicode="&#x1e6f;" horiz-adv-x="486" 
d="M304 -13c-131 0 -205 45 -205 183v253h-80v123h80v112h166v-112h169v-123h-169v-243c0 -40 15 -53 60 -53c37 0 78 7 118 16l16 -131c-42 -15 -115 -25 -155 -25zM97 -230v129h328v-129h-328z" />
    <glyph glyph-name="uni1E6D" unicode="&#x1e6d;" horiz-adv-x="486" 
d="M304 -13c-131 0 -205 45 -205 183v253h-80v123h80v112h166v-112h169v-123h-169v-243c0 -40 15 -53 60 -53c37 0 78 7 118 16l16 -131c-42 -15 -115 -25 -155 -25zM254 -261l-112 112l112 111l111 -111z" />
    <glyph glyph-name="uni1E97" unicode="&#x1e97;" horiz-adv-x="485" 
d="M303 -13c-131 0 -205 45 -205 183v253h-80v123h80v112h166v-112h169v-123h-169v-243c0 -40 15 -53 60 -53c37 0 78 7 118 16l16 -131c-42 -15 -115 -25 -155 -25zM64 698l-93 94l93 94l94 -94zM308 698l-94 94l94 94l93 -94z" />
    <glyph glyph-name="uni1E6B" unicode="&#x1e6b;" horiz-adv-x="485" 
d="M303 -13c-131 0 -205 45 -205 183v253h-80v123h80v112h166v-112h169v-123h-169v-243c0 -40 15 -53 60 -53c37 0 78 7 118 16l16 -131c-42 -15 -115 -25 -155 -25zM277 799l-94 -94l-94 94l94 94z" />
    <glyph glyph-name="uacute" unicode="&#xfa;" horiz-adv-x="657" 
d="M267 607l-47 100l238 121l54 -117zM245 -12c-171 0 -183 95 -183 219v339h166v-325c0 -75 17 -88 73 -88c50 0 95 14 122 27v386h167v-546h-167v56c-33 -25 -105 -68 -178 -68z" />
    <glyph glyph-name="ugrave" unicode="&#xf9;" horiz-adv-x="657" 
d="M388 602l-244 104l54 117l238 -121zM245 -12c-171 0 -183 95 -183 219v339h166v-325c0 -75 17 -88 73 -88c50 0 95 14 122 27v386h167v-546h-167v56c-33 -25 -105 -68 -178 -68z" />
    <glyph glyph-name="ucircumflex" unicode="&#xfb;" horiz-adv-x="657" 
d="M456 606l-129 90l-128 -89l-73 92l202 130l196 -131zM245 -12c-171 0 -183 95 -183 219v339h166v-325c0 -75 17 -88 73 -88c50 0 95 14 122 27v386h167v-546h-167v56c-33 -25 -105 -68 -178 -68z" />
    <glyph glyph-name="udieresis" unicode="&#xfc;" horiz-adv-x="657" 
d="M209 622l-93 94l93 94l94 -94zM453 622l-94 94l94 94l93 -94zM245 -12c-171 0 -183 95 -183 219v339h166v-325c0 -75 17 -88 73 -88c50 0 95 14 122 27v386h167v-546h-167v56c-33 -25 -105 -68 -178 -68z" />
    <glyph glyph-name="ubreve" unicode="&#x16d;" horiz-adv-x="657" 
d="M323 614c-109 0 -171 63 -201 111l86 74c36 -34 76 -62 119 -62c42 0 80 27 114 62l81 -73c-32 -47 -95 -112 -199 -112zM245 -12c-171 0 -183 95 -183 219v339h166v-325c0 -75 17 -88 73 -88c50 0 95 14 122 27v386h167v-546h-167v56c-33 -25 -105 -68 -178 -68z" />
    <glyph glyph-name="uhungarumlaut" unicode="&#x171;" horiz-adv-x="657" 
d="M154 595l-72 80l190 181l83 -94zM377 594l-46 97l236 117l53 -113zM245 -12c-171 0 -183 95 -183 219v339h166v-325c0 -75 17 -88 73 -88c50 0 95 14 122 27v386h167v-546h-167v56c-33 -25 -105 -68 -178 -68z" />
    <glyph glyph-name="umacron" unicode="&#x16b;" horiz-adv-x="657" 
d="M172 647v129h328v-129h-328zM245 -12c-171 0 -183 95 -183 219v339h166v-325c0 -75 17 -88 73 -88c50 0 95 14 122 27v386h167v-546h-167v56c-33 -25 -105 -68 -178 -68z" />
    <glyph glyph-name="uogonek" unicode="&#x173;" horiz-adv-x="657" 
d="M599 -127l26 -103c-34 -15 -76 -30 -131 -30c-104 0 -153 34 -153 112c0 46 42 97 82 133v71c-33 -25 -105 -71 -178 -71c-171 0 -183 95 -183 219v342h166v-328c0 -75 17 -88 73 -88c50 0 95 17 122 30v386h167v-546c-48 -31 -110 -74 -110 -114c0 -18 17 -27 38 -27
c29 0 58 7 81 14z" />
    <glyph glyph-name="uring" unicode="&#x16f;" horiz-adv-x="657" 
d="M328 586c-70 0 -150 27 -150 126c0 93 75 134 147 134c58 0 149 -28 149 -132c0 -90 -70 -128 -146 -128zM326 657c39 0 58 21 61 56c0 34 -26 56 -61 56c-43 0 -61 -19 -61 -54c0 -36 22 -58 61 -58zM245 -12c-171 0 -183 95 -183 219v339h166v-325c0 -75 17 -88 73 -88
c50 0 95 14 122 27v386h167v-546h-167v56c-33 -25 -105 -68 -178 -68z" />
    <glyph glyph-name="utilde" unicode="&#x169;" horiz-adv-x="657" 
d="M380 634c-51 0 -89 38 -128 38c-19 0 -40 -2 -70 -28l-63 74c24 29 77 82 144 82c63 0 89 -38 123 -38c32 0 51 7 87 26l55 -74c-23 -25 -73 -80 -148 -80zM245 -12c-171 0 -183 95 -183 219v339h166v-325c0 -75 17 -88 73 -88c50 0 95 14 122 27v386h167v-546h-167v56
c-33 -25 -105 -68 -178 -68z" />
    <glyph glyph-name="uhorn" unicode="&#x1b0;" horiz-adv-x="706" 
d="M566 664h147c8 -18 11 -49 11 -65c0 -86 -65 -149 -134 -171v-428h-167v56c-33 -25 -105 -68 -178 -68c-171 0 -183 95 -183 219v339h166v-325c0 -75 17 -88 73 -88c50 0 95 14 122 27v386h115c36 13 36 42 36 71c0 15 -3 31 -8 47z" />
    <glyph glyph-name="uni1EE7" unicode="&#x1ee7;" horiz-adv-x="657" 
d="M245 -12c-171 0 -183 95 -183 219v339h166v-325c0 -75 17 -88 73 -88c50 0 95 14 122 27v386h167v-546h-167v56c-33 -25 -105 -68 -178 -68zM420 754c0 -80 -60 -128 -118 -151l-59 75c24 10 51 33 51 63c0 24 -18 33 -38 33c-12 0 -24 -3 -33 -8l-13 101
c15 6 47 13 73 13c73 0 137 -48 137 -126z" />
    <glyph glyph-name="uni1EE5" unicode="&#x1ee5;" horiz-adv-x="657" 
d="M245 -12c-171 0 -183 95 -183 219v339h166v-325c0 -75 17 -88 73 -88c50 0 95 14 122 27v386h167v-546h-167v56c-33 -25 -105 -68 -178 -68zM454 -149l-111 -112l-112 112l112 111z" />
    <glyph glyph-name="uni1EEB" unicode="&#x1eeb;" horiz-adv-x="706" 
d="M566 664h147c8 -18 11 -49 11 -65c0 -86 -65 -149 -134 -171v-428h-167v56c-33 -25 -105 -68 -178 -68c-171 0 -183 95 -183 219v339h166v-325c0 -75 17 -88 73 -88c50 0 95 14 122 27v386h115c36 13 36 42 36 71c0 15 -3 31 -8 47zM411 601l-244 104l54 117l238 -121z
" />
    <glyph glyph-name="uni1EE9" unicode="&#x1ee9;" horiz-adv-x="706" 
d="M566 664h147c8 -18 11 -49 11 -65c0 -86 -65 -149 -134 -171v-428h-167v56c-33 -25 -105 -68 -178 -68c-171 0 -183 95 -183 219v339h166v-325c0 -75 17 -88 73 -88c50 0 95 14 122 27v386h115c36 13 36 42 36 71c0 15 -3 31 -8 47zM286 601l-47 100l238 121l54 -117z
" />
    <glyph glyph-name="uni1EEF" unicode="&#x1eef;" horiz-adv-x="706" 
d="M566 664h147c8 -18 11 -49 11 -65c0 -86 -65 -149 -134 -171v-428h-167v56c-33 -25 -105 -68 -178 -68c-171 0 -183 95 -183 219v339h166v-325c0 -75 17 -88 73 -88c50 0 95 14 122 27v386h115c36 13 36 42 36 71c0 15 -3 31 -8 47zM394 633c-51 0 -89 38 -128 38
c-19 0 -40 -2 -70 -28l-63 74c24 29 77 82 144 82c63 0 89 -38 123 -38c32 0 51 7 87 26l55 -74c-23 -25 -73 -80 -148 -80z" />
    <glyph glyph-name="uni1EED" unicode="&#x1eed;" horiz-adv-x="706" 
d="M566 664h147c8 -18 11 -49 11 -65c0 -86 -65 -149 -134 -171v-428h-167v56c-33 -25 -105 -68 -178 -68c-171 0 -183 95 -183 219v339h166v-325c0 -75 17 -88 73 -88c50 0 95 14 122 27v386h115c36 13 36 42 36 71c0 15 -3 31 -8 47zM430 754c0 -80 -60 -128 -118 -151
l-59 75c24 10 51 33 51 63c0 24 -18 33 -38 33c-12 0 -24 -3 -33 -8l-13 101c15 6 47 13 73 13c73 0 137 -48 137 -126z" />
    <glyph glyph-name="uni1EF1" unicode="&#x1ef1;" horiz-adv-x="706" 
d="M566 664h147c8 -18 11 -49 11 -65c0 -86 -65 -149 -134 -171v-428h-167v56c-33 -25 -105 -68 -178 -68c-171 0 -183 95 -183 219v339h166v-325c0 -75 17 -88 73 -88c50 0 95 14 122 27v386h115c36 13 36 42 36 71c0 15 -3 31 -8 47zM465 -149l-111 -112l-112 112l112 111
z" />
    <glyph glyph-name="uni01D4" unicode="&#x1d4;" horiz-adv-x="657" 
d="M327 600l-196 131l68 92l129 -90l128 89l73 -92zM245 -12c-171 0 -183 95 -183 219v339h166v-325c0 -75 17 -88 73 -88c50 0 95 14 122 27v386h167v-546h-167v56c-33 -25 -105 -68 -178 -68z" />
    <glyph glyph-name="uni01D6" unicode="&#x1d6;" horiz-adv-x="657" 
d="M209 592l-93 94l93 94l94 -94zM453 592l-94 94l94 94l93 -94zM245 -12c-171 0 -183 95 -183 219v339h166v-325c0 -75 17 -88 73 -88c50 0 95 14 122 27v386h167v-546h-167v56c-33 -25 -105 -68 -178 -68zM162 801v129h328v-129h-328z" />
    <glyph glyph-name="uni01D8" unicode="&#x1d8;" horiz-adv-x="657" 
d="M209 592l-93 94l93 94l94 -94zM453 592l-94 94l94 94l93 -94zM245 -12c-171 0 -183 95 -183 219v339h166v-325c0 -75 17 -88 73 -88c50 0 95 14 122 27v386h167v-546h-167v56c-33 -25 -105 -68 -178 -68zM295 760l-47 100l238 121l54 -117z" />
    <glyph glyph-name="uni01DA" unicode="&#x1da;" horiz-adv-x="657" 
d="M209 592l-93 94l93 94l94 -94zM453 592l-94 94l94 94l93 -94zM245 -12c-171 0 -183 95 -183 219v339h166v-325c0 -75 17 -88 73 -88c50 0 95 14 122 27v386h167v-546h-167v56c-33 -25 -105 -68 -178 -68zM323 752l-196 131l68 92l129 -90l128 89l73 -92z" />
    <glyph glyph-name="uni01DC" unicode="&#x1dc;" horiz-adv-x="657" 
d="M209 592l-93 94l93 94l94 -94zM453 592l-94 94l94 94l93 -94zM245 -12c-171 0 -183 95 -183 219v339h166v-325c0 -75 17 -88 73 -88c50 0 95 14 122 27v386h167v-546h-167v56c-33 -25 -105 -68 -178 -68zM373 756l-244 104l54 117l238 -121z" />
    <glyph glyph-name="uni00760304" horiz-adv-x="599" 
d="M134 647v129h328v-129h-328zM196 0l-197 546h179l92 -296l28 -109l31 109l102 296h175l-212 -546h-198z" />
    <glyph glyph-name="uni1E7F" unicode="&#x1e7f;" horiz-adv-x="601" 
d="M197 0l-197 546h179l92 -296l28 -109l31 109l102 296h175l-212 -546h-198zM300 -261l-112 112l112 111l111 -111z" />
    <glyph glyph-name="uni1E7D" unicode="&#x1e7d;" horiz-adv-x="599" 
d="M196 0l-197 546h179l92 -296l28 -109l31 109l102 296h175l-212 -546h-198zM359 633c-51 0 -89 38 -128 38c-19 0 -40 -2 -70 -28l-63 74c24 29 77 82 144 82c63 0 89 -38 123 -38c32 0 51 7 87 26l55 -74c-23 -25 -73 -80 -148 -80z" />
    <glyph glyph-name="wacute" unicode="&#x1e83;" horiz-adv-x="913" 
d="M386 602l-47 100l238 121l54 -117zM158 0l-140 546h175l70 -410l100 410h197l85 -410l90 410h171l-162 -546h-205l-64 298l-18 91l-21 -91l-71 -298h-207z" />
    <glyph glyph-name="wcircumflex" unicode="&#x175;" horiz-adv-x="913" 
d="M592 606l-129 90l-128 -89l-73 92l202 130l196 -131zM158 0l-140 546h175l70 -410l100 410h197l85 -410l90 410h171l-162 -546h-205l-64 298l-18 91l-21 -91l-71 -298h-207z" />
    <glyph glyph-name="wdieresis" unicode="&#x1e85;" horiz-adv-x="913" 
d="M334 622l-93 94l93 94l94 -94zM578 622l-94 94l94 94l93 -94zM158 0l-140 546h175l70 -410l100 410h197l85 -410l90 410h171l-162 -546h-205l-64 298l-18 91l-21 -91l-71 -298h-207z" />
    <glyph glyph-name="wgrave" unicode="&#x1e81;" horiz-adv-x="913" 
d="M550 602l-244 104l54 117l238 -121zM158 0l-140 546h175l70 -410l100 410h197l85 -410l90 410h171l-162 -546h-205l-64 298l-18 91l-21 -91l-71 -298h-207z" />
    <glyph glyph-name="uni1E87" unicode="&#x1e87;" horiz-adv-x="913" 
d="M158 0l-140 546h175l70 -410l100 410h197l85 -410l90 410h171l-162 -546h-205l-64 298l-18 91l-21 -91l-71 -298h-207zM462 604l-111 112l111 111l112 -111z" />
    <glyph glyph-name="uni1E89" unicode="&#x1e89;" horiz-adv-x="913" 
d="M158 0l-140 546h175l70 -410l100 410h197l85 -410l90 410h171l-162 -546h-205l-64 298l-18 91l-21 -91l-71 -298h-207zM462 -261l-112 112l112 111l111 -111z" />
    <glyph glyph-name="uni00780304" horiz-adv-x="602" 
d="M134 647v129h328v-129h-328zM4 0l202 279l-187 267h192l89 -166l92 166h189l-187 -267l204 -279h-199l-99 178l-100 -178h-196z" />
    <glyph glyph-name="uni1E8B" unicode="&#x1e8b;" horiz-adv-x="602" 
d="M4 0l202 279l-187 267h192l89 -166l92 166h189l-187 -267l204 -279h-199l-99 178l-100 -178h-196zM301 604l-111 112l111 111l112 -111z" />
    <glyph glyph-name="ydieresis" unicode="&#xff;" horiz-adv-x="597" 
d="M182 622l-93 94l93 94l94 -94zM426 622l-94 94l94 94l93 -94zM173 -220l74 220h-60l-188 546h179l94 -324l23 -89l27 89l109 324h168l-267 -766h-159z" />
    <glyph glyph-name="ycircumflex" unicode="&#x177;" horiz-adv-x="597" 
d="M429 606l-129 90l-128 -89l-73 92l202 130l196 -131zM173 -220l74 220h-60l-188 546h179l94 -324l23 -89l27 89l109 324h168l-267 -766h-159z" />
    <glyph glyph-name="uni0233" unicode="&#x233;" horiz-adv-x="597" 
d="M132 647v129h328v-129h-328zM173 -220l74 220h-60l-188 546h179l94 -324l23 -89l27 89l109 324h168l-267 -766h-159z" />
    <glyph glyph-name="ygrave" unicode="&#x1ef3;" horiz-adv-x="597" 
d="M369 602l-244 104l54 117l238 -121zM173 -220l74 220h-60l-188 546h179l94 -324l23 -89l27 89l109 324h168l-267 -766h-159z" />
    <glyph glyph-name="yacute" unicode="&#xfd;" horiz-adv-x="597" 
d="M241 602l-47 100l238 121l54 -117zM173 -220l74 220h-60l-188 546h179l94 -324l23 -89l27 89l109 324h168l-267 -766h-159z" />
    <glyph glyph-name="uni1E8F" unicode="&#x1e8f;" horiz-adv-x="597" 
d="M173 -220l74 220h-60l-188 546h179l94 -324l23 -89l27 89l109 324h168l-267 -766h-159zM300 604l-111 112l111 111l112 -111z" />
    <glyph glyph-name="uni1EF9" unicode="&#x1ef9;" horiz-adv-x="597" 
d="M173 -220l74 220h-60l-188 546h179l94 -324l23 -89l27 89l109 324h168l-267 -766h-159zM352 633c-51 0 -89 38 -128 38c-19 0 -40 -2 -70 -28l-63 74c24 29 77 82 144 82c63 0 89 -38 123 -38c32 0 51 7 87 26l55 -74c-23 -25 -73 -80 -148 -80z" />
    <glyph glyph-name="uni1EF7" unicode="&#x1ef7;" horiz-adv-x="597" 
d="M173 -220l74 220h-60l-188 546h179l94 -324l23 -89l27 89l109 324h168l-267 -766h-159zM414 754c0 -80 -60 -128 -118 -151l-59 75c24 10 51 33 51 63c0 24 -18 33 -38 33c-12 0 -24 -3 -33 -8l-13 101c15 6 47 13 73 13c73 0 137 -48 137 -126z" />
    <glyph glyph-name="uni1EF5" unicode="&#x1ef5;" horiz-adv-x="597" 
d="M173 -220l74 220h-60l-188 546h179l94 -324l23 -89l27 89l109 324h168l-267 -766h-159zM626 -149l-111 -112l-112 112l112 111z" />
    <glyph glyph-name="zacute" unicode="&#x17a;" horiz-adv-x="529" 
d="M173 602l-47 100l238 121l54 -117zM34 0v109l256 303h-240v134h436v-106l-250 -308h254v-132h-456z" />
    <glyph glyph-name="zcaron" unicode="&#x17e;" horiz-adv-x="529" 
d="M258 600l-196 131l68 92l129 -90l128 89l73 -92zM34 0v109l256 303h-240v134h436v-106l-250 -308h254v-132h-456z" />
    <glyph glyph-name="zdotaccent" unicode="&#x17c;" horiz-adv-x="529" 
d="M283 604l-111 112l111 111l112 -111zM34 0v109l256 303h-240v134h436v-106l-250 -308h254v-132h-456z" />
    <glyph glyph-name="uni1E95" unicode="&#x1e95;" horiz-adv-x="529" 
d="M34 0v109l256 303h-240v134h436v-106l-250 -308h254v-132h-456zM98 -230v129h328v-129h-328z" />
    <glyph glyph-name="uni1E93" unicode="&#x1e93;" horiz-adv-x="529" 
d="M34 0v109l256 303h-240v134h436v-106l-250 -308h254v-132h-456zM262 -261l-112 112l112 111l111 -111z" />
    <glyph glyph-name="uni007A0324" horiz-adv-x="529" 
d="M34 0v109l256 303h-240v134h436v-106l-250 -308h254v-132h-456zM140 -244l-93 94l93 94l94 -94zM384 -244l-94 94l94 94l93 -94z" />
    <glyph glyph-name="thorn" unicode="&#xfe;" horiz-adv-x="640" 
d="M67 -220v974h166v-247c22 19 82 53 132 53c150 0 241 -69 241 -262c0 -228 -147 -308 -306 -308c-25 0 -47 3 -67 4v-214h-166zM304 117c85 0 134 74 134 176c0 98 -39 127 -123 127c-28 0 -61 -8 -82 -15v-282c16 -2 44 -6 71 -6z" />
    <glyph glyph-name="uni04D9" unicode="&#x4d9;" horiz-adv-x="587" 
d="M256 559c180 0 296 -59 296 -277c0 -223 -115 -294 -280 -294c-172 0 -240 112 -240 277v60h354c1 86 -67 102 -154 102c-37 0 -99 -9 -156 -22l-25 123c61 20 139 31 205 31zM381 218h-178c-2 -66 27 -112 81 -112c57 0 94 40 97 112z" />
    <glyph glyph-name="eth" unicode="&#xf0;" horiz-adv-x="645" 
d="M310 -12c-180 0 -277 99 -277 270c0 161 123 280 276 280c33 0 52 -3 79 -14c-19 27 -51 57 -78 78l-62 -55l-50 53l49 44c-20 11 -42 21 -65 31l84 105c29 -9 60 -22 91 -40l59 53l51 -53l-47 -42c100 -83 179 -197 179 -426c0 -184 -120 -284 -289 -284zM318 121
c90 0 112 49 112 142c0 88 -32 143 -124 143c-79 0 -105 -55 -105 -144c0 -94 28 -141 117 -141z" />
    <glyph glyph-name="uni01C6" unicode="&#x1c6;" horiz-adv-x="1171" 
d="M279 -8c-110 0 -245 53 -245 290c0 187 131 278 297 278c30 0 55 -4 72 -6v200h167v-754h-167v39c-24 -19 -55 -47 -124 -47zM312 130c30 0 66 8 91 18v273c-17 3 -39 7 -69 7c-95 0 -134 -54 -134 -149c0 -119 53 -149 112 -149zM915 600l-196 131l68 92l129 -90l128 89
l73 -92zM676 0v109l256 303h-240v134h436v-106l-250 -308h254v-132h-456z" />
    <glyph glyph-name="uni01C9" unicode="&#x1c9;" horiz-adv-x="603" 
d="M67 0v754h167v-754h-167zM315 -225c-39 0 -93 12 -128 28l31 129c28 -10 60 -16 91 -16c43 0 61 19 61 87v543h166v-544c0 -190 -105 -227 -221 -227zM451 604l-111 112l111 111l112 -111z" />
    <glyph glyph-name="uni01CC" unicode="&#x1cc;" horiz-adv-x="964" 
d="M67 0v546h167v-55c33 25 105 69 178 69c171 0 183 -94 183 -218v-342h-166v328c0 75 -17 88 -73 88c-50 0 -95 -16 -122 -29v-387h-167zM812 604l-111 112l111 111l112 -111zM676 -225c-39 0 -93 12 -128 28l31 129c28 -10 60 -16 91 -16c43 0 61 19 61 87v543h166v-544
c0 -190 -105 -227 -221 -227z" />
    <glyph glyph-name="uni01F3" unicode="&#x1f3;" horiz-adv-x="1171" 
d="M279 -8c-110 0 -245 53 -245 290c0 187 131 278 297 278c30 0 55 -4 72 -6v200h167v-754h-167v39c-24 -19 -55 -47 -124 -47zM312 130c30 0 66 8 91 18v273c-17 3 -39 7 -69 7c-95 0 -134 -54 -134 -149c0 -119 53 -149 112 -149zM676 0v109l256 303h-240v134h436v-106
l-250 -308h254v-132h-456z" />
    <glyph glyph-name="uni021D" unicode="&#x21d;" horiz-adv-x="511" 
d="M116 136v113l164 163h-253v134h436v-106l-190 -197c109 -22 209 -82 209 -200c0 -163 -222 -263 -396 -268l-26 126c153 20 253 65 253 136c0 73 -107 98 -197 99z" />
    <glyph glyph-name="uni01EF" unicode="&#x1ef;" horiz-adv-x="511" 
d="M116 136v113l164 163h-253v134h436v-106l-190 -197c109 -22 209 -82 209 -200c0 -163 -222 -263 -396 -268l-26 126c153 20 253 65 253 136c0 73 -107 98 -197 99zM248 599l-196 131l68 92l129 -90l128 89l73 -92z" />
    <glyph glyph-name="uni0138" unicode="&#x138;" horiz-adv-x="599" 
d="M67 0v546h167v-213l151 213h183l-203 -255l78 -86c39 -43 70 -73 139 -91l-19 -126c-87 4 -161 15 -232 107l-97 125v-220h-167z" />
    <glyph glyph-name="uni01DD" unicode="&#x1dd;" horiz-adv-x="587" 
d="M256 559c180 0 296 -59 296 -277c0 -223 -115 -294 -280 -294c-172 0 -240 112 -240 277v60h354c1 86 -67 102 -154 102c-37 0 -99 -9 -156 -22l-25 123c61 20 139 31 205 31zM381 218h-178c-2 -66 27 -112 81 -112c57 0 94 40 97 112z" />
    <glyph glyph-name="uni0259" unicode="&#x259;" horiz-adv-x="587" 
d="M256 559c180 0 296 -59 296 -277c0 -223 -115 -294 -280 -294c-172 0 -240 112 -240 277v60h354c1 86 -67 102 -154 102c-37 0 -99 -9 -156 -22l-25 123c61 20 139 31 205 31zM381 218h-178c-2 -66 27 -112 81 -112c57 0 94 40 97 112z" />
    <glyph glyph-name="ae" unicode="&#xe6;" horiz-adv-x="908" 
d="M652 -9c-108 0 -193 20 -244 83c-38 -34 -108 -82 -193 -82c-120 0 -188 53 -188 162c0 142 126 158 234 161c0 0 65 3 95 3v44c0 48 -31 56 -99 56c-54 0 -112 -12 -163 -24l-33 121c64 24 134 44 221 44c69 0 140 -3 187 -39c46 28 103 39 169 39
c172 0 238 -112 238 -277v-53l-354 -8c-1 -86 66 -100 153 -100c37 0 100 9 157 19l23 -121c-61 -18 -137 -28 -203 -28zM242 119c31 0 81 5 131 23c-7 22 -12 46 -15 74l-84 -2c-74 -2 -84 -27 -84 -51c0 -28 21 -44 52 -44zM527 329l178 7c2 66 -37 103 -79 103
c-51 0 -99 -31 -99 -110z" />
    <glyph glyph-name="aeacute" unicode="&#x1fd;" horiz-adv-x="908" 
d="M372 602l-47 100l238 121l54 -117zM652 -9c-108 0 -193 20 -244 83c-38 -34 -108 -82 -193 -82c-120 0 -188 53 -188 162c0 142 126 158 234 161c0 0 65 3 95 3v44c0 48 -31 56 -99 56c-54 0 -112 -12 -163 -24l-33 121c64 24 134 44 221 44c69 0 140 -3 187 -39
c46 28 103 39 169 39c172 0 238 -112 238 -277v-53l-354 -8c-1 -86 66 -100 153 -100c37 0 100 9 157 19l23 -121c-61 -18 -137 -28 -203 -28zM242 119c31 0 81 5 131 23c-7 22 -12 46 -15 74l-84 -2c-74 -2 -84 -27 -84 -51c0 -28 21 -44 52 -44zM527 329l178 7
c2 66 -37 103 -79 103c-51 0 -99 -31 -99 -110z" />
    <glyph glyph-name="uni01E3" unicode="&#x1e3;" horiz-adv-x="908" 
d="M297 647v129h328v-129h-328zM652 -9c-108 0 -193 20 -244 83c-38 -34 -108 -82 -193 -82c-120 0 -188 53 -188 162c0 142 126 158 234 161c0 0 65 3 95 3v44c0 48 -31 56 -99 56c-54 0 -112 -12 -163 -24l-33 121c64 24 134 44 221 44c69 0 140 -3 187 -39
c46 28 103 39 169 39c172 0 238 -112 238 -277v-53l-354 -8c-1 -86 66 -100 153 -100c37 0 100 9 157 19l23 -121c-61 -18 -137 -28 -203 -28zM242 119c31 0 81 5 131 23c-7 22 -12 46 -15 74l-84 -2c-74 -2 -84 -27 -84 -51c0 -28 21 -44 52 -44zM527 329l178 7
c2 66 -37 103 -79 103c-51 0 -99 -31 -99 -110z" />
    <glyph glyph-name="oe" unicode="&#x153;" horiz-adv-x="982" 
d="M309 -12c-180 0 -277 109 -277 280c0 181 113 292 286 292c85 0 150 -21 195 -60c50 42 118 59 198 59c172 0 238 -112 238 -277v-60h-354c0 -74 48 -102 146 -102c37 0 108 9 163 22l26 -129c-61 -18 -139 -22 -205 -22c-93 0 -168 15 -220 59
c-51 -41 -118 -62 -196 -62zM317 121c90 0 112 59 112 152c0 88 -22 155 -114 155c-90 0 -115 -67 -115 -156c0 -94 28 -151 117 -151zM600 330h178c-1 68 -33 112 -83 112c-53 0 -92 -40 -95 -112z" />
    <glyph glyph-name="ij" unicode="&#x133;" horiz-adv-x="595" 
d="M67 0v546h167v-546h-167zM307 -225c-39 0 -93 12 -128 28l31 129c28 -10 60 -16 91 -16c43 0 61 19 61 87v543h166v-544c0 -190 -105 -227 -221 -227zM149 604l-111 112l111 111l112 -111zM447 604l-111 112l111 111l112 -111z" />
    <glyph glyph-name="iacute_jacute" horiz-adv-x="595" 
d="M65 602l-47 100l238 121l54 -117zM67 0v546h167v-546h-167zM307 -225c-39 0 -93 12 -128 28l31 129c28 -10 60 -16 91 -16c43 0 61 19 61 87v543h166v-544c0 -190 -105 -227 -221 -227zM389 602l-47 100l238 121l54 -117z" />
    <glyph glyph-name="i.alt" horiz-adv-x="332" 
d="M196 -12c-77 0 -133 39 -133 155v403h167v-379c0 -30 22 -41 46 -43c7 0 13 0 20 1l10 -122c-24 -9 -60 -15 -110 -15zM151 604l-111 112l111 111l112 -111z" />
    <glyph glyph-name="l.alt" horiz-adv-x="332" 
d="M196 -12c-77 0 -133 39 -133 155v611h167v-587c0 -30 22 -41 46 -43c7 0 13 0 20 1l10 -122c-24 -9 -60 -15 -110 -15z" />
    <glyph glyph-name="iacute.alt" horiz-adv-x="332" 
d="M196 -12c-77 0 -133 39 -133 155v403h167v-379c0 -30 22 -41 46 -43c7 0 13 0 20 1l10 -122c-24 -9 -60 -15 -110 -15zM71 602l-47 100l238 121l54 -117z" />
    <glyph glyph-name="igrave.alt" horiz-adv-x="332" 
d="M196 -12c-77 0 -133 39 -133 155v403h167v-379c0 -30 22 -41 46 -43c7 0 13 0 20 1l10 -122c-24 -9 -60 -15 -110 -15zM212 602l-244 104l54 117l238 -121z" />
    <glyph glyph-name="icircumflex.alt" horiz-adv-x="332" 
d="M196 -12c-77 0 -133 39 -133 155v403h167v-379c0 -30 22 -41 46 -43c7 0 13 0 20 1l10 -122c-24 -9 -60 -15 -110 -15zM280 606l-129 90l-128 -89l-73 92l202 130l196 -131z" />
    <glyph glyph-name="idieresis.alt" horiz-adv-x="332" 
d="M196 -12c-77 0 -133 39 -133 155v403h167v-379c0 -30 22 -41 46 -43c7 0 13 0 20 1l10 -122c-24 -9 -60 -15 -110 -15zM29 622l-93 94l93 94l94 -94zM273 622l-94 94l94 94l93 -94z" />
    <glyph glyph-name="ibreve.alt" horiz-adv-x="332" 
d="M196 -12c-77 0 -133 39 -133 155v403h167v-379c0 -30 22 -41 46 -43c7 0 13 0 20 1l10 -122c-24 -9 -60 -15 -110 -15zM152 614c-109 0 -171 63 -201 111l86 74c36 -34 76 -62 119 -62c42 0 80 27 114 62l81 -73c-32 -47 -95 -112 -199 -112z" />
    <glyph glyph-name="dotlessi.alt" horiz-adv-x="332" 
d="M196 -12c-77 0 -133 39 -133 155v403h167v-379c0 -30 22 -41 46 -43c7 0 13 0 20 1l10 -122c-24 -9 -60 -15 -110 -15z" />
    <glyph glyph-name="imacron.alt" horiz-adv-x="332" 
d="M196 -12c-77 0 -133 39 -133 155v403h167v-379c0 -30 22 -41 46 -43c7 0 13 0 20 1l10 -122c-24 -9 -60 -15 -110 -15zM-17 647v129h328v-129h-328z" />
    <glyph glyph-name="itilde.alt" horiz-adv-x="332" 
d="M196 -12c-77 0 -133 39 -133 155v403h167v-379c0 -30 22 -41 46 -43c7 0 13 0 20 1l10 -122c-24 -9 -60 -15 -110 -15zM203 634c-51 0 -89 38 -128 38c-19 0 -40 -2 -70 -28l-63 74c24 29 77 82 144 82c63 0 89 -38 123 -38c32 0 51 7 87 26l55 -74
c-23 -25 -73 -80 -148 -80z" />
    <glyph glyph-name="uni01D0.alt" horiz-adv-x="332" 
d="M196 -12c-77 0 -133 39 -133 155v403h167v-379c0 -30 22 -41 46 -43c7 0 13 0 20 1l10 -122c-24 -9 -60 -15 -110 -15zM143 599l-196 131l68 92l129 -90l128 89l73 -92z" />
    <glyph glyph-name="uni1EC9.alt" horiz-adv-x="332" 
d="M196 -12c-77 0 -133 39 -133 155v403h167v-379c0 -30 22 -41 46 -43c7 0 13 0 20 1l10 -122c-24 -9 -60 -15 -110 -15zM251 754c0 -80 -60 -128 -118 -151l-59 75c24 10 51 33 51 63c0 24 -18 33 -38 33c-12 0 -24 -3 -33 -8l-13 101c15 6 47 13 73 13
c73 0 137 -48 137 -126z" />
    <glyph glyph-name="uni1ECB.alt" horiz-adv-x="332" 
d="M196 -12c-77 0 -133 39 -133 155v403h167v-379c0 -30 22 -41 46 -43c7 0 13 0 20 1l10 -122c-24 -9 -60 -15 -110 -15zM145 604l-111 112l111 111l112 -111zM285 -149l-111 -112l-112 112l112 111z" />
    <glyph glyph-name="lacute.alt" horiz-adv-x="332" 
d="M196 -12c-77 0 -133 39 -133 155v611h167v-587c0 -30 22 -41 46 -43c7 0 13 0 20 1l10 -122c-24 -9 -60 -15 -110 -15zM67 796l-23 113l271 67l27 -131z" />
    <glyph glyph-name="lcaron.alt" horiz-adv-x="380" 
d="M196 -12c-77 0 -133 39 -133 155v611h167v-587c0 -30 22 -41 46 -43c7 0 13 0 20 1l10 -122c-24 -9 -60 -15 -110 -15zM431 754l-45 -220h-116l21 220h140z" />
    <glyph glyph-name="lcommaaccent.alt" horiz-adv-x="331" 
d="M195 -12c-77 0 -133 39 -133 155v611h167v-587c0 -30 22 -41 46 -43c7 0 13 0 20 1l10 -122c-24 -9 -60 -15 -110 -15zM257 -58l-45 -220h-116l21 220h140z" />
    <glyph glyph-name="ldot.alt" horiz-adv-x="489" 
d="M196 -12c-77 0 -133 39 -133 155v611h167v-587c0 -30 22 -41 46 -43c7 0 13 0 20 1l10 -122c-24 -9 -60 -15 -110 -15zM384 285l-104 104l104 103l103 -103z" />
    <glyph glyph-name="lslash.alt" horiz-adv-x="402" 
d="M244 -12c-77 0 -133 39 -133 155v155l-90 -52l-1 114l91 52v342h167v-246l91 52v-112l-91 -53v-228c0 -30 22 -41 46 -43c7 0 13 0 20 1l10 -122c-24 -9 -60 -15 -110 -15z" />
    <glyph glyph-name="uni1E3B.alt" horiz-adv-x="331" 
d="M195 -12c-77 0 -133 39 -133 155v611h167v-587c0 -30 22 -41 46 -43c7 0 13 0 20 1l10 -122c-24 -9 -60 -15 -110 -15zM-19 -230v129h328v-129h-328z" />
    <glyph glyph-name="uni1E37.alt" horiz-adv-x="331" 
d="M195 -12c-77 0 -133 39 -133 155v611h167v-587c0 -30 22 -41 46 -43c7 0 13 0 20 1l10 -122c-24 -9 -60 -15 -110 -15zM183 -261l-112 112l112 111l111 -111z" />
    <glyph glyph-name="uni1E39.alt" horiz-adv-x="331" 
d="M195 -12c-77 0 -133 39 -133 155v611h167v-587c0 -30 22 -41 46 -43c7 0 13 0 20 1l10 -122c-24 -9 -60 -15 -110 -15zM183 -261l-112 112l112 111l111 -111zM-17 814v129h328v-129h-328z" />
    <glyph glyph-name="comma" unicode="," horiz-adv-x="294" 
d="M31 -134c22 45 30 128 30 177v120h174v-78c0 -82 -21 -163 -59 -219h-145z" />
    <glyph glyph-name="period" unicode="." horiz-adv-x="307" 
d="M61 0v162h185v-162h-185z" />
    <glyph glyph-name="ellipsis" unicode="&#x2026;" horiz-adv-x="909" 
d="M59 0v147h168v-147h-168zM371 0v147h168v-147h-168zM682 0v147h168v-147h-168z" />
    <glyph glyph-name="colon" unicode=":" horiz-adv-x="329" 
d="M72 0v162h185v-162h-185zM72 384v162h185v-162h-185z" />
    <glyph glyph-name="semicolon" unicode=";" horiz-adv-x="328" 
d="M37 -134c34 62 35 126 35 147v150h184v-108c0 -69 -27 -139 -69 -189h-150zM72 384v162h185v-162h-185z" />
    <glyph glyph-name="question" unicode="?" horiz-adv-x="436" 
d="M88 185c-17 37 -20 62 -20 89c0 124 160 182 160 225c0 41 -43 68 -185 79l30 137c162 -11 329 -52 329 -211c0 -126 -189 -186 -189 -242c0 -13 -1 -30 9 -55zM85 0v147h167v-147h-167z" />
    <glyph glyph-name="questiondown" unicode="&#xbf;" horiz-adv-x="405" 
d="M349 -164c-162 11 -329 52 -329 211c0 126 189 181 189 237c0 13 1 30 -9 55l134 22c17 -37 20 -62 20 -89c0 -124 -160 -177 -160 -220c0 -41 43 -68 185 -79zM170 399v147h167v-147h-167z" />
    <glyph glyph-name="questiondown.cap" horiz-adv-x="439" 
d="M367 -3c-162 11 -329 52 -329 211c0 126 189 181 189 237c0 13 1 30 -9 55l134 22c17 -37 20 -62 20 -89c0 -124 -160 -177 -160 -220c0 -41 43 -68 185 -79zM188 560v147h167v-147h-167z" />
    <glyph glyph-name="question.smcp" horiz-adv-x="408" 
d="M370 446c0 -98 -156 -140 -156 -193c0 -23 2 -30 12 -53l-134 -21c-18 38 -21 60 -21 83c0 103 131 144 131 180c0 24 -22 46 -155 56l30 130c146 -9 293 -43 293 -182zM237 0h-167v147h167v-147z" />
    <glyph glyph-name="questiondown.smcp" horiz-adv-x="377" 
d="M20 100c0 98 156 140 156 193c0 23 -2 30 -12 53l134 21c18 -38 21 -60 21 -83c0 -103 -131 -139 -131 -180c0 -37 36 -59 155 -56l-30 -130c-146 9 -293 43 -293 182zM153 546h167v-147h-167v147z" />
    <glyph glyph-name="exclam" unicode="!" horiz-adv-x="345" 
d="M99 220l-10 193v294h167v-294l-10 -193h-147zM88 0v147h168v-147h-168z" />
    <glyph glyph-name="exclamdown" unicode="&#xa1;" horiz-adv-x="317" 
d="M75 -161v294l10 193h147l10 -193v-294h-167zM75 399v147h168v-147h-168z" />
    <glyph glyph-name="exclamdown.cap" horiz-adv-x="337" 
d="M85 0v294l10 193h147l10 -193v-294h-167zM85 560v147h168v-147h-168z" />
    <glyph glyph-name="exclam.smcp" horiz-adv-x="354" 
d="M261 413l-10 -193h-147l-11 193v194h168v-194zM261 0h-168v147h168v-147z" />
    <glyph glyph-name="exclamdown.smcp" horiz-adv-x="320" 
d="M76 133l10 193h147l11 -193v-194h-168v194zM76 546h168v-147h-168v147z" />
    <glyph glyph-name="uni203D" unicode="&#x203d;" horiz-adv-x="441" 
d="M100 220l-2 193v98h127v-92c24 23 40 46 40 83c0 47 -62 78 -220 76l30 137c175 -4 329 -52 329 -211c0 -110 -120 -182 -178 -212l1 -72h-127zM82 0v147h167v-147h-167z" />
    <glyph glyph-name="uni203D.smcp" horiz-adv-x="434" 
d="M105 220l-10 122v116h127v-68c21 15 34 26 34 50c0 31 -47 53 -189 64l26 124c162 -11 293 -48 293 -174c0 -109 -112 -143 -168 -164l-6 -70h-107zM77 0v147h167v-147h-167z" />
    <glyph glyph-name="hyphen" unicode="-" horiz-adv-x="440" 
d="M71 220v133h298v-133h-298z" />
    <glyph glyph-name="hyphen.cap" horiz-adv-x="434" 
d="M68 290v133h298v-133h-298z" />
    <glyph glyph-name="endash" unicode="&#x2013;" horiz-adv-x="604" 
d="M72 230v113h460v-113h-460z" />
    <glyph glyph-name="endash.cap" horiz-adv-x="600" 
d="M70 300v113h460v-113h-460z" />
    <glyph glyph-name="emdash" unicode="&#x2014;" horiz-adv-x="953" 
d="M72 230v113h809v-113h-809z" />
    <glyph glyph-name="emdash.cap" horiz-adv-x="939" 
d="M70 300v113h799v-113h-799z" />
    <glyph glyph-name="underscore" unicode="_" horiz-adv-x="556" 
d="M20 -199v133h516v-133h-516z" />
    <glyph glyph-name="at" unicode="@" horiz-adv-x="834" 
d="M397 -74c-203 0 -355 89 -355 342c0 307 211 449 456 449c183 0 298 -94 298 -300c0 -173 -104 -287 -252 -287c-62 0 -99 35 -104 62c-17 -26 -55 -51 -84 -51c-73 0 -122 29 -122 142s79 209 211 209c41 0 78 -1 145 -26l-22 -186c-2 -13 -2 -36 21 -36
c24 0 84 69 84 174c0 129 -72 194 -183 194c-179 0 -323 -105 -323 -340c0 -162 102 -235 239 -235c48 0 117 7 172 18l14 -102c-86 -23 -123 -27 -195 -27zM397 256c26 0 26 5 38 9l18 132h-5c-39 0 -72 -38 -72 -101c0 -13 1 -40 21 -40z" />
    <glyph glyph-name="ampersand" unicode="&#x26;" horiz-adv-x="725" 
d="M249 -13c-121 0 -222 54 -222 187c0 80 67 154 144 193c-36 59 -54 101 -54 156c0 74 67 194 221 194c143 0 199 -88 199 -173c0 -94 -74 -156 -196 -203c84 -117 238 -196 381 -219l-18 -129c-92 4 -188 32 -264 72c-47 -44 -112 -78 -191 -78zM261 109c34 0 61 9 83 26
c-48 37 -88 84 -117 126c-27 -16 -43 -50 -43 -78c0 -42 29 -74 77 -74zM289 430c64 25 106 67 106 101c0 39 -26 65 -66 65c-33 0 -70 -22 -70 -69c0 -30 11 -66 30 -97z" />
    <glyph glyph-name="ampersand.alt" horiz-adv-x="731" 
d="M570 387l97 -73c-30 -52 -61 -103 -95 -148c52 -25 104 -44 155 -54l-25 -119c-68 5 -146 32 -224 73c-61 -49 -133 -79 -225 -79c-149 0 -219 66 -219 171c0 81 55 140 120 188c-37 57 -59 113 -59 166c0 90 67 205 220 205c144 0 194 -102 194 -179
c0 -95 -85 -154 -169 -207c36 -37 80 -72 127 -104c37 44 71 98 103 160zM237 515c0 -29 11 -61 31 -94c58 38 105 74 105 116c0 31 -26 59 -68 59c-31 0 -68 -16 -68 -81zM262 109c35 0 69 10 102 29c-49 35 -95 75 -135 117c-29 -25 -47 -50 -47 -80c0 -36 27 -66 80 -66z
" />
    <glyph glyph-name="ampersand.smcp" horiz-adv-x="762" 
d="M311 -12c-177 0 -280 108 -280 280c0 181 119 292 289 292c73 0 107 -8 156 -31l-48 -109c-43 17 -69 20 -111 20c-94 0 -128 -77 -128 -168c0 -96 36 -158 130 -158c80 0 114 46 123 118h-155v122h321c26 0 57 5 76 31l79 -80c-27 -50 -59 -72 -142 -73h-19
c-7 -109 -92 -244 -291 -244z" />
    <glyph glyph-name="slash" unicode="/" horiz-adv-x="418" 
d="M19 -62l233 831h147l-233 -831h-147z" />
    <glyph glyph-name="slash.smcp" horiz-adv-x="376" 
d="M19 -62l190 678h147l-190 -678h-147z" />
    <glyph glyph-name="backslash" unicode="\" horiz-adv-x="418" 
d="M252 -62l-233 831h147l233 -831h-147z" />
    <glyph glyph-name="backslash.smcp" horiz-adv-x="375" 
d="M209 -62l-189 678h147l189 -678h-147z" />
    <glyph glyph-name="bar" unicode="|" horiz-adv-x="289" 
d="M71 -220v974h147v-974h-147z" />
    <glyph glyph-name="parenleft" unicode="(" horiz-adv-x="384" 
d="M359 -136l-77 -84c-147 100 -250 273 -250 494c0 201 94 381 249 480l83 -79c-123 -102 -183 -243 -183 -401c0 -145 59 -303 178 -410z" />
    <glyph glyph-name="parenleft.cap" horiz-adv-x="379" 
d="M362 -66l-77 -84c-147 100 -250 273 -250 494c0 201 94 381 249 480l83 -79c-123 -102 -183 -243 -183 -401c0 -145 59 -303 178 -410z" />
    <glyph glyph-name="parenright" unicode=")" horiz-adv-x="384" 
d="M102 -220l-77 84c119 107 178 265 178 410c0 158 -60 299 -183 401l83 79c155 -99 249 -279 249 -480c0 -221 -103 -394 -250 -494z" />
    <glyph glyph-name="parenright.cap" horiz-adv-x="374" 
d="M89 -150l-77 84c119 107 178 265 178 410c0 158 -60 299 -183 401l83 79c155 -99 249 -279 249 -480c0 -221 -103 -394 -250 -494z" />
    <glyph glyph-name="bracketleft" unicode="[" horiz-adv-x="358" 
d="M71 -220v974h267v-128h-110v-718h110v-128h-267z" />
    <glyph glyph-name="bracketleft.cap" horiz-adv-x="360" 
d="M69 -130v974h267v-128h-110v-718h110v-128h-267z" />
    <glyph glyph-name="bracketright" unicode="]" horiz-adv-x="358" 
d="M20 -220v128h110v718h-110v128h267v-974h-267z" />
    <glyph glyph-name="bracketright.cap" horiz-adv-x="360" 
d="M24 -130v128h110v718h-110v128h267v-974h-267z" />
    <glyph glyph-name="braceleft" unicode="{" horiz-adv-x="380" 
d="M300 -223c-136 0 -215 43 -215 162c0 9 1 19 2 29l20 189c2 20 -11 52 -76 52v127c65 0 78 33 76 52l-20 189c-1 10 -2 20 -2 29c0 120 79 162 215 162h59v-139h-50c-48 0 -66 -35 -62 -66l21 -173c8 -64 -18 -95 -59 -116v-2c42 -21 67 -53 59 -117l-21 -172
c-4 -31 10 -66 62 -66h50v-140h-59z" />
    <glyph glyph-name="braceleft.cap" horiz-adv-x="392" 
d="M303 -143c-136 0 -215 43 -215 162c0 9 1 19 2 29l20 189c2 20 -11 52 -76 52v127c65 0 78 33 76 52l-20 189c-1 10 -2 20 -2 29c0 120 79 162 215 162h59v-139h-50c-48 0 -66 -35 -62 -66l21 -173c8 -64 -18 -95 -59 -116v-2c42 -21 67 -53 59 -117l-21 -172
c-4 -31 10 -66 62 -66h50v-140h-59z" />
    <glyph glyph-name="braceright" unicode="}" horiz-adv-x="380" 
d="M80 -223h-59v140h50c52 0 66 35 62 66l-21 172c-8 64 17 96 59 117v2c-41 21 -67 52 -59 116l21 173c4 31 -14 66 -62 66h-50v139h59c136 0 215 -42 215 -162c0 -9 -1 -19 -2 -29l-20 -189c-2 -19 11 -52 76 -52v-127c-65 0 -78 -32 -76 -52l20 -189c1 -10 2 -20 2 -29
c0 -119 -79 -162 -215 -162z" />
    <glyph glyph-name="braceright.cap" horiz-adv-x="391" 
d="M88 -143h-59v140h50c52 0 66 35 62 66l-21 172c-8 64 17 96 59 117v2c-41 21 -67 52 -59 116l21 173c4 31 -14 66 -62 66h-50v139h59c136 0 215 -42 215 -162c0 -9 -1 -19 -2 -29l-20 -189c-2 -19 11 -52 76 -52v-127c-65 0 -78 -32 -76 -52l20 -189c1 -10 2 -20 2 -29
c0 -119 -79 -162 -215 -162z" />
    <glyph glyph-name="uni301A" unicode="&#x301a;" horiz-adv-x="590" 
d="M71 -220v974h499v-128h-110v-718h110v-128h-499zM218 626v-718h95v718h-95z" />
    <glyph glyph-name="uni301B" unicode="&#x301b;" horiz-adv-x="590" 
d="M519 754v-974h-499v128h110v718h-110v128h499zM372 -92v718h-95v-718h95z" />
    <glyph glyph-name="uni301A.cap" horiz-adv-x="583" 
d="M71 -130v974h499v-128h-110v-718h110v-128h-499zM218 716v-718h95v718h-95z" />
    <glyph glyph-name="uni301B.cap" horiz-adv-x="590" 
d="M519 844v-974h-499v128h110v718h-110v128h499zM372 -2v718h-95v-718h95z" />
    <glyph glyph-name="dblparenleft" horiz-adv-x="620" 
d="M359 -136l-77 -84c-147 100 -250 273 -250 494c0 201 94 381 249 480l83 -79c-123 -102 -193 -243 -193 -401c0 -145 69 -303 188 -410zM598 -100l-77 -84c-147 100 -235 277 -235 458c0 174 85 348 229 448l83 -79c-123 -102 -173 -211 -173 -369
c0 -145 54 -267 173 -374z" />
    <glyph glyph-name="dblparenleft.cap" horiz-adv-x="633" 
d="M362 -66l-77 -84c-147 100 -250 273 -250 494c0 201 94 381 249 480l83 -79c-123 -102 -193 -243 -193 -401c0 -145 69 -303 188 -410zM601 -30l-77 -84c-147 100 -235 277 -235 458c0 174 85 348 229 448l83 -79c-123 -102 -173 -211 -173 -369c0 -145 54 -267 173 -374
z" />
    <glyph glyph-name="dblparenright" horiz-adv-x="619" 
d="M337 -220l-77 84c119 107 188 265 188 410c0 158 -70 299 -193 401l83 79c155 -99 249 -279 249 -480c0 -221 -103 -394 -250 -494zM98 -184l-77 84c119 107 173 229 173 374c0 158 -50 267 -173 369l83 79c144 -100 229 -274 229 -448c0 -181 -88 -358 -235 -458z" />
    <glyph glyph-name="dblparenright.cap" horiz-adv-x="629" 
d="M344 -150l-77 84c119 107 188 265 188 410c0 158 -70 299 -193 401l83 79c155 -99 249 -279 249 -480c0 -221 -103 -394 -250 -494zM105 -114l-77 84c119 107 173 229 173 374c0 158 -50 267 -173 369l83 79c144 -100 229 -274 229 -448c0 -181 -88 -358 -235 -458z" />
    <glyph glyph-name="asciicircum" unicode="^" horiz-adv-x="558" 
d="M23 294l172 413h182l161 -413h-158l-96 286l-106 -286h-155z" />
    <glyph glyph-name="asciitilde" unicode="~" horiz-adv-x="559" 
d="M365 240c-88 0 -132 60 -183 60c-25 0 -48 -8 -75 -33l-77 102c43 53 98 97 157 97c90 0 121 -61 179 -61c17 0 40 -9 88 33l76 -94c-30 -53 -109 -104 -165 -104z" />
    <glyph glyph-name="degree" unicode="&#xb0;" horiz-adv-x="394" 
d="M196 402c-102 0 -161 58 -161 158c0 98 75 157 163 157c94 0 162 -60 162 -157c0 -98 -73 -158 -164 -158zM197 504c26 0 42 12 42 56c0 40 -17 54 -42 54c-27 0 -43 -14 -43 -54c0 -37 16 -56 43 -56z" />
    <glyph glyph-name="section" unicode="&#xa7;" horiz-adv-x="691" 
d="M146 -101c-44 0 -99 16 -126 40l41 118s45 -32 81 -32c30 0 34 50 34 72c0 36 -7 74 -13 109l-12 59c-6 32 -10 64 -10 97c0 168 175 284 358 284c47 0 122 -13 173 -62c0 0 -58 -88 -70 -100c-24 23 -60 39 -96 39c-34 0 -44 -23 -44 -51s6 -59 12 -80l10 -38
c15 -68 21 -136 21 -178c0 -161 -172 -277 -359 -277zM303 33c19 21 63 63 63 134c0 33 -5 65 -11 97l-16 80c-4 24 -7 53 -7 83c0 24 3 50 7 78c-44 -34 -56 -97 -56 -132c-1 -30 4 -69 8 -88l17 -84c5 -21 7 -45 7 -73s-4 -52 -12 -95z" />
    <glyph glyph-name="section.pln" horiz-adv-x="575" 
d="M116 -220c-44 0 -99 16 -126 40l41 118s45 -32 81 -32c30 0 34 50 34 72c0 36 -7 74 -13 109l-68 293c-6 32 -10 64 -10 97c0 168 175 284 358 284c47 0 122 -13 173 -62c0 0 -58 -88 -70 -100c-24 23 -60 39 -96 39c-34 0 -44 -23 -44 -51s7 -60 11 -81l67 -271
c14 -70 21 -136 21 -178c0 -161 -172 -277 -359 -277zM273 -86c19 21 63 63 63 134c0 33 -5 65 -11 97l-72 314c-4 24 -7 53 -7 83c0 24 3 50 7 78c-44 -34 -56 -97 -56 -132c-1 -30 4 -69 8 -88l73 -318c3 -20 7 -45 7 -73s-4 -52 -12 -95z" />
    <glyph glyph-name="bullet" unicode="&#x2022;" horiz-adv-x="368" 
d="M184 208c-80 0 -145 64 -145 144s65 145 145 145s145 -65 145 -145s-65 -144 -145 -144z" />
    <glyph glyph-name="paragraph" unicode="&#xb6;" horiz-adv-x="629" 
d="M334 -226c-39 0 -85 8 -122 21l29 138c29 -8 64 -15 95 -15c43 0 60 14 60 83v706h166v-707c0 -170 -104 -226 -228 -226zM213 227c-133 0 -192 95 -192 243c0 214 134 235 279 237h50v-480h-137z" />
    <glyph glyph-name="numbersign" unicode="#" horiz-adv-x="708" 
d="M125 0l6 103h-85v128h94l5 88h-99v129h110l6 112h155l-7 -112h115l6 112h155l-7 -112h82v-129h-91l-6 -88h97v-128h-105l-6 -103h-155l6 103h-115l-6 -103h-155zM294 231h116l5 88h-115z" />
    <glyph glyph-name="numbersign.pln" horiz-adv-x="704" 
d="M662 142h-110l-9 -142h-159l9 142h-107l-9 -142h-159l9 142h-85v132h94l10 139h-104v133h115l10 161h159l-11 -161h107l10 161h159l-11 -161h82v-133h-91l-11 -139h102v-132zM412 413h-107l-11 -139h108z" />
    <glyph glyph-name="percent" unicode="%" horiz-adv-x="876" 
d="M223 352c-98 0 -187 48 -187 176c0 117 89 186 190 186c98 0 191 -46 191 -179c0 -119 -91 -183 -194 -183zM223 466c29 0 55 19 55 69c0 49 -20 65 -52 65c-23 0 -51 -12 -51 -72c0 -49 18 -62 48 -62zM643 -11c-98 0 -187 47 -187 175c0 118 89 186 190 186
c98 0 191 -46 191 -179c0 -119 -91 -182 -194 -182zM643 103c29 0 55 18 55 68c0 49 -20 65 -52 65c-23 0 -51 -12 -51 -72c0 -49 18 -61 48 -61zM184 37l-87 90l582 531l87 -90z" />
    <glyph glyph-name="perthousand" unicode="&#x2030;" horiz-adv-x="1285" 
d="M223 352c-98 0 -187 48 -187 176c0 117 89 186 190 186c98 0 191 -46 191 -179c0 -119 -91 -183 -194 -183zM223 466c29 0 55 19 55 69c0 49 -20 65 -52 65c-23 0 -51 -12 -51 -72c0 -49 18 -62 48 -62zM643 -11c-98 0 -187 47 -187 175c0 118 89 186 190 186
c98 0 191 -46 191 -179c0 -119 -91 -182 -194 -182zM643 103c29 0 55 18 55 68c0 49 -20 65 -52 65c-23 0 -51 -12 -51 -72c0 -49 18 -61 48 -61zM1053 -11c-98 0 -187 47 -187 175c0 118 89 186 190 186c98 0 191 -46 191 -179c0 -119 -91 -182 -194 -182zM1053 103
c29 0 55 18 55 68c0 49 -20 65 -52 65c-23 0 -51 -12 -51 -72c0 -49 18 -61 48 -61zM184 37l-87 90l582 531l87 -90z" />
    <glyph glyph-name="ordfeminine" unicode="&#xaa;" horiz-adv-x="424" 
d="M163 389c-70 0 -112 31 -112 95c0 81 77 94 139 94h49v21c0 22 -12 26 -52 26c-30 0 -63 -6 -96 -14l-22 76c41 15 82 26 133 26c64 0 140 -3 140 -96v-138c0 -8 9 -7 28 -8l-4 -79c-42 -2 -99 -1 -115 28c-23 -16 -54 -31 -88 -31zM175 471c16 0 44 4 64 8v35l-44 -1
c-11 0 -41 1 -41 -22c0 -14 5 -20 21 -20zM59 283v78h310v-78h-310z" />
    <glyph glyph-name="ordfeminine.smcp" horiz-adv-x="451" 
d="M51 393l129 317h106l112 -317h-94l-24 73h-109l-28 -73h-92zM51 283v78h350v-78h-350zM197 532h61l-28 93z" />
    <glyph glyph-name="ordmasculine" unicode="&#xba;" horiz-adv-x="435" 
d="M215 383c-108 0 -166 64 -166 163c0 105 68 170 171 170c116 0 168 -64 168 -167c0 -108 -73 -166 -173 -166zM219 468c48 0 60 29 60 81c0 49 -12 82 -61 82c-47 0 -62 -33 -62 -83c0 -52 16 -80 63 -80zM62 283v78h310v-78h-310z" />
    <glyph glyph-name="dagger" unicode="&#x2020;" horiz-adv-x="564" 
d="M196 0l10 462l-170 -9v150l168 -9l-10 160h176l-10 -160l168 9v-150l-170 9l10 -462h-172z" />
    <glyph glyph-name="daggerdbl" unicode="&#x2021;" horiz-adv-x="598" 
d="M213 0l10 160l-170 -9v150l170 -8v169l-170 -9v150l168 -9l-10 160h176l-10 -160l168 9v-150l-169 9v-169l169 8v-150l-169 9l10 -160h-173z" />
    <glyph glyph-name="quotesingle" unicode="'" horiz-adv-x="240" 
d="M56 515l-11 240h150l-11 -240h-128z" />
    <glyph glyph-name="quotedbl" unicode="&#x22;" horiz-adv-x="431" 
d="M56 515l-11 240h140l-11 -240h-118zM257 515l-11 239h140l-11 -239h-118z" />
    <glyph glyph-name="quotedblleft" unicode="&#x201c;" horiz-adv-x="437" 
d="M49 485v98c0 63 25 126 63 172h101c-31 -57 -32 -115 -32 -134v-136h-132zM249 485v98c0 63 25 126 63 172h101c-31 -57 -32 -115 -32 -134v-136h-132z" />
    <glyph glyph-name="quotedblleft.smcp" horiz-adv-x="452" 
d="M49 503c0 63 25 126 63 172h106c-31 -57 -32 -115 -32 -134v-136h-137v98zM249 503c0 63 25 126 63 172h106c-31 -57 -32 -115 -32 -134v-136h-137v98z" />
    <glyph glyph-name="quotedblright" unicode="&#x201d;" horiz-adv-x="439" 
d="M37 485c31 57 32 115 32 134v136h132v-98c0 -63 -25 -126 -63 -172h-101zM237 485c31 57 32 115 32 134v136h132v-98c0 -63 -25 -126 -63 -172h-101z" />
    <glyph glyph-name="quotedblright.smcp" horiz-adv-x="450" 
d="M407 577c0 -63 -25 -126 -63 -172h-106c31 57 32 115 32 134v136h137v-98zM207 577c0 -63 -25 -126 -63 -172h-106c31 57 32 115 32 134v136h137v-98z" />
    <glyph glyph-name="quoteleft" unicode="&#x2018;" horiz-adv-x="236" 
d="M49 485v98c0 63 25 126 63 172h100c-31 -57 -32 -115 -32 -134v-136h-131z" />
    <glyph glyph-name="quoteleft.smcp" horiz-adv-x="252" 
d="M49 503c0 63 25 126 63 172h106c-31 -57 -32 -115 -32 -134v-136h-137v98z" />
    <glyph glyph-name="quoteright" unicode="&#x2019;" horiz-adv-x="238" 
d="M37 485c31 57 32 115 32 134v136h131v-98c0 -63 -25 -126 -63 -172h-100z" />
    <glyph glyph-name="quoteright.smcp" horiz-adv-x="250" 
d="M207 577c0 -63 -25 -126 -63 -172h-106c31 57 32 115 32 134v136h137v-98z" />
    <glyph glyph-name="quotesinglbase" unicode="&#x201a;" horiz-adv-x="251" 
d="M27 -122c31 57 32 115 32 134v136h133v-98c0 -63 -25 -126 -63 -172h-102z" />
    <glyph glyph-name="quotedblbase" unicode="&#x201e;" horiz-adv-x="433" 
d="M27 -122c31 57 32 115 32 134v136h127v-98c0 -63 -25 -126 -63 -172h-96zM215 -122c31 57 32 115 32 134v136h127v-98c0 -63 -25 -126 -63 -172h-96z" />
    <glyph glyph-name="guilsinglleft" unicode="&#x2039;" horiz-adv-x="303" 
d="M159 43l-128 229l127 227l103 -42l-91 -185l90 -179z" />
    <glyph glyph-name="guilsinglright.cap" horiz-adv-x="303" 
d="M144 125l-101 50l89 179l-91 185l103 42l127 -227z" />
    <glyph glyph-name="guilsinglright" unicode="&#x203a;" horiz-adv-x="302" 
d="M144 43l-101 50l89 179l-91 185l103 42l127 -227z" />
    <glyph glyph-name="guilsinglleft.cap" horiz-adv-x="304" 
d="M160 125l-128 229l127 227l103 -42l-91 -185l90 -179z" />
    <glyph glyph-name="guillemotleft" unicode="&#xab;" horiz-adv-x="523" 
d="M159 43l-128 229l127 227l103 -42l-91 -185l90 -179zM379 43l-128 229l127 227l103 -42l-91 -185l90 -179z" />
    <glyph glyph-name="guillemotleft.cap" horiz-adv-x="523" 
d="M159 124l-128 229l127 227l103 -42l-91 -185l90 -179zM379 124l-128 229l127 227l103 -42l-91 -185l90 -179z" />
    <glyph glyph-name="guillemotright" unicode="&#xbb;" horiz-adv-x="522" 
d="M144 43l-101 50l89 179l-91 185l103 42l127 -227zM364 43l-101 50l89 179l-91 185l103 42l127 -227z" />
    <glyph glyph-name="guillemotright.cap" horiz-adv-x="523" 
d="M144 125l-101 50l89 179l-91 185l103 42l127 -227zM364 125l-101 50l89 179l-91 185l103 42l127 -227z" />
    <glyph glyph-name="asterisk" unicode="*" horiz-adv-x="433" 
d="M85 445l-54 98l131 34l21 -38zM163 587l-132 39l55 98l98 -98zM158 403l38 128h41l34 -128h-113zM193 633l-32 128h113l-35 -128h-46zM349 440l-99 98l22 39l132 -39zM271 587l-21 38l97 95l54 -98z" />
    <glyph glyph-name="asterisk.alt" horiz-adv-x="329" 
d="M295 698l-72 -59l23 -94l-80 53l-81 -53l23 94l-72 59l95 8l35 86l35 -86z" />
    <glyph glyph-name="periodcentered" unicode="&#xb7;" horiz-adv-x="267" 
d="M134 285l-104 104l104 103l103 -103z" />
    <glyph glyph-name="f_i" horiz-adv-x="689" 
d="M104 -150v581h-80v115h80v26c0 158 108 210 228 210c44 0 77 -5 119 -6c40 0 110 3 152 8l26 -126c-60 -20 -133 -26 -173 -26s-68 5 -126 5c-39 0 -59 -11 -59 -65v-26h351v-545h-167v430h-185v-581h-166z" />
    <glyph glyph-name="f_l" horiz-adv-x="689" 
d="M104 -150v581h-80v115h80v26c0 158 108 210 228 210c44 0 77 -5 119 -6c57 -1 114 4 171 11v-787h-167v632c-40 0 -67 5 -125 5c-39 0 -59 -11 -59 -65v-26h116v-115h-117v-581h-166z" />
    <glyph glyph-name="f_i.alt" horiz-adv-x="689" 
d="M104 0v431h-80v115h80v26c0 158 108 210 228 210c44 0 77 -5 119 -6c40 0 110 3 152 8l26 -126c-60 -20 -133 -26 -173 -26s-68 5 -126 5c-39 0 -59 -11 -59 -65v-26h351v-546h-167v431h-185v-431h-166z" />
    <glyph glyph-name="f_l.alt" horiz-adv-x="689" 
d="M104 0v431h-80v115h80v26c0 158 108 210 228 210c44 0 77 -5 119 -6c57 -1 114 4 171 11v-787h-167v632c-40 0 -67 5 -125 5c-39 0 -59 -11 -59 -65v-26h116v-115h-117v-431h-166z" />
    <glyph glyph-name="f_h.alt" horiz-adv-x="1046" 
d="M104 0v434h-80v112h80v29c0 158 108 210 228 210c44 0 77 -5 119 -6c57 -1 114 4 171 11v-299c33 25 106 71 179 71c171 0 183 -95 183 -219v-343h-166v329c0 75 -17 88 -73 88c-50 0 -96 -17 -123 -30v-387h-167v635c-40 0 -67 5 -125 5c-39 0 -59 -11 -59 -65v-29h116
v-112h-117v-434h-166z" />
    <glyph glyph-name="f_b.alt" horiz-adv-x="1029" 
d="M689 -11c-113 0 -172 16 -233 36v607c-40 0 -68 5 -126 5c-39 0 -59 -11 -59 -65v-26h116v-115h-117v-431h-166v431h-80v115h80v26c0 158 108 210 228 210c44 0 77 -5 119 -6c57 -1 114 4 171 11v-247c37 13 85 19 111 19c164 0 262 -65 262 -257
c0 -236 -148 -313 -306 -313zM703 435c-30 0 -57 -5 -81 -13v-292c19 -4 43 -11 70 -11c85 0 133 80 133 182c0 103 -33 134 -122 134z" />
    <glyph glyph-name="f_j.alt" horiz-adv-x="690" 
d="M394 -230c-40 0 -72 10 -107 22l31 133c18 -5 47 -10 79 -10c42 0 59 14 59 80v439h-186v-434h-166v434h-80v112h80v27c0 158 108 210 228 210c44 0 77 -5 119 -6c40 0 110 3 152 8l26 -126c-60 -20 -133 -26 -173 -26s-68 5 -126 5c-39 0 -59 -11 -59 -65v-27h352v-550
c0 -190 -105 -226 -229 -226z" />
    <glyph glyph-name="f_k.alt" horiz-adv-x="987" 
d="M952 -12c-87 4 -161 14 -232 107l-98 130v-225h-167v635c-40 0 -67 5 -125 5c-39 0 -59 -11 -59 -65v-29h116v-112h-117v-434h-166v434h-80v112h80v29c0 158 108 210 228 210c44 0 77 -5 119 -6c57 -1 115 4 171 11v-450l152 206h179l-199 -252l78 -89
c38 -43 70 -73 139 -91z" />
    <glyph glyph-name="f_f.alt" horiz-adv-x="753" 
d="M104 0v432h-80v114h81v28c0 169 106 208 220 208c86 0 163 -17 206 -31c40 25 92 31 146 31c40 0 90 -8 129 -21l-32 -129s-45 8 -92 8c-41 0 -59 -23 -59 -66v-28h117v-114h-117v-432h-167v432h-185v-432h-167zM271 546h185v38c0 16 1 31 3 45c-40 8 -71 11 -129 11
c-41 0 -59 -23 -59 -66v-28z" />
    <glyph glyph-name="f_f_i.alt" horiz-adv-x="1042" 
d="M104 0v431h-80v115h81v28c0 169 106 208 220 208c92 0 173 -19 213 -34c41 26 92 37 146 37c44 0 77 -5 120 -6c39 0 109 3 151 8l26 -126c-60 -20 -132 -26 -172 -26c-41 -1 -69 5 -127 5c-39 0 -59 -11 -59 -65v-29h352v-546h-167v431h-185v-431h-167v431h-185v-431
h-167zM271 546h186v29c0 19 1 37 4 53c-41 9 -72 12 -131 12c-41 0 -59 -23 -59 -66v-28z" />
    <glyph glyph-name="f_f_l.alt" horiz-adv-x="1042" 
d="M104 0v432h-80v114h81v28c0 169 106 208 220 208c92 0 173 -19 213 -34c41 26 92 37 146 37c44 0 77 -5 120 -6c57 -1 114 4 171 11v-790h-167v635c-40 0 -68 5 -126 5c-39 0 -59 -11 -59 -65v-29h116v-114h-116v-432h-167v432h-185v-432h-167zM271 546h186v29
c0 19 1 37 4 53c-41 9 -72 12 -131 12c-41 0 -59 -23 -59 -66v-28z" />
    <glyph glyph-name="f_f_j.alt" horiz-adv-x="1041" 
d="M753 -220c-39 0 -76 7 -109 19l31 129s42 -7 73 -7c42 0 59 14 60 79v431h-185v-431h-167v431h-185v-431h-167v431h-80v115h81v28c0 169 106 208 220 208c92 0 173 -19 213 -34c41 26 92 37 146 37c44 0 77 -5 120 -6c39 0 109 3 151 8l26 -126
c-60 -20 -132 -26 -172 -26c-41 -1 -69 5 -127 5c-39 0 -59 -11 -59 -65v-29h352l-1 -546c-1 -188 -106 -220 -221 -220zM271 546h186v29c0 19 1 37 4 53c-41 9 -72 12 -131 12c-41 0 -59 -23 -59 -66v-28z" />
    <glyph glyph-name="f_idieresis.alt" horiz-adv-x="706" 
d="M104 0v431h-80v115h80v30c0 151 83 194 197 194c34 0 61 -7 86 -16l-25 -123c-12 6 -31 10 -46 10c-29 0 -45 -20 -45 -57v-38h111v-115h-111v-431h-167zM472 0v546h167v-546h-167zM479 602l-91 92l91 91l92 -91zM686 602l-91 92l91 91l92 -91z" />
    <glyph glyph-name="f_igrave.alt" horiz-adv-x="706" 
d="M104 0v431h-80v115h80v30c0 151 78 194 192 194c40 0 71 -5 104 -15l-26 -127c-21 10 -43 13 -63 13c-24 0 -40 -20 -40 -57v-38h111v-115h-111v-431h-167zM584 592l-161 172l97 84l149 -185zM472 0v546h167v-546h-167z" />
    <glyph glyph-name="brokenbar" unicode="&#xa6;" horiz-adv-x="329" 
d="M91 -220v361h147v-361h-147zM91 392v362h147v-362h-147z" />
    <glyph glyph-name="minus" unicode="&#x2212;" horiz-adv-x="600" 
d="M39 242v126h524v-126h-524z" />
    <glyph glyph-name="plus" unicode="+" horiz-adv-x="582" 
d="M227 45l1 199l-199 -2v126l199 -4l-1 201h126l-6 -204l206 7v-126l-203 2l3 -199h-126z" />
    <glyph glyph-name="multiply" unicode="&#xd7;" horiz-adv-x="567" 
d="M439 60l-157 159l-152 -157l-90 90l156 154l-156 153l87 91l154 -159l155 157l90 -90l-163 -154l163 -153z" />
    <glyph glyph-name="less" unicode="&#x3c;" horiz-adv-x="504" 
d="M452 47l-424 191v131l424 201v-139l-285 -128l285 -117v-139z" />
    <glyph glyph-name="equal" unicode="=" horiz-adv-x="604" 
d="M76 113l-2 126h454l2 -126h-454zM76 364l-2 126h454l2 -126h-454z" />
    <glyph glyph-name="greater" unicode="&#x3e;" horiz-adv-x="504" 
d="M52 47v139l285 117l-285 128v139l424 -201v-131z" />
    <glyph glyph-name="infinity" unicode="&#x221e;" horiz-adv-x="982" 
d="M256 115c-124 0 -185 66 -185 184c0 117 75 189 189 189c72 0 128 -48 232 -120c107 70 162 120 233 120c121 0 187 -70 187 -183c0 -118 -72 -190 -192 -190c-74 0 -129 55 -233 121c-104 -70 -157 -121 -231 -121zM261 237c36 0 72 28 128 64c-56 37 -95 67 -131 67
c-42 0 -64 -34 -64 -65c0 -35 22 -66 67 -66zM724 237c42 0 64 33 64 65c0 35 -24 66 -67 66c-31 0 -74 -29 -131 -65c60 -35 98 -66 134 -66z" />
    <glyph glyph-name="plusminus" unicode="&#xb1;" horiz-adv-x="538" 
d="M46 0v126h160l1 158l-161 -2v126l161 -4l-1 161h126l-6 -164l166 7v-126l-163 2l3 -158h160v-126h-446z" />
    <glyph glyph-name="lessequal" unicode="&#x2264;" horiz-adv-x="600" 
d="M73 0v133h408l-408 145v151l453 161v-139l-275 -98l275 -97v-256h-453z" />
    <glyph glyph-name="notequal" unicode="&#x2260;" horiz-adv-x="600" 
d="M43 11l74 102h-47l-2 126h140l91 125h-229l-2 126h322l68 93h103l-68 -93h39v-126h-130l-91 -125h221v-126h-312l-74 -102h-103z" />
    <glyph glyph-name="greaterequal" unicode="&#x2265;" horiz-adv-x="600" 
d="M73 0v256l275 97l-275 98v139l453 -161v-151l-408 -145h408v-133h-453z" />
    <glyph glyph-name="divide" unicode="&#xf7;" horiz-adv-x="614" 
d="M236 46v128h138v-128h-138zM45 242v126h524v-126h-524zM236 433v128h138v-128h-138z" />
    <glyph glyph-name="logicalnot" unicode="&#xac;" horiz-adv-x="620" 
d="M418 86v156h-368v127h505v-283h-137z" />
    <glyph glyph-name="approxequal" unicode="&#x2248;" horiz-adv-x="600" 
d="M385 89c-88 0 -132 60 -183 60c-25 0 -48 -8 -75 -33l-77 82c43 53 98 97 157 97c90 0 121 -61 179 -61c17 0 40 -9 88 33l76 -74c-30 -53 -109 -104 -165 -104zM385 331c-88 0 -132 60 -183 60c-25 0 -48 -8 -75 -33l-77 82c43 53 98 97 157 97c90 0 121 -61 179 -61
c17 0 40 -9 88 33l76 -74c-30 -53 -109 -104 -165 -104z" />
    <glyph glyph-name="radical" unicode="&#x221a;" horiz-adv-x="768" 
d="M264 0l-121 412h-143v134h282l74 -286l27 -124l34 123l191 578h170l-292 -837h-222z" />
    <glyph glyph-name="partialdiff" unicode="&#x2202;" horiz-adv-x="634" 
d="M310 -13c-132 0 -267 37 -267 236c0 114 93 243 257 243c33 0 62 -2 89 -5c-39 66 -113 106 -225 130l52 137c153 -35 375 -118 375 -400c0 -233 -97 -341 -281 -341zM303 125c122 0 117 130 117 198v12c-33 5 -58 8 -87 8c-72 0 -123 -41 -123 -120c0 -59 32 -98 93 -98
z" />
    <glyph glyph-name="summation" unicode="&#x2211;" horiz-adv-x="576" 
d="M31 -220v104l176 359l-177 360v104h515v-133h-353l169 -332l-165 -329h350v-133h-515z" />
    <glyph glyph-name="product" unicode="&#x220f;" horiz-adv-x="824" 
d="M120 -220v794h-100v133h784v-133h-101v-794h-170v794h-243v-794h-170z" />
    <glyph glyph-name="lozenge" unicode="&#x25ca;" horiz-adv-x="654" 
d="M220 0l-200 355l208 352h207l199 -354l-208 -353h-206zM324 134l119 218l-113 222l-119 -218z" />
    <glyph glyph-name="integral" unicode="&#x222b;" horiz-adv-x="449" 
d="M-64 -231l-12 137c128 15 170 3 170 88v500c0 200 166 225 334 225l11 -141c-138 -10 -177 -2 -177 -83v-502c0 -199 -158 -224 -326 -224z" />
    <glyph glyph-name="uni0400" unicode="&#x400;" horiz-adv-x="611" 
d="M418 744l-275 49l27 131l271 -67zM83 0v707h464v-133h-294v-157h272v-124h-272v-160h317v-133h-487z" />
    <glyph glyph-name="uni0401" unicode="&#x401;" horiz-adv-x="611" 
d="M192 737l-99 100l99 100l100 -100zM436 737l-100 100l100 100l99 -100zM83 0v707h464v-133h-294v-157h272v-124h-272v-160h317v-133h-487z" />
    <glyph glyph-name="uni0402" unicode="&#x402;" horiz-adv-x="810" 
d="M519 -220l-81 110c19 16 175 121 175 312c0 80 -41 125 -115 125c-43 0 -85 -10 -125 -30v-297h-170v574h-192v133h614v-133h-252v-149c53 19 107 31 163 31c170 0 250 -92 250 -242c0 -181 -103 -322 -267 -434z" />
    <glyph glyph-name="uni0403" unicode="&#x403;" horiz-adv-x="586" 
d="M242 744l-23 113l271 67l27 -131zM83 0v707h494v-133h-324v-574h-170z" />
    <glyph glyph-name="uni0404" unicode="&#x404;" horiz-adv-x="679" 
d="M431 -10c-259 0 -392 127 -392 359c0 246 131 368 388 368c105 0 167 -19 220 -43l-45 -123c-67 18 -95 25 -173 26c-110 1 -191 -52 -212 -160h325v-123h-323c24 -106 109 -162 230 -162c69 0 110 6 164 20l36 -128c-68 -25 -127 -34 -218 -34z" />
    <glyph glyph-name="uni0405" unicode="&#x405;" horiz-adv-x="585" 
d="M263 -12c-116 0 -184 28 -237 57l49 126c62 -25 108 -43 186 -43c85 0 124 33 124 76c0 115 -336 70 -336 310c0 136 129 204 254 204c112 0 170 -23 221 -54l-49 -125c-52 23 -95 38 -167 38c-55 0 -93 -27 -93 -66c0 -94 342 -84 342 -301c0 -155 -148 -222 -294 -222z
" />
    <glyph glyph-name="uni0406" unicode="&#x406;" horiz-adv-x="336" 
d="M83 0v707h170v-707h-170z" />
    <glyph glyph-name="uni0407" unicode="&#x407;" horiz-adv-x="336" 
d="M46 737l-99 100l99 100l100 -100zM290 737l-100 100l100 100l99 -100zM83 0v707h170v-707h-170z" />
    <glyph glyph-name="uni0408" unicode="&#x408;" horiz-adv-x="338" 
d="M2 -198l-61 122c119 66 145 109 145 227v556h171v-554c0 -142 -21 -275 -255 -351z" />
    <glyph glyph-name="uni0409" unicode="&#x409;" horiz-adv-x="1051" 
d="M61 -22l-70 146c51 21 122 51 148 103c32 64 48 236 55 480h462v-220h52c211 0 325 -92 325 -243s-114 -244 -325 -244h-223v585h-150c-15 -273 -31 -386 -76 -463c-44 -75 -123 -114 -198 -144zM714 356h-58v-223h58c106 0 144 46 144 111s-38 112 -144 112z" />
    <glyph glyph-name="uni040A" unicode="&#x40a;" horiz-adv-x="1090" 
d="M83 0v707h170v-267h279v267h171v-267h50c209 0 322 -83 322 -219c0 -137 -113 -221 -322 -221h-221v311h-279v-311h-170zM759 311h-56v-178h56c103 0 140 37 140 89c0 51 -37 89 -140 89z" />
    <glyph glyph-name="uni040B" unicode="&#x40b;" horiz-adv-x="821" 
d="M203 0v574h-192v133h614v-133h-252v-149c53 19 107 31 163 31c170 0 250 -65 250 -202v-254h-170v218c0 89 -44 109 -118 109c-43 0 -82 -13 -125 -36v-291h-170z" />
    <glyph glyph-name="uni040C" unicode="&#x40c;" horiz-adv-x="723" 
d="M83 0v707h170v-303l242 303h217l-286 -331l302 -376h-217l-258 354v-354h-170zM275 744l-23 113l271 67l27 -131z" />
    <glyph glyph-name="uni040D" unicode="&#x40d;" horiz-adv-x="806" 
d="M499 744l-275 49l27 131l271 -67zM83 0v707h170v-374l-4 -94l65 101l239 367h170v-707h-170v374l4 94l-65 -101l-239 -367h-170z" />
    </font>
</defs>
</svg>
