<?xml version="1.0" standalone="no"?>
<!DOCTYPE svg PUBLIC "-//W3C//DTD SVG 1.1//EN" "http://www.w3.org/Graphics/SVG/1.1/DTD/svg11.dtd" >
<svg xmlns="http://www.w3.org/2000/svg" xmlns:xlink="http://www.w3.org/1999/xlink" version="1.1">
<metadata>
Created by FontForge 20170910 at Sat Nov  7 16:38:54 2009
 By Jimmy Wärting
Fedra Sans is a contemporary sans serif typeface developed for visual identities, designed to work equally well on paper and on the computer screen.
</metadata>
<defs>
<font id="FedraSansPro-Medium" horiz-adv-x="600" >
  <font-face 
    font-family="Fedra Sans Pro Medium"
    font-weight="500"
    font-stretch="normal"
    units-per-em="1000"
    panose-1="2 11 7 3 4 0 0 2 0 4"
    ascent="780"
    descent="-220"
    x-height="546"
    cap-height="707"
    bbox="-588 -284 1453 1113"
    underline-thickness="50"
    underline-position="-100"
    unicode-range="U+0020-FB04"
  />
<missing-glyph horiz-adv-x="712" 
d="M305 375v27h27v-27h-27zM380 525v27h27v-27h-27zM305 525v27h27v-27h-27zM230 525v27h27v-27h-27zM80 0v27h27v-27h-27zM155 0v27h27v-27h-27zM230 0v27h27v-27h-27zM305 0v27h27v-27h-27zM380 0v27h27v-27h-27zM80 75v27h27v-27h-27zM80 150v27h27v-27h-27zM80 225v27
h27v-27h-27zM80 300v27h27v-27h-27zM80 375v27h27v-27h-27zM80 450v27h27v-27h-27zM80 525v27h27v-27h-27zM80 600v27h27v-27h-27zM80 675v27h27v-27h-27zM155 675v27h27v-27h-27zM230 675v27h27v-27h-27zM305 675v27h27v-27h-27zM380 675v27h27v-27h-27zM455 675v27h27v-27
h-27zM530 675v27h27v-27h-27zM530 0v27h27v-27h-27zM455 0v27h27v-27h-27zM605 0v27h27v-27h-27zM605 675v27h27v-27h-27zM305 300v27h27v-27h-27zM305 150v27h27v-27h-27zM380 375v27h27v-27h-27zM455 375v27h27v-27h-27zM455 450v27h27v-27h-27zM455 525v27h27v-27h-27z
M605 600v27h27v-27h-27zM605 525v27h27v-27h-27zM605 375v27h27v-27h-27zM605 300v27h27v-27h-27zM605 150v27h27v-27h-27zM605 75v27h27v-27h-27zM605 225v27h27v-27h-27zM605 450v27h27v-27h-27z" />
    <glyph glyph-name="fi" unicode="fi" horiz-adv-x="662" 
d="M107 -171v621h-80v96h80v30c0 158 98 204 211 204c42 0 85 -5 131 -6c34 0 86 2 120 6l20 -101c-48 -16 -108 -21 -147 -21c-42 0 -77 5 -125 5c-56 0 -77 -23 -77 -88v-29h348v-546h-134v450h-215v-621h-132z" />
    <glyph glyph-name="fl" unicode="fl" horiz-adv-x="662" 
d="M107 -171v621h-80v96h80v29c0 154 98 204 211 204c42 0 85 -6 131 -6c44 -1 96 4 139 9v-782h-134v658c-45 -1 -81 5 -137 5s-77 -26 -77 -86v-31h117v-96h-118v-621h-132z" />
    <glyph glyph-name="f_h" unicode="fh" horiz-adv-x="1018" 
d="M107 -171v623h-80v94h80v29c0 158 98 207 211 207c42 0 84 -6 131 -7c44 -1 96 4 139 9v-294c36 25 101 71 183 71c167 0 179 -102 179 -214v-347h-133v332c0 79 -16 113 -88 113c-56 0 -115 -32 -141 -46v-399h-134v660c-45 -1 -82 6 -138 6c-55 0 -76 -27 -76 -92v-28
h116v-94h-117v-623h-132z" />
    <glyph glyph-name="f_b" unicode="fb" horiz-adv-x="1003" 
d="M672 -10c-116 0 -170 17 -217 32v636c-45 -1 -82 5 -138 5s-77 -26 -77 -86v-31h117v-96h-118v-621h-132v621h-80v96h80v29c0 154 98 204 211 204c42 0 85 -6 131 -6c44 -1 96 4 139 9v-245c36 14 82 23 126 23c156 0 247 -78 247 -260c0 -233 -139 -310 -289 -310z
M690 459c-52 0 -69 -10 -102 -20v-332c21 -5 48 -12 87 -12c98 0 150 88 150 198c0 107 -30 166 -135 166z" />
    <glyph glyph-name="f_j" unicode="fj" horiz-adv-x="662" 
d="M376 -227c-38 0 -66 9 -93 18l25 107c12 -4 35 -8 71 -8c57 0 75 28 75 100v462h-215v-620h-132v620h-80v94h80v27c0 159 98 208 211 208c42 0 84 -6 131 -6c33 0 86 2 119 6l21 -101c-49 -17 -108 -21 -147 -21c-43 0 -77 5 -126 5c-55 0 -76 -27 -76 -91v-27h348v-555
c0 -179 -96 -218 -212 -218z" />
    <glyph glyph-name="f_k" unicode="fk" horiz-adv-x="956" 
d="M921 -11c-68 3 -135 13 -206 105l-127 164v-258h-134v660c-45 -1 -82 6 -138 6c-55 0 -76 -27 -76 -92v-28h116v-94h-117v-623h-132v623h-80v94h80v29c0 158 98 207 211 207c42 0 84 -6 131 -7c44 -1 97 4 139 9v-475l190 236h146l-212 -252l91 -108
c42 -50 82 -81 135 -95z" />
    <glyph glyph-name="f_f" unicode="ff" horiz-adv-x="721" 
d="M107 -171v622h-80v95h80v36c0 163 112 198 221 198c81 0 156 -19 195 -33c39 28 91 33 143 33c38 0 98 -10 128 -20l-26 -104s-51 10 -97 10c-57 0 -83 -28 -83 -84v-36h118v-95h-118v-622h-133v622h-215v-622h-133zM240 546h215v43c0 22 2 42 8 60
c-37 10 -81 17 -138 17c-56 0 -85 -26 -85 -84v-36z" />
    <glyph glyph-name="f_f_i" unicode="ffi" horiz-adv-x="1010" 
d="M107 -171v621h-80v96h80v36c0 161 106 198 216 198c86 0 169 -21 205 -35c35 24 81 37 138 37c42 0 85 -5 131 -6c33 0 86 2 119 6l21 -101c-49 -16 -107 -21 -146 -21c-43 0 -78 6 -127 6c-55 0 -75 -27 -75 -92v-28h348v-546h-134v450h-214v-621h-134v621h-214v-621
h-134zM241 546h215v29c0 30 2 53 9 74c-38 9 -86 17 -140 17c-56 0 -84 -26 -84 -84v-36z" />
    <glyph glyph-name="f_f_l" unicode="ffl" horiz-adv-x="1006" 
d="M107 -171v622h-80v95h80v36c0 163 112 198 221 198c81 0 160 -20 200 -35c37 26 86 37 137 37c42 0 85 -6 132 -7c45 -1 93 4 135 9v-784h-133v660c-44 0 -80 6 -135 6s-76 -27 -76 -91v-29h116v-95h-116v-622h-133v622h-214v-622h-134zM241 546h214v29c0 28 3 53 9 73
c-39 11 -83 18 -139 18s-84 -26 -84 -84v-36z" />
    <glyph glyph-name="f_f_j" unicode="ffj" horiz-adv-x="1010" 
d="M728 -223c-35 0 -66 9 -92 19l25 104c16 -4 42 -9 67 -9c57 0 74 32 75 103v456h-214v-620h-134v620h-214v-620h-134v620h-80v96h80v36c0 161 106 198 216 198c86 0 169 -21 205 -35c35 24 81 37 138 37c42 0 85 -5 131 -6c33 0 86 2 119 6l21 -101
c-49 -16 -107 -21 -146 -21c-43 0 -78 6 -127 6c-55 0 -75 -27 -75 -92v-28h348l-1 -552c-1 -178 -97 -217 -208 -217zM241 546h215v29c0 30 2 53 9 74c-38 9 -86 17 -140 17c-56 0 -84 -26 -84 -84v-36z" />
    <glyph glyph-name="f_idieresis" unicode="f&#xef;" horiz-adv-x="669" 
d="M107 -171v621h-80v96h80v41c0 137 76 181 179 181c35 0 61 -6 84 -14l-21 -100c-12 5 -30 9 -53 9c-37 0 -56 -22 -56 -70v-47h113v-96h-113v-621h-133zM462 0v546h134v-546h-134zM453 621l-78 80l78 80l78 -80zM644 621l-78 80l78 80l78 -80z" />
    <glyph glyph-name="f_igrave" unicode="f&#xec;" horiz-adv-x="669" 
d="M107 -171v621h-80v96h80v41c0 137 72 181 175 181c40 0 69 -4 97 -13l-21 -104c-19 8 -39 12 -65 12c-34 0 -53 -22 -53 -70v-47h113v-96h-113v-621h-133zM555 597l-151 164l80 69l141 -175zM462 0v546h134v-546h-134z" />
    <glyph glyph-name="aogonek_j" unicode="&#x105;j" horiz-adv-x="885" 
d="M497 -252c-109 0 -163 53 -163 120c0 55 33 99 87 134c-19 10 -39 35 -43 55c-35 -26 -91 -65 -170 -65c-111 0 -175 53 -175 159c0 136 124 166 225 167l108 1v48c0 62 -36 78 -115 78c-52 0 -112 -14 -152 -24l-27 99c49 18 119 39 203 39c114 0 221 -21 221 -162v-266
c0 -24 19 -32 50 -34l-7 -101c-47 -30 -85 -59 -85 -98c0 -29 29 -43 62 -43c92 0 162 59 162 154v537h133v-537c0 -165 -131 -261 -314 -261zM232 96c46 0 106 25 134 34v108l-101 -4c-79 -2 -102 -35 -102 -75c0 -44 27 -63 69 -63zM743 621l-94 95l94 94l95 -94z" />
    <glyph glyph-name=".notdef" horiz-adv-x="712" 
d="M305 375v27h27v-27h-27zM380 525v27h27v-27h-27zM305 525v27h27v-27h-27zM230 525v27h27v-27h-27zM80 0v27h27v-27h-27zM155 0v27h27v-27h-27zM230 0v27h27v-27h-27zM305 0v27h27v-27h-27zM380 0v27h27v-27h-27zM80 75v27h27v-27h-27zM80 150v27h27v-27h-27zM80 225v27
h27v-27h-27zM80 300v27h27v-27h-27zM80 375v27h27v-27h-27zM80 450v27h27v-27h-27zM80 525v27h27v-27h-27zM80 600v27h27v-27h-27zM80 675v27h27v-27h-27zM155 675v27h27v-27h-27zM230 675v27h27v-27h-27zM305 675v27h27v-27h-27zM380 675v27h27v-27h-27zM455 675v27h27v-27
h-27zM530 675v27h27v-27h-27zM530 0v27h27v-27h-27zM455 0v27h27v-27h-27zM605 0v27h27v-27h-27zM605 675v27h27v-27h-27zM305 300v27h27v-27h-27zM305 150v27h27v-27h-27zM380 375v27h27v-27h-27zM455 375v27h27v-27h-27zM455 450v27h27v-27h-27zM455 525v27h27v-27h-27z
M605 600v27h27v-27h-27zM605 525v27h27v-27h-27zM605 375v27h27v-27h-27zM605 300v27h27v-27h-27zM605 150v27h27v-27h-27zM605 75v27h27v-27h-27zM605 225v27h27v-27h-27zM605 450v27h27v-27h-27z" />
    <glyph glyph-name="space" unicode=" " horiz-adv-x="236" 
 />
    <glyph glyph-name="A" unicode="A" horiz-adv-x="700" 
d="M-9 0l279 707h177l245 -707h-143l-77 229h-255l-87 -229h-139zM255 330h183l-85 290z" />
    <glyph glyph-name="B" unicode="B" horiz-adv-x="664" 
d="M92 0v707h227c168 0 250 -67 250 -188c0 -66 -39 -117 -84 -137v-2c57 -14 135 -69 135 -168c0 -125 -73 -212 -271 -212h-257zM229 108h107c94 0 147 24 147 100s-54 104 -160 104h-94v-204zM229 409h84c80 0 120 28 120 96c0 73 -48 97 -138 97h-66v-193z" />
    <glyph glyph-name="C" unicode="C" horiz-adv-x="678" 
d="M430 -12c-250 0 -383 137 -383 361c0 226 142 369 379 369c104 0 166 -21 214 -43l-38 -101c-61 18 -95 28 -174 29c-136 1 -241 -74 -241 -244c0 -172 109 -254 260 -254c68 0 114 8 165 23l30 -105c-60 -22 -118 -35 -212 -35z" />
    <glyph glyph-name="D" unicode="D" horiz-adv-x="774" 
d="M92 0v707h229c239 0 406 -106 406 -351c0 -246 -152 -356 -400 -356h-235zM228 108h110c171 0 252 82 252 238c0 170 -95 253 -272 253h-90v-491z" />
    <glyph glyph-name="E" unicode="E" 
d="M92 0v707h438v-108h-302v-193h280v-102h-280v-196h325v-108h-461z" />
    <glyph glyph-name="F" unicode="F" horiz-adv-x="595" 
d="M92 0v707h464v-108h-328v-211h306v-102h-306v-286h-136z" />
    <glyph glyph-name="G" unicode="G" horiz-adv-x="710" 
d="M429 -11c-234 0 -382 124 -382 360c0 243 136 368 383 368c103 0 158 -19 209 -41l-37 -102c-58 17 -96 29 -173 29c-134 0 -242 -69 -242 -244c0 -177 116 -254 257 -254c30 0 53 3 72 6v238h136v-321c-72 -27 -138 -39 -223 -39z" />
    <glyph glyph-name="H" unicode="H" horiz-adv-x="790" 
d="M92 0v707h136v-299h334v299h136v-707h-136v302h-334v-302h-136z" />
    <glyph glyph-name="I" unicode="I" horiz-adv-x="320" 
d="M92 0v707h136v-707h-136z" />
    <glyph glyph-name="J" unicode="J" horiz-adv-x="322" 
d="M1 -194l-52 99c120 66 145 124 145 246v556h138v-554c0 -146 -23 -272 -231 -347z" />
    <glyph glyph-name="K" unicode="K" horiz-adv-x="687" 
d="M92 0v707h136v-323l267 323h174l-289 -329l306 -378h-175l-283 374v-374h-136z" />
    <glyph glyph-name="L" unicode="L" horiz-adv-x="544" 
d="M92 0v707h136v-597h307v-110h-443z" />
    <glyph glyph-name="M" unicode="M" horiz-adv-x="974" 
d="M92 0v707h170l215 -594l243 594h162v-707h-137v343l6 145h-4l-193 -488h-163l-167 489h-4l8 -140v-349h-136z" />
    <glyph glyph-name="N" unicode="N" horiz-adv-x="792" 
d="M92 0v707h162l312 -534h2l-4 83v451h137v-707h-168l-305 523h-4l4 -86v-437h-136z" />
    <glyph glyph-name="O" unicode="O" horiz-adv-x="831" 
d="M407 -12c-237 0 -361 144 -361 367c0 222 146 363 378 363c246 0 361 -156 361 -365c0 -222 -135 -365 -378 -365zM410 97c168 0 236 112 236 257c0 146 -74 255 -229 255c-162 0 -233 -109 -233 -253c0 -141 69 -259 226 -259z" />
    <glyph glyph-name="P" unicode="P" horiz-adv-x="632" 
d="M92 0v707h258c152 0 256 -87 256 -240c0 -134 -104 -246 -308 -246h-58v107h64c107 0 160 52 160 135c0 85 -38 136 -136 136h-99v-599h-137z" />
    <glyph glyph-name="Q" unicode="Q" horiz-adv-x="831" 
d="M786 -180c-45 0 -112 -1 -154 8c-44 7 -85 13 -129 26c-36 10 -66 16 -103 16v97c49 0 86 -7 116 -14c61 -14 99 -23 143 -27c36 -6 80 -7 127 -7v-99zM407 -12c-237 0 -361 144 -361 367c0 222 146 363 378 363c246 0 361 -156 361 -365c0 -222 -135 -365 -378 -365z
M410 97c168 0 236 112 236 257c0 146 -74 255 -229 255c-162 0 -233 -109 -233 -253c0 -141 69 -259 226 -259z" />
    <glyph glyph-name="Q.alt" horiz-adv-x="846" 
d="M407 -12c-237 0 -361 144 -361 367c0 222 146 363 378 363c246 0 361 -156 361 -365c0 -98 -27 -181 -77 -242l95 -95l-68 -59l-94 93c-60 -40 -139 -62 -234 -62zM410 97c61 0 108 15 144 40l-110 111l70 59l100 -101c22 41 32 92 32 148c0 146 -74 255 -229 255
c-162 0 -233 -109 -233 -253c0 -141 69 -259 226 -259z" />
    <glyph glyph-name="R" unicode="R" horiz-adv-x="727" 
d="M693 -13c-118 9 -187 74 -257 160l-89 114c-14 -2 -33 -3 -49 -3h-69v-258h-137v707h258c150 0 256 -70 256 -222c0 -80 -38 -152 -121 -192l81 -98c42 -49 84 -83 158 -103zM229 358h75c104 0 161 39 161 122c0 86 -40 119 -137 119h-99v-241z" />
    <glyph glyph-name="S" unicode="S" horiz-adv-x="569" 
d="M256 -12c-105 0 -173 27 -221 54l40 104c58 -25 107 -44 181 -44c82 0 140 32 140 93c0 139 -341 93 -341 330c0 127 118 193 238 193c100 0 155 -21 203 -49l-40 -101c-49 22 -93 36 -159 36c-62 0 -108 -29 -108 -80c0 -119 345 -103 345 -323
c0 -147 -135 -213 -278 -213z" />
    <glyph glyph-name="T" unicode="T" horiz-adv-x="615" 
d="M239 0v598h-229v109h595v-109h-229v-598h-137z" />
    <glyph glyph-name="U" unicode="U" horiz-adv-x="780" 
d="M392 -13c-153 0 -311 65 -311 285v435h138v-429c0 -125 68 -177 173 -177c108 0 174 57 174 199v407h135v-410c0 -239 -163 -310 -309 -310z" />
    <glyph glyph-name="V" unicode="V" horiz-adv-x="700" 
d="M253 0l-246 707h145l194 -604l224 604h139l-277 -707h-179z" />
    <glyph glyph-name="W" unicode="W" horiz-adv-x="1056" 
d="M199 0l-169 707h134l136 -621l175 448l-60 173h136l199 -617l166 617h130l-208 -707h-178l-133 391l-147 -391h-181z" />
    <glyph glyph-name="X" unicode="X" horiz-adv-x="658" 
d="M2 0l252 367l-218 340h156l141 -236l151 236h152l-231 -338l237 -369h-158l-159 265l-169 -265h-154z" />
    <glyph glyph-name="Y" unicode="Y" horiz-adv-x="662" 
d="M261 0v243l-250 464h157l166 -348l177 348h152l-266 -461v-246h-136z" />
    <glyph glyph-name="Z" unicode="Z" horiz-adv-x="604" 
d="M36 0v98l344 495h-318v114h483v-91l-348 -502h369v-114h-530z" />
    <glyph glyph-name="Aacute" unicode="&#xc1;" horiz-adv-x="700" 
d="M-9 0l279 707h177l245 -707h-143l-77 229h-255l-87 -229h-139zM255 330h183l-85 290zM264 745l-21 90l251 73l25 -106z" />
    <glyph glyph-name="Acircumflex" unicode="&#xc2;" horiz-adv-x="700" 
d="M-9 0l279 707h177l245 -707h-143l-77 229h-255l-87 -229h-139zM255 330h183l-85 290zM222 745l-47 86l179 89l176 -88l-47 -87l-130 59z" />
    <glyph glyph-name="Adieresis" unicode="&#xc4;" horiz-adv-x="700" 
d="M-9 0l279 707h177l245 -707h-143l-77 229h-255l-87 -229h-139zM255 330h183l-85 290zM240 741l-83 84l83 84l84 -84zM466 741l-84 84l84 84l83 -84z" />
    <glyph glyph-name="Aring" unicode="&#xc5;" horiz-adv-x="700" 
d="M-9 0l279 707h177l245 -707h-143l-77 229h-255l-87 -229h-139zM255 330h183l-85 290zM360 744c-58 0 -121 25 -121 104c0 75 59 109 118 109c49 0 121 -24 121 -107c0 -72 -56 -106 -118 -106zM358 798c34 0 53 19 55 51c0 31 -25 51 -55 51c-37 0 -55 -17 -55 -49
s22 -53 55 -53z" />
    <glyph glyph-name="Agrave" unicode="&#xc0;" horiz-adv-x="700" 
d="M444 745l-256 55l25 107l252 -72zM-9 0l279 707h177l245 -707h-143l-77 229h-255l-87 -229h-139zM255 330h183l-85 290z" />
    <glyph glyph-name="Atilde" unicode="&#xc3;" horiz-adv-x="700" 
d="M-9 0l279 707h177l245 -707h-143l-77 229h-255l-87 -229h-139zM255 330h183l-85 290zM418 755c-48 0 -87 37 -125 37c-22 0 -43 -4 -70 -26l-51 63c22 24 70 68 127 68c59 0 88 -38 122 -38c33 0 50 9 78 26l46 -62c-20 -23 -62 -68 -127 -68z" />
    <glyph glyph-name="Abreve" unicode="&#x102;" horiz-adv-x="700" 
d="M-9 0l279 707h177l245 -707h-143l-77 229h-255l-87 -229h-139zM255 330h183l-85 290zM356 753c-97 0 -154 56 -181 101l70 61c33 -35 71 -62 115 -62c46 0 83 27 112 61l66 -59c-28 -42 -86 -102 -182 -102z" />
    <glyph glyph-name="Amacron" unicode="&#x100;" horiz-adv-x="700" 
d="M-9 0l279 707h177l245 -707h-143l-77 229h-255l-87 -229h-139zM255 330h183l-85 290zM204 772v105h305v-105h-305z" />
    <glyph glyph-name="Aogonek" unicode="&#x104;" horiz-adv-x="699" 
d="M716 -225c-27 -12 -50 -22 -108 -22c-109 0 -149 38 -149 108c0 46 37 92 89 141l-76 227h-255l-87 -229h-139l279 707h177l244 -707c-43 -27 -105 -73 -105 -114c0 -26 22 -32 44 -32c20 0 45 4 62 9zM438 331l-47 154l-38 135l-44 -136l-54 -153h183z" />
    <glyph glyph-name="uni01FA" unicode="&#x1fa;" horiz-adv-x="700" 
d="M-9 0l279 707h177l245 -707h-143l-77 229h-255l-87 -229h-139zM255 330h183l-85 290zM248 932l-21 90l251 73l25 -106zM361 722c-58 0 -121 25 -121 104c0 75 59 109 118 109c49 0 121 -24 121 -107c0 -72 -56 -106 -118 -106zM359 776c34 0 53 19 55 51
c0 31 -25 51 -55 51c-37 0 -55 -17 -55 -49s22 -53 55 -53z" />
    <glyph glyph-name="uni01CD" unicode="&#x1cd;" horiz-adv-x="700" 
d="M-9 0l279 707h177l245 -707h-143l-77 229h-255l-87 -229h-139zM255 330h183l-85 290zM533 830l-180 -88l-177 89l46 87l131 -60l132 59z" />
    <glyph glyph-name="uni0226" unicode="&#x226;" horiz-adv-x="700" 
d="M-9 0l279 707h177l245 -707h-143l-77 229h-255l-87 -229h-139zM255 330h183l-85 290zM436 839l-82 -82l-82 82l82 82z" />
    <glyph glyph-name="uni1EA6" unicode="&#x1ea6;" horiz-adv-x="700" 
d="M-9 0l279 707h177l245 -707h-143l-77 229h-255l-87 -229h-139zM255 330h183l-85 290zM543 849l-173 121l66 86l164 -135zM211 740l-40 85l180 81l179 -81l-41 -85l-138 54z" />
    <glyph glyph-name="uni1EA4" unicode="&#x1ea4;" horiz-adv-x="700" 
d="M-9 0l279 707h177l245 -707h-143l-77 229h-255l-87 -229h-139zM255 330h183l-85 290zM213 740l-40 85l180 81l179 -81l-41 -85l-138 54zM499 856l-62 61l137 136l74 -78z" />
    <glyph glyph-name="uni1EAA" unicode="&#x1eaa;" horiz-adv-x="700" 
d="M-9 0l279 707h177l245 -707h-143l-77 229h-255l-87 -229h-139zM255 330h183l-85 290zM214 741l-41 86l181 73l179 -73l-42 -86l-137 47zM418 911c-47 0 -83 33 -121 33c-24 0 -45 -4 -68 -24l-47 65c19 21 59 62 123 62c57 0 85 -33 120 -33c29 0 50 10 77 24l43 -66
c-20 -18 -59 -61 -127 -61z" />
    <glyph glyph-name="uni1EA8" unicode="&#x1ea8;" horiz-adv-x="700" 
d="M-9 0l279 707h177l245 -707h-143l-77 229h-255l-87 -229h-139zM255 330h183l-85 290zM212 740l-40 85l180 81l179 -81l-41 -85l-138 54zM554 983c0 -66 -48 -104 -71 -116l-64 56c14 8 38 26 38 51c0 19 -17 28 -32 28c-13 0 -26 -4 -42 -10l-20 76c18 10 41 20 79 20
c27 0 58 -9 78 -27c21 -20 34 -46 34 -78z" />
    <glyph glyph-name="uni1EAC" unicode="&#x1eac;" horiz-adv-x="700" 
d="M-9 0l279 707h177l245 -707h-143l-77 229h-255l-87 -229h-139zM255 330h183l-85 290zM439 -154l-94 -95l-95 95l95 94zM222 745l-47 86l179 89l176 -88l-47 -87l-130 59z" />
    <glyph glyph-name="uni1EB0" unicode="&#x1eb0;" horiz-adv-x="700" 
d="M-9 0l279 707h177l245 -707h-143l-77 229h-255l-87 -229h-139zM255 330h183l-85 290zM357 752c-97 0 -156 56 -182 101l69 58c33 -35 73 -62 116 -62c47 0 83 28 113 62l65 -56c-27 -43 -85 -103 -181 -103zM380 886l-176 102l60 92l169 -120z" />
    <glyph glyph-name="uni1EAE" unicode="&#x1eae;" horiz-adv-x="700" 
d="M-9 0l279 707h177l245 -707h-143l-77 229h-255l-87 -229h-139zM255 330h183l-85 290zM356 753c-96 0 -155 56 -181 101l69 58c33 -36 72 -62 116 -62c46 0 83 28 112 61l65 -56c-27 -43 -85 -102 -181 -102zM517 986l-178 -100l-52 75l171 114z" />
    <glyph glyph-name="uni1EB4" unicode="&#x1eb4;" horiz-adv-x="700" 
d="M-9 0l279 707h177l245 -707h-143l-77 229h-255l-87 -229h-139zM255 330h183l-85 290zM357 753c-96 0 -155 56 -181 101l69 58c33 -36 73 -62 116 -62c46 0 83 28 112 61l66 -56c-27 -43 -85 -102 -182 -102zM416 924c-47 0 -82 33 -121 33c-24 0 -45 -4 -68 -24l-47 66
c19 20 60 61 123 61c57 0 85 -32 120 -32c29 0 50 9 77 23l43 -66c-20 -17 -59 -61 -127 -61z" />
    <glyph glyph-name="uni1EB2" unicode="&#x1eb2;" horiz-adv-x="700" 
d="M-9 0l279 707h177l245 -707h-143l-77 229h-255l-87 -229h-139zM255 330h183l-85 290zM449 1003c0 -68 -51 -108 -86 -125l-57 61c16 10 42 28 42 55c0 19 -17 31 -38 31c-11 0 -25 -3 -40 -7l-8 82c15 6 41 13 71 13c37 0 62 -10 84 -31c20 -19 32 -45 32 -79zM352 752
c-96 0 -155 56 -181 101l69 58c33 -35 72 -62 116 -62c46 0 83 28 112 62l65 -56c-27 -43 -85 -103 -181 -103z" />
    <glyph glyph-name="uni1EB6" unicode="&#x1eb6;" horiz-adv-x="700" 
d="M-9 0l279 707h177l245 -707h-143l-77 229h-255l-87 -229h-139zM255 330h183l-85 290zM439 -154l-94 -95l-95 95l95 94zM353 753c-97 0 -154 56 -181 101l70 60c33 -34 71 -61 115 -61c46 0 83 27 112 61l66 -59c-28 -43 -85 -102 -182 -102z" />
    <glyph glyph-name="uni1EA2" unicode="&#x1ea2;" horiz-adv-x="700" 
d="M-9 0l279 707h177l245 -707h-143l-77 229h-255l-87 -229h-139zM255 330h183l-85 290zM266 981c16 6 43 12 70 12c65 0 118 -45 118 -115c0 -73 -58 -116 -106 -137l-50 60c31 13 59 34 59 67c0 26 -22 36 -45 36c-13 0 -26 -2 -37 -7z" />
    <glyph glyph-name="uni1EA0" unicode="&#x1ea0;" horiz-adv-x="700" 
d="M-9 0l279 707h177l245 -707h-143l-77 229h-255l-87 -229h-139zM255 330h183l-85 290zM439 -154l-94 -95l-95 95l95 94z" />
    <glyph glyph-name="uni1E02" unicode="&#x1e02;" horiz-adv-x="664" 
d="M390 839l-82 -82l-82 82l82 82zM92 0v707h227c168 0 250 -67 250 -188c0 -66 -39 -117 -84 -137v-2c57 -14 135 -69 135 -168c0 -125 -73 -212 -271 -212h-257zM229 108h107c94 0 147 24 147 100s-54 104 -160 104h-94v-204zM229 409h84c80 0 120 28 120 96
c0 73 -48 97 -138 97h-66v-193z" />
    <glyph glyph-name="uni1E04" unicode="&#x1e04;" horiz-adv-x="664" 
d="M324 -249l-94 95l94 94l95 -94zM92 0v707h227c168 0 250 -67 250 -188c0 -66 -39 -117 -84 -137v-2c57 -14 135 -69 135 -168c0 -125 -73 -212 -271 -212h-257zM229 108h107c94 0 147 24 147 100s-54 104 -160 104h-94v-204zM229 409h84c80 0 120 28 120 96
c0 73 -48 97 -138 97h-66v-193z" />
    <glyph glyph-name="uni1E06" unicode="&#x1e06;" horiz-adv-x="664" 
d="M92 0v707h227c168 0 250 -67 250 -188c0 -66 -39 -117 -84 -137v-2c57 -14 135 -69 135 -168c0 -125 -73 -212 -271 -212h-257zM229 108h107c94 0 147 24 147 100s-54 104 -160 104h-94v-204zM229 409h84c80 0 120 28 120 96c0 73 -48 97 -138 97h-66v-193zM171 -218v105
h305v-105h-305z" />
    <glyph glyph-name="Ccedilla" unicode="&#xc7;" horiz-adv-x="678" 
d="M430 -12c-250 0 -383 137 -383 361c0 226 142 369 379 369c104 0 166 -21 214 -43l-38 -101c-61 18 -95 28 -174 29c-136 1 -241 -74 -241 -244c0 -172 109 -254 260 -254c68 0 114 8 165 23l30 -105c-60 -22 -118 -35 -212 -35zM347 -267l-46 79c32 20 70 41 70 73
c0 20 -8 42 -16 64h109c11 -23 21 -49 21 -76c0 -67 -70 -111 -138 -140z" />
    <glyph glyph-name="Cacute" unicode="&#x106;" horiz-adv-x="678" 
d="M430 -12c-250 0 -383 137 -383 361c0 226 142 369 379 369c104 0 166 -21 214 -43l-38 -101c-61 18 -95 28 -174 29c-136 1 -241 -74 -241 -244c0 -172 109 -254 260 -254c68 0 114 8 165 23l30 -105c-60 -22 -118 -35 -212 -35zM306 745l-21 90l251 73l25 -106z" />
    <glyph glyph-name="Ccaron" unicode="&#x10c;" horiz-adv-x="678" 
d="M596 830l-180 -88l-177 89l46 87l131 -60l132 59zM430 -12c-250 0 -383 137 -383 361c0 226 142 369 379 369c104 0 166 -21 214 -43l-38 -101c-61 18 -95 28 -174 29c-136 1 -241 -74 -241 -244c0 -172 109 -254 260 -254c68 0 114 8 165 23l30 -105
c-60 -22 -118 -35 -212 -35z" />
    <glyph glyph-name="Ccircumflex" unicode="&#x108;" horiz-adv-x="678" 
d="M430 -12c-250 0 -383 137 -383 361c0 226 142 369 379 369c104 0 166 -21 214 -43l-38 -101c-61 18 -95 28 -174 29c-136 1 -241 -74 -241 -244c0 -172 109 -254 260 -254c68 0 114 8 165 23l30 -105c-60 -22 -118 -35 -212 -35zM297 745l-47 86l179 89l176 -88l-47 -87
l-130 59z" />
    <glyph glyph-name="Cdotaccent" unicode="&#x10a;" horiz-adv-x="678" 
d="M501 839l-82 -82l-82 82l82 82zM430 -12c-250 0 -383 137 -383 361c0 226 142 369 379 369c104 0 166 -21 214 -43l-38 -101c-61 18 -95 28 -174 29c-136 1 -241 -74 -241 -244c0 -172 109 -254 260 -254c68 0 114 8 165 23l30 -105c-60 -22 -118 -35 -212 -35z" />
    <glyph glyph-name="Dcaron" unicode="&#x10e;" horiz-adv-x="774" 
d="M524 830l-180 -88l-177 89l46 87l131 -60l132 59zM92 0v707h229c239 0 406 -106 406 -351c0 -246 -152 -356 -400 -356h-235zM228 108h110c171 0 252 82 252 238c0 170 -95 253 -272 253h-90v-491z" />
    <glyph glyph-name="Dcroat" unicode="&#x110;" horiz-adv-x="803" 
d="M44 307v86h76v314h229c239 0 406 -106 406 -351c0 -246 -152 -356 -400 -356h-235v307h-76zM256 108h110c171 0 252 82 252 238c0 170 -95 253 -272 253h-90v-206h145v-86h-145v-199z" />
    <glyph glyph-name="uni1E0E" unicode="&#x1e0e;" horiz-adv-x="774" 
d="M92 0v707h229c239 0 406 -106 406 -351c0 -246 -152 -356 -400 -356h-235zM228 108h110c171 0 252 82 252 238c0 170 -95 253 -272 253h-90v-491zM207 -218v105h305v-105h-305z" />
    <glyph glyph-name="uni1E0C" unicode="&#x1e0c;" horiz-adv-x="774" 
d="M370 -249l-94 95l94 94l95 -94zM92 0v707h229c239 0 406 -106 406 -351c0 -246 -152 -356 -400 -356h-235zM228 108h110c171 0 252 82 252 238c0 170 -95 253 -272 253h-90v-491z" />
    <glyph glyph-name="uni1E0A" unicode="&#x1e0a;" horiz-adv-x="774" 
d="M440 839l-82 -82l-82 82l82 82zM92 0v707h229c239 0 406 -106 406 -351c0 -246 -152 -356 -400 -356h-235zM228 108h110c171 0 252 82 252 238c0 170 -95 253 -272 253h-90v-491z" />
    <glyph glyph-name="Eacute" unicode="&#xc9;" 
d="M234 745l-21 90l251 73l25 -106zM92 0v707h438v-108h-302v-193h280v-102h-280v-196h325v-108h-461z" />
    <glyph glyph-name="Ecircumflex" unicode="&#xca;" 
d="M92 0v707h438v-108h-302v-193h280v-102h-280v-196h325v-108h-461zM186 745l-47 86l179 89l176 -88l-47 -87l-130 59z" />
    <glyph glyph-name="Edieresis" unicode="&#xcb;" 
d="M202 741l-83 84l83 84l84 -84zM428 741l-84 84l84 84l83 -84zM92 0v707h438v-108h-302v-193h280v-102h-280v-196h325v-108h-461z" />
    <glyph glyph-name="Egrave" unicode="&#xc8;" 
d="M412 745l-256 55l25 107l252 -72zM92 0v707h438v-108h-302v-193h280v-102h-280v-196h325v-108h-461z" />
    <glyph glyph-name="Ebreve" unicode="&#x114;" 
d="M311 753c-97 0 -154 56 -181 101l70 61c33 -35 71 -62 115 -62c46 0 83 27 112 61l66 -59c-28 -42 -86 -102 -182 -102zM92 0v707h438v-108h-302v-193h280v-102h-280v-196h325v-108h-461z" />
    <glyph glyph-name="Ecaron" unicode="&#x11a;" 
d="M488 830l-180 -88l-177 89l46 87l131 -60l132 59zM92 0v707h438v-108h-302v-193h280v-102h-280v-196h325v-108h-461z" />
    <glyph glyph-name="Edotaccent" unicode="&#x116;" 
d="M403 839l-82 -82l-82 82l82 82zM92 0v707h438v-108h-302v-193h280v-102h-280v-196h325v-108h-461z" />
    <glyph glyph-name="Emacron" unicode="&#x112;" 
d="M160 772v105h305v-105h-305zM92 0v707h438v-108h-302v-193h280v-102h-280v-196h325v-108h-461z" />
    <glyph glyph-name="Eogonek" unicode="&#x118;" 
d="M564 -225c-29 -14 -53 -24 -102 -24c-95 0 -132 48 -132 105c0 67 53 120 99 144h-337v707h438v-108h-302v-193h280v-102h-280v-196h325v-108c-50 -26 -113 -69 -113 -110c0 -25 20 -36 44 -36c18 0 37 3 56 9z" />
    <glyph glyph-name="uni0228" unicode="&#x228;" 
d="M92 0v707h438v-108h-302v-193h280v-102h-280v-196h325v-108h-461zM267 -267l-46 79c32 20 70 41 70 73c0 20 -8 42 -16 64h109c11 -23 21 -49 21 -76c0 -67 -70 -111 -138 -140z" />
    <glyph glyph-name="uni1EC0" unicode="&#x1ec0;" 
d="M499 849l-173 121l66 86l164 -135zM167 740l-40 85l180 81l179 -81l-41 -85l-138 54zM92 0v707h438v-108h-302v-193h280v-102h-280v-196h325v-108h-461z" />
    <glyph glyph-name="uni1EBE" unicode="&#x1ebe;" 
d="M92 0v707h438v-108h-302v-193h280v-102h-280v-196h325v-108h-461zM169 740l-40 85l180 81l179 -81l-41 -85l-138 54zM455 856l-62 61l137 136l74 -78z" />
    <glyph glyph-name="uni1EC4" unicode="&#x1ec4;" 
d="M176 741l-41 86l181 73l179 -73l-42 -86l-137 47zM380 911c-47 0 -83 33 -121 33c-24 0 -45 -4 -68 -24l-47 65c19 21 59 62 123 62c57 0 85 -33 120 -33c29 0 50 10 77 24l43 -66c-20 -18 -59 -61 -127 -61zM92 0v707h438v-108h-302v-193h280v-102h-280v-196h325v-108
h-461z" />
    <glyph glyph-name="uni1EC2" unicode="&#x1ec2;" 
d="M92 0v707h438v-108h-302v-193h280v-102h-280v-196h325v-108h-461zM176 740l-40 85l180 81l179 -81l-41 -85l-138 54zM518 983c0 -66 -48 -104 -71 -116l-64 56c14 8 38 26 38 51c0 19 -17 28 -32 28c-13 0 -26 -4 -42 -10l-20 76c18 10 41 20 79 20c27 0 58 -9 78 -27
c21 -20 34 -46 34 -78z" />
    <glyph glyph-name="uni1EC6" unicode="&#x1ec6;" 
d="M412 -154l-94 -95l-95 95l95 94zM92 0v707h438v-108h-302v-193h280v-102h-280v-196h325v-108h-461zM183 745l-47 86l179 89l176 -88l-47 -87l-130 59z" />
    <glyph glyph-name="uni1EBA" unicode="&#x1eba;" 
d="M92 0v707h438v-108h-302v-193h280v-102h-280v-196h325v-108h-461zM232 981c16 6 43 12 70 12c65 0 118 -45 118 -115c0 -73 -58 -116 -106 -137l-50 60c31 13 59 34 59 67c0 26 -22 36 -45 36c-13 0 -26 -2 -37 -7z" />
    <glyph glyph-name="uni1EB8" unicode="&#x1eb8;" 
d="M416 -154l-94 -95l-95 95l95 94zM92 0v707h438v-108h-302v-193h280v-102h-280v-196h325v-108h-461z" />
    <glyph glyph-name="uni1EBC" unicode="&#x1ebc;" 
d="M379 755c-48 0 -87 37 -125 37c-22 0 -43 -4 -70 -26l-51 63c22 24 70 68 127 68c59 0 88 -38 122 -38c33 0 50 9 78 26l46 -62c-20 -23 -62 -68 -127 -68zM92 0v707h438v-108h-302v-193h280v-102h-280v-196h325v-108h-461z" />
    <glyph glyph-name="uni0045030A" 
d="M327 744c-58 0 -121 25 -121 104c0 75 59 109 118 109c49 0 121 -24 121 -107c0 -72 -56 -106 -118 -106zM325 798c34 0 53 19 55 51c0 31 -25 51 -55 51c-37 0 -55 -17 -55 -49s22 -53 55 -53zM92 0v707h438v-108h-302v-193h280v-102h-280v-196h325v-108h-461z" />
    <glyph glyph-name="uni1E1E" unicode="&#x1e1e;" horiz-adv-x="595" 
d="M408 839l-82 -82l-82 82l82 82zM92 0v707h464v-108h-328v-211h306v-102h-306v-286h-136z" />
    <glyph glyph-name="uni00460304" horiz-adv-x="595" 
d="M173 772v105h305v-105h-305zM92 0v707h464v-108h-328v-211h306v-102h-306v-286h-136z" />
    <glyph glyph-name="Gbreve" unicode="&#x11e;" horiz-adv-x="710" 
d="M413 753c-97 0 -154 56 -181 101l70 61c33 -35 71 -62 115 -62c46 0 83 27 112 61l66 -59c-28 -42 -86 -102 -182 -102zM429 -11c-234 0 -382 124 -382 360c0 243 136 368 383 368c103 0 158 -19 209 -41l-37 -102c-58 17 -96 29 -173 29c-134 0 -242 -69 -242 -244
c0 -177 116 -254 257 -254c30 0 53 3 72 6v238h136v-321c-72 -27 -138 -39 -223 -39z" />
    <glyph glyph-name="Gcommaaccent" unicode="&#x122;" horiz-adv-x="710" 
d="M493 -59l-43 -213h-94l21 213h116zM429 -11c-234 0 -382 124 -382 360c0 243 136 368 383 368c103 0 158 -19 209 -41l-37 -102c-58 17 -96 29 -173 29c-134 0 -242 -69 -242 -244c0 -177 116 -254 257 -254c30 0 53 3 72 6v238h136v-321c-72 -27 -138 -39 -223 -39z" />
    <glyph glyph-name="Gcircumflex" unicode="&#x11c;" horiz-adv-x="710" 
d="M293 745l-47 86l179 89l176 -88l-47 -87l-130 59zM429 -11c-234 0 -382 124 -382 360c0 243 136 368 383 368c103 0 158 -19 209 -41l-37 -102c-58 17 -96 29 -173 29c-134 0 -242 -69 -242 -244c0 -177 116 -254 257 -254c30 0 53 3 72 6v238h136v-321
c-72 -27 -138 -39 -223 -39z" />
    <glyph glyph-name="Gdotaccent" unicode="&#x120;" horiz-adv-x="710" 
d="M515 839l-82 -82l-82 82l82 82zM429 -11c-234 0 -382 124 -382 360c0 243 136 368 383 368c103 0 158 -19 209 -41l-37 -102c-58 17 -96 29 -173 29c-134 0 -242 -69 -242 -244c0 -177 116 -254 257 -254c30 0 53 3 72 6v238h136v-321c-72 -27 -138 -39 -223 -39z" />
    <glyph glyph-name="uni01E6" unicode="&#x1e6;" horiz-adv-x="710" 
d="M584 830l-180 -88l-177 89l46 87l131 -60l132 59zM429 -11c-234 0 -382 124 -382 360c0 243 136 368 383 368c103 0 158 -19 209 -41l-37 -102c-58 17 -96 29 -173 29c-134 0 -242 -69 -242 -244c0 -177 116 -254 257 -254c30 0 53 3 72 6v238h136v-321
c-72 -27 -138 -39 -223 -39z" />
    <glyph glyph-name="uni01F4" unicode="&#x1f4;" horiz-adv-x="710" 
d="M321 745l-21 90l251 73l25 -106zM429 -11c-234 0 -382 124 -382 360c0 243 136 368 383 368c103 0 158 -19 209 -41l-37 -102c-58 17 -96 29 -173 29c-134 0 -242 -69 -242 -244c0 -177 116 -254 257 -254c30 0 53 3 72 6v238h136v-321c-72 -27 -138 -39 -223 -39z" />
    <glyph glyph-name="uni1E20" unicode="&#x1e20;" horiz-adv-x="710" 
d="M257 772v105h305v-105h-305zM429 -11c-234 0 -382 124 -382 360c0 243 136 368 383 368c103 0 158 -19 209 -41l-37 -102c-58 17 -96 29 -173 29c-134 0 -242 -69 -242 -244c0 -177 116 -254 257 -254c30 0 53 3 72 6v238h136v-321c-72 -27 -138 -39 -223 -39z" />
    <glyph glyph-name="Hbar" unicode="&#x126;" horiz-adv-x="827" 
d="M36 515v70h74v122h136v-122h334v122h136v-122h74v-70h-74v-515h-136v302h-334v-302h-136v515h-74zM246 408h334v107h-334v-107z" />
    <glyph glyph-name="Hcircumflex" unicode="&#x124;" horiz-adv-x="790" 
d="M92 0v707h136v-299h334v299h136v-707h-136v302h-334v-302h-136zM262 745l-47 86l179 89l176 -88l-47 -87l-130 59z" />
    <glyph glyph-name="uni021E" unicode="&#x21e;" horiz-adv-x="790" 
d="M92 0v707h136v-299h334v299h136v-707h-136v302h-334v-302h-136zM573 830l-180 -88l-177 89l46 87l131 -60l132 59z" />
    <glyph glyph-name="uni1E24" unicode="&#x1e24;" horiz-adv-x="790" 
d="M92 0v707h136v-299h334v299h136v-707h-136v302h-334v-302h-136zM394 -249l-94 95l94 94l95 -94z" />
    <glyph glyph-name="uni00480331" horiz-adv-x="790" 
d="M92 0v707h136v-299h334v299h136v-707h-136v302h-334v-302h-136zM242 -218v105h305v-105h-305z" />
    <glyph glyph-name="uni1E2A" unicode="&#x1e2a;" horiz-adv-x="790" 
d="M92 0v707h136v-299h334v299h136v-707h-136v302h-334v-302h-136zM395 -226c-95 0 -155 55 -186 103l69 61c38 -38 79 -62 120 -62s80 23 117 62l66 -61c-33 -47 -93 -103 -186 -103z" />
    <glyph glyph-name="uni1E22" unicode="&#x1e22;" horiz-adv-x="790" 
d="M476 839l-82 -82l-82 82l82 82zM92 0v707h136v-299h334v299h136v-707h-136v302h-334v-302h-136z" />
    <glyph glyph-name="Iacute" unicode="&#xcd;" horiz-adv-x="320" 
d="M92 0v707h136v-707h-136zM91 745l-21 90l251 73l25 -106z" />
    <glyph glyph-name="Icircumflex" unicode="&#xce;" horiz-adv-x="320" 
d="M92 0v707h136v-707h-136zM29 745l-47 86l179 89l176 -88l-47 -87l-130 59z" />
    <glyph glyph-name="Idieresis" unicode="&#xcf;" horiz-adv-x="320" 
d="M92 0v707h136v-707h-136zM46 741l-83 84l83 84l84 -84zM272 741l-84 84l84 84l83 -84z" />
    <glyph glyph-name="Igrave" unicode="&#xcc;" horiz-adv-x="320" 
d="M233 745l-256 55l25 107l252 -72zM92 0v707h136v-707h-136z" />
    <glyph glyph-name="Ibreve" unicode="&#x12c;" horiz-adv-x="320" 
d="M92 0v707h136v-707h-136zM158 753c-97 0 -154 56 -181 101l70 61c33 -35 71 -62 115 -62c46 0 83 27 112 61l66 -59c-28 -42 -86 -102 -182 -102z" />
    <glyph glyph-name="Idotaccent" unicode="&#x130;" horiz-adv-x="320" 
d="M240 839l-82 -82l-82 82l82 82zM92 0v707h136v-707h-136z" />
    <glyph glyph-name="Imacron" unicode="&#x12a;" horiz-adv-x="320" 
d="M92 0v707h136v-707h-136zM5 772v105h305v-105h-305z" />
    <glyph glyph-name="Iogonek" unicode="&#x12e;" horiz-adv-x="320" 
d="M260 -225c-26 -12 -54 -23 -108 -23c-108 0 -140 48 -140 118c0 47 39 89 80 122v714h136v-706c-46 -30 -98 -68 -98 -108c0 -26 23 -40 43 -40c18 0 44 5 63 11z" />
    <glyph glyph-name="uni01CF" unicode="&#x1cf;" horiz-adv-x="320" 
d="M92 0v707h136v-707h-136zM338 830l-180 -88l-177 89l46 87l131 -60l132 59z" />
    <glyph glyph-name="uni1EC8" unicode="&#x1ec8;" horiz-adv-x="320" 
d="M92 0v707h136v-707h-136zM71 981c16 6 43 12 70 12c65 0 118 -45 118 -115c0 -73 -58 -116 -106 -137l-50 60c31 13 59 34 59 67c0 26 -22 36 -45 36c-13 0 -26 -2 -37 -7z" />
    <glyph glyph-name="uni1ECA" unicode="&#x1eca;" horiz-adv-x="320" 
d="M92 0v707h136v-707h-136zM251 -154l-94 -95l-95 95l95 94z" />
    <glyph glyph-name="Itilde" unicode="&#x128;" horiz-adv-x="320" 
d="M92 0v707h136v-707h-136zM219 755c-48 0 -87 37 -125 37c-22 0 -43 -4 -70 -26l-51 63c22 24 70 68 127 68c59 0 88 -38 122 -38c33 0 50 9 78 26l46 -62c-20 -23 -62 -68 -127 -68z" />
    <glyph glyph-name="uni004A0301" horiz-adv-x="322" 
d="M89 745l-21 90l251 73l25 -106zM1 -194l-52 99c120 66 145 124 145 246v556h138v-554c0 -146 -23 -272 -231 -347z" />
    <glyph glyph-name="Jcircumflex" unicode="&#x134;" horiz-adv-x="322" 
d="M1 -194l-52 99c120 66 145 124 145 246v556h138v-554c0 -146 -23 -272 -231 -347zM31 745l-47 86l179 89l176 -88l-47 -87l-130 59z" />
    <glyph glyph-name="Kcommaaccent" unicode="&#x136;" horiz-adv-x="687" 
d="M92 0v707h136v-323l267 323h174l-289 -329l306 -378h-175l-283 374v-374h-136zM417 -59l-43 -213h-94l21 213h116z" />
    <glyph glyph-name="uni01E8" unicode="&#x1e8;" horiz-adv-x="687" 
d="M92 0v707h136v-323l267 323h174l-289 -329l306 -378h-175l-283 374v-374h-136zM534 830l-180 -88l-177 89l46 87l131 -60l132 59z" />
    <glyph glyph-name="uni1E34" unicode="&#x1e34;" horiz-adv-x="687" 
d="M92 0v707h136v-323l267 323h174l-289 -329l306 -378h-175l-283 374v-374h-136zM208 -218v105h305v-105h-305z" />
    <glyph glyph-name="uni1E32" unicode="&#x1e32;" horiz-adv-x="687" 
d="M92 0v707h136v-323l267 323h174l-289 -329l306 -378h-175l-283 374v-374h-136zM355 -249l-94 95l94 94l95 -94z" />
    <glyph glyph-name="Lacute" unicode="&#x139;" horiz-adv-x="544" 
d="M103 745l-21 90l251 73l25 -106zM92 0v707h136v-597h307v-110h-443z" />
    <glyph glyph-name="Lcaron" unicode="&#x13d;" horiz-adv-x="544" 
d="M441 780l-43 -213h-94l21 213h116zM92 0v707h136v-597h307v-110h-443z" />
    <glyph glyph-name="Lcommaaccent" unicode="&#x13b;" horiz-adv-x="544" 
d="M366 -59l-43 -213h-94l21 213h116zM92 0v707h136v-597h307v-110h-443z" />
    <glyph glyph-name="Ldot" unicode="&#x13f;" horiz-adv-x="544" 
d="M428 293l-89 90l89 88l88 -88zM92 0v707h136v-597h307v-110h-443z" />
    <glyph glyph-name="Lslash" unicode="&#x141;" horiz-adv-x="567" 
d="M43 235v95l72 41v336h136v-258l117 68v-94l-117 -68v-245h307v-110h-443v276z" />
    <glyph glyph-name="uni1E3A" unicode="&#x1e3a;" horiz-adv-x="544" 
d="M92 0v707h136v-597h307v-110h-443zM159 -218v105h305v-105h-305z" />
    <glyph glyph-name="uni1E36" unicode="&#x1e36;" horiz-adv-x="544" 
d="M307 -249l-94 95l94 94l95 -94zM92 0v707h136v-597h307v-110h-443z" />
    <glyph glyph-name="uni1E38" unicode="&#x1e38;" horiz-adv-x="544" 
d="M291 -249l-94 95l94 94l95 -94zM9 772v105h305v-105h-305zM92 0v707h136v-597h307v-110h-443z" />
    <glyph glyph-name="uni1E42" unicode="&#x1e42;" horiz-adv-x="974" 
d="M474 -249l-94 95l94 94l95 -94zM92 0v707h170l215 -594l243 594h162v-707h-137v343l6 145h-4l-193 -488h-163l-167 489h-4l8 -140v-349h-136z" />
    <glyph glyph-name="uni004D0310" horiz-adv-x="974" 
d="M92 0v707h170l215 -594l243 594h162v-707h-137v343l6 145h-4l-193 -488h-163l-167 489h-4l8 -140v-349h-136zM487 750c-97 0 -157 57 -185 103l71 61c32 -35 72 -63 117 -63c46 0 84 28 116 64l67 -60c-29 -44 -90 -105 -186 -105zM488 890l-81 84l81 82l83 -82z" />
    <glyph glyph-name="uni1E40" unicode="&#x1e40;" horiz-adv-x="974" 
d="M565 839l-82 -82l-82 82l82 82zM92 0v707h170l215 -594l243 594h162v-707h-137v343l6 145h-4l-193 -488h-163l-167 489h-4l8 -140v-349h-136z" />
    <glyph glyph-name="uni1E3E" unicode="&#x1e3e;" horiz-adv-x="974" 
d="M410 745l-21 90l251 73l25 -106zM92 0v707h170l215 -594l243 594h162v-707h-137v343l6 145h-4l-193 -488h-163l-167 489h-4l8 -140v-349h-136z" />
    <glyph glyph-name="Ntilde" unicode="&#xd1;" horiz-adv-x="792" 
d="M463 755c-48 0 -87 37 -125 37c-22 0 -43 -4 -70 -26l-51 63c22 24 70 68 127 68c59 0 88 -38 122 -38c33 0 50 9 78 26l46 -62c-20 -23 -62 -68 -127 -68zM92 0v707h162l312 -534h2l-4 83v451h137v-707h-168l-305 523h-4l4 -86v-437h-136z" />
    <glyph glyph-name="Nacute" unicode="&#x143;" horiz-adv-x="792" 
d="M303 745l-21 90l251 73l25 -106zM92 0v707h162l312 -534h2l-4 83v451h137v-707h-168l-305 523h-4l4 -86v-437h-136z" />
    <glyph glyph-name="Ncaron" unicode="&#x147;" horiz-adv-x="792" 
d="M572 830l-180 -88l-177 89l46 87l131 -60l132 59zM92 0v707h162l312 -534h2l-4 83v451h137v-707h-168l-305 523h-4l4 -86v-437h-136z" />
    <glyph glyph-name="Ncommaaccent" unicode="&#x145;" horiz-adv-x="792" 
d="M458 -59l-43 -213h-94l21 213h116zM92 0v707h162l312 -534h2l-4 83v451h137v-707h-168l-305 523h-4l4 -86v-437h-136z" />
    <glyph glyph-name="uni01F8" unicode="&#x1f8;" horiz-adv-x="792" 
d="M499 745l-256 55l25 107l252 -72zM92 0v707h162l312 -534h2l-4 83v451h137v-707h-168l-305 523h-4l4 -86v-437h-136z" />
    <glyph glyph-name="uni1E48" unicode="&#x1e48;" horiz-adv-x="792" 
d="M243 -218v105h305v-105h-305zM92 0v707h162l312 -534h2l-4 83v451h137v-707h-168l-305 523h-4l4 -86v-437h-136z" />
    <glyph glyph-name="uni1E44" unicode="&#x1e44;" horiz-adv-x="792" 
d="M484 852l-82 -82l-82 82l82 82zM92 0v707h162l312 -534h2l-4 83v451h137v-707h-168l-305 523h-4l4 -86v-437h-136z" />
    <glyph glyph-name="uni004E0304" horiz-adv-x="792" 
d="M239 772v105h305v-105h-305zM92 0v707h162l312 -534h2l-4 83v451h137v-707h-168l-305 523h-4l4 -86v-437h-136z" />
    <glyph glyph-name="Eng" unicode="&#x14a;" horiz-adv-x="792" 
d="M494 -220c-36 0 -80 9 -106 18l24 105c3 -1 53 -10 79 -10c53 0 77 29 77 87v20h-42l-302 532l4 -86v-446h-136v707h167l309 -543l-4 83v460h137l-1 -713c0 -178 -96 -214 -206 -214z" />
    <glyph glyph-name="uni1E46" unicode="&#x1e46;" horiz-adv-x="792" 
d="M396 -249l-94 95l94 94l95 -94zM92 0v707h162l312 -534h2l-4 83v451h137v-707h-168l-305 523h-4l4 -86v-437h-136z" />
    <glyph glyph-name="Ograve" unicode="&#xd2;" horiz-adv-x="831" 
d="M510 745l-256 55l25 107l252 -72zM407 -12c-237 0 -361 144 -361 367c0 222 146 363 378 363c246 0 361 -156 361 -365c0 -222 -135 -365 -378 -365zM410 97c168 0 236 112 236 257c0 146 -74 255 -229 255c-162 0 -233 -109 -233 -253c0 -141 69 -259 226 -259z" />
    <glyph glyph-name="Odieresis" unicode="&#xd6;" horiz-adv-x="831" 
d="M297 741l-83 84l83 84l84 -84zM523 741l-84 84l84 84l83 -84zM407 -12c-237 0 -361 144 -361 367c0 222 146 363 378 363c246 0 361 -156 361 -365c0 -222 -135 -365 -378 -365zM410 97c168 0 236 112 236 257c0 146 -74 255 -229 255c-162 0 -233 -109 -233 -253
c0 -141 69 -259 226 -259z" />
    <glyph glyph-name="Otilde" unicode="&#xd5;" horiz-adv-x="831" 
d="M481 755c-48 0 -87 37 -125 37c-22 0 -43 -4 -70 -26l-51 63c22 24 70 68 127 68c59 0 88 -38 122 -38c33 0 50 9 78 26l46 -62c-20 -23 -62 -68 -127 -68zM407 -12c-237 0 -361 144 -361 367c0 222 146 363 378 363c246 0 361 -156 361 -365c0 -222 -135 -365 -378 -365
zM410 97c168 0 236 112 236 257c0 146 -74 255 -229 255c-162 0 -233 -109 -233 -253c0 -141 69 -259 226 -259z" />
    <glyph glyph-name="Obreve" unicode="&#x14e;" horiz-adv-x="831" 
d="M417 753c-97 0 -154 56 -181 101l70 61c33 -35 71 -62 115 -62c46 0 83 27 112 61l66 -59c-28 -42 -86 -102 -182 -102zM407 -12c-237 0 -361 144 -361 367c0 222 146 363 378 363c246 0 361 -156 361 -365c0 -222 -135 -365 -378 -365zM410 97c168 0 236 112 236 257
c0 146 -74 255 -229 255c-162 0 -233 -109 -233 -253c0 -141 69 -259 226 -259z" />
    <glyph glyph-name="Oacute" unicode="&#xd3;" horiz-adv-x="831" 
d="M324 745l-21 90l251 73l25 -106zM407 -12c-237 0 -361 144 -361 367c0 222 146 363 378 363c246 0 361 -156 361 -365c0 -222 -135 -365 -378 -365zM410 97c168 0 236 112 236 257c0 146 -74 255 -229 255c-162 0 -233 -109 -233 -253c0 -141 69 -259 226 -259z" />
    <glyph glyph-name="Ocircumflex" unicode="&#xd4;" horiz-adv-x="831" 
d="M286 745l-47 86l179 89l176 -88l-47 -87l-130 59zM407 -12c-237 0 -361 144 -361 367c0 222 146 363 378 363c246 0 361 -156 361 -365c0 -222 -135 -365 -378 -365zM410 97c168 0 236 112 236 257c0 146 -74 255 -229 255c-162 0 -233 -109 -233 -253
c0 -141 69 -259 226 -259z" />
    <glyph glyph-name="Ohungarumlaut" unicode="&#x150;" horiz-adv-x="831" 
d="M407 -12c-237 0 -361 144 -361 367c0 222 146 363 378 363c246 0 361 -156 361 -365c0 -222 -135 -365 -378 -365zM410 97c168 0 236 112 236 257c0 146 -74 255 -229 255c-162 0 -233 -109 -233 -253c0 -141 69 -259 226 -259zM468 878l-216 -141l-55 78l206 154z
M743 793l-253 -53l-21 92l248 69z" />
    <glyph glyph-name="Omacron" unicode="&#x14c;" horiz-adv-x="831" 
d="M267 772v105h305v-105h-305zM407 -12c-237 0 -361 144 -361 367c0 222 146 363 378 363c246 0 361 -156 361 -365c0 -222 -135 -365 -378 -365zM410 97c168 0 236 112 236 257c0 146 -74 255 -229 255c-162 0 -233 -109 -233 -253c0 -141 69 -259 226 -259z" />
    <glyph glyph-name="Oslash" unicode="&#xd8;" horiz-adv-x="860" 
d="M99 -39l-58 58l89 92c-47 62 -71 145 -71 244c0 222 146 363 378 363c92 0 166 -22 222 -60l87 90l61 -56l-87 -90c52 -64 78 -151 78 -249c0 -222 -135 -365 -378 -365c-96 0 -173 23 -231 66zM423 97c168 0 236 112 236 257c0 57 -11 108 -34 150l-347 -359
c35 -30 83 -48 145 -48zM197 356c0 -53 10 -103 30 -145l344 355c-36 27 -83 43 -141 43c-162 0 -233 -109 -233 -253z" />
    <glyph glyph-name="Oslashacute" unicode="&#x1fe;" horiz-adv-x="860" 
d="M99 -39l-58 58l89 92c-47 62 -71 145 -71 244c0 222 146 363 378 363c92 0 166 -22 222 -60l87 90l61 -56l-87 -90c52 -64 78 -151 78 -249c0 -222 -135 -365 -378 -365c-96 0 -173 23 -231 66zM423 97c168 0 236 112 236 257c0 57 -11 108 -34 150l-347 -359
c35 -30 83 -48 145 -48zM197 356c0 -53 10 -103 30 -145l344 355c-36 27 -83 43 -141 43c-162 0 -233 -109 -233 -253zM347 745l-21 90l251 73l25 -106z" />
    <glyph glyph-name="uni01D1" unicode="&#x1d1;" horiz-adv-x="831" 
d="M599 830l-180 -88l-177 89l46 87l131 -60l132 59zM407 -12c-237 0 -361 144 -361 367c0 222 146 363 378 363c246 0 361 -156 361 -365c0 -222 -135 -365 -378 -365zM410 97c168 0 236 112 236 257c0 146 -74 255 -229 255c-162 0 -233 -109 -233 -253
c0 -141 69 -259 226 -259z" />
    <glyph glyph-name="uni01EA" unicode="&#x1ea;" horiz-adv-x="831" 
d="M554 -223c-28 -16 -64 -26 -103 -26c-83 0 -143 46 -143 123c0 43 24 82 60 116c-212 14 -322 154 -322 365c0 222 146 363 378 363c246 0 361 -156 361 -365c0 -186 -95 -317 -269 -354c-47 -28 -92 -67 -92 -107c0 -31 23 -47 48 -47c22 0 41 6 58 15zM410 97
c168 0 236 112 236 257c0 146 -74 255 -229 255c-162 0 -233 -109 -233 -253c0 -141 69 -259 226 -259z" />
    <glyph glyph-name="uni01EC" unicode="&#x1ec;" horiz-adv-x="831" 
d="M554 -223c-28 -16 -64 -26 -103 -26c-83 0 -143 46 -143 123c0 43 24 82 60 116c-212 14 -322 154 -322 365c0 222 146 363 378 363c246 0 361 -156 361 -365c0 -186 -95 -317 -269 -354c-47 -28 -92 -67 -92 -107c0 -31 23 -47 48 -47c22 0 41 6 58 15zM410 97
c168 0 236 112 236 257c0 146 -74 255 -229 255c-162 0 -233 -109 -233 -253c0 -141 69 -259 226 -259zM258 772v105h305v-105h-305z" />
    <glyph glyph-name="uni022E" unicode="&#x22e;" horiz-adv-x="831" 
d="M496 839l-82 -82l-82 82l82 82zM407 -12c-237 0 -361 144 -361 367c0 222 146 363 378 363c246 0 361 -156 361 -365c0 -222 -135 -365 -378 -365zM410 97c168 0 236 112 236 257c0 146 -74 255 -229 255c-162 0 -233 -109 -233 -253c0 -141 69 -259 226 -259z" />
    <glyph glyph-name="Ohorn" unicode="&#x1a0;" horiz-adv-x="851" 
d="M407 -12c-237 0 -361 144 -361 367c0 222 146 363 378 363c79 0 146 -17 198 -46c32 18 44 47 44 81c0 16 -4 38 -9 55h115c8 -19 12 -52 12 -70c0 -64 -32 -111 -75 -139c51 -64 76 -150 76 -246c0 -222 -135 -365 -378 -365zM410 97c168 0 236 112 236 257
c0 146 -74 255 -229 255c-162 0 -233 -109 -233 -253c0 -141 69 -259 226 -259z" />
    <glyph glyph-name="uni1ED2" unicode="&#x1ed2;" horiz-adv-x="831" 
d="M609 849l-173 121l66 86l164 -135zM277 740l-40 85l180 81l179 -81l-41 -85l-138 54zM407 -12c-237 0 -361 144 -361 367c0 222 146 363 378 363c246 0 361 -156 361 -365c0 -222 -135 -365 -378 -365zM410 97c168 0 236 112 236 257c0 146 -74 255 -229 255
c-162 0 -233 -109 -233 -253c0 -141 69 -259 226 -259z" />
    <glyph glyph-name="uni1ED0" unicode="&#x1ed0;" horiz-adv-x="831" 
d="M279 740l-40 85l180 81l179 -81l-41 -85l-138 54zM565 856l-62 61l137 136l74 -78zM407 -12c-237 0 -361 144 -361 367c0 222 146 363 378 363c246 0 361 -156 361 -365c0 -222 -135 -365 -378 -365zM410 97c168 0 236 112 236 257c0 146 -74 255 -229 255
c-162 0 -233 -109 -233 -253c0 -141 69 -259 226 -259z" />
    <glyph glyph-name="uni1ED6" unicode="&#x1ed6;" horiz-adv-x="831" 
d="M278 741l-41 86l181 73l179 -73l-42 -86l-137 47zM482 911c-47 0 -83 33 -121 33c-24 0 -45 -4 -68 -24l-47 65c19 21 59 62 123 62c57 0 85 -33 120 -33c29 0 50 10 77 24l43 -66c-20 -18 -59 -61 -127 -61zM407 -12c-237 0 -361 144 -361 367c0 222 146 363 378 363
c246 0 361 -156 361 -365c0 -222 -135 -365 -378 -365zM410 97c168 0 236 112 236 257c0 146 -74 255 -229 255c-162 0 -233 -109 -233 -253c0 -141 69 -259 226 -259z" />
    <glyph glyph-name="uni1ED4" unicode="&#x1ed4;" horiz-adv-x="831" 
d="M407 -12c-237 0 -361 144 -361 367c0 222 146 363 378 363c246 0 361 -156 361 -365c0 -222 -135 -365 -378 -365zM410 97c168 0 236 112 236 257c0 146 -74 255 -229 255c-162 0 -233 -109 -233 -253c0 -141 69 -259 226 -259zM270 740l-40 85l180 81l179 -81l-41 -85
l-138 54zM612 983c0 -66 -48 -104 -71 -116l-64 56c14 8 38 26 38 51c0 19 -17 28 -32 28c-13 0 -26 -4 -42 -10l-20 76c18 10 41 20 79 20c27 0 58 -9 78 -27c21 -20 34 -46 34 -78z" />
    <glyph glyph-name="uni1ED8" unicode="&#x1ed8;" horiz-adv-x="831" 
d="M506 -154l-94 -95l-95 95l95 94zM407 -12c-237 0 -361 144 -361 367c0 222 146 363 378 363c246 0 361 -156 361 -365c0 -222 -135 -365 -378 -365zM410 97c168 0 236 112 236 257c0 146 -74 255 -229 255c-162 0 -233 -109 -233 -253c0 -141 69 -259 226 -259zM284 745
l-47 86l179 89l176 -88l-47 -87l-130 59z" />
    <glyph glyph-name="uni1ECE" unicode="&#x1ece;" horiz-adv-x="831" 
d="M318 981c16 6 43 12 70 12c65 0 118 -45 118 -115c0 -73 -58 -116 -106 -137l-50 60c31 13 59 34 59 67c0 26 -22 36 -45 36c-13 0 -26 -2 -37 -7zM407 -12c-237 0 -361 144 -361 367c0 222 146 363 378 363c246 0 361 -156 361 -365c0 -222 -135 -365 -378 -365zM410 97
c168 0 236 112 236 257c0 146 -74 255 -229 255c-162 0 -233 -109 -233 -253c0 -141 69 -259 226 -259z" />
    <glyph glyph-name="uni1ECC" unicode="&#x1ecc;" horiz-adv-x="831" 
d="M512 -154l-94 -95l-95 95l95 94zM407 -12c-237 0 -361 144 -361 367c0 222 146 363 378 363c246 0 361 -156 361 -365c0 -222 -135 -365 -378 -365zM410 97c168 0 236 112 236 257c0 146 -74 255 -229 255c-162 0 -233 -109 -233 -253c0 -141 69 -259 226 -259z" />
    <glyph glyph-name="uni1EDC" unicode="&#x1edc;" horiz-adv-x="851" 
d="M407 -12c-237 0 -361 144 -361 367c0 222 146 363 378 363c79 0 146 -17 198 -46c32 18 44 47 44 81c0 16 -4 38 -9 55h115c8 -19 12 -52 12 -70c0 -64 -32 -111 -75 -139c51 -64 76 -150 76 -246c0 -222 -135 -365 -378 -365zM410 97c168 0 236 112 236 257
c0 146 -74 255 -229 255c-162 0 -233 -109 -233 -253c0 -141 69 -259 226 -259zM505 745l-256 55l25 107l252 -72z" />
    <glyph glyph-name="uni1EDA" unicode="&#x1eda;" horiz-adv-x="851" 
d="M407 -12c-237 0 -361 144 -361 367c0 222 146 363 378 363c80 0 147 -17 200 -47c33 18 45 48 45 82c0 16 -4 38 -9 55h115c8 -19 12 -52 12 -70c0 -65 -33 -112 -77 -141c50 -63 75 -148 75 -244c0 -222 -135 -365 -378 -365zM410 97c168 0 236 112 236 257
c0 146 -74 255 -229 255c-162 0 -233 -109 -233 -253c0 -141 69 -259 226 -259zM333 745l-21 90l251 73l25 -106z" />
    <glyph glyph-name="uni1EE0" unicode="&#x1ee0;" horiz-adv-x="851" 
d="M407 -12c-237 0 -361 144 -361 367c0 222 146 363 378 363c80 0 147 -17 200 -47c33 18 45 48 45 82c0 16 -4 38 -9 55h115c8 -19 12 -52 12 -70c0 -65 -33 -112 -77 -141c50 -63 75 -148 75 -244c0 -222 -135 -365 -378 -365zM410 97c168 0 236 112 236 257
c0 146 -74 255 -229 255c-162 0 -233 -109 -233 -253c0 -141 69 -259 226 -259zM479 755c-48 0 -87 37 -125 37c-22 0 -43 -4 -70 -26l-51 63c22 24 70 68 127 68c59 0 88 -38 122 -38c33 0 50 9 78 26l46 -62c-20 -23 -62 -68 -127 -68z" />
    <glyph glyph-name="uni1EDE" unicode="&#x1ede;" horiz-adv-x="851" 
d="M407 -12c-237 0 -361 144 -361 367c0 222 146 363 378 363c79 0 146 -17 198 -46c32 18 44 47 44 81c0 16 -4 38 -9 55h115c8 -19 12 -52 12 -70c0 -64 -32 -111 -75 -139c51 -64 76 -150 76 -246c0 -222 -135 -365 -378 -365zM410 97c168 0 236 112 236 257
c0 146 -74 255 -229 255c-162 0 -233 -109 -233 -253c0 -141 69 -259 226 -259zM320 981c16 6 43 12 70 12c65 0 118 -45 118 -115c0 -73 -58 -116 -106 -137l-50 60c31 13 59 34 59 67c0 26 -22 36 -45 36c-13 0 -26 -2 -37 -7z" />
    <glyph glyph-name="uni1EE2" unicode="&#x1ee2;" horiz-adv-x="851" 
d="M407 -12c-237 0 -361 144 -361 367c0 222 146 363 378 363c80 0 147 -17 200 -47c33 18 45 48 45 82c0 16 -4 38 -9 55h115c8 -19 12 -52 12 -70c0 -65 -33 -112 -77 -141c50 -63 75 -148 75 -244c0 -222 -135 -365 -378 -365zM410 97c168 0 236 112 236 257
c0 146 -74 255 -229 255c-162 0 -233 -109 -233 -253c0 -141 69 -259 226 -259zM515 -154l-94 -95l-95 95l95 94z" />
    <glyph glyph-name="uni1E56" unicode="&#x1e56;" horiz-adv-x="632" 
d="M395 839l-82 -82l-82 82l82 82zM92 0v707h258c152 0 256 -87 256 -240c0 -134 -104 -246 -308 -246h-58v107h64c107 0 160 52 160 135c0 85 -38 136 -136 136h-99v-599h-137z" />
    <glyph glyph-name="uni00500304" horiz-adv-x="632" 
d="M92 0v707h258c152 0 256 -87 256 -240c0 -134 -104 -246 -308 -246h-58v107h64c107 0 160 52 160 135c0 85 -38 136 -136 136h-99v-599h-137zM159 772v105h305v-105h-305z" />
    <glyph glyph-name="Racute" unicode="&#x154;" horiz-adv-x="727" 
d="M235 745l-21 90l251 73l25 -106zM693 -13c-118 9 -187 74 -257 160l-89 114c-14 -2 -33 -3 -49 -3h-69v-258h-137v707h258c150 0 256 -70 256 -222c0 -80 -38 -152 -121 -192l81 -98c42 -49 84 -83 158 -103zM229 358h75c104 0 161 39 161 122c0 86 -40 119 -137 119h-99
v-241z" />
    <glyph glyph-name="Rcaron" unicode="&#x158;" horiz-adv-x="727" 
d="M493 830l-180 -88l-177 89l46 87l131 -60l132 59zM693 -13c-118 9 -187 74 -257 160l-89 114c-14 -2 -33 -3 -49 -3h-69v-258h-137v707h258c150 0 256 -70 256 -222c0 -80 -38 -152 -121 -192l81 -98c42 -49 84 -83 158 -103zM229 358h75c104 0 161 39 161 122
c0 86 -40 119 -137 119h-99v-241z" />
    <glyph glyph-name="uni00520300" horiz-adv-x="727" 
d="M372 745l-256 55l25 107l252 -72zM693 -13c-118 9 -187 74 -257 160l-89 114c-14 -2 -33 -3 -49 -3h-69v-258h-137v707h258c150 0 256 -70 256 -222c0 -80 -38 -152 -121 -192l81 -98c42 -49 84 -83 158 -103zM229 358h75c104 0 161 39 161 122c0 86 -40 119 -137 119
h-99v-241z" />
    <glyph glyph-name="Rcommaaccent" unicode="&#x156;" horiz-adv-x="727" 
d="M451 -59l-43 -213h-94l21 213h116zM693 -13c-118 9 -187 74 -257 160l-89 114c-14 -2 -33 -3 -49 -3h-69v-258h-137v707h258c150 0 256 -70 256 -222c0 -80 -38 -152 -121 -192l81 -98c42 -49 84 -83 158 -103zM229 358h75c104 0 161 39 161 122c0 86 -40 119 -137 119
h-99v-241z" />
    <glyph glyph-name="uni1E5E" unicode="&#x1e5e;" horiz-adv-x="727" 
d="M693 -13c-118 9 -187 74 -257 160l-89 114c-14 -2 -33 -3 -49 -3h-69v-258h-137v707h258c150 0 256 -70 256 -222c0 -80 -38 -152 -121 -192l81 -98c42 -49 84 -83 158 -103zM229 358h75c104 0 161 39 161 122c0 86 -40 119 -137 119h-99v-241zM220 -218v105h305v-105
h-305z" />
    <glyph glyph-name="uni1E5A" unicode="&#x1e5a;" horiz-adv-x="727" 
d="M370 -249l-94 95l94 94l95 -94zM693 -13c-118 9 -187 74 -257 160l-89 114c-14 -2 -33 -3 -49 -3h-69v-258h-137v707h258c150 0 256 -70 256 -222c0 -80 -38 -152 -121 -192l81 -98c42 -49 84 -83 158 -103zM229 358h75c104 0 161 39 161 122c0 86 -40 119 -137 119h-99
v-241z" />
    <glyph glyph-name="uni1E5C" unicode="&#x1e5c;" horiz-adv-x="727" 
d="M366 -249l-94 95l94 94l95 -94zM165 772v105h305v-105h-305zM693 -13c-118 9 -187 74 -257 160l-89 114c-14 -2 -33 -3 -49 -3h-69v-258h-137v707h258c150 0 256 -70 256 -222c0 -80 -38 -152 -121 -192l81 -98c42 -49 84 -83 158 -103zM229 358h75c104 0 161 39 161 122
c0 86 -40 119 -137 119h-99v-241z" />
    <glyph glyph-name="uni00520325" horiz-adv-x="727" 
d="M374 -276c-63 0 -132 27 -132 113c0 81 65 119 129 119c53 0 131 -27 131 -117c0 -78 -60 -115 -128 -115zM372 -217c37 0 57 21 59 55c0 33 -26 55 -59 55c-39 0 -59 -19 -59 -53c0 -35 23 -57 59 -57zM693 -13c-118 9 -187 74 -257 160l-89 114c-14 -2 -33 -3 -49 -3
h-69v-258h-137v707h258c150 0 256 -70 256 -222c0 -80 -38 -152 -121 -192l81 -98c42 -49 84 -83 158 -103zM229 358h75c104 0 161 39 161 122c0 86 -40 119 -137 119h-99v-241z" />
    <glyph glyph-name="uni005203250304" horiz-adv-x="727" 
d="M369 -276c-63 0 -132 27 -132 113c0 81 65 119 129 119c53 0 131 -27 131 -117c0 -78 -60 -115 -128 -115zM367 -217c37 0 57 21 59 55c0 33 -26 55 -59 55c-39 0 -59 -19 -59 -53c0 -35 23 -57 59 -57zM167 772v105h305v-105h-305zM693 -13c-118 9 -187 74 -257 160
l-89 114c-14 -2 -33 -3 -49 -3h-69v-258h-137v707h258c150 0 256 -70 256 -222c0 -80 -38 -152 -121 -192l81 -98c42 -49 84 -83 158 -103zM229 358h75c104 0 161 39 161 122c0 86 -40 119 -137 119h-99v-241z" />
    <glyph glyph-name="uni1E58" unicode="&#x1e58;" horiz-adv-x="727" 
d="M400 839l-82 -82l-82 82l82 82zM693 -13c-118 9 -187 74 -257 160l-89 114c-14 -2 -33 -3 -49 -3h-69v-258h-137v707h258c150 0 256 -70 256 -222c0 -80 -38 -152 -121 -192l81 -98c42 -49 84 -83 158 -103zM229 358h75c104 0 161 39 161 122c0 86 -40 119 -137 119h-99
v-241z" />
    <glyph glyph-name="Sacute" unicode="&#x15a;" horiz-adv-x="569" 
d="M256 -12c-105 0 -173 27 -221 54l40 104c58 -25 107 -44 181 -44c82 0 140 32 140 93c0 139 -341 93 -341 330c0 127 118 193 238 193c100 0 155 -21 203 -49l-40 -101c-49 22 -93 36 -159 36c-62 0 -108 -29 -108 -80c0 -119 345 -103 345 -323
c0 -147 -135 -213 -278 -213zM197 745l-21 90l251 73l25 -106z" />
    <glyph glyph-name="Scedilla" unicode="&#x15e;" horiz-adv-x="569" 
d="M256 -12c-105 0 -173 27 -221 54l40 104c58 -25 107 -44 181 -44c82 0 140 32 140 93c0 139 -341 93 -341 330c0 127 118 193 238 193c100 0 155 -21 203 -49l-40 -101c-49 22 -93 36 -159 36c-62 0 -108 -29 -108 -80c0 -119 345 -103 345 -323
c0 -147 -135 -213 -278 -213zM217 -267l-46 79c32 20 70 41 70 73c0 20 -8 42 -16 64h109c11 -23 21 -49 21 -76c0 -67 -70 -111 -138 -140z" />
    <glyph glyph-name="Scaron" unicode="&#x160;" horiz-adv-x="569" 
d="M461 830l-180 -88l-177 89l46 87l131 -60l132 59zM256 -12c-105 0 -173 27 -221 54l40 104c58 -25 107 -44 181 -44c82 0 140 32 140 93c0 139 -341 93 -341 330c0 127 118 193 238 193c100 0 155 -21 203 -49l-40 -101c-49 22 -93 36 -159 36c-62 0 -108 -29 -108 -80
c0 -119 345 -103 345 -323c0 -147 -135 -213 -278 -213z" />
    <glyph glyph-name="Scircumflex" unicode="&#x15c;" horiz-adv-x="569" 
d="M256 -12c-105 0 -173 27 -221 54l40 104c58 -25 107 -44 181 -44c82 0 140 32 140 93c0 139 -341 93 -341 330c0 127 118 193 238 193c100 0 155 -21 203 -49l-40 -101c-49 22 -93 36 -159 36c-62 0 -108 -29 -108 -80c0 -119 345 -103 345 -323
c0 -147 -135 -213 -278 -213zM170 745l-47 86l179 89l176 -88l-47 -87l-130 59z" />
    <glyph glyph-name="Scommaaccent" unicode="&#x218;" horiz-adv-x="569" 
d="M336 -59l-43 -213h-94l21 213h116zM256 -12c-105 0 -173 27 -221 54l40 104c58 -25 107 -44 181 -44c82 0 140 32 140 93c0 139 -341 93 -341 330c0 127 118 193 238 193c100 0 155 -21 203 -49l-40 -101c-49 22 -93 36 -159 36c-62 0 -108 -29 -108 -80
c0 -119 345 -103 345 -323c0 -147 -135 -213 -278 -213z" />
    <glyph glyph-name="uni00530331" horiz-adv-x="569" 
d="M256 -12c-105 0 -173 27 -221 54l40 104c58 -25 107 -44 181 -44c82 0 140 32 140 93c0 139 -341 93 -341 330c0 127 118 193 238 193c100 0 155 -21 203 -49l-40 -101c-49 22 -93 36 -159 36c-62 0 -108 -29 -108 -80c0 -119 345 -103 345 -323
c0 -147 -135 -213 -278 -213zM121 -218v105h305v-105h-305z" />
    <glyph glyph-name="uni00530300" horiz-adv-x="569" 
d="M394 745l-256 55l25 107l252 -72zM256 -12c-105 0 -173 27 -221 54l40 104c58 -25 107 -44 181 -44c82 0 140 32 140 93c0 139 -341 93 -341 330c0 127 118 193 238 193c100 0 155 -21 203 -49l-40 -101c-49 22 -93 36 -159 36c-62 0 -108 -29 -108 -80
c0 -119 345 -103 345 -323c0 -147 -135 -213 -278 -213z" />
    <glyph glyph-name="uni1E60" unicode="&#x1e60;" horiz-adv-x="569" 
d="M371 839l-82 -82l-82 82l82 82zM256 -12c-105 0 -173 27 -221 54l40 104c58 -25 107 -44 181 -44c82 0 140 32 140 93c0 139 -341 93 -341 330c0 127 118 193 238 193c100 0 155 -21 203 -49l-40 -101c-49 22 -93 36 -159 36c-62 0 -108 -29 -108 -80
c0 -119 345 -103 345 -323c0 -147 -135 -213 -278 -213z" />
    <glyph glyph-name="uni00530306" horiz-adv-x="569" 
d="M275 759c-97 0 -154 56 -181 101l70 61c33 -35 71 -62 115 -62c46 0 83 27 112 61l66 -59c-28 -42 -86 -102 -182 -102zM256 -12c-105 0 -173 27 -221 54l40 104c58 -25 107 -44 181 -44c82 0 140 32 140 93c0 139 -341 93 -341 330c0 127 118 193 238 193
c100 0 155 -21 203 -49l-40 -101c-49 22 -93 36 -159 36c-62 0 -108 -29 -108 -80c0 -119 345 -103 345 -323c0 -147 -135 -213 -278 -213z" />
    <glyph glyph-name="uni1E62" unicode="&#x1e62;" horiz-adv-x="569" 
d="M281 -249l-94 95l94 94l95 -94zM256 -12c-105 0 -173 27 -221 54l40 104c58 -25 107 -44 181 -44c82 0 140 32 140 93c0 139 -341 93 -341 330c0 127 118 193 238 193c100 0 155 -21 203 -49l-40 -101c-49 22 -93 36 -159 36c-62 0 -108 -29 -108 -80
c0 -119 345 -103 345 -323c0 -147 -135 -213 -278 -213z" />
    <glyph glyph-name="Tbar" unicode="&#x166;" horiz-adv-x="615" 
d="M96 316v75h143v207h-229v109h595v-109h-229v-207h143v-75h-143v-316h-137v316h-143z" />
    <glyph glyph-name="Tcaron" unicode="&#x164;" horiz-adv-x="615" 
d="M485 830l-180 -88l-177 89l46 87l131 -60l132 59zM239 0v598h-229v109h595v-109h-229v-598h-137z" />
    <glyph glyph-name="Tcommaaccent" unicode="&#x162;" horiz-adv-x="615" 
d="M367 -59l-43 -213h-94l21 213h116zM239 0v598h-229v109h595v-109h-229v-598h-137z" />
    <glyph glyph-name="uni021A" unicode="&#x21a;" horiz-adv-x="615" 
d="M367 -59l-43 -213h-94l21 213h116zM239 0v598h-229v109h595v-109h-229v-598h-137z" />
    <glyph glyph-name="uni1E6E" unicode="&#x1e6e;" horiz-adv-x="615" 
d="M239 0v598h-229v109h595v-109h-229v-598h-137zM154 -218v105h305v-105h-305z" />
    <glyph glyph-name="uni1E6C" unicode="&#x1e6c;" horiz-adv-x="615" 
d="M306 -249l-94 95l94 94l95 -94zM239 0v598h-229v109h595v-109h-229v-598h-137z" />
    <glyph glyph-name="uni00540308" horiz-adv-x="615" 
d="M195 741l-83 84l83 84l84 -84zM421 741l-84 84l84 84l83 -84zM239 0v598h-229v109h595v-109h-229v-598h-137z" />
    <glyph glyph-name="uni1E6A" unicode="&#x1e6a;" horiz-adv-x="615" 
d="M389 839l-82 -82l-82 82l82 82zM239 0v598h-229v109h595v-109h-229v-598h-137z" />
    <glyph glyph-name="Uacute" unicode="&#xda;" horiz-adv-x="780" 
d="M315 745l-21 90l251 73l25 -106zM392 -13c-153 0 -311 65 -311 285v435h138v-429c0 -125 68 -177 173 -177c108 0 174 57 174 199v407h135v-410c0 -239 -163 -310 -309 -310z" />
    <glyph glyph-name="Ucircumflex" unicode="&#xdb;" horiz-adv-x="780" 
d="M392 -13c-153 0 -311 65 -311 285v435h138v-429c0 -125 68 -177 173 -177c108 0 174 57 174 199v407h135v-410c0 -239 -163 -310 -309 -310zM264 745l-47 86l179 89l176 -88l-47 -87l-130 59z" />
    <glyph glyph-name="Ugrave" unicode="&#xd9;" horiz-adv-x="780" 
d="M482 745l-256 55l25 107l252 -72zM392 -13c-153 0 -311 65 -311 285v435h138v-429c0 -125 68 -177 173 -177c108 0 174 57 174 199v407h135v-410c0 -239 -163 -310 -309 -310z" />
    <glyph glyph-name="Udieresis" unicode="&#xdc;" horiz-adv-x="780" 
d="M279 741l-83 84l83 84l84 -84zM505 741l-84 84l84 84l83 -84zM392 -13c-153 0 -311 65 -311 285v435h138v-429c0 -125 68 -177 173 -177c108 0 174 57 174 199v407h135v-410c0 -239 -163 -310 -309 -310z" />
    <glyph glyph-name="Ubreve" unicode="&#x16c;" horiz-adv-x="780" 
d="M389 753c-97 0 -154 56 -181 101l70 61c33 -35 71 -62 115 -62c46 0 83 27 112 61l66 -59c-28 -42 -86 -102 -182 -102zM392 -13c-153 0 -311 65 -311 285v435h138v-429c0 -125 68 -177 173 -177c108 0 174 57 174 199v407h135v-410c0 -239 -163 -310 -309 -310z" />
    <glyph glyph-name="Uhungarumlaut" unicode="&#x170;" horiz-adv-x="780" 
d="M392 -13c-153 0 -311 65 -311 285v435h138v-429c0 -125 68 -177 173 -177c108 0 174 57 174 199v407h135v-410c0 -239 -163 -310 -309 -310zM425 878l-216 -141l-55 78l206 154zM700 793l-253 -53l-21 92l248 69z" />
    <glyph glyph-name="Umacron" unicode="&#x16a;" horiz-adv-x="780" 
d="M237 772v105h305v-105h-305zM392 -13c-153 0 -311 65 -311 285v435h138v-429c0 -125 68 -177 173 -177c108 0 174 57 174 199v407h135v-410c0 -239 -163 -310 -309 -310z" />
    <glyph glyph-name="Uogonek" unicode="&#x172;" horiz-adv-x="780" 
d="M526 -223c-28 -16 -64 -26 -103 -26c-83 0 -143 46 -143 123c0 43 24 82 60 116c-135 13 -259 87 -259 282v435h138v-429c0 -125 68 -177 173 -177c108 0 174 57 174 199v407h135v-410c0 -188 -101 -272 -214 -299c-47 -28 -91 -66 -91 -106c0 -31 23 -47 48 -47
c22 0 41 6 58 15z" />
    <glyph glyph-name="Uring" unicode="&#x16e;" horiz-adv-x="780" 
d="M393 711c-58 0 -121 25 -121 104c0 75 59 109 118 109c49 0 121 -24 121 -107c0 -72 -56 -106 -118 -106zM391 765c34 0 53 19 55 51c0 31 -25 51 -55 51c-37 0 -55 -17 -55 -49s22 -53 55 -53zM392 -13c-153 0 -311 65 -311 285v435h138v-429c0 -125 68 -177 173 -177
c108 0 174 57 174 199v407h135v-410c0 -239 -163 -310 -309 -310z" />
    <glyph glyph-name="Utilde" unicode="&#x168;" horiz-adv-x="780" 
d="M443 755c-48 0 -87 37 -125 37c-22 0 -43 -4 -70 -26l-51 63c22 24 70 68 127 68c59 0 88 -38 122 -38c33 0 50 9 78 26l46 -62c-20 -23 -62 -68 -127 -68zM392 -13c-153 0 -311 65 -311 285v435h138v-429c0 -125 68 -177 173 -177c108 0 174 57 174 199v407h135v-410
c0 -239 -163 -310 -309 -310z" />
    <glyph glyph-name="Uhorn" unicode="&#x1af;" horiz-adv-x="816" 
d="M392 -13c-153 0 -311 65 -311 285v435h138v-429c0 -125 68 -177 173 -177c108 0 174 57 174 199v407h82c44 11 52 40 52 76c0 16 -4 34 -9 51h114c8 -19 12 -49 12 -67c0 -81 -50 -136 -116 -154v-316c0 -239 -163 -310 -309 -310z" />
    <glyph glyph-name="uni1EE6" unicode="&#x1ee6;" horiz-adv-x="780" 
d="M392 -13c-153 0 -311 65 -311 285v435h138v-429c0 -125 68 -177 173 -177c108 0 174 57 174 199v407h135v-410c0 -239 -163 -310 -309 -310zM305 981c16 6 43 12 70 12c65 0 118 -45 118 -115c0 -73 -58 -116 -106 -137l-50 60c31 13 59 34 59 67c0 26 -22 36 -45 36
c-13 0 -26 -2 -37 -7z" />
    <glyph glyph-name="uni1EE4" unicode="&#x1ee4;" horiz-adv-x="780" 
d="M482 -154l-94 -95l-95 95l95 94zM392 -13c-153 0 -311 65 -311 285v435h138v-429c0 -125 68 -177 173 -177c108 0 174 57 174 199v407h135v-410c0 -239 -163 -310 -309 -310z" />
    <glyph glyph-name="uni1EEA" unicode="&#x1eea;" horiz-adv-x="816" 
d="M392 -13c-153 0 -311 65 -311 285v435h138v-429c0 -125 68 -177 173 -177c108 0 174 57 174 199v407h82c44 11 52 40 52 76c0 16 -4 34 -9 51h114c8 -19 12 -49 12 -67c0 -81 -50 -136 -116 -154v-316c0 -239 -163 -310 -309 -310zM496 745l-256 55l25 107l252 -72z" />
    <glyph glyph-name="uni1EE8" unicode="&#x1ee8;" horiz-adv-x="816" 
d="M691 834h114c8 -19 12 -49 12 -67c0 -81 -50 -136 -116 -154v-316c0 -239 -163 -310 -309 -310c-153 0 -311 65 -311 285v435h138v-429c0 -125 68 -177 173 -177c108 0 174 57 174 199v407h82c44 11 52 40 52 76c0 16 -4 34 -9 51zM314 745l-21 90l251 73l25 -106z" />
    <glyph glyph-name="uni1EEE" unicode="&#x1eee;" horiz-adv-x="816" 
d="M392 -13c-153 0 -311 65 -311 285v435h138v-429c0 -125 68 -177 173 -177c108 0 174 57 174 199v407h82c44 11 52 40 52 76c0 16 -4 34 -9 51h114c8 -19 12 -49 12 -67c0 -81 -50 -136 -116 -154v-316c0 -239 -163 -310 -309 -310zM455 755c-48 0 -87 37 -125 37
c-22 0 -43 -4 -70 -26l-51 63c22 24 70 68 127 68c59 0 88 -38 122 -38c33 0 50 9 78 26l46 -62c-20 -23 -62 -68 -127 -68z" />
    <glyph glyph-name="uni1EEC" unicode="&#x1eec;" horiz-adv-x="816" 
d="M392 -13c-153 0 -311 65 -311 285v435h138v-429c0 -125 68 -177 173 -177c108 0 174 57 174 199v407h82c44 11 52 40 52 76c0 16 -4 34 -9 51h114c8 -19 12 -49 12 -67c0 -81 -50 -136 -116 -154v-316c0 -239 -163 -310 -309 -310zM307 981c16 6 43 12 70 12
c65 0 118 -45 118 -115c0 -73 -58 -116 -106 -137l-50 60c31 13 59 34 59 67c0 26 -22 36 -45 36c-13 0 -26 -2 -37 -7z" />
    <glyph glyph-name="uni1EF0" unicode="&#x1ef0;" horiz-adv-x="816" 
d="M392 -13c-153 0 -311 65 -311 285v435h138v-429c0 -125 68 -177 173 -177c108 0 174 57 174 199v407h82c44 11 52 40 52 76c0 16 -4 34 -9 51h114c8 -19 12 -49 12 -67c0 -81 -50 -136 -116 -154v-316c0 -239 -163 -310 -309 -310zM490 -154l-94 -95l-95 95l95 94z" />
    <glyph glyph-name="uni01D3" unicode="&#x1d3;" horiz-adv-x="780" 
d="M571 830l-180 -88l-177 89l46 87l131 -60l132 59zM392 -13c-153 0 -311 65 -311 285v435h138v-429c0 -125 68 -177 173 -177c108 0 174 57 174 199v407h135v-410c0 -239 -163 -310 -309 -310z" />
    <glyph glyph-name="uni01D5" unicode="&#x1d5;" horiz-adv-x="780" 
d="M279 728l-83 84l83 84l84 -84zM505 728l-84 84l84 84l83 -84zM392 -13c-153 0 -311 65 -311 285v435h138v-429c0 -125 68 -177 173 -177c108 0 174 57 174 199v407h135v-410c0 -239 -163 -310 -309 -310zM231 917v105h316v-105h-316z" />
    <glyph glyph-name="uni01D7" unicode="&#x1d7;" horiz-adv-x="780" 
d="M279 728l-83 84l83 84l84 -84zM505 728l-84 84l84 84l83 -84zM341 887l-21 90l251 73l25 -106zM392 -13c-153 0 -311 65 -311 285v435h138v-429c0 -125 68 -177 173 -177c108 0 174 57 174 199v407h135v-410c0 -239 -163 -310 -309 -310z" />
    <glyph glyph-name="uni01D9" unicode="&#x1d9;" horiz-adv-x="780" 
d="M279 728l-83 84l83 84l84 -84zM505 728l-84 84l84 84l83 -84zM392 -13c-153 0 -311 65 -311 285v435h138v-429c0 -125 68 -177 173 -177c108 0 174 57 174 199v407h135v-410c0 -239 -163 -310 -309 -310zM571 971l-180 -88l-177 89l46 87l131 -60l132 59z" />
    <glyph glyph-name="uni01DB" unicode="&#x1db;" horiz-adv-x="780" 
d="M428 891l-256 55l25 107l252 -72zM279 728l-83 84l83 84l84 -84zM505 728l-84 84l84 84l83 -84zM392 -13c-153 0 -311 65 -311 285v435h138v-429c0 -125 68 -177 173 -177c108 0 174 57 174 199v407h135v-410c0 -239 -163 -310 -309 -310z" />
    <glyph glyph-name="uni1E7E" unicode="&#x1e7e;" horiz-adv-x="700" 
d="M344 -249l-94 95l94 94l95 -94zM253 0l-246 707h145l194 -604l224 604h139l-277 -707h-179z" />
    <glyph glyph-name="uni1E7C" unicode="&#x1e7c;" horiz-adv-x="700" 
d="M419 755c-48 0 -87 37 -125 37c-22 0 -43 -4 -70 -26l-51 63c22 24 70 68 127 68c59 0 88 -38 122 -38c33 0 50 9 78 26l46 -62c-20 -23 -62 -68 -127 -68zM253 0l-246 707h145l194 -604l224 604h139l-277 -707h-179z" />
    <glyph glyph-name="uni00560304" horiz-adv-x="700" 
d="M192 772v105h305v-105h-305zM253 0l-246 707h145l194 -604l224 604h139l-277 -707h-179z" />
    <glyph glyph-name="Wacute" unicode="&#x1e82;" horiz-adv-x="1056" 
d="M424 745l-21 90l251 73l25 -106zM199 0l-169 707h134l136 -621l175 448l-60 173h136l199 -617l166 617h130l-208 -707h-178l-133 391l-147 -391h-181z" />
    <glyph glyph-name="Wcircumflex" unicode="&#x174;" horiz-adv-x="1056" 
d="M398 745l-47 86l179 89l176 -88l-47 -87l-130 59zM199 0l-169 707h134l136 -621l175 448l-60 173h136l199 -617l166 617h130l-208 -707h-178l-133 391l-147 -391h-181z" />
    <glyph glyph-name="Wdieresis" unicode="&#x1e84;" horiz-adv-x="1056" 
d="M413 741l-83 84l83 84l84 -84zM639 741l-84 84l84 84l83 -84zM199 0l-169 707h134l136 -621l175 448l-60 173h136l199 -617l166 617h130l-208 -707h-178l-133 391l-147 -391h-181z" />
    <glyph glyph-name="Wgrave" unicode="&#x1e80;" horiz-adv-x="1056" 
d="M608 745l-256 55l25 107l252 -72zM199 0l-169 707h134l136 -621l175 448l-60 173h136l199 -617l166 617h130l-208 -707h-178l-133 391l-147 -391h-181z" />
    <glyph glyph-name="uni1E86" unicode="&#x1e86;" horiz-adv-x="1056" 
d="M626 839l-82 -82l-82 82l82 82zM199 0l-169 707h134l136 -621l175 448l-60 173h136l199 -617l166 617h130l-208 -707h-178l-133 391l-147 -391h-181z" />
    <glyph glyph-name="uni1E88" unicode="&#x1e88;" horiz-adv-x="1056" 
d="M519 -249l-94 95l94 94l95 -94zM199 0l-169 707h134l136 -621l175 448l-60 173h136l199 -617l166 617h130l-208 -707h-178l-133 391l-147 -391h-181z" />
    <glyph glyph-name="uni1E8A" unicode="&#x1e8a;" horiz-adv-x="658" 
d="M415 839l-82 -82l-82 82l82 82zM2 0l252 367l-218 340h156l141 -236l151 236h152l-231 -338l237 -369h-158l-159 265l-169 -265h-154z" />
    <glyph glyph-name="uni00580304" horiz-adv-x="658" 
d="M2 0l252 367l-218 340h156l141 -236l151 236h152l-231 -338l237 -369h-158l-159 265l-169 -265h-154zM167 772v105h305v-105h-305z" />
    <glyph glyph-name="Ydieresis" unicode="&#x178;" horiz-adv-x="662" 
d="M261 0v243l-250 464h157l166 -348l177 348h152l-266 -461v-246h-136zM218 741l-83 84l83 84l84 -84zM444 741l-84 84l84 84l83 -84z" />
    <glyph glyph-name="Ycircumflex" unicode="&#x176;" horiz-adv-x="662" 
d="M261 0v243l-250 464h157l166 -348l177 348h152l-266 -461v-246h-136zM205 745l-47 86l179 89l176 -88l-47 -87l-130 59z" />
    <glyph glyph-name="Ygrave" unicode="&#x1ef2;" horiz-adv-x="662" 
d="M423 745l-256 55l25 107l252 -72zM261 0v243l-250 464h157l166 -348l177 348h152l-266 -461v-246h-136z" />
    <glyph glyph-name="Yacute" unicode="&#xdd;" horiz-adv-x="662" 
d="M261 0v243l-250 464h157l166 -348l177 348h152l-266 -461v-246h-136zM261 745l-21 90l251 73l25 -106z" />
    <glyph glyph-name="uni0232" unicode="&#x232;" horiz-adv-x="662" 
d="M261 0v243l-250 464h157l166 -348l177 348h152l-266 -461v-246h-136zM180 772v105h305v-105h-305z" />
    <glyph glyph-name="uni1E8E" unicode="&#x1e8e;" horiz-adv-x="662" 
d="M261 0v243l-250 464h157l166 -348l177 348h152l-266 -461v-246h-136zM417 839l-82 -82l-82 82l82 82z" />
    <glyph glyph-name="uni1EF8" unicode="&#x1ef8;" horiz-adv-x="662" 
d="M261 0v243l-250 464h157l166 -348l177 348h152l-266 -461v-246h-136zM397 755c-48 0 -87 37 -125 37c-22 0 -43 -4 -70 -26l-51 63c22 24 70 68 127 68c59 0 88 -38 122 -38c33 0 50 9 78 26l46 -62c-20 -23 -62 -68 -127 -68z" />
    <glyph glyph-name="uni1EF6" unicode="&#x1ef6;" horiz-adv-x="662" 
d="M261 0v243l-250 464h157l166 -348l177 348h152l-266 -461v-246h-136zM242 981c16 6 43 12 70 12c65 0 118 -45 118 -115c0 -73 -58 -116 -106 -137l-50 60c31 13 59 34 59 67c0 26 -22 36 -45 36c-13 0 -26 -2 -37 -7z" />
    <glyph glyph-name="uni1EF4" unicode="&#x1ef4;" horiz-adv-x="662" 
d="M261 0v243l-250 464h157l166 -348l177 348h152l-266 -461v-246h-136zM423 -154l-94 -95l-95 95l95 94z" />
    <glyph glyph-name="Zacute" unicode="&#x179;" horiz-adv-x="604" 
d="M219 745l-21 90l251 73l25 -106zM36 0v98l344 495h-318v114h483v-91l-348 -502h369v-114h-530z" />
    <glyph glyph-name="Zcaron" unicode="&#x17d;" horiz-adv-x="604" 
d="M477 830l-180 -88l-177 89l46 87l131 -60l132 59zM36 0v98l344 495h-318v114h483v-91l-348 -502h369v-114h-530z" />
    <glyph glyph-name="Zdotaccent" unicode="&#x17b;" horiz-adv-x="604" 
d="M389 839l-82 -82l-82 82l82 82zM36 0v98l344 495h-318v114h483v-91l-348 -502h369v-114h-530z" />
    <glyph glyph-name="uni1E94" unicode="&#x1e94;" horiz-adv-x="604" 
d="M36 0v98l344 495h-318v114h483v-91l-348 -502h369v-114h-530zM149 -218v105h305v-105h-305z" />
    <glyph glyph-name="uni1E92" unicode="&#x1e92;" horiz-adv-x="604" 
d="M302 -249l-94 95l94 94l95 -94zM36 0v98l344 495h-318v114h483v-91l-348 -502h369v-114h-530z" />
    <glyph glyph-name="uni005A0324" horiz-adv-x="604" 
d="M184 -237l-79 80l79 80l79 -80zM416 -237l-80 80l80 80l79 -80zM36 0v98l344 495h-318v114h483v-91l-348 -502h369v-114h-530z" />
    <glyph glyph-name="uni018F" unicode="&#x18f;" horiz-adv-x="780" 
d="M378 -12c-231 0 -332 136 -338 348v67h551c-14 120 -89 206 -225 206c-94 0 -167 -24 -237 -61l-51 91c88 54 189 79 307 79c232 -1 348 -156 348 -365c0 -222 -120 -365 -355 -365zM381 97c149 0 197 88 210 210h-410c13 -118 62 -210 200 -210z" />
    <glyph glyph-name="Thorn" unicode="&#xde;" horiz-adv-x="634" 
d="M92 0v707h137v-110h121c152 0 256 -83 256 -238c0 -134 -103 -243 -308 -243h-69v-116h-137zM229 489v-266h75c107 0 161 49 161 132c0 85 -38 134 -137 134h-99z" />
    <glyph glyph-name="Eth" unicode="&#xd0;" horiz-adv-x="803" 
d="M44 307v86h76v314h229c239 0 406 -106 406 -351c0 -246 -152 -356 -400 -356h-235v307h-76zM256 108h110c171 0 252 82 252 238c0 170 -95 253 -272 253h-90v-206h145v-86h-145v-199z" />
    <glyph glyph-name="uni01C4" unicode="&#x1c4;" horiz-adv-x="1370" 
d="M1250 830l-180 -88l-177 89l46 87l131 -60l132 59zM802 0v98l344 495h-318v114h483v-91l-348 -502h369v-114h-530zM92 0v707h229c239 0 406 -106 406 -351c0 -246 -152 -356 -400 -356h-235zM228 108h110c171 0 252 82 252 238c0 170 -95 253 -272 253h-90v-491z" />
    <glyph glyph-name="uni01C5" unicode="&#x1c5;" horiz-adv-x="1296" 
d="M1044 608l-183 124l54 74l130 -88l129 88l58 -75zM812 0v93l281 344h-261v109h418v-90l-279 -348h283v-108h-442zM92 0v707h229c239 0 406 -106 406 -351c0 -246 -152 -356 -400 -356h-235zM228 108h110c171 0 252 82 252 238c0 170 -95 253 -272 253h-90v-491z" />
    <glyph glyph-name="uni01C7" unicode="&#x1c7;" horiz-adv-x="866" 
d="M545 -194l-52 99c120 66 145 124 145 246v556h138v-554c0 -146 -23 -272 -231 -347zM92 0v707h136v-597h307v-110h-443z" />
    <glyph glyph-name="uni01CA" unicode="&#x1ca;" horiz-adv-x="1110" 
d="M788 -194l-52 99c120 66 145 124 145 246v556h138v-554c0 -146 -23 -272 -231 -347zM92 0v707h162l312 -534h2l-4 83v451h137v-707h-168l-305 523h-4l4 -86v-437h-136z" />
    <glyph glyph-name="uni01F1" unicode="&#x1f1;" horiz-adv-x="1370" 
d="M802 0v98l344 495h-318v114h483v-91l-348 -502h369v-114h-530zM92 0v707h229c239 0 406 -106 406 -351c0 -246 -152 -356 -400 -356h-235zM228 108h110c171 0 252 82 252 238c0 170 -95 253 -272 253h-90v-491z" />
    <glyph glyph-name="uni01F2" unicode="&#x1f2;" horiz-adv-x="1296" 
d="M812 0v93l281 344h-261v109h418v-90l-279 -348h283v-108h-442zM92 0v707h229c239 0 406 -106 406 -351c0 -246 -152 -356 -400 -356h-235zM228 108h110c171 0 252 82 252 238c0 170 -95 253 -272 253h-90v-491z" />
    <glyph glyph-name="uni01C8" unicode="&#x1c8;" horiz-adv-x="834" 
d="M553 -225c-35 0 -79 10 -106 22l24 105c23 -8 53 -13 78 -13c58 0 78 32 78 106v551h133v-552c0 -179 -96 -219 -207 -219zM92 0v707h136v-597h307v-110h-443zM691 621l-94 95l94 94l95 -94z" />
    <glyph glyph-name="uni01CB" unicode="&#x1cb;" horiz-adv-x="1077" 
d="M796 -225c-35 0 -79 10 -106 22l24 105c23 -8 53 -13 78 -13c58 0 78 32 78 106v551h133v-552c0 -179 -96 -219 -207 -219zM935 621l-94 95l94 94l95 -94zM92 0v707h162l312 -534h2l-4 83v451h137v-707h-168l-305 523h-4l4 -86v-437h-136z" />
    <glyph glyph-name="uni021C" unicode="&#x21c;" horiz-adv-x="554" 
d="M161 400l170 193h-282v114h436v-91l-193 -215c114 -17 214 -79 214 -196c0 -154 -133 -217 -268 -217c-114 0 -186 26 -200 35l28 108c41 -15 108 -30 167 -30c80 0 137 27 137 103c0 80 -74 105 -153 109c-13 1 -26 1 -39 1z" />
    <glyph glyph-name="uni01EE" unicode="&#x1ee;" horiz-adv-x="554" 
d="M446 830l-180 -88l-177 89l46 87l131 -60l132 59zM161 400l170 193h-282v114h436v-91l-193 -215c114 -17 214 -79 214 -196c0 -154 -133 -217 -268 -217c-114 0 -186 26 -200 35l28 108c41 -15 108 -30 167 -30c80 0 137 27 137 103c0 80 -74 105 -153 109
c-13 1 -26 1 -39 1z" />
    <glyph glyph-name="uni018E" unicode="&#x18e;" horiz-adv-x="587" 
d="M496 707v-707h-439v108h302v196h-265v102h265v193h-301v108h438z" />
    <glyph glyph-name="AE" unicode="&#xc6;" horiz-adv-x="953" 
d="M-20 0l348 707h555v-108h-302v-193h280v-102h-280v-196h325v-108h-461v270h-186l-125 -270h-154zM303 372h142v227h-37z" />
    <glyph glyph-name="AEacute" unicode="&#x1fc;" horiz-adv-x="953" 
d="M482 745l-21 90l251 73l25 -106zM-20 0l348 707h555v-108h-302v-193h280v-102h-280v-196h325v-108h-461v270h-186l-125 -270h-154zM303 372h142v227h-37z" />
    <glyph glyph-name="uni01E2" unicode="&#x1e2;" horiz-adv-x="953" 
d="M429 772v105h305v-105h-305zM-20 0l348 707h555v-108h-302v-193h280v-102h-280v-196h325v-108h-461v270h-186l-125 -270h-154zM303 372h142v227h-37z" />
    <glyph glyph-name="OE" unicode="&#x152;" horiz-adv-x="1104" 
d="M408 -12c-237 0 -361 144 -361 367c0 234 148 363 380 363c70 0 126 -14 169 -38v27h438v-108h-301v-193h279v-102h-279v-196h324v-108h-461v33c-47 -28 -102 -45 -188 -45zM411 98c87 0 147 30 185 80v350c-38 50 -97 80 -178 80c-162 0 -232 -109 -232 -252
c0 -140 69 -258 225 -258z" />
    <glyph glyph-name="IJ" unicode="&#x132;" horiz-adv-x="625" 
d="M92 0v707h136v-707h-136zM304 -194l-52 99c120 66 145 124 145 246v556h138v-554c0 -146 -23 -272 -231 -347z" />
    <glyph glyph-name="Iacute_Jacute" horiz-adv-x="625" 
d="M92 0v707h136v-707h-136zM304 -194l-52 99c120 66 145 124 145 246v556h138v-554c0 -146 -23 -272 -231 -347zM94 745l-21 90l251 73l25 -106zM403 745l-21 90l251 73l25 -106z" />
    <glyph glyph-name="a" unicode="a" horiz-adv-x="578" 
d="M205 -9c-102 0 -172 56 -172 159c0 140 123 167 225 168l108 1v47c0 63 -35 80 -109 80c-57 0 -109 -10 -158 -25l-27 98c60 24 122 40 209 40c144 0 215 -47 215 -163v-265c0 -27 24 -33 53 -34l-5 -101c-10 -1 -21 -1 -26 -1c-67 0 -127 13 -140 62
c-41 -32 -93 -66 -173 -66zM243 95c37 0 86 16 123 35v108l-101 -4c-62 -1 -102 -26 -102 -74c0 -45 35 -65 80 -65z" />
    <glyph glyph-name="b" unicode="b" horiz-adv-x="617" 
d="M269 -11c-80 0 -152 17 -200 33v732h133v-227c39 20 74 31 132 31c150 0 241 -75 241 -263c0 -229 -135 -306 -306 -306zM307 457c-43 0 -73 -9 -105 -22v-327c20 -5 52 -13 85 -13c101 0 152 85 152 207c0 95 -32 155 -132 155z" />
    <glyph glyph-name="c" unicode="c" horiz-adv-x="518" 
d="M335 -12c-212 0 -294 93 -294 272c0 199 108 300 286 300c72 0 125 -17 160 -36l-35 -99c-31 12 -67 25 -118 25c-98 0 -157 -47 -157 -186c0 -107 36 -167 174 -167c41 0 67 6 113 15l19 -103c-46 -11 -82 -21 -148 -21z" />
    <glyph glyph-name="d" unicode="d" horiz-adv-x="617" 
d="M276 -9c-100 0 -235 56 -235 274c0 208 124 295 286 295c27 0 46 -2 83 -9v203h133v-754h-133v44c-30 -24 -64 -53 -134 -53zM301 102c42 0 83 20 109 35v306c-11 2 -42 11 -81 11c-114 0 -154 -77 -154 -181c0 -127 58 -171 126 -171z" />
    <glyph glyph-name="e" unicode="e" horiz-adv-x="571" 
d="M321 -12c-168 0 -279 62 -279 277c0 218 115 294 258 294c168 0 232 -102 232 -275v-48h-356c-1 -116 75 -140 163 -140c51 0 98 8 157 23l21 -101c-55 -19 -124 -30 -196 -30zM179 325h216c1 83 -31 138 -100 138c-63 0 -111 -48 -116 -138z" />
    <glyph glyph-name="f" unicode="f" horiz-adv-x="373" 
d="M107 -171v621h-80v96h80v27c0 155 94 195 201 195c40 0 65 -4 93 -13l-21 -101c-18 4 -41 8 -67 8c-52 0 -73 -32 -73 -90v-26h117v-96h-117v-621h-133z" />
    <glyph glyph-name="f.alt" horiz-adv-x="373" 
d="M107 0v450h-80v96h80v27c0 155 94 195 201 195c40 0 65 -4 93 -13l-21 -101c-18 4 -41 8 -67 8c-52 0 -73 -32 -73 -90v-26h117v-96h-117v-450h-133z" />
    <glyph glyph-name="g" unicode="g" horiz-adv-x="613" 
d="M274 -230c-55 0 -142 11 -194 32l22 113c61 -19 124 -28 175 -28c76 0 132 21 132 114v25c-34 -22 -59 -32 -114 -32c-120 0 -254 43 -254 263c0 216 129 303 300 303c53 0 129 -9 201 -26v-550c0 -149 -124 -214 -268 -214zM318 95c33 0 63 10 90 24v318
c-16 4 -43 12 -79 12c-113 0 -155 -71 -155 -184c0 -127 54 -170 144 -170z" />
    <glyph glyph-name="g.alt" horiz-adv-x="598" 
d="M263 193c-28 0 -58 3 -86 11c-11 -16 -16 -31 -16 -42c0 -20 15 -35 41 -35h112c148 0 219 -53 219 -152c0 -111 -91 -205 -279 -205c-144 0 -222 55 -222 141c0 48 23 97 69 128c-27 19 -40 47 -40 77c0 38 20 80 59 112c-42 26 -72 68 -72 135c0 109 81 196 222 196
c71 0 119 -23 134 -32l168 9v-97h-89c3 -13 11 -43 11 -72c0 -109 -101 -174 -231 -174zM321 18h-137c-9 0 -18 0 -26 1c-19 -21 -28 -45 -28 -68c0 -47 38 -80 134 -80c97 0 158 38 158 88c0 36 -34 59 -101 59zM268 275c66 0 105 41 105 97c0 55 -36 99 -102 99
c-64 0 -103 -41 -103 -101c0 -59 39 -95 100 -95z" />
    <glyph glyph-name="h" unicode="h" horiz-adv-x="636" 
d="M74 0v754h133v-268c39 31 106 73 184 73c166 0 176 -103 176 -214v-345h-131v330c0 82 -17 113 -86 113c-58 0 -108 -25 -143 -45v-398h-133z" />
    <glyph glyph-name="i" unicode="i" horiz-adv-x="281" 
d="M74 0v546h134v-546h-134zM140 621l-94 95l94 94l95 -94z" />
    <glyph glyph-name="j" unicode="j" horiz-adv-x="281" 
d="M0 -225c-35 0 -79 10 -106 22l24 105c23 -8 53 -13 78 -13c58 0 78 32 78 106v551h133v-552c0 -179 -96 -219 -207 -219zM139 621l-94 95l94 94l95 -94z" />
    <glyph glyph-name="k" unicode="k" horiz-adv-x="575" 
d="M74 0v754h133v-446l189 238h146l-211 -253l90 -108c43 -50 82 -80 137 -95l-18 -101c-68 4 -135 14 -206 105l-127 165v-259h-133z" />
    <glyph glyph-name="l" unicode="l" horiz-adv-x="281" 
d="M74 0v754h133v-754h-133z" />
    <glyph glyph-name="m" unicode="m" horiz-adv-x="969" 
d="M74 0v546h133v-59c49 38 111 73 179 73c77 0 129 -33 150 -82c44 38 114 82 192 82c170 0 172 -122 172 -214v-346h-133v331c0 74 -16 113 -85 113c-46 0 -95 -21 -132 -45c2 -17 3 -35 3 -52v-347h-132v331c0 79 -17 112 -82 112c-46 0 -95 -19 -132 -44v-399h-133z" />
    <glyph glyph-name="n" unicode="n" horiz-adv-x="636" 
d="M74 0v546h133v-58c55 39 107 72 193 72c154 0 168 -106 168 -214v-346h-132v331c0 83 -17 113 -85 113c-60 0 -107 -22 -144 -43v-401h-133z" />
    <glyph glyph-name="o" unicode="o" horiz-adv-x="619" 
d="M304 -12c-169 0 -264 106 -264 280c0 184 109 292 274 292c179 0 265 -107 265 -286c0 -190 -116 -286 -275 -286zM311 95c106 0 132 79 132 177c0 94 -25 182 -133 182c-107 0 -135 -88 -135 -182c0 -101 32 -177 136 -177z" />
    <glyph glyph-name="p" unicode="p" horiz-adv-x="621" 
d="M74 -220v766h132v-41c45 32 87 54 154 54c126 0 220 -80 220 -266c0 -226 -139 -303 -290 -303c-34 0 -62 3 -84 5v-215h-132zM288 93c108 0 157 82 157 195c0 98 -38 159 -129 159c-48 0 -82 -17 -110 -29v-317c10 -1 51 -8 82 -8z" />
    <glyph glyph-name="q" unicode="q" horiz-adv-x="614" 
d="M410 -220v241c-31 -18 -65 -30 -119 -30c-106 0 -250 47 -250 275c0 209 119 294 306 294c69 0 138 -12 196 -30v-750h-133zM305 103c38 0 82 11 105 20v319c-17 5 -48 11 -81 11c-115 0 -155 -74 -155 -181c0 -128 58 -169 131 -169z" />
    <glyph glyph-name="r" unicode="r" horiz-adv-x="427" 
d="M74 0v546h133v-73c26 37 79 84 147 84c31 0 53 -3 71 -9l-19 -110c-26 5 -39 6 -70 6c-55 0 -105 -32 -129 -62v-382h-133z" />
    <glyph glyph-name="s" unicode="s" horiz-adv-x="482" 
d="M209 -12c-50 0 -123 8 -171 23l16 104c63 -11 117 -18 158 -18c77 0 108 23 108 53c0 87 -275 55 -275 243c0 113 99 167 216 167c52 0 113 -10 163 -29l-24 -99c-40 12 -90 21 -135 21c-63 0 -88 -21 -88 -49c0 -90 273 -59 273 -248c0 -132 -135 -168 -241 -168z" />
    <glyph glyph-name="t" unicode="t" horiz-adv-x="452" 
d="M285 -13c-113 0 -185 43 -185 176v281h-80v102h80v112h133v-112h169v-102h-169v-274c0 -54 22 -69 75 -69c33 0 75 7 108 16l15 -106c-39 -14 -100 -24 -146 -24z" />
    <glyph glyph-name="u" unicode="u" horiz-adv-x="635" 
d="M235 -12c-152 0 -166 107 -166 215v343h133v-328c0 -79 13 -113 84 -113c60 0 110 23 143 43v398h133v-546h-133v59c-46 -33 -101 -71 -194 -71z" />
    <glyph glyph-name="v" unicode="v" horiz-adv-x="567" 
d="M197 0l-190 546h143l101 -326l31 -112l34 113l112 325h139l-206 -546h-164z" />
    <glyph glyph-name="w" unicode="w" horiz-adv-x="899" 
d="M170 0l-151 546h140l97 -440l118 440h161l102 -440l117 440h136l-172 -546h-168l-81 336l-18 85l-20 -84l-92 -337h-169z" />
    <glyph glyph-name="x" unicode="x" horiz-adv-x="568" 
d="M11 0l197 279l-184 267h154l106 -183l107 183h151l-183 -266l199 -280h-160l-114 195l-116 -195h-157z" />
    <glyph glyph-name="y" unicode="y" horiz-adv-x="564" 
d="M166 -220l75 220h-52l-183 546h144l103 -349l26 -92l29 91l118 350h135l-267 -766h-128z" />
    <glyph glyph-name="z" unicode="z" horiz-adv-x="518" 
d="M35 0v93l281 344h-261v109h418v-90l-279 -348h283v-108h-442z" />
    <glyph glyph-name="aacute" unicode="&#xe1;" horiz-adv-x="578" 
d="M205 -9c-102 0 -172 56 -172 159c0 140 123 167 225 168l108 1v47c0 63 -35 80 -109 80c-57 0 -109 -10 -158 -25l-27 98c60 24 122 40 209 40c144 0 215 -47 215 -163v-265c0 -27 24 -33 53 -34l-5 -101c-10 -1 -21 -1 -26 -1c-67 0 -127 13 -140 62
c-41 -32 -93 -66 -173 -66zM243 95c37 0 86 16 123 35v108l-101 -4c-62 -1 -102 -26 -102 -74c0 -45 35 -65 80 -65zM213 608l-40 80l219 124l47 -94z" />
    <glyph glyph-name="agrave" unicode="&#xe0;" horiz-adv-x="578" 
d="M205 -9c-102 0 -172 56 -172 159c0 140 123 167 225 168l108 1v47c0 63 -35 80 -109 80c-57 0 -109 -10 -158 -25l-27 98c60 24 122 40 209 40c144 0 215 -47 215 -163v-265c0 -27 24 -33 53 -34l-5 -101c-10 -1 -21 -1 -26 -1c-67 0 -127 13 -140 62
c-41 -32 -93 -66 -173 -66zM243 95c37 0 86 16 123 35v108l-101 -4c-62 -1 -102 -26 -102 -74c0 -45 35 -65 80 -65zM351 608l-224 111l46 95l220 -125z" />
    <glyph glyph-name="acircumflex" unicode="&#xe2;" horiz-adv-x="578" 
d="M403 614l-125 88l-129 -88l-58 75l188 123l180 -123zM205 -9c-102 0 -172 56 -172 159c0 140 123 167 225 168l108 1v47c0 63 -35 80 -109 80c-57 0 -109 -10 -158 -25l-27 98c60 24 122 40 209 40c144 0 215 -47 215 -163v-265c0 -27 24 -33 53 -34l-5 -101
c-10 -1 -21 -1 -26 -1c-67 0 -127 13 -140 62c-41 -32 -93 -66 -173 -66zM243 95c37 0 86 16 123 35v108l-101 -4c-62 -1 -102 -26 -102 -74c0 -45 35 -65 80 -65z" />
    <glyph glyph-name="adieresis" unicode="&#xe4;" horiz-adv-x="578" 
d="M170 636l-79 80l79 80l79 -80zM396 636l-80 80l80 80l79 -80zM205 -9c-102 0 -172 56 -172 159c0 140 123 167 225 168l108 1v47c0 63 -35 80 -109 80c-57 0 -109 -10 -158 -25l-27 98c60 24 122 40 209 40c144 0 215 -47 215 -163v-265c0 -27 24 -33 53 -34l-5 -101
c-10 -1 -21 -1 -26 -1c-67 0 -127 13 -140 62c-41 -32 -93 -66 -173 -66zM243 95c37 0 86 16 123 35v108l-101 -4c-62 -1 -102 -26 -102 -74c0 -45 35 -65 80 -65z" />
    <glyph glyph-name="atilde" unicode="&#xe3;" horiz-adv-x="578" 
d="M205 -9c-102 0 -172 56 -172 159c0 140 123 167 225 168l108 1v47c0 63 -35 80 -109 80c-57 0 -109 -10 -158 -25l-27 98c60 24 122 40 209 40c144 0 215 -47 215 -163v-265c0 -27 24 -33 53 -34l-5 -101c-10 -1 -21 -1 -26 -1c-67 0 -127 13 -140 62
c-41 -32 -93 -66 -173 -66zM243 95c37 0 86 16 123 35v108l-101 -4c-62 -1 -102 -26 -102 -74c0 -45 35 -65 80 -65zM335 638c-49 0 -86 37 -126 37c-24 0 -42 -4 -70 -27l-51 64c19 21 65 68 130 68c59 0 86 -38 123 -38c32 0 53 11 80 27l46 -63c-18 -19 -63 -68 -132 -68
z" />
    <glyph glyph-name="aring" unicode="&#xe5;" horiz-adv-x="578" 
d="M205 -9c-102 0 -172 56 -172 159c0 140 123 167 225 168l108 1v47c0 63 -35 80 -109 80c-57 0 -109 -10 -158 -25l-27 98c60 24 122 40 209 40c144 0 215 -47 215 -163v-265c0 -27 24 -33 53 -34l-5 -101c-10 -1 -21 -1 -26 -1c-67 0 -127 13 -140 62
c-41 -32 -93 -66 -173 -66zM243 95c37 0 86 16 123 35v108l-101 -4c-62 -1 -102 -26 -102 -74c0 -45 35 -65 80 -65zM290 597c-65 0 -135 27 -135 115c0 83 67 122 132 122c54 0 135 -27 135 -120c0 -80 -62 -117 -132 -117zM288 656c38 0 59 22 61 57c0 35 -27 57 -61 57
c-41 0 -61 -20 -61 -55c0 -36 24 -59 61 -59z" />
    <glyph glyph-name="abreve" unicode="&#x103;" horiz-adv-x="578" 
d="M205 -9c-102 0 -172 56 -172 159c0 140 123 167 225 168l108 1v47c0 63 -35 80 -109 80c-57 0 -109 -10 -158 -25l-27 98c60 24 122 40 209 40c144 0 215 -47 215 -163v-265c0 -27 24 -33 53 -34l-5 -101c-10 -1 -21 -1 -26 -1c-67 0 -127 13 -140 62
c-41 -32 -93 -66 -173 -66zM243 95c37 0 86 16 123 35v108l-101 -4c-62 -1 -102 -26 -102 -74c0 -45 35 -65 80 -65zM295 626c-97 0 -154 56 -181 101l70 60c33 -34 71 -61 115 -61c46 0 83 27 112 61l66 -59c-28 -43 -85 -102 -182 -102z" />
    <glyph glyph-name="amacron" unicode="&#x101;" horiz-adv-x="578" 
d="M205 -9c-102 0 -172 56 -172 159c0 140 123 167 225 168l108 1v47c0 63 -35 80 -109 80c-57 0 -109 -10 -158 -25l-27 98c60 24 122 40 209 40c144 0 215 -47 215 -163v-265c0 -27 24 -33 53 -34l-5 -101c-10 -1 -21 -1 -26 -1c-67 0 -127 13 -140 62
c-41 -32 -93 -66 -173 -66zM243 95c37 0 86 16 123 35v108l-101 -4c-62 -1 -102 -26 -102 -74c0 -45 35 -65 80 -65zM140 655v105h305v-105h-305z" />
    <glyph glyph-name="aogonek" unicode="&#x105;" horiz-adv-x="576" 
d="M558 -225c-27 -12 -55 -23 -108 -23c-109 0 -139 51 -139 109c0 55 58 106 110 141c-19 10 -39 35 -43 55c-35 -26 -90 -66 -169 -66c-110 0 -176 54 -176 160c0 136 124 167 225 168h108v49c0 63 -36 78 -115 78c-52 0 -112 -15 -152 -25l-27 99c49 18 119 39 203 39
c114 0 221 -21 221 -162v-266c0 -24 19 -32 50 -34l-7 -101c-40 -27 -111 -72 -111 -112c0 -24 22 -31 42 -31s44 3 64 10zM366 130v108l-101 -4c-79 -2 -102 -33 -102 -73c0 -44 29 -65 76 -65c46 0 92 18 127 34z" />
    <glyph glyph-name="uni01FB" unicode="&#x1fb;" horiz-adv-x="578" 
d="M205 -9c-102 0 -172 56 -172 159c0 140 123 167 225 168l108 1v47c0 63 -35 80 -109 80c-57 0 -109 -10 -158 -25l-27 98c60 24 122 40 209 40c144 0 215 -47 215 -163v-265c0 -27 24 -33 53 -34l-5 -101c-10 -1 -21 -1 -26 -1c-67 0 -127 13 -140 62
c-41 -32 -93 -66 -173 -66zM243 95c37 0 86 16 123 35v108l-101 -4c-62 -1 -102 -26 -102 -74c0 -45 35 -65 80 -65zM183 830l-21 90l251 73l25 -106zM291 590c-63 0 -132 26 -132 112c0 81 65 119 129 119c53 0 131 -26 131 -117c0 -78 -60 -114 -128 -114zM289 648
c37 0 57 21 59 55c0 33 -26 55 -59 55c-39 0 -59 -19 -59 -53c0 -35 23 -57 59 -57z" />
    <glyph glyph-name="uni01CE" unicode="&#x1ce;" horiz-adv-x="578" 
d="M205 -9c-102 0 -172 56 -172 159c0 140 123 167 225 168l108 1v47c0 63 -35 80 -109 80c-57 0 -109 -10 -158 -25l-27 98c60 24 122 40 209 40c144 0 215 -47 215 -163v-265c0 -27 24 -33 53 -34l-5 -101c-10 -1 -21 -1 -26 -1c-67 0 -127 13 -140 62
c-41 -32 -93 -66 -173 -66zM243 95c37 0 86 16 123 35v108l-101 -4c-62 -1 -102 -26 -102 -74c0 -45 35 -65 80 -65zM287 608l-183 124l54 74l130 -88l129 88l58 -75z" />
    <glyph glyph-name="uni0227" unicode="&#x227;" horiz-adv-x="578" 
d="M205 -9c-102 0 -172 56 -172 159c0 140 123 167 225 168l108 1v47c0 63 -35 80 -109 80c-57 0 -109 -10 -158 -25l-27 98c60 24 122 40 209 40c144 0 215 -47 215 -163v-265c0 -27 24 -33 53 -34l-5 -101c-10 -1 -21 -1 -26 -1c-67 0 -127 13 -140 62
c-41 -32 -93 -66 -173 -66zM243 95c37 0 86 16 123 35v108l-101 -4c-62 -1 -102 -26 -102 -74c0 -45 35 -65 80 -65zM293 621l-94 95l94 94l95 -94z" />
    <glyph glyph-name="uni1EA7" unicode="&#x1ea7;" horiz-adv-x="578" 
d="M205 -9c-102 0 -172 56 -172 159c0 140 123 167 225 168l108 1v47c0 63 -35 80 -109 80c-57 0 -109 -10 -158 -25l-27 98c60 24 122 40 209 40c144 0 215 -47 215 -163v-265c0 -27 24 -33 53 -34l-5 -101c-10 -1 -21 -1 -26 -1c-67 0 -127 13 -140 62
c-41 -32 -93 -66 -173 -66zM243 95c37 0 86 16 123 35v108l-101 -4c-62 -1 -102 -26 -102 -74c0 -45 35 -65 80 -65zM551 760l-65 -60l-160 155l77 72zM455 688l-58 -75l-120 88l-119 -87l-56 76l176 122z" />
    <glyph glyph-name="uni1EA5" unicode="&#x1ea5;" horiz-adv-x="578" 
d="M205 -9c-102 0 -172 56 -172 159c0 140 123 167 225 168l108 1v47c0 63 -35 80 -109 80c-57 0 -109 -10 -158 -25l-27 98c60 24 122 40 209 40c144 0 215 -47 215 -163v-265c0 -27 24 -33 53 -34l-5 -101c-10 -1 -21 -1 -26 -1c-67 0 -127 13 -140 62
c-41 -32 -93 -66 -173 -66zM243 95c37 0 86 16 123 35v108l-101 -4c-62 -1 -102 -26 -102 -74c0 -45 35 -65 80 -65zM413 739l-59 66l143 133l70 -79zM390 614l-120 88l-119 -87l-56 75l176 123l177 -124z" />
    <glyph glyph-name="uni1EAB" unicode="&#x1eab;" horiz-adv-x="578" 
d="M205 -9c-102 0 -172 56 -172 159c0 140 123 167 225 168l108 1v47c0 63 -35 80 -109 80c-57 0 -109 -10 -158 -25l-27 98c60 24 122 40 209 40c144 0 215 -47 215 -163v-265c0 -27 24 -33 53 -34l-5 -101c-10 -1 -21 -1 -26 -1c-67 0 -127 13 -140 62
c-41 -32 -93 -66 -173 -66zM243 95c37 0 86 16 123 35v108l-101 -4c-62 -1 -102 -26 -102 -74c0 -45 35 -65 80 -65zM345 801c-48 0 -83 31 -122 31c-23 0 -41 -4 -64 -24l-47 62c19 20 56 59 120 59c57 0 85 -30 120 -30c29 0 47 10 74 24l42 -63c-19 -18 -56 -59 -123 -59
zM414 599l-131 81l-129 -80l-56 76l186 115l182 -117z" />
    <glyph glyph-name="uni1EA9" unicode="&#x1ea9;" horiz-adv-x="578" 
d="M205 -9c-102 0 -172 56 -172 159c0 140 123 167 225 168l108 1v47c0 63 -35 80 -109 80c-57 0 -109 -10 -158 -25l-27 98c60 24 122 40 209 40c144 0 215 -47 215 -163v-265c0 -27 24 -33 53 -34l-5 -101c-10 -1 -21 -1 -26 -1c-67 0 -127 13 -140 62
c-41 -32 -93 -66 -173 -66zM243 95c37 0 86 16 123 35v108l-101 -4c-62 -1 -102 -26 -102 -74c0 -45 35 -65 80 -65zM504 848c0 -61 -43 -101 -76 -119l-63 58c14 9 37 27 37 53c0 24 -19 33 -38 33c-11 0 -25 -3 -40 -7l-9 82c16 6 44 13 70 13c34 0 63 -10 85 -30
c21 -19 34 -48 34 -83zM412 600l-130 81l-129 -80l-56 75l186 116l182 -117z" />
    <glyph glyph-name="uni1EAD" unicode="&#x1ead;" horiz-adv-x="578" 
d="M205 -9c-102 0 -172 56 -172 159c0 140 123 167 225 168l108 1v47c0 63 -35 80 -109 80c-57 0 -109 -10 -158 -25l-27 98c60 24 122 40 209 40c144 0 215 -47 215 -163v-265c0 -27 24 -33 53 -34l-5 -101c-10 -1 -21 -1 -26 -1c-67 0 -127 13 -140 62
c-41 -32 -93 -66 -173 -66zM243 95c37 0 86 16 123 35v108l-101 -4c-62 -1 -102 -26 -102 -74c0 -45 35 -65 80 -65zM407 614l-125 88l-129 -88l-58 75l188 123l180 -123zM377 -154l-94 -95l-95 95l95 94z" />
    <glyph glyph-name="uni1EB1" unicode="&#x1eb1;" horiz-adv-x="578" 
d="M205 -9c-102 0 -172 56 -172 159c0 140 123 167 225 168l108 1v47c0 63 -35 80 -109 80c-57 0 -109 -10 -158 -25l-27 98c60 24 122 40 209 40c144 0 215 -47 215 -163v-265c0 -27 24 -33 53 -34l-5 -101c-10 -1 -21 -1 -26 -1c-67 0 -127 13 -140 62
c-41 -32 -93 -66 -173 -66zM243 95c37 0 86 16 123 35v108l-101 -4c-62 -1 -102 -26 -102 -74c0 -45 35 -65 80 -65zM301 737l-157 126l68 82l146 -142zM292 607c-96 0 -155 56 -182 101l70 61c33 -35 72 -61 116 -61c46 0 82 27 111 61l66 -59c-27 -43 -85 -103 -181 -103z
" />
    <glyph glyph-name="uni1EAF" unicode="&#x1eaf;" horiz-adv-x="578" 
d="M205 -9c-102 0 -172 56 -172 159c0 140 123 167 225 168l108 1v47c0 63 -35 80 -109 80c-57 0 -109 -10 -158 -25l-27 98c60 24 122 40 209 40c144 0 215 -47 215 -163v-265c0 -27 24 -33 53 -34l-5 -101c-10 -1 -21 -1 -26 -1c-67 0 -127 13 -140 62
c-41 -32 -93 -66 -173 -66zM243 95c37 0 86 16 123 35v108l-101 -4c-62 -1 -102 -26 -102 -74c0 -45 35 -65 80 -65zM458 852l-180 -104l-46 71l170 123zM296 608c-97 0 -156 56 -182 101l70 61c33 -36 72 -62 115 -62c47 0 82 27 112 61l66 -59c-27 -42 -85 -102 -181 -102
z" />
    <glyph glyph-name="uni1EB5" unicode="&#x1eb5;" horiz-adv-x="578" 
d="M205 -9c-102 0 -172 56 -172 159c0 140 123 167 225 168l108 1v47c0 63 -35 80 -109 80c-57 0 -109 -10 -158 -25l-27 98c60 24 122 40 209 40c144 0 215 -47 215 -163v-265c0 -27 24 -33 53 -34l-5 -101c-10 -1 -21 -1 -26 -1c-67 0 -127 13 -140 62
c-41 -32 -93 -66 -173 -66zM243 95c37 0 86 16 123 35v108l-101 -4c-62 -1 -102 -26 -102 -74c0 -45 35 -65 80 -65zM352 785c-47 0 -83 30 -122 30c-23 0 -41 -4 -64 -24l-46 62c19 20 56 60 119 60c57 0 85 -31 120 -31c30 0 48 10 74 24l42 -63c-19 -17 -56 -58 -123 -58
zM299 607c-97 0 -156 56 -182 101l70 61c33 -35 72 -61 115 -61c47 0 82 27 112 61l66 -59c-27 -43 -85 -103 -181 -103z" />
    <glyph glyph-name="uni1EB3" unicode="&#x1eb3;" horiz-adv-x="578" 
d="M205 -9c-102 0 -172 56 -172 159c0 140 123 167 225 168l108 1v47c0 63 -35 80 -109 80c-57 0 -109 -10 -158 -25l-27 98c60 24 122 40 209 40c144 0 215 -47 215 -163v-265c0 -27 24 -33 53 -34l-5 -101c-10 -1 -21 -1 -26 -1c-67 0 -127 13 -140 62
c-41 -32 -93 -66 -173 -66zM243 95c37 0 86 16 123 35v108l-101 -4c-62 -1 -102 -26 -102 -74c0 -45 35 -65 80 -65zM382 860c0 -65 -44 -102 -78 -120c-16 15 -46 44 -61 60c15 11 39 25 39 53c0 22 -20 31 -39 31c-11 0 -25 -2 -39 -6l-9 81c15 6 42 15 71 15
c30 0 62 -13 83 -33c21 -19 33 -46 33 -81zM296 607c-96 0 -155 56 -182 101l70 61c33 -35 72 -61 116 -61c46 0 82 27 111 61l66 -59c-27 -43 -85 -103 -181 -103z" />
    <glyph glyph-name="uni1EB7" unicode="&#x1eb7;" horiz-adv-x="578" 
d="M205 -9c-102 0 -172 56 -172 159c0 140 123 167 225 168l108 1v47c0 63 -35 80 -109 80c-57 0 -109 -10 -158 -25l-27 98c60 24 122 40 209 40c144 0 215 -47 215 -163v-265c0 -27 24 -33 53 -34l-5 -101c-10 -1 -21 -1 -26 -1c-67 0 -127 13 -140 62
c-41 -32 -93 -66 -173 -66zM243 95c37 0 86 16 123 35v108l-101 -4c-62 -1 -102 -26 -102 -74c0 -45 35 -65 80 -65zM392 -154l-94 -95l-95 95l95 94zM293 625c-97 0 -154 56 -181 101l70 60c33 -34 71 -61 115 -61c46 0 83 27 112 61l66 -59c-28 -43 -85 -102 -182 -102z
" />
    <glyph glyph-name="uni1EA3" unicode="&#x1ea3;" horiz-adv-x="578" 
d="M205 -9c-102 0 -172 56 -172 159c0 140 123 167 225 168l108 1v47c0 63 -35 80 -109 80c-57 0 -109 -10 -158 -25l-27 98c60 24 122 40 209 40c144 0 215 -47 215 -163v-265c0 -27 24 -33 53 -34l-5 -101c-10 -1 -21 -1 -26 -1c-67 0 -127 13 -140 62
c-41 -32 -93 -66 -173 -66zM243 95c37 0 86 16 123 35v108l-101 -4c-62 -1 -102 -26 -102 -74c0 -45 35 -65 80 -65zM386 755c0 -74 -58 -119 -106 -138l-50 59c20 9 53 33 53 69c0 27 -21 36 -40 36c-13 0 -26 -3 -37 -9l-10 83c16 7 44 13 70 13c65 0 120 -44 120 -113z
" />
    <glyph glyph-name="uni1EA1" unicode="&#x1ea1;" horiz-adv-x="578" 
d="M205 -9c-102 0 -172 56 -172 159c0 140 123 167 225 168l108 1v47c0 63 -35 80 -109 80c-57 0 -109 -10 -158 -25l-27 98c60 24 122 40 209 40c144 0 215 -47 215 -163v-265c0 -27 24 -33 53 -34l-5 -101c-10 -1 -21 -1 -26 -1c-67 0 -127 13 -140 62
c-41 -32 -93 -66 -173 -66zM243 95c37 0 86 16 123 35v108l-101 -4c-62 -1 -102 -26 -102 -74c0 -45 35 -65 80 -65zM390 -154l-94 -95l-95 95l95 94z" />
    <glyph glyph-name="uni1E05" unicode="&#x1e05;" horiz-adv-x="617" 
d="M269 -11c-80 0 -152 17 -200 33v732h133v-227c39 20 74 31 132 31c150 0 241 -75 241 -263c0 -229 -135 -306 -306 -306zM307 457c-43 0 -73 -9 -105 -22v-327c20 -5 52 -13 85 -13c101 0 152 85 152 207c0 95 -32 155 -132 155zM294 -249l-94 95l94 94l95 -94z" />
    <glyph glyph-name="uni1E07" unicode="&#x1e07;" horiz-adv-x="617" 
d="M269 -11c-80 0 -152 17 -200 33v732h133v-227c39 20 74 31 132 31c150 0 241 -75 241 -263c0 -229 -135 -306 -306 -306zM307 457c-43 0 -73 -9 -105 -22v-327c20 -5 52 -13 85 -13c101 0 152 85 152 207c0 95 -32 155 -132 155zM136 -218v105h305v-105h-305z" />
    <glyph glyph-name="uni1E03" unicode="&#x1e03;" horiz-adv-x="617" 
d="M269 -11c-80 0 -152 17 -200 33v732h133v-227c39 20 74 31 132 31c150 0 241 -75 241 -263c0 -229 -135 -306 -306 -306zM307 457c-43 0 -73 -9 -105 -22v-327c20 -5 52 -13 85 -13c101 0 152 85 152 207c0 95 -32 155 -132 155zM351 621l-94 95l94 94l95 -94z" />
    <glyph glyph-name="ccedilla" unicode="&#xe7;" horiz-adv-x="518" 
d="M335 -12c-212 0 -294 93 -294 272c0 199 108 300 286 300c72 0 125 -17 160 -36l-35 -99c-31 12 -67 25 -118 25c-98 0 -157 -47 -157 -186c0 -107 36 -167 174 -167c41 0 67 6 113 15l19 -103c-46 -11 -82 -21 -148 -21zM246 -267l-46 79c32 20 70 41 70 73
c0 20 -8 42 -16 64h109c11 -23 21 -49 21 -76c0 -67 -70 -111 -138 -140z" />
    <glyph glyph-name="cacute" unicode="&#x107;" horiz-adv-x="518" 
d="M217 608l-40 80l219 124l47 -94zM335 -12c-212 0 -294 93 -294 272c0 199 108 300 286 300c72 0 125 -17 160 -36l-35 -99c-31 12 -67 25 -118 25c-98 0 -157 -47 -157 -186c0 -107 36 -167 174 -167c41 0 67 6 113 15l19 -103c-46 -11 -82 -21 -148 -21z" />
    <glyph glyph-name="ccaron" unicode="&#x10d;" horiz-adv-x="518" 
d="M295 609l-183 124l54 74l130 -88l129 88l58 -75zM335 -12c-212 0 -294 93 -294 272c0 199 108 300 286 300c72 0 125 -17 160 -36l-35 -99c-31 12 -67 25 -118 25c-98 0 -157 -47 -157 -186c0 -107 36 -167 174 -167c41 0 67 6 113 15l19 -103c-46 -11 -82 -21 -148 -21z
" />
    <glyph glyph-name="ccircumflex" unicode="&#x109;" horiz-adv-x="518" 
d="M437 614l-125 88l-129 -88l-58 75l188 123l180 -123zM335 -12c-212 0 -294 93 -294 272c0 199 108 300 286 300c72 0 125 -17 160 -36l-35 -99c-31 12 -67 25 -118 25c-98 0 -157 -47 -157 -186c0 -107 36 -167 174 -167c41 0 67 6 113 15l19 -103
c-46 -11 -82 -21 -148 -21z" />
    <glyph glyph-name="cdotaccent" unicode="&#x10b;" horiz-adv-x="518" 
d="M335 -12c-212 0 -294 93 -294 272c0 199 108 300 286 300c72 0 125 -17 160 -36l-35 -99c-31 12 -67 25 -118 25c-98 0 -157 -47 -157 -186c0 -107 36 -167 174 -167c41 0 67 6 113 15l19 -103c-46 -11 -82 -21 -148 -21zM318 621l-94 95l94 94l95 -94z" />
    <glyph glyph-name="dcaron" unicode="&#x10f;" horiz-adv-x="689" 
d="M723 754l-43 -213h-94l21 213h116zM276 -9c-100 0 -235 56 -235 274c0 208 124 295 286 295c27 0 46 -2 83 -9v203h133v-754h-133v44c-30 -24 -64 -53 -134 -53zM301 102c42 0 83 20 109 35v306c-11 2 -42 11 -81 11c-114 0 -154 -77 -154 -181c0 -127 58 -171 126 -171z
" />
    <glyph glyph-name="dcroat" unicode="&#x111;" horiz-adv-x="617" 
d="M291 615v68h119v71h133v-71h65v-68h-65v-615h-133v44c-27 -23 -65 -52 -130 -52c-106 0 -239 47 -239 286c0 188 126 282 283 282c38 0 61 -4 86 -9v64h-119zM303 103c39 0 83 21 107 34v306c-21 5 -45 11 -84 11c-109 0 -151 -77 -151 -179c0 -130 56 -172 128 -172z
" />
    <glyph glyph-name="uni1E0F" unicode="&#x1e0f;" horiz-adv-x="617" 
d="M276 -9c-100 0 -235 56 -235 274c0 208 124 295 286 295c27 0 46 -2 83 -9v203h133v-754h-133v44c-30 -24 -64 -53 -134 -53zM301 102c42 0 83 20 109 35v306c-11 2 -42 11 -81 11c-114 0 -154 -77 -154 -181c0 -127 58 -171 126 -171zM176 -218v105h305v-105h-305z" />
    <glyph glyph-name="uni1E0D" unicode="&#x1e0d;" horiz-adv-x="617" 
d="M329 -249l-94 95l94 94l95 -94zM276 -9c-100 0 -235 56 -235 274c0 208 124 295 286 295c27 0 46 -2 83 -9v203h133v-754h-133v44c-30 -24 -64 -53 -134 -53zM301 102c42 0 83 20 109 35v306c-11 2 -42 11 -81 11c-114 0 -154 -77 -154 -181c0 -127 58 -171 126 -171z
" />
    <glyph glyph-name="uni1E0B" unicode="&#x1e0b;" horiz-adv-x="617" 
d="M276 -9c-100 0 -235 56 -235 274c0 208 124 295 286 295c27 0 46 -2 83 -9v203h133v-754h-133v44c-30 -24 -64 -53 -134 -53zM301 102c42 0 83 20 109 35v306c-11 2 -42 11 -81 11c-114 0 -154 -77 -154 -181c0 -127 58 -171 126 -171zM260 621l-94 95l94 94l95 -94z" />
    <glyph glyph-name="eacute" unicode="&#xe9;" horiz-adv-x="571" 
d="M225 608l-40 80l219 124l47 -94zM321 -12c-168 0 -279 62 -279 277c0 218 115 294 258 294c168 0 232 -102 232 -275v-48h-356c-1 -116 75 -140 163 -140c51 0 98 8 157 23l21 -101c-55 -19 -124 -30 -196 -30zM179 325h216c1 83 -31 138 -100 138
c-63 0 -111 -48 -116 -138z" />
    <glyph glyph-name="egrave" unicode="&#xe8;" horiz-adv-x="571" 
d="M321 -12c-168 0 -279 62 -279 277c0 218 115 294 258 294c168 0 232 -102 232 -275v-48h-356c-1 -116 75 -140 163 -140c51 0 98 8 157 23l21 -101c-55 -19 -124 -30 -196 -30zM179 325h216c1 83 -31 138 -100 138c-63 0 -111 -48 -116 -138zM362 608l-224 111l46 95
l220 -125z" />
    <glyph glyph-name="ecircumflex" unicode="&#xea;" horiz-adv-x="571" 
d="M414 614l-125 88l-129 -88l-58 75l188 123l180 -123zM321 -12c-168 0 -279 62 -279 277c0 218 115 294 258 294c168 0 232 -102 232 -275v-48h-356c-1 -116 75 -140 163 -140c51 0 98 8 157 23l21 -101c-55 -19 -124 -30 -196 -30zM179 325h216c1 83 -31 138 -100 138
c-63 0 -111 -48 -116 -138z" />
    <glyph glyph-name="edieresis" unicode="&#xeb;" horiz-adv-x="571" 
d="M179 636l-79 80l79 80l79 -80zM405 636l-80 80l80 80l79 -80zM321 -12c-168 0 -279 62 -279 277c0 218 115 294 258 294c168 0 232 -102 232 -275v-48h-356c-1 -116 75 -140 163 -140c51 0 98 8 157 23l21 -101c-55 -19 -124 -30 -196 -30zM179 325h216
c1 83 -31 138 -100 138c-63 0 -111 -48 -116 -138z" />
    <glyph glyph-name="ebreve" unicode="&#x115;" horiz-adv-x="571" 
d="M321 -12c-168 0 -279 62 -279 277c0 218 115 294 258 294c168 0 232 -102 232 -275v-48h-356c-1 -116 75 -140 163 -140c51 0 98 8 157 23l21 -101c-55 -19 -124 -30 -196 -30zM179 325h216c1 83 -31 138 -100 138c-63 0 -111 -48 -116 -138zM302 626
c-97 0 -154 56 -181 101l70 60c33 -34 71 -61 115 -61c46 0 83 27 112 61l66 -59c-28 -43 -85 -102 -182 -102z" />
    <glyph glyph-name="ecaron" unicode="&#x11b;" horiz-adv-x="571" 
d="M296 609l-183 124l54 74l130 -88l129 88l58 -75zM321 -12c-168 0 -279 62 -279 277c0 218 115 294 258 294c168 0 232 -102 232 -275v-48h-356c-1 -116 75 -140 163 -140c51 0 98 8 157 23l21 -101c-55 -19 -124 -30 -196 -30zM179 325h216c1 83 -31 138 -100 138
c-63 0 -111 -48 -116 -138z" />
    <glyph glyph-name="edotaccent" unicode="&#x117;" horiz-adv-x="571" 
d="M321 -12c-168 0 -279 62 -279 277c0 218 115 294 258 294c168 0 232 -102 232 -275v-48h-356c-1 -116 75 -140 163 -140c51 0 98 8 157 23l21 -101c-55 -19 -124 -30 -196 -30zM179 325h216c1 83 -31 138 -100 138c-63 0 -111 -48 -116 -138zM301 621l-94 95l94 94
l95 -94z" />
    <glyph glyph-name="emacron" unicode="&#x113;" horiz-adv-x="571" 
d="M146 655v105h305v-105h-305zM321 -12c-168 0 -279 62 -279 277c0 218 115 294 258 294c168 0 232 -102 232 -275v-48h-356c-1 -116 75 -140 163 -140c51 0 98 8 157 23l21 -101c-55 -19 -124 -30 -196 -30zM179 325h216c1 83 -31 138 -100 138c-63 0 -111 -48 -116 -138z
" />
    <glyph glyph-name="uni1EBD" unicode="&#x1ebd;" horiz-adv-x="571" 
d="M321 -12c-168 0 -279 62 -279 277c0 218 115 294 258 294c168 0 232 -102 232 -275v-48h-356c-1 -116 75 -140 163 -140c51 0 98 8 157 23l21 -101c-55 -19 -124 -30 -196 -30zM179 325h216c1 83 -31 138 -100 138c-63 0 -111 -48 -116 -138zM350 638
c-49 0 -86 37 -126 37c-24 0 -42 -4 -70 -27l-51 64c19 21 65 68 130 68c59 0 86 -38 123 -38c32 0 53 11 80 27l46 -63c-18 -19 -63 -68 -132 -68z" />
    <glyph glyph-name="eogonek" unicode="&#x119;" horiz-adv-x="572" 
d="M412 -247c-101 0 -139 41 -139 111c0 48 38 95 77 128c-15 -1 -30 -2 -45 -2c-159 0 -263 72 -263 274c0 223 113 295 267 295c158 0 223 -104 223 -275v-48h-357c1 -120 75 -139 172 -139c38 0 104 11 148 20l20 -104c-42 -24 -119 -75 -119 -124c0 -28 21 -38 46 -38
c20 0 41 4 60 12l24 -88c-26 -12 -56 -22 -114 -22zM179 325h215c2 83 -32 139 -97 139c-64 0 -113 -48 -118 -139z" />
    <glyph glyph-name="uni0229" unicode="&#x229;" horiz-adv-x="571" 
d="M321 -12c-168 0 -279 62 -279 277c0 218 115 294 258 294c168 0 232 -102 232 -275v-48h-356c-1 -116 75 -140 163 -140c51 0 98 8 157 23l21 -101c-55 -19 -124 -30 -196 -30zM179 325h216c1 83 -31 138 -100 138c-63 0 -111 -48 -116 -138zM246 -267l-46 79
c32 20 70 41 70 73c0 20 -8 42 -16 64h109c11 -23 21 -49 21 -76c0 -67 -70 -111 -138 -140z" />
    <glyph glyph-name="uni1EC1" unicode="&#x1ec1;" horiz-adv-x="571" 
d="M553 760l-65 -60l-160 155l77 72zM457 688l-58 -75l-120 88l-119 -87l-56 76l176 122zM321 -12c-168 0 -279 62 -279 277c0 218 115 294 258 294c168 0 232 -102 232 -275v-48h-356c-1 -116 75 -140 163 -140c51 0 98 8 157 23l21 -101c-55 -19 -124 -30 -196 -30z
M179 325h216c1 83 -31 138 -100 138c-63 0 -111 -48 -116 -138z" />
    <glyph glyph-name="uni1EBF" unicode="&#x1ebf;" horiz-adv-x="571" 
d="M430 739l-59 66l143 133l70 -79zM407 614l-120 88l-119 -87l-56 75l176 123l177 -124zM321 -12c-168 0 -279 62 -279 277c0 218 115 294 258 294c168 0 232 -102 232 -275v-48h-356c-1 -116 75 -140 163 -140c51 0 98 8 157 23l21 -101c-55 -19 -124 -30 -196 -30z
M179 325h216c1 83 -31 138 -100 138c-63 0 -111 -48 -116 -138z" />
    <glyph glyph-name="uni1EC5" unicode="&#x1ec5;" horiz-adv-x="571" 
d="M354 801c-48 0 -83 31 -122 31c-23 0 -41 -4 -64 -24l-47 62c19 20 56 59 120 59c57 0 85 -30 120 -30c29 0 47 10 74 24l42 -63c-19 -18 -56 -59 -123 -59zM423 599l-131 81l-129 -80l-56 76l186 115l182 -117zM321 -12c-168 0 -279 62 -279 277c0 218 115 294 258 294
c168 0 232 -102 232 -275v-48h-356c-1 -116 75 -140 163 -140c51 0 98 8 157 23l21 -101c-55 -19 -124 -30 -196 -30zM179 325h216c1 83 -31 138 -100 138c-63 0 -111 -48 -116 -138z" />
    <glyph glyph-name="uni1EC3" unicode="&#x1ec3;" horiz-adv-x="571" 
d="M321 -12c-168 0 -279 62 -279 277c0 218 115 294 258 294c168 0 232 -102 232 -275v-48h-356c-1 -116 75 -140 163 -140c51 0 98 8 157 23l21 -101c-55 -19 -124 -30 -196 -30zM179 325h216c1 83 -31 138 -100 138c-63 0 -111 -48 -116 -138zM514 848
c0 -61 -43 -101 -76 -119l-63 58c14 9 37 27 37 53c0 24 -19 33 -38 33c-11 0 -25 -3 -40 -7l-9 82c16 6 44 13 70 13c34 0 63 -10 85 -30c21 -19 34 -48 34 -83zM422 600l-130 81l-129 -80l-56 75l186 116l182 -117z" />
    <glyph glyph-name="uni1EC7" unicode="&#x1ec7;" horiz-adv-x="571" 
d="M416 614l-125 88l-129 -88l-58 75l188 123l180 -123zM392 -154l-94 -95l-95 95l95 94zM321 -12c-168 0 -279 62 -279 277c0 218 115 294 258 294c168 0 232 -102 232 -275v-48h-356c-1 -116 75 -140 163 -140c51 0 98 8 157 23l21 -101c-55 -19 -124 -30 -196 -30z
M179 325h216c1 83 -31 138 -100 138c-63 0 -111 -48 -116 -138z" />
    <glyph glyph-name="uni1EBB" unicode="&#x1ebb;" horiz-adv-x="571" 
d="M321 -12c-168 0 -279 62 -279 277c0 218 115 294 258 294c168 0 232 -102 232 -275v-48h-356c-1 -116 75 -140 163 -140c51 0 98 8 157 23l21 -101c-55 -19 -124 -30 -196 -30zM179 325h216c1 83 -31 138 -100 138c-63 0 -111 -48 -116 -138zM395 755
c0 -74 -58 -119 -106 -138l-50 59c20 9 53 33 53 69c0 27 -21 36 -40 36c-13 0 -26 -3 -37 -9l-10 83c16 7 44 13 70 13c65 0 120 -44 120 -113z" />
    <glyph glyph-name="uni1EB9" unicode="&#x1eb9;" horiz-adv-x="571" 
d="M392 -154l-94 -95l-95 95l95 94zM321 -12c-168 0 -279 62 -279 277c0 218 115 294 258 294c168 0 232 -102 232 -275v-48h-356c-1 -116 75 -140 163 -140c51 0 98 8 157 23l21 -101c-55 -19 -124 -30 -196 -30zM179 325h216c1 83 -31 138 -100 138
c-63 0 -111 -48 -116 -138z" />
    <glyph glyph-name="uni0065030A" horiz-adv-x="571" 
d="M295 597c-65 0 -135 27 -135 115c0 83 67 122 132 122c54 0 135 -27 135 -120c0 -80 -62 -117 -132 -117zM293 656c38 0 59 22 61 57c0 35 -27 57 -61 57c-41 0 -61 -20 -61 -55c0 -36 24 -59 61 -59zM321 -12c-168 0 -279 62 -279 277c0 218 115 294 258 294
c168 0 232 -102 232 -275v-48h-356c-1 -116 75 -140 163 -140c51 0 98 8 157 23l21 -101c-55 -19 -124 -30 -196 -30zM179 325h216c1 83 -31 138 -100 138c-63 0 -111 -48 -116 -138z" />
    <glyph glyph-name="uni1E1F" unicode="&#x1e1f;" horiz-adv-x="373" 
d="M194 839l-82 -82l-82 82l82 82zM107 -171v621h-80v96h80v27c0 155 94 195 201 195c40 0 65 -4 93 -13l-21 -101c-18 4 -41 8 -67 8c-52 0 -73 -32 -73 -90v-26h117v-96h-117v-621h-133z" />
    <glyph glyph-name="uni00660304" horiz-adv-x="373" 
d="M105 812v105h305v-105h-305zM107 -171v621h-80v96h80v27c0 155 94 195 201 195c40 0 65 -4 93 -13l-21 -101c-18 4 -41 8 -67 8c-52 0 -73 -32 -73 -90v-26h117v-96h-117v-621h-133z" />
    <glyph glyph-name="gbreve" unicode="&#x11f;" horiz-adv-x="613" 
d="M274 -230c-55 0 -142 11 -194 32l22 113c61 -19 124 -28 175 -28c76 0 132 21 132 114v25c-34 -22 -59 -32 -114 -32c-120 0 -254 43 -254 263c0 216 129 303 300 303c53 0 129 -9 201 -26v-550c0 -149 -124 -214 -268 -214zM318 95c33 0 63 10 90 24v318
c-16 4 -43 12 -79 12c-113 0 -155 -71 -155 -184c0 -127 54 -170 144 -170zM325 626c-97 0 -154 56 -181 101l70 60c33 -34 71 -61 115 -61c46 0 83 27 112 61l66 -59c-28 -43 -85 -102 -182 -102z" />
    <glyph glyph-name="gcircumflex" unicode="&#x11d;" horiz-adv-x="613" 
d="M462 614l-125 88l-129 -88l-58 75l188 123l180 -123zM274 -230c-55 0 -142 11 -194 32l22 113c61 -19 124 -28 175 -28c76 0 132 21 132 114v25c-34 -22 -59 -32 -114 -32c-120 0 -254 43 -254 263c0 216 129 303 300 303c53 0 129 -9 201 -26v-550
c0 -149 -124 -214 -268 -214zM318 95c33 0 63 10 90 24v318c-16 4 -43 12 -79 12c-113 0 -155 -71 -155 -184c0 -127 54 -170 144 -170z" />
    <glyph glyph-name="gcommaaccent" unicode="&#x123;" horiz-adv-x="613" 
d="M271 605l48 199h107l-28 -199h-127zM274 -230c-55 0 -142 11 -194 32l22 113c61 -19 124 -28 175 -28c76 0 132 21 132 114v25c-34 -22 -59 -32 -114 -32c-120 0 -254 43 -254 263c0 216 129 303 300 303c53 0 129 -9 201 -26v-550c0 -149 -124 -214 -268 -214zM318 95
c33 0 63 10 90 24v318c-16 4 -43 12 -79 12c-113 0 -155 -71 -155 -184c0 -127 54 -170 144 -170z" />
    <glyph glyph-name="gdotaccent" unicode="&#x121;" horiz-adv-x="613" 
d="M344 621l-94 95l94 94l95 -94zM274 -230c-55 0 -142 11 -194 32l22 113c61 -19 124 -28 175 -28c76 0 132 21 132 114v25c-34 -22 -59 -32 -114 -32c-120 0 -254 43 -254 263c0 216 129 303 300 303c53 0 129 -9 201 -26v-550c0 -149 -124 -214 -268 -214zM318 95
c33 0 63 10 90 24v318c-16 4 -43 12 -79 12c-113 0 -155 -71 -155 -184c0 -127 54 -170 144 -170z" />
    <glyph glyph-name="gbreve.alt" horiz-adv-x="598" 
d="M263 193c-28 0 -58 3 -86 11c-11 -16 -16 -31 -16 -42c0 -20 15 -35 41 -35h112c148 0 219 -53 219 -152c0 -111 -91 -205 -279 -205c-144 0 -222 55 -222 141c0 48 23 97 69 128c-27 19 -40 47 -40 77c0 38 20 80 59 112c-42 26 -72 68 -72 135c0 109 81 196 222 196
c71 0 119 -23 134 -32l168 9v-97h-89c3 -13 11 -43 11 -72c0 -109 -101 -174 -231 -174zM321 18h-137c-9 0 -18 0 -26 1c-19 -21 -28 -45 -28 -68c0 -47 38 -80 134 -80c97 0 158 38 158 88c0 36 -34 59 -101 59zM268 626c-97 0 -154 56 -181 101l70 60
c33 -34 71 -61 115 -61c46 0 83 27 112 61l66 -59c-28 -43 -85 -102 -182 -102zM268 275c66 0 105 41 105 97c0 55 -36 99 -102 99c-64 0 -103 -41 -103 -101c0 -59 39 -95 100 -95z" />
    <glyph glyph-name="gcircumflex.alt" horiz-adv-x="598" 
d="M263 193c-28 0 -58 3 -86 11c-11 -16 -16 -31 -16 -42c0 -20 15 -35 41 -35h112c148 0 219 -53 219 -152c0 -111 -91 -205 -279 -205c-144 0 -222 55 -222 141c0 48 23 97 69 128c-27 19 -40 47 -40 77c0 38 20 80 59 112c-42 26 -72 68 -72 135c0 109 81 196 222 196
c71 0 119 -23 134 -32l168 9v-97h-89c3 -13 11 -43 11 -72c0 -109 -101 -174 -231 -174zM321 18h-137c-9 0 -18 0 -26 1c-19 -21 -28 -45 -28 -68c0 -47 38 -80 134 -80c97 0 158 38 158 88c0 36 -34 59 -101 59zM394 614l-125 88l-129 -88l-58 75l188 123l180 -123z
M268 275c66 0 105 41 105 97c0 55 -36 99 -102 99c-64 0 -103 -41 -103 -101c0 -59 39 -95 100 -95z" />
    <glyph glyph-name="gcommaaccent.alt" horiz-adv-x="598" 
d="M263 193c-28 0 -58 3 -86 11c-11 -16 -16 -31 -16 -42c0 -20 15 -35 41 -35h112c148 0 219 -53 219 -152c0 -111 -91 -205 -279 -205c-144 0 -222 55 -222 141c0 48 23 97 69 128c-27 19 -40 47 -40 77c0 38 20 80 59 112c-42 26 -72 68 -72 135c0 109 81 196 222 196
c71 0 119 -23 134 -32l168 9v-97h-89c3 -13 11 -43 11 -72c0 -109 -101 -174 -231 -174zM321 18h-137c-9 0 -18 0 -26 1c-19 -21 -28 -45 -28 -68c0 -47 38 -80 134 -80c97 0 158 38 158 88c0 36 -34 59 -101 59zM268 275c66 0 105 41 105 97c0 55 -36 99 -102 99
c-64 0 -103 -41 -103 -101c0 -59 39 -95 100 -95zM198 616l43 213h94l-21 -213h-116z" />
    <glyph glyph-name="gdotaccent.alt" horiz-adv-x="598" 
d="M263 193c-28 0 -58 3 -86 11c-11 -16 -16 -31 -16 -42c0 -20 15 -35 41 -35h112c148 0 219 -53 219 -152c0 -111 -91 -205 -279 -205c-144 0 -222 55 -222 141c0 48 23 97 69 128c-27 19 -40 47 -40 77c0 38 20 80 59 112c-42 26 -72 68 -72 135c0 109 81 196 222 196
c71 0 119 -23 134 -32l168 9v-97h-89c3 -13 11 -43 11 -72c0 -109 -101 -174 -231 -174zM321 18h-137c-9 0 -18 0 -26 1c-19 -21 -28 -45 -28 -68c0 -47 38 -80 134 -80c97 0 158 38 158 88c0 36 -34 59 -101 59zM268 275c66 0 105 41 105 97c0 55 -36 99 -102 99
c-64 0 -103 -41 -103 -101c0 -59 39 -95 100 -95zM267 621l-94 95l94 94l95 -94z" />
    <glyph glyph-name="uni01E7" unicode="&#x1e7;" horiz-adv-x="613" 
d="M328 608l-183 124l54 74l130 -88l129 88l58 -75zM274 -230c-55 0 -142 11 -194 32l22 113c61 -19 124 -28 175 -28c76 0 132 21 132 114v25c-34 -22 -59 -32 -114 -32c-120 0 -254 43 -254 263c0 216 129 303 300 303c53 0 129 -9 201 -26v-550
c0 -149 -124 -214 -268 -214zM318 95c33 0 63 10 90 24v318c-16 4 -43 12 -79 12c-113 0 -155 -71 -155 -184c0 -127 54 -170 144 -170z" />
    <glyph glyph-name="uni01F5" unicode="&#x1f5;" horiz-adv-x="613" 
d="M255 608l-40 80l219 124l47 -94zM274 -230c-55 0 -142 11 -194 32l22 113c61 -19 124 -28 175 -28c76 0 132 21 132 114v25c-34 -22 -59 -32 -114 -32c-120 0 -254 43 -254 263c0 216 129 303 300 303c53 0 129 -9 201 -26v-550c0 -149 -124 -214 -268 -214zM318 95
c33 0 63 10 90 24v318c-16 4 -43 12 -79 12c-113 0 -155 -71 -155 -184c0 -127 54 -170 144 -170z" />
    <glyph glyph-name="uni1E21" unicode="&#x1e21;" horiz-adv-x="613" 
d="M170 654v105h305v-105h-305zM274 -230c-55 0 -142 11 -194 32l22 113c61 -19 124 -28 175 -28c76 0 132 21 132 114v25c-34 -22 -59 -32 -114 -32c-120 0 -254 43 -254 263c0 216 129 303 300 303c53 0 129 -9 201 -26v-550c0 -149 -124 -214 -268 -214zM318 95
c33 0 63 10 90 24v318c-16 4 -43 12 -79 12c-113 0 -155 -71 -155 -184c0 -127 54 -170 144 -170z" />
    <glyph glyph-name="hbar" unicode="&#x127;" horiz-adv-x="636" 
d="M74 0v615h-64v68h64v71h133v-71h120v-68h-120v-127c35 26 106 73 183 73c167 0 177 -102 177 -214v-347h-131v332c0 83 -16 113 -89 113c-55 0 -114 -31 -140 -44v-401h-133z" />
    <glyph glyph-name="hcircumflex" unicode="&#x125;" horiz-adv-x="636" 
d="M74 0v754h133v-268c39 31 106 73 184 73c166 0 176 -103 176 -214v-345h-131v330c0 82 -17 113 -86 113c-58 0 -108 -25 -143 -45v-398h-133zM11 761l-47 86l179 89l176 -88l-47 -87l-130 59z" />
    <glyph glyph-name="uni021F" unicode="&#x21f;" horiz-adv-x="636" 
d="M74 0v754h133v-268c39 31 106 73 184 73c166 0 176 -103 176 -214v-345h-131v330c0 82 -17 113 -86 113c-58 0 -108 -25 -143 -45v-398h-133zM521 830l-180 -88l-177 89l46 87l131 -60l132 59z" />
    <glyph glyph-name="uni1E25" unicode="&#x1e25;" horiz-adv-x="636" 
d="M74 0v754h133v-268c39 31 106 73 184 73c166 0 176 -103 176 -214v-345h-131v330c0 82 -17 113 -86 113c-58 0 -108 -25 -143 -45v-398h-133zM319 -249l-94 95l94 94l95 -94z" />
    <glyph glyph-name="uni1E96" unicode="&#x1e96;" horiz-adv-x="636" 
d="M74 0v754h133v-268c39 31 106 73 184 73c166 0 176 -103 176 -214v-345h-131v330c0 82 -17 113 -86 113c-58 0 -108 -25 -143 -45v-398h-133zM166 -218v105h305v-105h-305z" />
    <glyph glyph-name="uni1E2B" unicode="&#x1e2b;" horiz-adv-x="636" 
d="M74 0v754h133v-268c39 31 106 73 184 73c166 0 176 -103 176 -214v-345h-131v330c0 82 -17 113 -86 113c-58 0 -108 -25 -143 -45v-398h-133zM320 -226c-95 0 -155 55 -186 103l69 61c38 -38 79 -62 120 -62s80 23 117 62l66 -61c-33 -47 -93 -103 -186 -103z" />
    <glyph glyph-name="uni1E23" unicode="&#x1e23;" horiz-adv-x="636" 
d="M74 0v754h133v-268c39 31 106 73 184 73c166 0 176 -103 176 -214v-345h-131v330c0 82 -17 113 -86 113c-58 0 -108 -25 -143 -45v-398h-133zM371 621l-94 95l94 94l95 -94z" />
    <glyph glyph-name="iacute" unicode="&#xed;" horiz-adv-x="281" 
d="M74 608l-40 80l219 124l47 -94zM74 0v546h134v-546h-134z" />
    <glyph glyph-name="igrave" unicode="&#xec;" horiz-adv-x="281" 
d="M74 0v546h134v-546h-134zM197 608l-224 111l46 95l220 -125z" />
    <glyph glyph-name="icircumflex" unicode="&#xee;" horiz-adv-x="281" 
d="M267 614l-125 88l-129 -88l-58 75l188 123l180 -123zM74 0v546h134v-546h-134z" />
    <glyph glyph-name="idieresis" unicode="&#xef;" horiz-adv-x="281" 
d="M31 636l-79 80l79 80l79 -80zM257 636l-80 80l80 80l79 -80zM74 0v546h134v-546h-134z" />
    <glyph glyph-name="ibreve" unicode="&#x12d;" horiz-adv-x="281" 
d="M74 0v546h134v-546h-134zM144 626c-97 0 -154 56 -181 101l70 60c33 -34 71 -61 115 -61c46 0 83 27 112 61l66 -59c-28 -43 -85 -102 -182 -102z" />
    <glyph glyph-name="dotlessi" unicode="&#x131;" horiz-adv-x="281" 
d="M74 0v546h134v-546h-134z" />
    <glyph glyph-name="imacron" unicode="&#x12b;" horiz-adv-x="281" 
d="M74 0v546h134v-546h-134zM-11 655v105h305v-105h-305z" />
    <glyph glyph-name="iogonek" unicode="&#x12f;" horiz-adv-x="281" 
d="M130 -248c-108 0 -142 48 -142 118c0 48 43 95 86 128v548h133v-546c-48 -30 -108 -75 -108 -116c0 -24 23 -34 48 -34c23 0 48 6 67 13l25 -88c-27 -12 -53 -23 -109 -23zM140 621l-94 95l94 94l95 -94z" />
    <glyph glyph-name="itilde" unicode="&#x129;" horiz-adv-x="281" 
d="M74 0v546h134v-546h-134zM197 638c-49 0 -86 37 -126 37c-24 0 -42 -4 -70 -27l-51 64c19 21 65 68 130 68c59 0 86 -38 123 -38c32 0 53 11 80 27l46 -63c-18 -19 -63 -68 -132 -68z" />
    <glyph glyph-name="uni01D0" unicode="&#x1d0;" horiz-adv-x="281" 
d="M139 608l-183 124l54 74l130 -88l129 88l58 -75zM74 0v546h134v-546h-134z" />
    <glyph glyph-name="uni1EC9" unicode="&#x1ec9;" horiz-adv-x="281" 
d="M74 0v546h134v-546h-134zM236 755c0 -74 -58 -119 -106 -138l-50 59c20 9 53 33 53 69c0 27 -21 36 -40 36c-13 0 -26 -3 -37 -9l-10 83c16 7 44 13 70 13c65 0 120 -44 120 -113z" />
    <glyph glyph-name="uni1ECB" unicode="&#x1ecb;" horiz-adv-x="281" 
d="M234 -154l-94 -95l-95 95l95 94zM74 0v546h134v-546h-134zM140 621l-94 95l94 94l95 -94z" />
    <glyph glyph-name="jcircumflex" unicode="&#x135;" horiz-adv-x="281" 
d="M264 614l-125 88l-129 -88l-58 75l188 123l180 -123zM0 -225c-35 0 -79 10 -106 22l24 105c23 -8 53 -13 78 -13c58 0 78 32 78 106v551h133v-552c0 -179 -96 -219 -207 -219z" />
    <glyph glyph-name="uni006A0301" horiz-adv-x="281" 
d="M75 608l-40 80l219 124l47 -94zM0 -225c-35 0 -79 10 -106 22l24 105c23 -8 53 -13 78 -13c58 0 78 32 78 106v551h133v-552c0 -179 -96 -219 -207 -219z" />
    <glyph glyph-name="uni0237" unicode="&#x237;" horiz-adv-x="281" 
d="M0 -225c-35 0 -79 10 -106 22l24 105c23 -8 53 -13 78 -13c58 0 78 32 78 106v551h133v-552c0 -179 -96 -219 -207 -219z" />
    <glyph glyph-name="kcommaaccent" unicode="&#x137;" horiz-adv-x="575" 
d="M74 0v754h133v-446l189 238h146l-211 -253l90 -108c43 -50 82 -80 137 -95l-18 -101c-68 4 -135 14 -206 105l-127 165v-259h-133zM370 -59l-43 -213h-94l21 213h116z" />
    <glyph glyph-name="uni01E9" unicode="&#x1e9;" horiz-adv-x="575" 
d="M74 0v754h133v-446l189 238h146l-211 -253l90 -108c43 -50 82 -80 137 -95l-18 -101c-68 4 -135 14 -206 105l-127 165v-259h-133zM493 830l-180 -88l-177 89l46 87l131 -60l132 59z" />
    <glyph glyph-name="uni1E35" unicode="&#x1e35;" horiz-adv-x="575" 
d="M74 0v754h133v-446l189 238h146l-211 -253l90 -108c43 -50 82 -80 137 -95l-18 -101c-68 4 -135 14 -206 105l-127 165v-259h-133zM145 -218v105h305v-105h-305z" />
    <glyph glyph-name="uni1E33" unicode="&#x1e33;" horiz-adv-x="575" 
d="M74 0v754h133v-446l189 238h146l-211 -253l90 -108c43 -50 82 -80 137 -95l-18 -101c-68 4 -135 14 -206 105l-127 165v-259h-133zM292 -249l-94 95l94 94l95 -94z" />
    <glyph glyph-name="lacute" unicode="&#x13a;" horiz-adv-x="281" 
d="M85 791l-21 90l251 73l25 -106zM74 0v754h133v-754h-133z" />
    <glyph glyph-name="lcaron" unicode="&#x13e;" horiz-adv-x="355" 
d="M391 754l-43 -213h-94l21 213h116zM74 0v754h133v-754h-133z" />
    <glyph glyph-name="lcommaaccent" unicode="&#x13c;" horiz-adv-x="281" 
d="M200 -59l-43 -213h-94l21 213h116zM74 0v754h133v-754h-133z" />
    <glyph glyph-name="ldot" unicode="&#x140;" horiz-adv-x="437" 
d="M346 287l-89 90l89 88l88 -88zM74 0v754h133v-754h-133z" />
    <glyph glyph-name="lslash" unicode="&#x142;" horiz-adv-x="350" 
d="M107 0v311l-86 -50l-1 95l87 50v348h133v-272l90 52v-94l-90 -52v-388h-133z" />
    <glyph glyph-name="uni1E3B" unicode="&#x1e3b;" horiz-adv-x="281" 
d="M74 0v754h133v-754h-133zM-13 -218v105h305v-105h-305z" />
    <glyph glyph-name="uni1E37" unicode="&#x1e37;" horiz-adv-x="281" 
d="M140 -249l-94 95l94 94l95 -94zM74 0v754h133v-754h-133z" />
    <glyph glyph-name="uni1E39" unicode="&#x1e39;" horiz-adv-x="281" 
d="M138 -249l-94 95l94 94l95 -94zM-10 810v105h305v-105h-305zM74 0v754h133v-754h-133z" />
    <glyph glyph-name="uni1E43" unicode="&#x1e43;" horiz-adv-x="969" 
d="M484 -249l-94 95l94 94l95 -94zM74 0v546h133v-59c49 38 111 73 179 73c77 0 129 -33 150 -82c44 38 114 82 192 82c170 0 172 -122 172 -214v-346h-133v331c0 74 -16 113 -85 113c-46 0 -95 -21 -132 -45c2 -17 3 -35 3 -52v-347h-132v331c0 79 -17 112 -82 112
c-46 0 -95 -19 -132 -44v-399h-133z" />
    <glyph glyph-name="uni006D0310" horiz-adv-x="969" 
d="M494 624c-97 0 -157 57 -185 104l71 61c32 -35 72 -63 117 -63c46 0 84 28 116 63l67 -59c-29 -44 -90 -106 -186 -106zM497 775l-82 84l82 82l83 -82zM74 0v546h133v-59c49 38 111 73 179 73c77 0 129 -33 150 -82c44 38 114 82 192 82c170 0 172 -122 172 -214v-346
h-133v331c0 74 -16 113 -85 113c-46 0 -95 -21 -132 -45c2 -17 3 -35 3 -52v-347h-132v331c0 79 -17 112 -82 112c-46 0 -95 -19 -132 -44v-399h-133z" />
    <glyph glyph-name="uni1E41" unicode="&#x1e41;" horiz-adv-x="969" 
d="M74 0v546h133v-59c49 38 111 73 179 73c77 0 129 -33 150 -82c44 38 114 82 192 82c170 0 172 -122 172 -214v-346h-133v331c0 74 -16 113 -85 113c-46 0 -95 -21 -132 -45c2 -17 3 -35 3 -52v-347h-132v331c0 79 -17 112 -82 112c-46 0 -95 -19 -132 -44v-399h-133z
M487 621l-94 95l94 94l95 -94z" />
    <glyph glyph-name="uni1E3F" unicode="&#x1e3f;" horiz-adv-x="969" 
d="M459 608l-40 80l219 124l47 -94zM74 0v546h133v-59c49 38 111 73 179 73c77 0 129 -33 150 -82c44 38 114 82 192 82c170 0 172 -122 172 -214v-346h-133v331c0 74 -16 113 -85 113c-46 0 -95 -21 -132 -45c2 -17 3 -35 3 -52v-347h-132v331c0 79 -17 112 -82 112
c-46 0 -95 -19 -132 -44v-399h-133z" />
    <glyph glyph-name="ntilde" unicode="&#xf1;" horiz-adv-x="636" 
d="M378 638c-49 0 -86 37 -126 37c-24 0 -42 -4 -70 -27l-51 64c19 21 65 68 130 68c59 0 86 -38 123 -38c32 0 53 11 80 27l46 -63c-18 -19 -63 -68 -132 -68zM74 0v546h133v-58c55 39 107 72 193 72c154 0 168 -106 168 -214v-346h-132v331c0 83 -17 113 -85 113
c-60 0 -107 -22 -144 -43v-401h-133z" />
    <glyph glyph-name="nacute" unicode="&#x144;" horiz-adv-x="636" 
d="M254 608l-40 80l219 124l47 -94zM74 0v546h133v-58c55 39 107 72 193 72c154 0 168 -106 168 -214v-346h-132v331c0 83 -17 113 -85 113c-60 0 -107 -22 -144 -43v-401h-133z" />
    <glyph glyph-name="napostrophe" unicode="&#x149;" horiz-adv-x="706" 
d="M-28 511c24 47 30 103 30 130v113h123v-75c0 -68 -23 -125 -55 -168h-98zM143 0v546h133v-58c55 39 107 72 193 72c154 0 168 -106 168 -214v-346h-132v331c0 83 -17 113 -85 113c-60 0 -107 -22 -144 -43v-401h-133z" />
    <glyph glyph-name="ncaron" unicode="&#x148;" horiz-adv-x="636" 
d="M316 609l-183 124l54 74l130 -88l129 88l58 -75zM74 0v546h133v-58c55 39 107 72 193 72c154 0 168 -106 168 -214v-346h-132v331c0 83 -17 113 -85 113c-60 0 -107 -22 -144 -43v-401h-133z" />
    <glyph glyph-name="ncommaaccent" unicode="&#x146;" horiz-adv-x="636" 
d="M385 -59l-43 -213h-94l21 213h116zM74 0v546h133v-58c55 39 107 72 193 72c154 0 168 -106 168 -214v-346h-132v331c0 83 -17 113 -85 113c-60 0 -107 -22 -144 -43v-401h-133z" />
    <glyph glyph-name="uni01F9" unicode="&#x1f9;" horiz-adv-x="636" 
d="M388 607l-224 111l46 95l220 -125zM74 0v546h133v-58c55 39 107 72 193 72c154 0 168 -106 168 -214v-346h-132v331c0 83 -17 113 -85 113c-60 0 -107 -22 -144 -43v-401h-133z" />
    <glyph glyph-name="uni1E49" unicode="&#x1e49;" horiz-adv-x="636" 
d="M166 -218v105h305v-105h-305zM74 0v546h133v-58c55 39 107 72 193 72c154 0 168 -106 168 -214v-346h-132v331c0 83 -17 113 -85 113c-60 0 -107 -22 -144 -43v-401h-133z" />
    <glyph glyph-name="uni1E45" unicode="&#x1e45;" horiz-adv-x="636" 
d="M321 621l-94 95l94 94l95 -94zM74 0v546h133v-58c55 39 107 72 193 72c154 0 168 -106 168 -214v-346h-132v331c0 83 -17 113 -85 113c-60 0 -107 -22 -144 -43v-401h-133z" />
    <glyph glyph-name="uni1E47" unicode="&#x1e47;" horiz-adv-x="636" 
d="M323 -249l-94 95l94 94l95 -94zM74 0v546h133v-58c55 39 107 72 193 72c154 0 168 -106 168 -214v-346h-132v331c0 83 -17 113 -85 113c-60 0 -107 -22 -144 -43v-401h-133z" />
    <glyph glyph-name="uni006E0304" horiz-adv-x="636" 
d="M164 655v105h305v-105h-305zM74 0v546h133v-58c55 39 107 72 193 72c154 0 168 -106 168 -214v-346h-132v331c0 83 -17 113 -85 113c-60 0 -107 -22 -144 -43v-401h-133z" />
    <glyph glyph-name="eng" unicode="&#x14b;" horiz-adv-x="636" 
d="M568 -5c0 -179 -96 -215 -207 -215c-35 0 -80 9 -106 18l24 105c4 -1 54 -10 79 -10c58 0 78 30 78 103v336c0 83 -16 112 -89 112c-55 0 -111 -27 -140 -43v-401h-133v546h133v-58c35 26 105 73 183 73c167 0 178 -102 178 -214v-352z" />
    <glyph glyph-name="oacute" unicode="&#xf3;" horiz-adv-x="619" 
d="M228 608l-40 80l219 124l47 -94zM304 -12c-169 0 -264 106 -264 280c0 184 109 292 274 292c179 0 265 -107 265 -286c0 -190 -116 -286 -275 -286zM311 95c106 0 132 79 132 177c0 94 -25 182 -133 182c-107 0 -135 -88 -135 -182c0 -101 32 -177 136 -177z" />
    <glyph glyph-name="ograve" unicode="&#xf2;" horiz-adv-x="619" 
d="M385 608l-224 111l46 95l220 -125zM304 -12c-169 0 -264 106 -264 280c0 184 109 292 274 292c179 0 265 -107 265 -286c0 -190 -116 -286 -275 -286zM311 95c106 0 132 79 132 177c0 94 -25 182 -133 182c-107 0 -135 -88 -135 -182c0 -101 32 -177 136 -177z" />
    <glyph glyph-name="ocircumflex" unicode="&#xf4;" horiz-adv-x="619" 
d="M434 614l-125 88l-129 -88l-58 75l188 123l180 -123zM304 -12c-169 0 -264 106 -264 280c0 184 109 292 274 292c179 0 265 -107 265 -286c0 -190 -116 -286 -275 -286zM311 95c106 0 132 79 132 177c0 94 -25 182 -133 182c-107 0 -135 -88 -135 -182
c0 -101 32 -177 136 -177z" />
    <glyph glyph-name="odieresis" unicode="&#xf6;" horiz-adv-x="619" 
d="M199 636l-79 80l79 80l79 -80zM425 636l-80 80l80 80l79 -80zM304 -12c-169 0 -264 106 -264 280c0 184 109 292 274 292c179 0 265 -107 265 -286c0 -190 -116 -286 -275 -286zM311 95c106 0 132 79 132 177c0 94 -25 182 -133 182c-107 0 -135 -88 -135 -182
c0 -101 32 -177 136 -177z" />
    <glyph glyph-name="otilde" unicode="&#xf5;" horiz-adv-x="619" 
d="M304 -12c-169 0 -264 106 -264 280c0 184 109 292 274 292c179 0 265 -107 265 -286c0 -190 -116 -286 -275 -286zM311 95c106 0 132 79 132 177c0 94 -25 182 -133 182c-107 0 -135 -88 -135 -182c0 -101 32 -177 136 -177zM364 638c-49 0 -86 37 -126 37
c-24 0 -42 -4 -70 -27l-51 64c19 21 65 68 130 68c59 0 86 -38 123 -38c32 0 53 11 80 27l46 -63c-18 -19 -63 -68 -132 -68z" />
    <glyph glyph-name="obreve" unicode="&#x14f;" horiz-adv-x="619" 
d="M304 -12c-169 0 -264 106 -264 280c0 184 109 292 274 292c179 0 265 -107 265 -286c0 -190 -116 -286 -275 -286zM311 95c106 0 132 79 132 177c0 94 -25 182 -133 182c-107 0 -135 -88 -135 -182c0 -101 32 -177 136 -177zM309 626c-97 0 -154 56 -181 101l70 60
c33 -34 71 -61 115 -61c46 0 83 27 112 61l66 -59c-28 -43 -85 -102 -182 -102z" />
    <glyph glyph-name="ohungarumlaut" unicode="&#x151;" horiz-adv-x="619" 
d="M161 602l-57 68l187 166l68 -81zM385 603l-40 78l219 123l48 -93zM304 -12c-169 0 -264 106 -264 280c0 184 109 292 274 292c179 0 265 -107 265 -286c0 -190 -116 -286 -275 -286zM311 95c106 0 132 79 132 177c0 94 -25 182 -133 182c-107 0 -135 -88 -135 -182
c0 -101 32 -177 136 -177z" />
    <glyph glyph-name="omacron" unicode="&#x14d;" horiz-adv-x="619" 
d="M154 655v105h305v-105h-305zM304 -12c-169 0 -264 106 -264 280c0 184 109 292 274 292c179 0 265 -107 265 -286c0 -190 -116 -286 -275 -286zM311 95c106 0 132 79 132 177c0 94 -25 182 -133 182c-107 0 -135 -88 -135 -182c0 -101 32 -177 136 -177z" />
    <glyph glyph-name="oslash" unicode="&#xf8;" horiz-adv-x="640" 
d="M313 -12c-71 0 -129 18 -172 53l-62 -66l-45 43l64 68c-32 47 -49 108 -49 182c0 184 109 292 274 292c73 0 131 -18 174 -52l59 63l44 -43l-61 -65c33 -47 49 -112 49 -189c0 -190 -116 -286 -275 -286zM320 95c106 0 132 79 132 177c0 31 -3 61 -11 88l-216 -230
c21 -23 52 -35 95 -35zM184 272c0 -31 3 -60 10 -85l217 231c-20 22 -50 36 -92 36c-107 0 -135 -88 -135 -182z" />
    <glyph glyph-name="oslashacute" unicode="&#x1ff;" horiz-adv-x="640" 
d="M313 -12c-71 0 -129 18 -172 53l-62 -66l-45 43l64 68c-32 47 -49 108 -49 182c0 184 109 292 274 292c73 0 131 -18 174 -52l59 63l44 -43l-61 -65c33 -47 49 -112 49 -189c0 -190 -116 -286 -275 -286zM320 95c106 0 132 79 132 177c0 31 -3 61 -11 88l-216 -230
c21 -23 52 -35 95 -35zM184 272c0 -31 3 -60 10 -85l217 231c-20 22 -50 36 -92 36c-107 0 -135 -88 -135 -182zM249 608l-40 80l219 124l47 -94z" />
    <glyph glyph-name="uni01D2" unicode="&#x1d2;" horiz-adv-x="619" 
d="M307 608l-183 124l54 74l130 -88l129 88l58 -75zM304 -12c-169 0 -264 106 -264 280c0 184 109 292 274 292c179 0 265 -107 265 -286c0 -190 -116 -286 -275 -286zM311 95c106 0 132 79 132 177c0 94 -25 182 -133 182c-107 0 -135 -88 -135 -182
c0 -101 32 -177 136 -177z" />
    <glyph glyph-name="uni01EB" unicode="&#x1eb;" horiz-adv-x="619" 
d="M436 -223c-28 -16 -64 -26 -103 -26c-83 0 -143 46 -143 123c0 44 25 84 62 118c-137 19 -212 120 -212 276c0 184 109 292 274 292c179 0 265 -107 265 -286c0 -147 -70 -238 -175 -272c-49 -28 -98 -68 -98 -110c0 -31 23 -47 48 -47c22 0 41 6 58 15zM311 95
c106 0 132 79 132 177c0 94 -25 182 -133 182c-107 0 -135 -88 -135 -182c0 -101 32 -177 136 -177z" />
    <glyph glyph-name="uni01ED" unicode="&#x1ed;" horiz-adv-x="619" 
d="M436 -223c-28 -16 -64 -26 -103 -26c-83 0 -143 46 -143 123c0 44 25 84 62 118c-137 19 -212 120 -212 276c0 184 109 292 274 292c179 0 265 -107 265 -286c0 -147 -70 -238 -175 -272c-49 -28 -98 -68 -98 -110c0 -31 23 -47 48 -47c22 0 41 6 58 15zM311 95
c106 0 132 79 132 177c0 94 -25 182 -133 182c-107 0 -135 -88 -135 -182c0 -101 32 -177 136 -177zM153 654v105h305v-105h-305z" />
    <glyph glyph-name="uni022F" unicode="&#x22f;" horiz-adv-x="619" 
d="M304 -12c-169 0 -264 106 -264 280c0 184 109 292 274 292c179 0 265 -107 265 -286c0 -190 -116 -286 -275 -286zM311 95c106 0 132 79 132 177c0 94 -25 182 -133 182c-107 0 -135 -88 -135 -182c0 -101 32 -177 136 -177zM308 621l-94 95l94 94l95 -94z" />
    <glyph glyph-name="ohorn" unicode="&#x1a1;" horiz-adv-x="640" 
d="M304 -12c-169 0 -264 106 -264 280c0 184 109 292 274 292c55 0 101 -10 138 -29c37 12 44 40 44 71c0 16 -3 32 -8 48h118c8 -18 11 -45 11 -62c0 -61 -33 -109 -79 -137c27 -46 41 -106 41 -177c0 -190 -116 -286 -275 -286zM311 95c106 0 132 79 132 177
c0 94 -25 182 -133 182c-107 0 -135 -88 -135 -182c0 -101 32 -177 136 -177z" />
    <glyph glyph-name="uni1ED3" unicode="&#x1ed3;" horiz-adv-x="619" 
d="M576 760l-65 -60l-160 155l77 72zM480 688l-58 -75l-120 88l-119 -87l-56 76l176 122zM304 -12c-169 0 -264 106 -264 280c0 184 109 292 274 292c179 0 265 -107 265 -286c0 -190 -116 -286 -275 -286zM311 95c106 0 132 79 132 177c0 94 -25 182 -133 182
c-107 0 -135 -88 -135 -182c0 -101 32 -177 136 -177z" />
    <glyph glyph-name="uni1ED1" unicode="&#x1ed1;" horiz-adv-x="619" 
d="M454 739l-59 66l143 133l70 -79zM431 614l-120 88l-119 -87l-56 75l176 123l177 -124zM304 -12c-169 0 -264 106 -264 280c0 184 109 292 274 292c179 0 265 -107 265 -286c0 -190 -116 -286 -275 -286zM311 95c106 0 132 79 132 177c0 94 -25 182 -133 182
c-107 0 -135 -88 -135 -182c0 -101 32 -177 136 -177z" />
    <glyph glyph-name="uni1ED7" unicode="&#x1ed7;" horiz-adv-x="619" 
d="M371 801c-48 0 -83 31 -122 31c-23 0 -41 -4 -64 -24l-47 62c19 20 56 59 120 59c57 0 85 -30 120 -30c29 0 47 10 74 24l42 -63c-19 -18 -56 -59 -123 -59zM440 599l-131 81l-129 -80l-56 76l186 115l182 -117zM304 -12c-169 0 -264 106 -264 280c0 184 109 292 274 292
c179 0 265 -107 265 -286c0 -190 -116 -286 -275 -286zM311 95c106 0 132 79 132 177c0 94 -25 182 -133 182c-107 0 -135 -88 -135 -182c0 -101 32 -177 136 -177z" />
    <glyph glyph-name="uni1ED5" unicode="&#x1ed5;" horiz-adv-x="619" 
d="M534 848c0 -61 -43 -101 -76 -119l-63 58c14 9 37 27 37 53c0 24 -19 33 -38 33c-11 0 -25 -3 -40 -7l-9 82c16 6 44 13 70 13c34 0 63 -10 85 -30c21 -19 34 -48 34 -83zM442 600l-130 81l-129 -80l-56 75l186 116l182 -117zM304 -12c-169 0 -264 106 -264 280
c0 184 109 292 274 292c179 0 265 -107 265 -286c0 -190 -116 -286 -275 -286zM311 95c106 0 132 79 132 177c0 94 -25 182 -133 182c-107 0 -135 -88 -135 -182c0 -101 32 -177 136 -177z" />
    <glyph glyph-name="uni1ED9" unicode="&#x1ed9;" horiz-adv-x="619" 
d="M429 614l-125 88l-129 -88l-58 75l188 123l180 -123zM402 -154l-94 -95l-95 95l95 94zM304 -12c-169 0 -264 106 -264 280c0 184 109 292 274 292c179 0 265 -107 265 -286c0 -190 -116 -286 -275 -286zM311 95c106 0 132 79 132 177c0 94 -25 182 -133 182
c-107 0 -135 -88 -135 -182c0 -101 32 -177 136 -177z" />
    <glyph glyph-name="uni1ECF" unicode="&#x1ecf;" horiz-adv-x="619" 
d="M304 -12c-169 0 -264 106 -264 280c0 184 109 292 274 292c179 0 265 -107 265 -286c0 -190 -116 -286 -275 -286zM311 95c106 0 132 79 132 177c0 94 -25 182 -133 182c-107 0 -135 -88 -135 -182c0 -101 32 -177 136 -177zM407 755c0 -74 -58 -119 -106 -138l-50 59
c20 9 53 33 53 69c0 27 -21 36 -40 36c-13 0 -26 -3 -37 -9l-10 83c16 7 44 13 70 13c65 0 120 -44 120 -113z" />
    <glyph glyph-name="uni1ECD" unicode="&#x1ecd;" horiz-adv-x="619" 
d="M404 -154l-94 -95l-95 95l95 94zM304 -12c-169 0 -264 106 -264 280c0 184 109 292 274 292c179 0 265 -107 265 -286c0 -190 -116 -286 -275 -286zM311 95c106 0 132 79 132 177c0 94 -25 182 -133 182c-107 0 -135 -88 -135 -182c0 -101 32 -177 136 -177z" />
    <glyph glyph-name="uni1EDD" unicode="&#x1edd;" horiz-adv-x="640" 
d="M304 -12c-169 0 -264 106 -264 280c0 184 109 292 274 292c55 0 101 -10 138 -29c37 12 44 40 44 71c0 16 -3 32 -8 48h118c8 -18 11 -45 11 -62c0 -61 -33 -109 -79 -137c27 -46 41 -106 41 -177c0 -190 -116 -286 -275 -286zM311 95c106 0 132 79 132 177
c0 94 -25 182 -133 182c-107 0 -135 -88 -135 -182c0 -101 32 -177 136 -177zM390 607l-224 111l46 95l220 -125z" />
    <glyph glyph-name="uni1EDB" unicode="&#x1edb;" horiz-adv-x="640" 
d="M304 -12c-169 0 -264 106 -264 280c0 184 109 292 274 292c55 0 101 -10 138 -29c37 12 44 40 44 71c0 16 -3 32 -8 48h118c8 -18 11 -45 11 -62c0 -61 -33 -109 -79 -137c27 -46 41 -106 41 -177c0 -190 -116 -286 -275 -286zM311 95c106 0 132 79 132 177
c0 94 -25 182 -133 182c-107 0 -135 -88 -135 -182c0 -101 32 -177 136 -177zM270 608l-40 80l219 124l47 -94z" />
    <glyph glyph-name="uni1EE1" unicode="&#x1ee1;" horiz-adv-x="640" 
d="M304 -12c-169 0 -264 106 -264 280c0 184 109 292 274 292c55 0 101 -10 138 -29c37 12 44 40 44 71c0 16 -3 32 -8 48h118c8 -18 11 -45 11 -62c0 -61 -33 -109 -79 -137c27 -46 41 -106 41 -177c0 -190 -116 -286 -275 -286zM311 95c106 0 132 79 132 177
c0 94 -25 182 -133 182c-107 0 -135 -88 -135 -182c0 -101 32 -177 136 -177zM370 638c-49 0 -86 37 -126 37c-24 0 -42 -4 -70 -27l-51 64c19 21 65 68 130 68c59 0 86 -38 123 -38c32 0 53 11 80 27l46 -63c-18 -19 -63 -68 -132 -68z" />
    <glyph glyph-name="uni1EDF" unicode="&#x1edf;" horiz-adv-x="640" 
d="M304 -12c-169 0 -264 106 -264 280c0 184 109 292 274 292c55 0 101 -10 138 -29c37 12 44 40 44 71c0 16 -3 32 -8 48h118c8 -18 11 -45 11 -62c0 -61 -33 -109 -79 -137c27 -46 41 -106 41 -177c0 -190 -116 -286 -275 -286zM311 95c106 0 132 79 132 177
c0 94 -25 182 -133 182c-107 0 -135 -88 -135 -182c0 -101 32 -177 136 -177zM408 755c0 -74 -58 -119 -106 -138l-50 59c20 9 53 33 53 69c0 27 -21 36 -40 36c-13 0 -26 -3 -37 -9l-10 83c16 7 44 13 70 13c65 0 120 -44 120 -113z" />
    <glyph glyph-name="uni1EE3" unicode="&#x1ee3;" horiz-adv-x="640" 
d="M304 -12c-169 0 -264 106 -264 280c0 184 109 292 274 292c55 0 101 -10 138 -29c37 12 44 40 44 71c0 16 -3 32 -8 48h118c8 -18 11 -45 11 -62c0 -61 -33 -109 -79 -137c27 -46 41 -106 41 -177c0 -190 -116 -286 -275 -286zM311 95c106 0 132 79 132 177
c0 94 -25 182 -133 182c-107 0 -135 -88 -135 -182c0 -101 32 -177 136 -177zM406 -154l-94 -95l-95 95l95 94z" />
    <glyph glyph-name="uni007000AF" horiz-adv-x="621" 
d="M74 -220v766h132v-41c45 32 87 54 154 54c126 0 220 -80 220 -266c0 -226 -139 -303 -290 -303c-34 0 -62 3 -84 5v-215h-132zM288 93c108 0 157 82 157 195c0 98 -38 159 -129 159c-48 0 -82 -17 -110 -29v-317c10 -1 51 -8 82 -8zM145 655v105h305v-105h-305z" />
    <glyph glyph-name="uni1E57" unicode="&#x1e57;" horiz-adv-x="621" 
d="M74 -220v766h132v-41c45 32 87 54 154 54c126 0 220 -80 220 -266c0 -226 -139 -303 -290 -303c-34 0 -62 3 -84 5v-215h-132zM288 93c108 0 157 82 157 195c0 98 -38 159 -129 159c-48 0 -82 -17 -110 -29v-317c10 -1 51 -8 82 -8zM312 621l-94 95l94 94l95 -94z" />
    <glyph glyph-name="racute" unicode="&#x155;" horiz-adv-x="427" 
d="M176 608l-40 80l219 124l47 -94zM74 0v546h133v-73c26 37 79 84 147 84c31 0 53 -3 71 -9l-19 -110c-26 5 -39 6 -70 6c-55 0 -105 -32 -129 -62v-382h-133z" />
    <glyph glyph-name="rcaron" unicode="&#x159;" horiz-adv-x="427" 
d="M223 609l-183 124l54 74l130 -88l129 88l58 -75zM74 0v546h133v-73c26 37 79 84 147 84c31 0 53 -3 71 -9l-19 -110c-26 5 -39 6 -70 6c-55 0 -105 -32 -129 -62v-382h-133z" />
    <glyph glyph-name="rcommaaccent" unicode="&#x157;" horiz-adv-x="427" 
d="M202 -59l-43 -213h-94l21 213h116zM74 0v546h133v-73c26 37 79 84 147 84c31 0 53 -3 71 -9l-19 -110c-26 5 -39 6 -70 6c-55 0 -105 -32 -129 -62v-382h-133z" />
    <glyph glyph-name="uni1E5F" unicode="&#x1e5f;" horiz-adv-x="427" 
d="M74 0v546h133v-73c26 37 79 84 147 84c31 0 53 -3 71 -9l-19 -110c-26 5 -39 6 -70 6c-55 0 -105 -32 -129 -62v-382h-133zM-14 -218v105h305v-105h-305z" />
    <glyph glyph-name="uni1E5B" unicode="&#x1e5b;" horiz-adv-x="427" 
d="M140 -249l-94 95l94 94l95 -94zM74 0v546h133v-73c26 37 79 84 147 84c31 0 53 -3 71 -9l-19 -110c-26 5 -39 6 -70 6c-55 0 -105 -32 -129 -62v-382h-133z" />
    <glyph glyph-name="uni1E5D" unicode="&#x1e5d;" horiz-adv-x="427" 
d="M140 -249l-94 95l94 94l95 -94zM74 0v546h133v-73c26 37 79 84 147 84c31 0 53 -3 71 -9l-19 -110c-26 5 -39 6 -70 6c-55 0 -105 -32 -129 -62v-382h-133zM98 654v105h305v-105h-305z" />
    <glyph glyph-name="uni00720325" horiz-adv-x="427" 
d="M143 -276c-63 0 -132 27 -132 113c0 81 65 119 129 119c53 0 131 -27 131 -117c0 -78 -60 -115 -128 -115zM141 -217c37 0 57 21 59 55c0 33 -26 55 -59 55c-39 0 -59 -19 -59 -53c0 -35 23 -57 59 -57zM74 0v546h133v-73c26 37 79 84 147 84c31 0 53 -3 71 -9l-19 -110
c-26 5 -39 6 -70 6c-55 0 -105 -32 -129 -62v-382h-133z" />
    <glyph glyph-name="uni007203250304" horiz-adv-x="427" 
d="M140 -276c-63 0 -132 27 -132 113c0 81 65 119 129 119c53 0 131 -27 131 -117c0 -78 -60 -115 -128 -115zM138 -217c37 0 57 21 59 55c0 33 -26 55 -59 55c-39 0 -59 -19 -59 -53c0 -35 23 -57 59 -57zM74 0v546h133v-73c26 37 79 84 147 84c31 0 53 -3 71 -9l-19 -110
c-26 5 -39 6 -70 6c-55 0 -105 -32 -129 -62v-382h-133zM94 654v105h305v-105h-305z" />
    <glyph glyph-name="uni1E59" unicode="&#x1e59;" horiz-adv-x="427" 
d="M74 0v546h133v-73c26 37 79 84 147 84c31 0 53 -3 71 -9l-19 -110c-26 5 -39 6 -70 6c-55 0 -105 -32 -129 -62v-382h-133zM245 621l-94 95l94 94l95 -94z" />
    <glyph glyph-name="uni00720300" horiz-adv-x="427" 
d="M74 0v546h133v-73c26 37 79 84 147 84c31 0 53 -3 71 -9l-19 -110c-26 5 -39 6 -70 6c-55 0 -105 -32 -129 -62v-382h-133zM286 608l-224 111l46 95l220 -125z" />
    <glyph glyph-name="sacute" unicode="&#x15b;" horiz-adv-x="482" 
d="M166 608l-40 80l219 124l47 -94zM209 -12c-50 0 -123 8 -171 23l16 104c63 -11 117 -18 158 -18c77 0 108 23 108 53c0 87 -275 55 -275 243c0 113 99 167 216 167c52 0 113 -10 163 -29l-24 -99c-40 12 -90 21 -135 21c-63 0 -88 -21 -88 -49c0 -90 273 -59 273 -248
c0 -132 -135 -168 -241 -168z" />
    <glyph glyph-name="scedilla" unicode="&#x15f;" horiz-adv-x="482" 
d="M209 -12c-50 0 -123 8 -171 23l16 104c63 -11 117 -18 158 -18c77 0 108 23 108 53c0 87 -275 55 -275 243c0 113 99 167 216 167c52 0 113 -10 163 -29l-24 -99c-40 12 -90 21 -135 21c-63 0 -88 -21 -88 -49c0 -90 273 -59 273 -248c0 -132 -135 -168 -241 -168z
M199 -267l-46 79c32 20 70 41 70 73c0 20 -8 42 -16 64h109c11 -23 21 -49 21 -76c0 -67 -70 -111 -138 -140z" />
    <glyph glyph-name="scaron" unicode="&#x161;" horiz-adv-x="482" 
d="M241 609l-183 124l54 74l130 -88l129 88l58 -75zM209 -12c-50 0 -123 8 -171 23l16 104c63 -11 117 -18 158 -18c77 0 108 23 108 53c0 87 -275 55 -275 243c0 113 99 167 216 167c52 0 113 -10 163 -29l-24 -99c-40 12 -90 21 -135 21c-63 0 -88 -21 -88 -49
c0 -90 273 -59 273 -248c0 -132 -135 -168 -241 -168z" />
    <glyph glyph-name="scircumflex" unicode="&#x15d;" horiz-adv-x="482" 
d="M369 614l-125 88l-129 -88l-58 75l188 123l180 -123zM209 -12c-50 0 -123 8 -171 23l16 104c63 -11 117 -18 158 -18c77 0 108 23 108 53c0 87 -275 55 -275 243c0 113 99 167 216 167c52 0 113 -10 163 -29l-24 -99c-40 12 -90 21 -135 21c-63 0 -88 -21 -88 -49
c0 -90 273 -59 273 -248c0 -132 -135 -168 -241 -168z" />
    <glyph glyph-name="uni00730331" horiz-adv-x="482" 
d="M209 -12c-50 0 -123 8 -171 23l16 104c63 -11 117 -18 158 -18c77 0 108 23 108 53c0 87 -275 55 -275 243c0 113 99 167 216 167c52 0 113 -10 163 -29l-24 -99c-40 12 -90 21 -135 21c-63 0 -88 -21 -88 -49c0 -90 273 -59 273 -248c0 -132 -135 -168 -241 -168z
M88 -218v105h305v-105h-305z" />
    <glyph glyph-name="uni00730300" horiz-adv-x="482" 
d="M209 -12c-50 0 -123 8 -171 23l16 104c63 -11 117 -18 158 -18c77 0 108 23 108 53c0 87 -275 55 -275 243c0 113 99 167 216 167c52 0 113 -10 163 -29l-24 -99c-40 12 -90 21 -135 21c-63 0 -88 -21 -88 -49c0 -90 273 -59 273 -248c0 -132 -135 -168 -241 -168z
M323 607l-224 111l46 95l220 -125z" />
    <glyph glyph-name="uni1E61" unicode="&#x1e61;" horiz-adv-x="482" 
d="M209 -12c-50 0 -123 8 -171 23l16 104c63 -11 117 -18 158 -18c77 0 108 23 108 53c0 87 -275 55 -275 243c0 113 99 167 216 167c52 0 113 -10 163 -29l-24 -99c-40 12 -90 21 -135 21c-63 0 -88 -21 -88 -49c0 -90 273 -59 273 -248c0 -132 -135 -168 -241 -168z
M241 621l-94 95l94 94l95 -94z" />
    <glyph glyph-name="uni00730306" horiz-adv-x="482" 
d="M209 -12c-50 0 -123 8 -171 23l16 104c63 -11 117 -18 158 -18c77 0 108 23 108 53c0 87 -275 55 -275 243c0 113 99 167 216 167c52 0 113 -10 163 -29l-24 -99c-40 12 -90 21 -135 21c-63 0 -88 -21 -88 -49c0 -90 273 -59 273 -248c0 -132 -135 -168 -241 -168z
M237 626c-97 0 -154 56 -181 101l70 60c33 -34 71 -61 115 -61c46 0 83 27 112 61l66 -59c-28 -43 -85 -102 -182 -102z" />
    <glyph glyph-name="uni1E63" unicode="&#x1e63;" horiz-adv-x="482" 
d="M242 -249l-94 95l94 94l95 -94zM209 -12c-50 0 -123 8 -171 23l16 104c63 -11 117 -18 158 -18c77 0 108 23 108 53c0 87 -275 55 -275 243c0 113 99 167 216 167c52 0 113 -10 163 -29l-24 -99c-40 12 -90 21 -135 21c-63 0 -88 -21 -88 -49c0 -90 273 -59 273 -248
c0 -132 -135 -168 -241 -168z" />
    <glyph glyph-name="scommaaccent" unicode="&#x219;" horiz-adv-x="482" 
d="M314 -59l-43 -213h-94l21 213h116zM209 -12c-50 0 -123 8 -171 23l16 104c63 -11 117 -18 158 -18c77 0 108 23 108 53c0 87 -275 55 -275 243c0 113 99 167 216 167c52 0 113 -10 163 -29l-24 -99c-40 12 -90 21 -135 21c-63 0 -88 -21 -88 -49c0 -90 273 -59 273 -248
c0 -132 -135 -168 -241 -168z" />
    <glyph glyph-name="germandbls" unicode="&#xdf;" horiz-adv-x="638" 
d="M74 -171v717c0 165 101 222 237 222c68 0 213 -27 213 -171c0 -102 -110 -149 -110 -208c0 -90 202 -87 202 -235c0 -127 -115 -166 -199 -166c-59 0 -121 7 -159 21l17 104c42 -10 78 -17 116 -17c50 0 95 12 95 49c0 80 -203 71 -203 238c0 88 100 137 100 207
c0 44 -41 69 -82 69c-74 0 -95 -45 -95 -114v-716h-132z" />
    <glyph glyph-name="germandbls.alt" horiz-adv-x="638" 
d="M74 0v546c0 165 101 222 237 222c68 0 213 -27 213 -171c0 -102 -110 -149 -110 -208c0 -90 202 -87 202 -235c0 -127 -115 -166 -199 -166c-59 0 -121 7 -159 21l17 104c42 -10 78 -17 116 -17c50 0 95 12 95 49c0 80 -203 71 -203 238c0 88 100 137 100 207
c0 44 -41 69 -82 69c-74 0 -95 -45 -95 -114v-545h-132z" />
    <glyph glyph-name="tbar" unicode="&#x167;" horiz-adv-x="452" 
d="M33 273v68h67v103h-80v102h80v112h133v-112h169v-102h-169v-103h124v-68h-124v-103c0 -54 22 -69 75 -69c33 0 75 7 108 16l15 -106c-39 -14 -100 -24 -146 -24c-113 0 -185 43 -185 176v110h-67z" />
    <glyph glyph-name="tcaron" unicode="&#x165;" horiz-adv-x="452" 
d="M442 807l-43 -213h-94l21 213h116zM285 -13c-113 0 -185 43 -185 176v281h-80v102h80v112h133v-112h169v-102h-169v-274c0 -54 22 -69 75 -69c33 0 75 7 108 16l15 -106c-39 -14 -100 -24 -146 -24z" />
    <glyph glyph-name="uni021B" unicode="&#x21b;" horiz-adv-x="452" 
d="M339 -59l-43 -213h-94l21 213h116zM285 -13c-113 0 -185 43 -185 176v281h-80v102h80v112h133v-112h169v-102h-169v-274c0 -54 22 -69 75 -69c33 0 75 7 108 16l15 -106c-39 -14 -100 -24 -146 -24z" />
    <glyph glyph-name="tcommaaccent" unicode="&#x163;" horiz-adv-x="452" 
d="M332 -59l-43 -213h-94l21 213h116zM285 -13c-113 0 -185 43 -185 176v281h-80v102h80v112h133v-112h169v-102h-169v-274c0 -54 22 -69 75 -69c33 0 75 7 108 16l15 -106c-39 -14 -100 -24 -146 -24z" />
    <glyph glyph-name="uni1E6F" unicode="&#x1e6f;" horiz-adv-x="452" 
d="M285 -13c-113 0 -185 43 -185 176v281h-80v102h80v112h133v-112h169v-102h-169v-274c0 -54 22 -69 75 -69c33 0 75 7 108 16l15 -106c-39 -14 -100 -24 -146 -24zM95 -218v105h305v-105h-305z" />
    <glyph glyph-name="uni1E6D" unicode="&#x1e6d;" horiz-adv-x="452" 
d="M244 -249l-94 95l94 94l95 -94zM285 -13c-113 0 -185 43 -185 176v281h-80v102h80v112h133v-112h169v-102h-169v-274c0 -54 22 -69 75 -69c33 0 75 7 108 16l15 -106c-39 -14 -100 -24 -146 -24z" />
    <glyph glyph-name="uni1E97" unicode="&#x1e97;" horiz-adv-x="452" 
d="M59 700l-79 80l79 80l79 -80zM285 700l-80 80l80 80l79 -80zM285 -13c-113 0 -185 43 -185 176v281h-80v102h80v112h133v-112h169v-102h-169v-274c0 -54 22 -69 75 -69c33 0 75 7 108 16l15 -106c-39 -14 -100 -24 -146 -24z" />
    <glyph glyph-name="uni1E6B" unicode="&#x1e6b;" horiz-adv-x="452" 
d="M251 795l-82 -82l-82 82l82 82zM285 -13c-113 0 -185 43 -185 176v281h-80v102h80v112h133v-112h169v-102h-169v-274c0 -54 22 -69 75 -69c33 0 75 7 108 16l15 -106c-39 -14 -100 -24 -146 -24z" />
    <glyph glyph-name="uacute" unicode="&#xfa;" horiz-adv-x="635" 
d="M262 612l-40 80l219 124l47 -94zM235 -12c-152 0 -166 107 -166 215v343h133v-328c0 -79 13 -113 84 -113c60 0 110 23 143 43v398h133v-546h-133v59c-46 -33 -101 -71 -194 -71z" />
    <glyph glyph-name="ugrave" unicode="&#xf9;" horiz-adv-x="635" 
d="M235 -12c-152 0 -166 107 -166 215v343h133v-328c0 -79 13 -113 84 -113c60 0 110 23 143 43v398h133v-546h-133v59c-46 -33 -101 -71 -194 -71zM373 608l-224 111l46 95l220 -125z" />
    <glyph glyph-name="ucircumflex" unicode="&#xfb;" horiz-adv-x="635" 
d="M442 614l-125 88l-129 -88l-58 75l188 123l180 -123zM235 -12c-152 0 -166 107 -166 215v343h133v-328c0 -79 13 -113 84 -113c60 0 110 23 143 43v398h133v-546h-133v59c-46 -33 -101 -71 -194 -71z" />
    <glyph glyph-name="udieresis" unicode="&#xfc;" horiz-adv-x="635" 
d="M206 636l-79 80l79 80l79 -80zM432 636l-80 80l80 80l79 -80zM235 -12c-152 0 -166 107 -166 215v343h133v-328c0 -79 13 -113 84 -113c60 0 110 23 143 43v398h133v-546h-133v59c-46 -33 -101 -71 -194 -71z" />
    <glyph glyph-name="ubreve" unicode="&#x16d;" horiz-adv-x="635" 
d="M235 -12c-152 0 -166 107 -166 215v343h133v-328c0 -79 13 -113 84 -113c60 0 110 23 143 43v398h133v-546h-133v59c-46 -33 -101 -71 -194 -71zM313 626c-97 0 -154 56 -181 101l70 60c33 -34 71 -61 115 -61c46 0 83 27 112 61l66 -59c-28 -43 -85 -102 -182 -102z" />
    <glyph glyph-name="uhungarumlaut" unicode="&#x171;" horiz-adv-x="635" 
d="M235 -12c-152 0 -166 107 -166 215v343h133v-328c0 -79 13 -113 84 -113c60 0 110 23 143 43v398h133v-546h-133v59c-46 -33 -101 -71 -194 -71zM156 602l-57 68l187 166l68 -81zM380 603l-40 78l219 123l48 -93z" />
    <glyph glyph-name="umacron" unicode="&#x16b;" horiz-adv-x="635" 
d="M170 655v105h305v-105h-305zM235 -12c-152 0 -166 107 -166 215v343h133v-328c0 -79 13 -113 84 -113c60 0 110 23 143 43v398h133v-546h-133v59c-46 -33 -101 -71 -194 -71z" />
    <glyph glyph-name="uogonek" unicode="&#x173;" horiz-adv-x="635" 
d="M569 -138l23 -85c-29 -13 -62 -25 -113 -25c-99 0 -140 39 -140 109c0 49 48 100 90 134v64c-37 -26 -106 -73 -184 -73c-165 0 -176 103 -176 215v345h133v-330c0 -79 12 -112 85 -112c57 0 116 30 142 44v398h133v-546c-45 -28 -109 -74 -109 -115c0 -25 21 -35 46 -35
c27 0 50 6 70 12z" />
    <glyph glyph-name="uring" unicode="&#x16f;" horiz-adv-x="635" 
d="M317 597c-65 0 -135 27 -135 115c0 83 67 122 132 122c54 0 135 -27 135 -120c0 -80 -62 -117 -132 -117zM315 656c38 0 59 22 61 57c0 35 -27 57 -61 57c-41 0 -61 -20 -61 -55c0 -36 24 -59 61 -59zM235 -12c-152 0 -166 107 -166 215v343h133v-328
c0 -79 13 -113 84 -113c60 0 110 23 143 43v398h133v-546h-133v59c-46 -33 -101 -71 -194 -71z" />
    <glyph glyph-name="utilde" unicode="&#x169;" horiz-adv-x="635" 
d="M235 -12c-152 0 -166 107 -166 215v343h133v-328c0 -79 13 -113 84 -113c60 0 110 23 143 43v398h133v-546h-133v59c-46 -33 -101 -71 -194 -71zM371 638c-49 0 -86 37 -126 37c-24 0 -42 -4 -70 -27l-51 64c19 21 65 68 130 68c59 0 86 -38 123 -38c32 0 53 11 80 27
l46 -63c-18 -19 -63 -68 -132 -68z" />
    <glyph glyph-name="uhorn" unicode="&#x1b0;" horiz-adv-x="670" 
d="M235 -12c-152 0 -166 107 -166 215v343h133v-328c0 -79 13 -113 84 -113c60 0 110 23 143 43v398h85c42 10 49 36 49 70c0 15 -4 32 -9 48h118c8 -18 11 -45 11 -62c0 -78 -55 -134 -121 -153v-449h-133v59c-46 -33 -101 -71 -194 -71z" />
    <glyph glyph-name="uni1EE7" unicode="&#x1ee7;" horiz-adv-x="635" 
d="M235 -12c-152 0 -166 107 -166 215v343h133v-328c0 -79 13 -113 84 -113c60 0 110 23 143 43v398h133v-546h-133v59c-46 -33 -101 -71 -194 -71zM408 755c0 -74 -58 -119 -106 -138l-50 59c20 9 53 33 53 69c0 27 -21 36 -40 36c-13 0 -26 -3 -37 -9l-10 83
c16 7 44 13 70 13c65 0 120 -44 120 -113z" />
    <glyph glyph-name="uni1EE5" unicode="&#x1ee5;" horiz-adv-x="635" 
d="M425 -154l-94 -95l-95 95l95 94zM235 -12c-152 0 -166 107 -166 215v343h133v-328c0 -79 13 -113 84 -113c60 0 110 23 143 43v398h133v-546h-133v59c-46 -33 -101 -71 -194 -71z" />
    <glyph glyph-name="uni1EEB" unicode="&#x1eeb;" horiz-adv-x="670" 
d="M235 -12c-152 0 -166 107 -166 215v343h133v-328c0 -79 13 -113 84 -113c60 0 110 23 143 43v398h85c42 10 49 36 49 70c0 15 -4 32 -9 48h118c8 -18 11 -45 11 -62c0 -78 -55 -134 -121 -153v-449h-133v59c-46 -33 -101 -71 -194 -71zM397 607l-224 111l46 95l220 -125z
" />
    <glyph glyph-name="uni1EE9" unicode="&#x1ee9;" horiz-adv-x="670" 
d="M235 -12c-152 0 -166 107 -166 215v343h133v-328c0 -79 13 -113 84 -113c60 0 110 23 143 43v398h85c42 10 49 36 49 70c0 15 -4 32 -9 48h118c8 -18 11 -45 11 -62c0 -78 -55 -134 -121 -153v-449h-133v59c-46 -33 -101 -71 -194 -71zM284 608l-40 80l219 124l47 -94z
" />
    <glyph glyph-name="uni1EEF" unicode="&#x1eef;" horiz-adv-x="670" 
d="M235 -12c-152 0 -166 107 -166 215v343h133v-328c0 -79 13 -113 84 -113c60 0 110 23 143 43v398h85c42 10 49 36 49 70c0 15 -4 32 -9 48h118c8 -18 11 -45 11 -62c0 -78 -55 -134 -121 -153v-449h-133v59c-46 -33 -101 -71 -194 -71zM383 638c-49 0 -86 37 -126 37
c-24 0 -42 -4 -70 -27l-51 64c19 21 65 68 130 68c59 0 86 -38 123 -38c32 0 53 11 80 27l46 -63c-18 -19 -63 -68 -132 -68z" />
    <glyph glyph-name="uni1EED" unicode="&#x1eed;" horiz-adv-x="670" 
d="M235 -12c-152 0 -166 107 -166 215v343h133v-328c0 -79 13 -113 84 -113c60 0 110 23 143 43v398h85c42 10 49 36 49 70c0 15 -4 32 -9 48h118c8 -18 11 -45 11 -62c0 -78 -55 -134 -121 -153v-449h-133v59c-46 -33 -101 -71 -194 -71zM417 755c0 -74 -58 -119 -106 -138
l-50 59c20 9 53 33 53 69c0 27 -21 36 -40 36c-13 0 -26 -3 -37 -9l-10 83c16 7 44 13 70 13c65 0 120 -44 120 -113z" />
    <glyph glyph-name="uni1EF1" unicode="&#x1ef1;" horiz-adv-x="670" 
d="M235 -12c-152 0 -166 107 -166 215v343h133v-328c0 -79 13 -113 84 -113c60 0 110 23 143 43v398h85c42 10 49 36 49 70c0 15 -4 32 -9 48h118c8 -18 11 -45 11 -62c0 -78 -55 -134 -121 -153v-449h-133v59c-46 -33 -101 -71 -194 -71zM431 -154l-94 -95l-95 95l95 94z
" />
    <glyph glyph-name="uni01D4" unicode="&#x1d4;" horiz-adv-x="635" 
d="M316 609l-183 124l54 74l130 -88l129 88l58 -75zM235 -12c-152 0 -166 107 -166 215v343h133v-328c0 -79 13 -113 84 -113c60 0 110 23 143 43v398h133v-546h-133v59c-46 -33 -101 -71 -194 -71z" />
    <glyph glyph-name="uni01D6" unicode="&#x1d6;" horiz-adv-x="635" 
d="M206 606l-79 80l79 80l79 -80zM432 606l-80 80l80 80l79 -80zM157 798v105h316v-105h-316zM235 -12c-152 0 -166 107 -166 215v343h133v-328c0 -79 13 -113 84 -113c60 0 110 23 143 43v398h133v-546h-133v59c-46 -33 -101 -71 -194 -71z" />
    <glyph glyph-name="uni01D8" unicode="&#x1d8;" horiz-adv-x="635" 
d="M206 606l-79 80l79 80l79 -80zM432 606l-80 80l80 80l79 -80zM291 758l-40 80l219 124l47 -94zM235 -12c-152 0 -166 107 -166 215v343h133v-328c0 -79 13 -113 84 -113c60 0 110 23 143 43v398h133v-546h-133v59c-46 -33 -101 -71 -194 -71z" />
    <glyph glyph-name="uni01DA" unicode="&#x1da;" horiz-adv-x="635" 
d="M206 606l-79 80l79 80l79 -80zM432 606l-80 80l80 80l79 -80zM235 -12c-152 0 -166 107 -166 215v343h133v-328c0 -79 13 -113 84 -113c60 0 110 23 143 43v398h133v-546h-133v59c-46 -33 -101 -71 -194 -71zM312 753l-181 118l54 75l128 -83l128 83l58 -74z" />
    <glyph glyph-name="uni01DC" unicode="&#x1dc;" horiz-adv-x="635" 
d="M206 606l-79 80l79 80l79 -80zM432 606l-80 80l80 80l79 -80zM235 -12c-152 0 -166 107 -166 215v343h133v-328c0 -79 13 -113 84 -113c60 0 110 23 143 43v398h133v-546h-133v59c-46 -33 -101 -71 -194 -71zM352 749l-224 111l46 95l220 -125z" />
    <glyph glyph-name="uni00760304" horiz-adv-x="567" 
d="M129 655v105h305v-105h-305zM197 0l-190 546h143l101 -326l31 -112l34 113l112 325h139l-206 -546h-164z" />
    <glyph glyph-name="uni1E7F" unicode="&#x1e7f;" horiz-adv-x="567" 
d="M280 -249l-94 95l94 94l95 -94zM197 0l-190 546h143l101 -326l31 -112l34 113l112 325h139l-206 -546h-164z" />
    <glyph glyph-name="uni1E7D" unicode="&#x1e7d;" horiz-adv-x="567" 
d="M197 0l-190 546h143l101 -326l31 -112l34 113l112 325h139l-206 -546h-164zM344 638c-49 0 -86 37 -126 37c-24 0 -42 -4 -70 -27l-51 64c19 21 65 68 130 68c59 0 86 -38 123 -38c32 0 53 11 80 27l46 -63c-18 -19 -63 -68 -132 -68z" />
    <glyph glyph-name="wacute" unicode="&#x1e83;" horiz-adv-x="899" 
d="M386 608l-40 80l219 124l47 -94zM170 0l-151 546h140l97 -440l118 440h161l102 -440l117 440h136l-172 -546h-168l-81 336l-18 85l-20 -84l-92 -337h-169z" />
    <glyph glyph-name="wcircumflex" unicode="&#x175;" horiz-adv-x="899" 
d="M580 614l-125 88l-129 -88l-58 75l188 123l180 -123zM170 0l-151 546h140l97 -440l118 440h161l102 -440l117 440h136l-172 -546h-168l-81 336l-18 85l-20 -84l-92 -337h-169z" />
    <glyph glyph-name="wdieresis" unicode="&#x1e85;" horiz-adv-x="899" 
d="M337 636l-79 80l79 80l79 -80zM563 636l-80 80l80 80l79 -80zM170 0l-151 546h140l97 -440l118 440h161l102 -440l117 440h136l-172 -546h-168l-81 336l-18 85l-20 -84l-92 -337h-169z" />
    <glyph glyph-name="wgrave" unicode="&#x1e81;" horiz-adv-x="899" 
d="M534 608l-224 111l46 95l220 -125zM170 0l-151 546h140l97 -440l118 440h161l102 -440l117 440h136l-172 -546h-168l-81 336l-18 85l-20 -84l-92 -337h-169z" />
    <glyph glyph-name="uni1E87" unicode="&#x1e87;" horiz-adv-x="899" 
d="M170 0l-151 546h140l97 -440l118 440h161l102 -440l117 440h136l-172 -546h-168l-81 336l-18 85l-20 -84l-92 -337h-169zM454 621l-94 95l94 94l95 -94z" />
    <glyph glyph-name="uni1E89" unicode="&#x1e89;" horiz-adv-x="899" 
d="M453 -249l-94 95l94 94l95 -94zM170 0l-151 546h140l97 -440l118 440h161l102 -440l117 440h136l-172 -546h-168l-81 336l-18 85l-20 -84l-92 -337h-169z" />
    <glyph glyph-name="uni00780304" horiz-adv-x="568" 
d="M11 0l197 279l-184 267h154l106 -183l107 183h151l-183 -266l199 -280h-160l-114 195l-116 -195h-157zM129 655v105h305v-105h-305z" />
    <glyph glyph-name="uni1E8B" unicode="&#x1e8b;" horiz-adv-x="568" 
d="M11 0l197 279l-184 267h154l106 -183l107 183h151l-183 -266l199 -280h-160l-114 195l-116 -195h-157zM284 621l-94 95l94 94l95 -94z" />
    <glyph glyph-name="ydieresis" unicode="&#xff;" horiz-adv-x="564" 
d="M172 636l-79 80l79 80l79 -80zM398 636l-80 80l80 80l79 -80zM166 -220l75 220h-52l-183 546h144l103 -349l26 -92l29 91l118 350h135l-267 -766h-128z" />
    <glyph glyph-name="ycircumflex" unicode="&#x177;" horiz-adv-x="564" 
d="M408 614l-125 88l-129 -88l-58 75l188 123l180 -123zM166 -220l75 220h-52l-183 546h144l103 -349l26 -92l29 91l118 350h135l-267 -766h-128z" />
    <glyph glyph-name="uni0233" unicode="&#x233;" horiz-adv-x="564" 
d="M166 -220l75 220h-52l-183 546h144l103 -349l26 -92l29 91l118 350h135l-267 -766h-128zM128 655v105h305v-105h-305z" />
    <glyph glyph-name="ygrave" unicode="&#x1ef3;" horiz-adv-x="564" 
d="M166 -220l75 220h-52l-183 546h144l103 -349l26 -92l29 91l118 350h135l-267 -766h-128zM351 608l-224 111l46 95l220 -125z" />
    <glyph glyph-name="yacute" unicode="&#xfd;" horiz-adv-x="564" 
d="M166 -220l75 220h-52l-183 546h144l103 -349l26 -92l29 91l118 350h135l-267 -766h-128zM229 608l-40 80l219 124l47 -94z" />
    <glyph glyph-name="uni1E8F" unicode="&#x1e8f;" horiz-adv-x="564" 
d="M166 -220l75 220h-52l-183 546h144l103 -349l26 -92l29 91l118 350h135l-267 -766h-128zM284 621l-94 95l94 94l95 -94z" />
    <glyph glyph-name="uni1EF9" unicode="&#x1ef9;" horiz-adv-x="564" 
d="M166 -220l75 220h-52l-183 546h144l103 -349l26 -92l29 91l118 350h135l-267 -766h-128zM340 638c-49 0 -86 37 -126 37c-24 0 -42 -4 -70 -27l-51 64c19 21 65 68 130 68c59 0 86 -38 123 -38c32 0 53 11 80 27l46 -63c-18 -19 -63 -68 -132 -68z" />
    <glyph glyph-name="uni1EF7" unicode="&#x1ef7;" horiz-adv-x="564" 
d="M166 -220l75 220h-52l-183 546h144l103 -349l26 -92l29 91l118 350h135l-267 -766h-128zM391 755c0 -74 -58 -119 -106 -138l-50 59c20 9 53 33 53 69c0 27 -21 36 -40 36c-13 0 -26 -3 -37 -9l-10 83c16 7 44 13 70 13c65 0 120 -44 120 -113z" />
    <glyph glyph-name="uni1EF5" unicode="&#x1ef5;" horiz-adv-x="564" 
d="M166 -220l75 220h-52l-183 546h144l103 -349l26 -92l29 91l118 350h135l-267 -766h-128zM574 -154l-94 -95l-95 95l95 94z" />
    <glyph glyph-name="zacute" unicode="&#x17a;" horiz-adv-x="518" 
d="M182 608l-40 80l219 124l47 -94zM35 0v93l281 344h-261v109h418v-90l-279 -348h283v-108h-442z" />
    <glyph glyph-name="zcaron" unicode="&#x17e;" horiz-adv-x="518" 
d="M253 609l-183 124l54 74l130 -88l129 88l58 -75zM35 0v93l281 344h-261v109h418v-90l-279 -348h283v-108h-442z" />
    <glyph glyph-name="zdotaccent" unicode="&#x17c;" horiz-adv-x="518" 
d="M35 0v93l281 344h-261v109h418v-90l-279 -348h283v-108h-442zM274 621l-94 95l94 94l95 -94z" />
    <glyph glyph-name="uni1E95" unicode="&#x1e95;" horiz-adv-x="518" 
d="M35 0v93l281 344h-261v109h418v-90l-279 -348h283v-108h-442zM103 -218v105h305v-105h-305z" />
    <glyph glyph-name="uni1E93" unicode="&#x1e93;" horiz-adv-x="518" 
d="M255 -249l-94 95l94 94l95 -94zM35 0v93l281 344h-261v109h418v-90l-279 -348h283v-108h-442z" />
    <glyph glyph-name="uni007A0324" horiz-adv-x="518" 
d="M140 -237l-79 80l79 80l79 -80zM372 -237l-80 80l80 80l79 -80zM35 0v93l281 344h-261v109h418v-90l-279 -348h283v-108h-442z" />
    <glyph glyph-name="thorn" unicode="&#xfe;" horiz-adv-x="621" 
d="M74 -220v974h132v-249c27 21 87 53 140 53c147 0 234 -79 234 -263c0 -228 -139 -305 -290 -305c-33 0 -62 3 -84 5v-215h-132zM294 94c98 0 150 81 150 190c0 104 -34 162 -136 162c-37 0 -83 -20 -102 -28v-317c19 -2 47 -7 88 -7z" />
    <glyph glyph-name="uni04D9" unicode="&#x4d9;" horiz-adv-x="571" 
d="M248 559c172 0 281 -61 281 -276c0 -222 -111 -295 -266 -295c-158 0 -223 105 -223 276v48h356c-1 119 -75 140 -172 140c-38 0 -104 -12 -148 -23l-21 101c45 15 118 29 193 29zM392 223h-215c-1 -83 32 -139 98 -139c67 0 112 48 117 139z" />
    <glyph glyph-name="eth" unicode="&#xf0;" horiz-adv-x="632" 
d="M305 -11c-169 0 -264 98 -264 272c0 170 117 280 265 280c39 0 66 -7 95 -22c-22 37 -56 72 -86 97l-74 -59l-44 48l63 49c-25 15 -49 27 -72 38l69 85c27 -10 60 -25 94 -46l73 58l43 -48l-61 -48c94 -79 173 -195 173 -417c0 -180 -106 -287 -274 -287zM312 96
c106 0 132 70 132 169c0 96 -34 170 -141 170c-98 0 -127 -76 -127 -170c0 -101 32 -169 136 -169z" />
    <glyph glyph-name="uni01C6" unicode="&#x1c6;" horiz-adv-x="1142" 
d="M892 609l-183 124l54 74l130 -88l129 88l58 -75zM659 0v93l281 344h-261v109h418v-90l-279 -348h283v-108h-442zM276 -9c-100 0 -235 56 -235 274c0 208 124 295 286 295c27 0 46 -2 83 -9v203h133v-754h-133v44c-30 -24 -64 -53 -134 -53zM301 102c42 0 83 20 109 35
v306c-11 2 -42 11 -81 11c-114 0 -154 -77 -154 -181c0 -127 58 -171 126 -171z" />
    <glyph glyph-name="uni01C9" unicode="&#x1c9;" horiz-adv-x="573" 
d="M292 -225c-35 0 -79 10 -106 22l24 105c23 -8 53 -13 78 -13c58 0 78 32 78 106v551h133v-552c0 -179 -96 -219 -207 -219zM74 0v754h133v-754h-133zM431 621l-94 95l94 94l95 -94z" />
    <glyph glyph-name="uni01CC" unicode="&#x1cc;" horiz-adv-x="931" 
d="M650 -225c-35 0 -79 10 -106 22l24 105c23 -8 53 -13 78 -13c58 0 78 32 78 106v551h133v-552c0 -179 -96 -219 -207 -219zM789 621l-94 95l94 94l95 -94zM74 0v546h133v-58c55 39 107 72 193 72c154 0 168 -106 168 -214v-346h-132v331c0 83 -17 113 -85 113
c-60 0 -107 -22 -144 -43v-401h-133z" />
    <glyph glyph-name="uni01F3" unicode="&#x1f3;" horiz-adv-x="1142" 
d="M659 0v93l281 344h-261v109h418v-90l-279 -348h283v-108h-442zM276 -9c-100 0 -235 56 -235 274c0 208 124 295 286 295c27 0 46 -2 83 -9v203h133v-754h-133v44c-30 -24 -64 -53 -134 -53zM301 102c42 0 83 20 109 35v306c-11 2 -42 11 -81 11
c-114 0 -154 -77 -154 -181c0 -127 58 -171 126 -171z" />
    <glyph glyph-name="uni021D" unicode="&#x21d;" horiz-adv-x="497" 
d="M119 153v94l181 190h-270v109h417v-90l-201 -215c113 -20 215 -85 215 -201c0 -163 -205 -258 -380 -267l-21 103c151 19 265 70 265 159c0 83 -112 115 -206 118z" />
    <glyph glyph-name="uni01EF" unicode="&#x1ef;" horiz-adv-x="497" 
d="M119 153v94l181 190h-270v109h417v-90l-201 -215c113 -20 215 -85 215 -201c0 -163 -205 -258 -380 -267l-21 103c151 19 265 70 265 159c0 83 -112 115 -206 118zM237 608l-183 124l54 74l130 -88l129 88l58 -75z" />
    <glyph glyph-name="uni0138" unicode="&#x138;" horiz-adv-x="576" 
d="M74 0v546h133v-247l186 247h149l-211 -256l92 -105c44 -49 81 -80 137 -95l-18 -101c-68 4 -135 16 -206 105l-129 161v-255h-133z" />
    <glyph glyph-name="uni01DD" unicode="&#x1dd;" horiz-adv-x="571" 
d="M248 559c172 0 281 -61 281 -276c0 -222 -111 -295 -266 -295c-158 0 -223 105 -223 276v48h356c-1 119 -75 140 -172 140c-38 0 -104 -12 -148 -23l-21 101c45 15 118 29 193 29zM392 223h-215c-1 -83 32 -139 98 -139c67 0 112 48 117 139z" />
    <glyph glyph-name="uni0259" unicode="&#x259;" horiz-adv-x="571" 
d="M248 559c172 0 281 -61 281 -276c0 -222 -111 -295 -266 -295c-158 0 -223 105 -223 276v48h356c-1 119 -75 140 -172 140c-38 0 -104 -12 -148 -23l-21 101c45 15 118 29 193 29zM392 223h-215c-1 -83 32 -139 98 -139c67 0 112 48 117 139z" />
    <glyph glyph-name="ae" unicode="&#xe6;" horiz-adv-x="893" 
d="M646 -9c-105 0 -186 23 -235 88c-34 -30 -112 -87 -203 -87c-111 0 -175 53 -175 159c0 139 124 159 225 162c0 0 87 3 108 3v56c0 64 -36 74 -115 74c-52 0 -112 -15 -152 -24l-27 98c49 18 119 39 203 39c73 0 143 -7 184 -54c45 39 104 54 173 54
c156 0 222 -104 222 -271v-44l-357 -10c1 -118 75 -137 173 -137c38 0 104 11 148 20l19 -99c-49 -16 -119 -27 -191 -27zM232 95c38 0 105 22 150 43c-8 25 -13 58 -16 92l-100 -2c-82 -2 -103 -34 -103 -69c0 -46 29 -64 69 -64zM502 324l214 9c2 80 -39 129 -96 129
c-59 0 -116 -39 -118 -138z" />
    <glyph glyph-name="aeacute" unicode="&#x1fd;" horiz-adv-x="893" 
d="M376 608l-40 80l219 124l47 -94zM646 -9c-105 0 -186 23 -235 88c-34 -30 -112 -87 -203 -87c-111 0 -175 53 -175 159c0 139 124 159 225 162c0 0 87 3 108 3v56c0 64 -36 74 -115 74c-52 0 -112 -15 -152 -24l-27 98c49 18 119 39 203 39c73 0 143 -7 184 -54
c45 39 104 54 173 54c156 0 222 -104 222 -271v-44l-357 -10c1 -118 75 -137 173 -137c38 0 104 11 148 20l19 -99c-49 -16 -119 -27 -191 -27zM232 95c38 0 105 22 150 43c-8 25 -13 58 -16 92l-100 -2c-82 -2 -103 -34 -103 -69c0 -46 29 -64 69 -64zM502 324l214 9
c2 80 -39 129 -96 129c-59 0 -116 -39 -118 -138z" />
    <glyph glyph-name="uni01E3" unicode="&#x1e3;" horiz-adv-x="893" 
d="M297 655v105h305v-105h-305zM646 -9c-105 0 -186 23 -235 88c-34 -30 -112 -87 -203 -87c-111 0 -175 53 -175 159c0 139 124 159 225 162c0 0 87 3 108 3v56c0 64 -36 74 -115 74c-52 0 -112 -15 -152 -24l-27 98c49 18 119 39 203 39c73 0 143 -7 184 -54
c45 39 104 54 173 54c156 0 222 -104 222 -271v-44l-357 -10c1 -118 75 -137 173 -137c38 0 104 11 148 20l19 -99c-49 -16 -119 -27 -191 -27zM232 95c38 0 105 22 150 43c-8 25 -13 58 -16 92l-100 -2c-82 -2 -103 -34 -103 -69c0 -46 29 -64 69 -64zM502 324l214 9
c2 80 -39 129 -96 129c-59 0 -116 -39 -118 -138z" />
    <glyph glyph-name="oe" unicode="&#x153;" horiz-adv-x="972" 
d="M304 -12c-169 0 -264 106 -264 280c0 184 110 292 272 292c90 0 156 -28 198 -81c47 57 117 80 200 80c158 0 222 -104 222 -275v-48h-356c1 -111 62 -140 167 -140c37 0 109 11 152 22l22 -105c-45 -14 -118 -23 -193 -23c-97 0 -174 21 -221 80
c-47 -55 -117 -82 -199 -82zM311 95c106 0 132 79 132 178c0 93 -25 181 -134 181c-106 0 -134 -88 -134 -182c0 -101 32 -177 136 -177zM579 325h216c-1 84 -36 140 -100 140c-63 0 -110 -49 -116 -140z" />
    <glyph glyph-name="ij" unicode="&#x133;" horiz-adv-x="567" 
d="M286 -225c-35 0 -79 10 -106 22l24 105c23 -8 53 -13 78 -13c58 0 78 32 78 106v551h133v-552c0 -179 -96 -219 -207 -219zM74 0v546h134v-546h-134zM140 621l-94 95l94 94l95 -94zM428 621l-94 95l94 94l95 -94z" />
    <glyph glyph-name="iacute_jacute" horiz-adv-x="567" 
d="M74 608l-40 80l219 124l47 -94zM380 608l-40 80l219 124l47 -94zM74 0v546h134v-546h-134zM286 -225c-35 0 -79 10 -106 22l24 105c23 -8 53 -13 78 -13c58 0 78 32 78 106v551h133v-552c0 -179 -96 -219 -207 -219z" />
    <glyph glyph-name="i.alt" horiz-adv-x="309" 
d="M190 -11c-71 0 -120 38 -120 137v420h134v-397c0 -34 20 -49 49 -50c7 0 13 0 21 1l7 -100c-22 -7 -52 -11 -91 -11zM141 621l-94 95l94 94l95 -94z" />
    <glyph glyph-name="l.alt" horiz-adv-x="309" 
d="M190 -11c-71 0 -120 38 -120 137v628h134v-605c0 -34 20 -49 49 -50c7 0 13 0 21 1l7 -100c-22 -7 -52 -11 -91 -11z" />
    <glyph glyph-name="iacute.alt" horiz-adv-x="309" 
d="M76 608l-40 80l219 124l47 -94zM190 -11c-71 0 -120 38 -120 137v420h134v-397c0 -34 20 -49 49 -50c7 0 13 0 21 1l7 -100c-22 -7 -52 -11 -91 -11z" />
    <glyph glyph-name="igrave.alt" horiz-adv-x="309" 
d="M190 -11c-71 0 -120 38 -120 137v420h134v-397c0 -34 20 -49 49 -50c7 0 13 0 21 1l7 -100c-22 -7 -52 -11 -91 -11zM193 607l-224 111l46 95l220 -125z" />
    <glyph glyph-name="icircumflex.alt" horiz-adv-x="309" 
d="M268 614l-125 88l-129 -88l-58 75l188 123l180 -123zM190 -11c-71 0 -120 38 -120 137v420h134v-397c0 -34 20 -49 49 -50c7 0 13 0 21 1l7 -100c-22 -7 -52 -11 -91 -11z" />
    <glyph glyph-name="idieresis.alt" horiz-adv-x="309" 
d="M28 636l-79 80l79 80l79 -80zM254 636l-80 80l80 80l79 -80zM190 -11c-71 0 -120 38 -120 137v420h134v-397c0 -34 20 -49 49 -50c7 0 13 0 21 1l7 -100c-22 -7 -52 -11 -91 -11z" />
    <glyph glyph-name="ibreve.alt" horiz-adv-x="309" 
d="M190 -11c-71 0 -120 38 -120 137v420h134v-397c0 -34 20 -49 49 -50c7 0 13 0 21 1l7 -100c-22 -7 -52 -11 -91 -11zM141 625c-97 0 -154 56 -181 101l70 60c33 -34 71 -61 115 -61c46 0 83 27 112 61l66 -59c-28 -43 -85 -102 -182 -102z" />
    <glyph glyph-name="dotlessi.alt" horiz-adv-x="309" 
d="M190 -11c-71 0 -120 38 -120 137v420h134v-397c0 -34 20 -49 49 -50c7 0 13 0 21 1l7 -100c-22 -7 -52 -11 -91 -11z" />
    <glyph glyph-name="imacron.alt" horiz-adv-x="309" 
d="M-14 654v105h305v-105h-305zM190 -11c-71 0 -120 38 -120 137v420h134v-397c0 -34 20 -49 49 -50c7 0 13 0 21 1l7 -100c-22 -7 -52 -11 -91 -11z" />
    <glyph glyph-name="itilde.alt" horiz-adv-x="309" 
d="M190 -11c-71 0 -120 38 -120 137v420h134v-397c0 -34 20 -49 49 -50c7 0 13 0 21 1l7 -100c-22 -7 -52 -11 -91 -11zM195 638c-49 0 -86 37 -126 37c-24 0 -42 -4 -70 -27l-51 64c19 21 65 68 130 68c59 0 86 -38 123 -38c32 0 53 11 80 27l46 -63
c-18 -19 -63 -68 -132 -68z" />
    <glyph glyph-name="uni01D0.alt" horiz-adv-x="309" 
d="M135 608l-183 124l54 74l130 -88l129 88l58 -75zM190 -11c-71 0 -120 38 -120 137v420h134v-397c0 -34 20 -49 49 -50c7 0 13 0 21 1l7 -100c-22 -7 -52 -11 -91 -11z" />
    <glyph glyph-name="uni1EC9.alt" horiz-adv-x="309" 
d="M190 -11c-71 0 -120 38 -120 137v420h134v-397c0 -34 20 -49 49 -50c7 0 13 0 21 1l7 -100c-22 -7 -52 -11 -91 -11zM232 755c0 -74 -58 -119 -106 -138l-50 59c20 9 53 33 53 69c0 27 -21 36 -40 36c-13 0 -26 -3 -37 -9l-10 83c16 7 44 13 70 13c65 0 120 -44 120 -113
z" />
    <glyph glyph-name="uni1ECB.alt" horiz-adv-x="309" 
d="M261 -154l-94 -95l-95 95l95 94zM190 -11c-71 0 -120 38 -120 137v420h134v-397c0 -34 20 -49 49 -50c7 0 13 0 21 1l7 -100c-22 -7 -52 -11 -91 -11zM137 621l-94 95l94 94l95 -94z" />
    <glyph glyph-name="lacute.alt" horiz-adv-x="309" 
d="M190 -11c-71 0 -120 38 -120 137v628h134v-605c0 -34 20 -49 49 -50c7 0 13 0 21 1l7 -100c-22 -7 -52 -11 -91 -11zM73 790l-21 90l251 73l25 -106z" />
    <glyph glyph-name="lcaron.alt" horiz-adv-x="346" 
d="M190 -11c-71 0 -120 38 -120 137v628h134v-605c0 -34 20 -49 49 -50c7 0 13 0 21 1l7 -100c-22 -7 -52 -11 -91 -11zM387 754l-43 -213h-94l21 213h116z" />
    <glyph glyph-name="lcommaaccent.alt" horiz-adv-x="309" 
d="M237 -59l-43 -213h-94l21 213h116zM190 -11c-71 0 -120 38 -120 137v628h134v-605c0 -34 20 -49 49 -50c7 0 13 0 21 1l7 -100c-22 -7 -52 -11 -91 -11z" />
    <glyph glyph-name="ldot.alt" horiz-adv-x="428" 
d="M190 -11c-71 0 -120 38 -120 137v628h134v-605c0 -34 20 -49 49 -50c7 0 13 0 21 1l7 -100c-22 -7 -52 -11 -91 -11zM343 287l-89 90l89 88l88 -88z" />
    <glyph glyph-name="lslash.alt" horiz-adv-x="369" 
d="M226 -11c-71 0 -120 38 -120 137v185l-86 -50l-1 95l87 50v348h134v-271l89 51v-94l-89 -52v-239c0 -34 20 -49 49 -50c7 0 13 0 21 1l7 -100c-22 -7 -52 -11 -91 -11z" />
    <glyph glyph-name="uni1E3B.alt" horiz-adv-x="309" 
d="M190 -11c-71 0 -120 38 -120 137v628h134v-605c0 -34 20 -49 49 -50c7 0 13 0 21 1l7 -100c-22 -7 -52 -11 -91 -11zM-8 -218v105h305v-105h-305z" />
    <glyph glyph-name="uni1E37.alt" horiz-adv-x="309" 
d="M171 -249l-94 95l94 94l95 -94zM190 -11c-71 0 -120 38 -120 137v628h134v-605c0 -34 20 -49 49 -50c7 0 13 0 21 1l7 -100c-22 -7 -52 -11 -91 -11z" />
    <glyph glyph-name="uni1E39.alt" horiz-adv-x="309" 
d="M171 -249l-94 95l94 94l95 -94zM190 -11c-71 0 -120 38 -120 137v628h134v-605c0 -34 20 -49 49 -50c7 0 13 0 21 1l7 -100c-22 -7 -52 -11 -91 -11zM-14 810v105h305v-105h-305z" />
    <glyph glyph-name="comma" unicode="," horiz-adv-x="259" 
d="M33 -130c19 41 28 115 28 163v100h139v-63c0 -81 -20 -150 -52 -200h-115z" />
    <glyph glyph-name="period" unicode="." horiz-adv-x="272" 
d="M61 0v136h151v-136h-151z" />
    <glyph glyph-name="ellipsis" unicode="&#x2026;" horiz-adv-x="845" 
d="M61 0v126h139v-126h-139zM352 0v126h139v-126h-139zM646 0v126h139v-126h-139z" />
    <glyph glyph-name="colon" unicode=":" horiz-adv-x="309" 
d="M79 0v136h151v-136h-151zM79 410v136h151v-136h-151z" />
    <glyph glyph-name="semicolon" unicode=";" horiz-adv-x="308" 
d="M50 -130c26 50 31 111 31 141v122h147v-84c0 -72 -25 -134 -59 -179h-119zM78 410v136h151v-136h-151z" />
    <glyph glyph-name="question" unicode="?" horiz-adv-x="407" 
d="M91 177c-15 32 -22 61 -22 90c0 128 164 179 164 238s-65 87 -188 97l24 111c146 -10 303 -54 303 -202c0 -125 -186 -182 -186 -252c0 -17 3 -39 14 -64zM85 0v124h137v-124h-137z" />
    <glyph glyph-name="questiondown" unicode="&#xbf;" horiz-adv-x="391" 
d="M336 -164c-146 10 -302 53 -302 203c0 124 185 178 185 248c0 15 -4 42 -14 64l109 18c16 -33 23 -63 23 -89c0 -129 -165 -177 -165 -237c0 -57 65 -86 189 -96zM184 422v124h138v-124h-138z" />
    <glyph glyph-name="questiondown.cap" horiz-adv-x="409" 
d="M342 -3c-146 11 -303 53 -303 204c0 124 186 177 186 248c0 14 -5 41 -14 63l109 19c15 -33 22 -64 22 -90c0 -129 -164 -177 -164 -237c0 -56 65 -86 188 -96zM190 583v124h137v-124h-137z" />
    <glyph glyph-name="question.smcp" horiz-adv-x="381" 
d="M340 447c0 -100 -149 -141 -149 -204c0 -20 1 -29 9 -49l-110 -19c-14 32 -17 53 -17 74c0 104 131 147 131 194c0 39 -39 63 -155 75l25 107c133 -10 266 -51 266 -178zM211 0h-138v124h138v-124z" />
    <glyph glyph-name="questiondown.smcp" horiz-adv-x="351" 
d="M27 99c0 100 149 141 149 204c0 20 -2 29 -10 49l110 19c14 -32 17 -53 17 -74c0 -104 -131 -143 -131 -194c0 -48 49 -72 155 -75l-25 -107c-133 10 -265 51 -265 178zM156 546h137v-124h-137v124z" />
    <glyph glyph-name="exclam" unicode="!" horiz-adv-x="317" 
d="M100 202l-8 173v332h133v-332l-7 -173h-118zM89 0v124h138v-124h-138z" />
    <glyph glyph-name="exclamdown" unicode="&#xa1;" horiz-adv-x="288" 
d="M78 -161v332l7 173h118l8 -173v-332h-133zM75 422v124h139v-124h-139z" />
    <glyph glyph-name="exclamdown.cap" horiz-adv-x="311" 
d="M89 0v332l8 173h118l7 -173v-332h-133zM87 583v124h139v-124h-139z" />
    <glyph glyph-name="exclam.smcp" horiz-adv-x="325" 
d="M230 375l-8 -173h-118l-8 173v232h134v-232zM232 0h-139v124h139v-124z" />
    <glyph glyph-name="exclamdown.smcp" horiz-adv-x="291" 
d="M79 172l7 173h118l9 -173v-233h-134v233zM76 546h139v-124h-139v124z" />
    <glyph glyph-name="uni203D" unicode="&#x203d;" horiz-adv-x="412" 
d="M99 202l-2 173v135h105v-106c33 31 59 61 59 103c0 63 -79 94 -213 95l24 111c155 -5 303 -54 303 -202c0 -107 -118 -177 -173 -216l1 -93h-104zM84 0v124h138v-124h-138z" />
    <glyph glyph-name="uni203D.smcp" horiz-adv-x="403" 
d="M103 202l-8 123v130h106v-90c26 23 44 43 44 73c0 47 -55 75 -178 85l21 101c146 -10 267 -54 267 -174c0 -103 -103 -146 -158 -178l-4 -70h-90zM81 0v124h138v-124h-138z" />
    <glyph glyph-name="hyphen" unicode="-" horiz-adv-x="454" 
d="M78 232v109h298v-109h-298z" />
    <glyph glyph-name="hyphen.cap" horiz-adv-x="449" 
d="M75 299v108h298v-108h-298z" />
    <glyph glyph-name="endash" unicode="&#x2013;" horiz-adv-x="628" 
d="M78 239v95h472v-95h-472z" />
    <glyph glyph-name="endash.cap" horiz-adv-x="623" 
d="M75 306v94h472v-94h-472z" />
    <glyph glyph-name="emdash" unicode="&#x2014;" horiz-adv-x="953" 
d="M78 239v95h797v-95h-797z" />
    <glyph glyph-name="emdash.cap" horiz-adv-x="941" 
d="M75 306v94h791v-94h-791z" />
    <glyph glyph-name="underscore" unicode="_" horiz-adv-x="596" 
d="M43 -186v109h511v-109h-511z" />
    <glyph glyph-name="at" unicode="@" horiz-adv-x="808" 
d="M382 -73c-202 0 -337 102 -337 340c0 312 202 450 438 450c174 0 286 -90 286 -295c0 -183 -109 -285 -240 -285c-58 0 -91 31 -93 64c-20 -28 -65 -55 -95 -55c-67 0 -113 29 -113 136c0 121 79 214 205 214c39 0 78 -4 131 -25l-24 -201c-2 -19 -1 -40 20 -40
c37 0 107 60 107 193c0 144 -78 206 -190 206c-178 0 -328 -102 -328 -356c0 -178 100 -252 242 -252c49 0 115 8 165 18l13 -85c-75 -23 -116 -27 -187 -27zM371 242c32 0 48 16 61 26l19 146c-4 0 -11 1 -16 1c-57 0 -92 -49 -92 -122c0 -29 5 -51 28 -51z" />
    <glyph glyph-name="ampersand" unicode="&#x26;" horiz-adv-x="706" 
d="M248 -11c-109 0 -211 48 -211 181c0 88 64 154 141 201c-31 56 -48 105 -48 161c0 77 61 182 200 182c128 0 177 -80 177 -159c0 -98 -86 -156 -193 -206c80 -135 238 -228 389 -250l-15 -105c-86 5 -175 32 -248 72c-49 -44 -106 -77 -192 -77zM260 89
c41 0 73 13 101 34c-59 45 -106 101 -139 159c-36 -26 -60 -63 -60 -105c0 -60 45 -88 98 -88zM273 425c59 29 120 74 120 120c0 43 -28 71 -71 71c-42 0 -77 -28 -77 -78c0 -36 10 -76 28 -113z" />
    <glyph glyph-name="ampersand.alt" horiz-adv-x="717" 
d="M570 374l81 -59c-33 -63 -69 -120 -108 -169c54 -28 109 -49 163 -57l-19 -98c-69 4 -148 32 -224 75c-61 -49 -131 -78 -215 -78c-129 0 -207 57 -207 170c0 84 56 142 123 191c-33 56 -52 113 -52 167c0 96 63 201 201 201c129 0 182 -93 182 -171
c0 -100 -95 -159 -183 -214c39 -48 89 -94 144 -133c42 47 81 106 114 175zM227 520c0 -34 11 -72 32 -110c68 42 125 83 125 136c0 39 -31 71 -78 71c-44 0 -79 -27 -79 -97zM255 89c39 0 78 13 116 37c-56 42 -108 91 -151 143c-35 -29 -59 -60 -59 -99
c0 -53 41 -81 94 -81z" />
    <glyph glyph-name="ampersand.smcp" horiz-adv-x="757" 
d="M305 -11c-167 0 -266 106 -266 279c0 182 114 291 275 291c68 0 109 -9 152 -30l-39 -89c-40 16 -73 21 -116 21c-108 0 -143 -94 -143 -189c0 -102 38 -180 145 -180c97 0 134 68 140 153h-173v100h324c29 0 63 9 83 36l66 -65c-24 -44 -61 -70 -136 -71h-35
c-6 -134 -94 -256 -277 -256z" />
    <glyph glyph-name="slash" unicode="/" horiz-adv-x="444" 
d="M46 -62l233 830h118l-232 -830h-119z" />
    <glyph glyph-name="slash.smcp" horiz-adv-x="380" 
d="M44 -62l190 678h118l-189 -678h-119z" />
    <glyph glyph-name="backslash" unicode="\" horiz-adv-x="444" 
d="M279 -62l-233 830h119l233 -830h-119z" />
    <glyph glyph-name="backslash.smcp" horiz-adv-x="379" 
d="M217 -62l-190 678h119l190 -678h-119z" />
    <glyph glyph-name="bar" unicode="|" horiz-adv-x="266" 
d="M73 -220v974h120v-974h-120z" />
    <glyph glyph-name="parenleft" unicode="(" horiz-adv-x="363" 
d="M337 -150l-64 -70c-134 99 -238 266 -238 497c0 222 103 392 237 482l68 -67c-108 -93 -183 -228 -183 -414c0 -169 67 -323 180 -428z" />
    <glyph glyph-name="parenleft.cap" horiz-adv-x="359" 
d="M340 -81l-64 -70c-134 99 -238 266 -238 497c0 222 103 392 237 482l68 -67c-108 -93 -183 -228 -183 -414c0 -169 67 -323 180 -428z" />
    <glyph glyph-name="parenright" unicode=")" horiz-adv-x="363" 
d="M90 -220l-64 70c113 105 180 259 180 428c0 186 -75 321 -183 414l68 67c134 -90 237 -260 237 -482c0 -231 -104 -398 -238 -497z" />
    <glyph glyph-name="parenright.cap" horiz-adv-x="350" 
d="M75 -151l-64 70c113 105 180 259 180 428c0 186 -75 321 -183 414l68 67c134 -90 237 -260 237 -482c0 -231 -104 -398 -238 -497z" />
    <glyph glyph-name="bracketleft" unicode="[" horiz-adv-x="336" 
d="M73 -220v974h234v-104h-107v-766h107v-104h-234z" />
    <glyph glyph-name="bracketleft.cap" horiz-adv-x="336" 
d="M73 -132v974h234v-104h-107v-766h107v-104h-234z" />
    <glyph glyph-name="bracketright" unicode="]" horiz-adv-x="336" 
d="M29 -220v104h107v766h-107v104h234v-974h-234z" />
    <glyph glyph-name="bracketright.cap" horiz-adv-x="336" 
d="M29 -132v104h107v766h-107v104h234v-974h-234z" />
    <glyph glyph-name="braceleft" unicode="{" horiz-adv-x="347" 
d="M291 -222c-122 0 -205 34 -205 153c0 9 1 19 2 29l21 192c3 28 -19 68 -79 68v106c60 0 82 39 79 67l-21 196c-1 11 -2 22 -2 31c2 113 83 150 205 150h44v-112h-40c-59 0 -84 -33 -79 -80l21 -176c9 -72 -21 -109 -68 -127v-2c47 -21 77 -57 68 -128l-21 -176
c-5 -45 18 -79 79 -79h40v-112h-44z" />
    <glyph glyph-name="braceleft.cap" horiz-adv-x="367" 
d="M293 -142c-122 0 -205 34 -205 153c0 9 1 19 2 29l21 192c3 28 -19 68 -79 68v106c60 0 82 39 79 67l-21 196c-1 11 -2 22 -2 31c2 113 83 150 205 150h44v-112h-40c-59 0 -84 -33 -79 -80l21 -176c9 -72 -21 -109 -68 -127v-2c47 -21 77 -57 68 -128l-21 -176
c-5 -45 18 -79 79 -79h40v-112h-44z" />
    <glyph glyph-name="braceright" unicode="}" horiz-adv-x="347" 
d="M56 -222h-45v112h41c61 0 84 34 79 79l-21 176c-9 71 21 107 68 128v2c-47 18 -77 55 -68 127l21 176c5 47 -20 80 -79 80h-41v112h45c122 0 202 -37 205 -150c0 -9 -1 -20 -2 -31l-21 -196c-3 -28 19 -67 79 -67v-106c-61 0 -82 -40 -79 -68l21 -192c1 -10 2 -20 2 -29
c0 -119 -83 -153 -205 -153z" />
    <glyph glyph-name="braceright.cap" horiz-adv-x="367" 
d="M72 -140h-45v112h41c61 0 84 34 79 79l-21 176c-9 71 21 107 68 128v2c-47 18 -77 55 -68 127l21 176c5 47 -20 80 -79 80h-41v112h45c122 0 202 -37 205 -150c0 -9 -1 -20 -2 -31l-21 -196c-3 -28 19 -67 79 -67v-106c-61 0 -82 -40 -79 -68l21 -192c1 -10 2 -20 2 -29
c0 -119 -83 -153 -205 -153z" />
    <glyph glyph-name="uni301A" unicode="&#x301a;" horiz-adv-x="537" 
d="M73 -220v974h435v-104h-107v-766h107v-104h-435zM193 650v-766h88v766h-88z" />
    <glyph glyph-name="uni301B" unicode="&#x301b;" horiz-adv-x="537" 
d="M464 754v-974h-435v104h107v766h-107v104h435zM344 -116v766h-88v-766h88z" />
    <glyph glyph-name="uni301A.cap" horiz-adv-x="573" 
d="M73 -132v974h435v-104h-107v-766h107v-104h-435zM193 738v-766h88v766h-88z" />
    <glyph glyph-name="uni301B.cap" horiz-adv-x="537" 
d="M464 842v-974h-435v104h107v766h-107v104h435zM344 -28v766h-88v-766h88z" />
    <glyph glyph-name="dblparenleft" horiz-adv-x="555" 
d="M337 -150l-64 -70c-134 99 -238 266 -238 497c0 222 103 392 237 482l68 -67c-108 -93 -190 -228 -190 -414c0 -169 74 -323 187 -428zM540 -106l-64 -71c-134 100 -223 259 -223 454c0 187 88 345 217 441l68 -67c-108 -93 -171 -202 -171 -373c0 -163 60 -279 173 -384
z" />
    <glyph glyph-name="dblparenleft.cap" horiz-adv-x="560" 
d="M340 -81l-64 -70c-134 99 -238 266 -238 497c0 222 103 392 237 482l68 -67c-108 -93 -190 -228 -190 -414c0 -169 74 -323 187 -428zM543 -37l-64 -71c-134 100 -223 259 -223 454c0 187 88 345 217 441l68 -67c-108 -93 -171 -202 -171 -373c0 -163 60 -279 173 -384z
" />
    <glyph glyph-name="dblparenright" horiz-adv-x="553" 
d="M280 -220l-64 70c113 105 187 259 187 428c0 186 -82 321 -190 414l68 67c134 -90 236 -260 236 -482c0 -231 -103 -398 -237 -497zM77 -177l-64 71c113 105 173 221 173 384c0 171 -63 280 -172 373l68 67c129 -96 218 -254 218 -441c0 -195 -89 -354 -223 -454z" />
    <glyph glyph-name="dblparenright.cap" horiz-adv-x="554" 
d="M278 -151l-64 70c113 105 187 259 187 428c0 186 -82 321 -190 414l68 67c134 -90 236 -260 236 -482c0 -231 -103 -398 -237 -497zM75 -108l-64 71c113 105 173 221 173 384c0 171 -63 280 -172 373l68 67c129 -96 218 -254 218 -441c0 -195 -89 -354 -223 -454z" />
    <glyph glyph-name="asciicircum" unicode="^" horiz-adv-x="544" 
d="M34 294l168 413h153l157 -413h-130l-105 313l-116 -313h-127z" />
    <glyph glyph-name="asciitilde" unicode="~" horiz-adv-x="564" 
d="M376 257c-93 0 -135 60 -196 60c-31 0 -56 -12 -80 -32l-62 84c38 43 90 81 148 81c94 0 123 -61 191 -61c23 0 47 -2 88 33l62 -78c-31 -46 -97 -87 -151 -87z" />
    <glyph glyph-name="degree" unicode="&#xb0;" horiz-adv-x="393" 
d="M195 403c-101 0 -158 56 -158 158c0 96 71 156 161 156c94 0 160 -59 160 -156c0 -98 -71 -158 -163 -158zM197 487c38 0 60 21 60 74c0 48 -23 72 -60 72c-39 0 -61 -23 -61 -72c0 -50 24 -74 61 -74z" />
    <glyph glyph-name="section" unicode="&#xa7;" horiz-adv-x="701" 
d="M177 -88c-43 0 -91 15 -121 40l36 98s47 -34 84 -34c34 0 40 51 40 77c0 37 -7 76 -13 113l-11 56c-6 32 -10 65 -10 98c0 166 146 272 317 272c51 0 115 -13 162 -55c0 0 -48 -78 -56 -86c-23 20 -65 39 -104 39c-37 0 -46 -29 -46 -58c0 -27 4 -56 10 -78l12 -47
c14 -62 20 -125 20 -168c0 -153 -146 -267 -320 -267zM314 26c30 27 69 73 69 143c0 33 -5 66 -11 99l-17 80c-4 27 -7 57 -7 88c0 24 2 51 9 78c-47 -33 -59 -97 -59 -139c-1 -30 3 -66 8 -89l16 -82c6 -24 9 -56 9 -84c0 -34 -7 -56 -17 -94z" />
    <glyph glyph-name="section.pln" horiz-adv-x="585" 
d="M138 -219c-44 0 -92 15 -122 40l36 98s47 -34 84 -34c34 0 41 51 41 77c0 37 -7 76 -14 113l-67 316c-6 32 -10 65 -10 98c0 166 146 272 317 272c51 0 115 -14 162 -55c0 0 -48 -78 -56 -86c-23 19 -64 39 -104 39c-36 0 -46 -29 -46 -58c0 -27 5 -57 9 -79l69 -306
c12 -62 20 -125 20 -168c0 -154 -146 -267 -319 -267zM274 -105c30 27 69 73 69 143c0 33 -5 66 -11 99l-72 340c-5 26 -8 57 -8 88c0 24 2 51 9 78c-47 -34 -59 -97 -59 -139c-1 -30 4 -67 8 -89l72 -342c4 -23 9 -56 9 -84c0 -34 -7 -56 -17 -94z" />
    <glyph glyph-name="bullet" unicode="&#x2022;" horiz-adv-x="372" 
d="M186 208c-80 0 -145 63 -145 144c0 82 65 145 145 145s145 -63 145 -145c0 -81 -65 -144 -145 -144z" />
    <glyph glyph-name="paragraph" unicode="&#xb6;" horiz-adv-x="610" 
d="M329 -224c-37 0 -75 7 -103 17l24 112c24 -6 53 -12 81 -12c57 0 76 28 76 101v713h133v-714c0 -166 -95 -217 -211 -217zM229 243c-135 0 -203 85 -203 235c0 190 115 228 258 229h59v-464h-114z" />
    <glyph glyph-name="numbersign" unicode="#" horiz-adv-x="664" 
d="M125 0l6 121h-86v105h93l6 104h-99v105h108l6 127h125l-7 -127h135l7 127h124l-7 -127h83v-105h-91l-6 -104h97v-105h-103l-7 -121h-125l7 121h-135l-7 -121h-124zM262 226h136l6 104h-135z" />
    <glyph glyph-name="numbersign.pln" horiz-adv-x="692" 
d="M636 149h-110l-9 -149h-127l9 149h-130l-9 -149h-127l9 149h-86v108h93l11 181h-104v108h113l9 161h128l-10 -161h129l10 161h127l-10 -161h84v-108h-91l-13 -181h104v-108zM417 438h-129l-12 -181h130z" />
    <glyph glyph-name="percent" unicode="%" horiz-adv-x="837" 
d="M211 365c-92 0 -173 47 -173 169c0 115 83 180 176 180s177 -43 177 -172c0 -114 -83 -177 -180 -177zM211 458c39 0 68 27 68 84c0 54 -22 80 -65 80c-32 0 -63 -21 -63 -88c0 -55 21 -76 60 -76zM617 -10c-92 0 -173 46 -173 168c0 115 83 180 176 180
s177 -43 177 -172c0 -114 -83 -176 -180 -176zM617 83c39 0 68 26 68 83c0 54 -22 80 -65 80c-32 0 -64 -21 -64 -88c0 -55 21 -75 61 -75zM164 45l-70 73l564 532l70 -73z" />
    <glyph glyph-name="perthousand" unicode="&#x2030;" horiz-adv-x="1228" 
d="M211 365c-92 0 -173 47 -173 169c0 115 83 180 176 180s177 -43 177 -172c0 -114 -83 -177 -180 -177zM211 458c39 0 68 27 68 84c0 54 -22 80 -65 80c-32 0 -63 -21 -63 -88c0 -55 21 -76 60 -76zM617 -10c-92 0 -173 46 -173 168c0 115 83 180 176 180
s177 -43 177 -172c0 -114 -83 -176 -180 -176zM617 83c39 0 68 26 68 83c0 54 -22 80 -65 80c-32 0 -64 -21 -64 -88c0 -55 21 -75 61 -75zM1009 -10c-93 0 -174 46 -174 168c0 115 83 180 177 180c92 0 177 -43 177 -172c0 -114 -84 -176 -180 -176zM1009 83
c38 0 68 26 68 83c0 54 -23 80 -65 80c-32 0 -64 -21 -64 -88c0 -55 21 -75 61 -75zM164 45l-70 73l564 532l70 -73z" />
    <glyph glyph-name="ordfeminine" unicode="&#xaa;" horiz-adv-x="420" 
d="M163 388c-66 0 -105 31 -105 94c0 80 74 94 133 94l57 1v27c0 31 -15 36 -60 36c-29 0 -60 -7 -91 -15l-18 65c33 12 73 24 123 24c64 0 131 -8 131 -93v-149c0 -13 11 -14 29 -15l-4 -66c-37 -2 -89 1 -101 31c-23 -16 -57 -34 -94 -34zM175 457c20 0 57 14 73 18v46
l-53 -2c-24 -1 -52 -6 -52 -31c0 -22 11 -31 32 -31zM59 289v68h306v-68h-306z" />
    <glyph glyph-name="ordfeminine.smcp" horiz-adv-x="447" 
d="M57 394l127 316h95l110 -316h-82l-27 82h-112l-31 -82h-80zM52 288v70h344v-70h-344zM191 534h69l-32 105z" />
    <glyph glyph-name="ordmasculine" unicode="&#xba;" horiz-adv-x="430" 
d="M212 383c-102 0 -158 63 -158 163c0 107 65 170 163 170c110 0 160 -62 160 -167c0 -108 -70 -166 -165 -166zM216 455c56 0 70 39 70 94c0 52 -14 95 -71 95c-55 0 -71 -43 -71 -96c0 -55 17 -93 72 -93zM62 289v68h305v-68h-305z" />
    <glyph glyph-name="dagger" unicode="&#x2020;" horiz-adv-x="527" 
d="M194 0l9 482l-169 -8v121l168 -8l-9 167h141l-9 -167l168 8v-121l-169 8l8 -482h-138z" />
    <glyph glyph-name="daggerdbl" unicode="&#x2021;" horiz-adv-x="563" 
d="M212 0l9 166l-169 -7v121l169 -7v209l-169 -8v121l167 -8l-8 167h140l-8 -167l168 8v-121l-169 8v-209l169 7v-121l-169 7l9 -166h-139z" />
    <glyph glyph-name="quotesingle" unicode="'" horiz-adv-x="215" 
d="M56 515l-8 239h120l-9 -239h-103z" />
    <glyph glyph-name="quotedbl" unicode="&#x22;" horiz-adv-x="396" 
d="M56 515l-8 239h113l-9 -239h-96zM244 515l-8 239h113l-9 -239h-96z" />
    <glyph glyph-name="quotedblleft" unicode="&#x201c;" horiz-adv-x="393" 
d="M49 511v76c0 69 22 125 55 168h85c-25 -47 -31 -103 -31 -129v-115h-109zM229 511v76c0 69 22 125 54 168h85c-24 -47 -30 -103 -30 -129v-115h-109z" />
    <glyph glyph-name="quotedblleft.smcp" horiz-adv-x="408" 
d="M50 507c0 69 22 125 54 168h89c-25 -47 -31 -103 -31 -129v-115h-112v76zM229 507c0 69 23 125 55 168h88c-24 -47 -30 -103 -30 -129v-115h-113v76z" />
    <glyph glyph-name="quotedblright" unicode="&#x201d;" horiz-adv-x="395" 
d="M38 511c24 47 30 103 30 130v114h109v-76c0 -68 -22 -125 -54 -168h-85zM218 511c24 47 30 103 30 130v114h109v-76c0 -68 -22 -125 -55 -168h-84z" />
    <glyph glyph-name="quotedblright.smcp" horiz-adv-x="406" 
d="M362 599c0 -68 -22 -125 -54 -168h-88c24 47 30 103 30 130v114h112v-76zM183 599c0 -68 -22 -125 -54 -168h-89c24 47 30 103 30 130v114h113v-76z" />
    <glyph glyph-name="quoteleft" unicode="&#x2018;" horiz-adv-x="213" 
d="M49 511v76c0 69 22 125 54 168h85c-25 -47 -30 -103 -30 -129v-115h-109z" />
    <glyph glyph-name="quoteleft.smcp" horiz-adv-x="228" 
d="M50 507c0 69 22 125 54 168h89c-25 -47 -31 -103 -31 -129v-115h-112v76z" />
    <glyph glyph-name="quoteright" unicode="&#x2019;" horiz-adv-x="214" 
d="M38 511c24 47 30 103 30 130v114h109v-76c0 -68 -23 -125 -55 -168h-84z" />
    <glyph glyph-name="quoteright.smcp" horiz-adv-x="227" 
d="M183 599c0 -68 -22 -125 -54 -168h-89c24 47 30 103 30 130v114h113v-76z" />
    <glyph glyph-name="quotesinglbase" unicode="&#x201a;" horiz-adv-x="229" 
d="M30 -122c24 47 29 104 29 130v114h111v-76c0 -69 -23 -125 -55 -168h-85z" />
    <glyph glyph-name="quotedblbase" unicode="&#x201e;" horiz-adv-x="397" 
d="M30 -122c24 47 29 104 29 130v114h106v-76c0 -69 -22 -125 -54 -168h-81zM201 -122c25 47 31 104 31 130v114h105v-76c0 -69 -22 -125 -54 -168h-82z" />
    <glyph glyph-name="guilsinglleft" unicode="&#x2039;" horiz-adv-x="284" 
d="M155 46l-120 226l119 224l86 -34l-89 -190l88 -185z" />
    <glyph glyph-name="guilsinglright.cap" horiz-adv-x="285" 
d="M129 127l-84 42l88 184l-90 190l86 34l120 -224z" />
    <glyph glyph-name="guilsinglright" unicode="&#x203a;" horiz-adv-x="284" 
d="M129 46l-84 42l88 184l-90 190l86 34l120 -224z" />
    <glyph glyph-name="guilsinglleft.cap" horiz-adv-x="285" 
d="M155 124l-120 226l119 224l86 -34l-89 -190l88 -185z" />
    <glyph glyph-name="guillemotleft" unicode="&#xab;" horiz-adv-x="488" 
d="M155 46l-120 226l119 224l86 -34l-89 -190l88 -185zM359 46l-120 226l119 224l86 -34l-89 -190l88 -185z" />
    <glyph glyph-name="guillemotleft.cap" horiz-adv-x="489" 
d="M155 126l-120 226l119 224l86 -34l-89 -190l88 -185zM359 126l-120 226l119 224l86 -34l-89 -190l88 -185z" />
    <glyph glyph-name="guillemotright" unicode="&#xbb;" horiz-adv-x="487" 
d="M129 46l-84 41l88 185l-90 190l86 34l120 -224zM333 46l-84 41l88 185l-90 190l86 34l119 -224z" />
    <glyph glyph-name="guillemotright.cap" horiz-adv-x="488" 
d="M129 127l-84 41l88 185l-90 190l86 34l120 -224zM333 127l-84 41l88 185l-90 190l86 34l119 -224z" />
    <glyph glyph-name="asterisk" unicode="*" horiz-adv-x="428" 
d="M81 453l-47 84l122 37l20 -36zM157 591l-123 41l48 84l95 -88zM164 405l30 123h40l27 -123h-97zM193 638l-26 123h96l-27 -123h-43zM348 450l-96 87l21 37l122 -40zM272 592l-20 36l95 86l47 -84z" />
    <glyph glyph-name="asterisk.alt" horiz-adv-x="330" 
d="M296 698l-80 -57l31 -96l-80 60l-81 -60l30 96l-79 57l99 1l31 93l30 -93z" />
    <glyph glyph-name="periodcentered" unicode="&#xb7;" horiz-adv-x="251" 
d="M126 287l-89 90l89 88l88 -88z" />
    <glyph glyph-name="f_i" horiz-adv-x="662" 
d="M107 -171v621h-80v96h80v30c0 158 98 204 211 204c42 0 85 -5 131 -6c34 0 86 2 120 6l20 -101c-48 -16 -108 -21 -147 -21c-42 0 -77 5 -125 5c-56 0 -77 -23 -77 -88v-29h348v-545h-134v449h-215v-621h-132z" />
    <glyph glyph-name="f_l" horiz-adv-x="662" 
d="M107 -171v621h-80v96h80v29c0 154 98 204 211 204c42 0 85 -6 131 -6c44 -1 96 4 139 9v-782h-134v658c-45 -1 -81 5 -137 5s-77 -26 -77 -86v-31h117v-96h-118v-621h-132z" />
    <glyph glyph-name="f_i.alt" horiz-adv-x="662" 
d="M107 0v450h-80v96h80v30c0 158 98 204 211 204c42 0 85 -5 131 -6c34 0 86 2 120 6l20 -101c-48 -16 -108 -21 -147 -21c-42 0 -77 5 -125 5c-56 0 -77 -23 -77 -88v-29h348v-546h-134v450h-215v-450h-132z" />
    <glyph glyph-name="f_l.alt" horiz-adv-x="662" 
d="M107 0v450h-80v96h80v29c0 154 98 204 211 204c42 0 85 -6 131 -6c44 -1 96 4 139 9v-782h-134v658c-45 -1 -81 5 -137 5s-77 -26 -77 -86v-31h117v-96h-118v-450h-132z" />
    <glyph glyph-name="f_h.alt" horiz-adv-x="1018" 
d="M107 0v452h-80v94h80v29c0 158 98 207 211 207c42 0 84 -6 131 -7c44 -1 96 4 139 9v-294c36 25 101 71 183 71c167 0 179 -102 179 -214v-347h-133v332c0 79 -16 113 -88 113c-56 0 -115 -32 -141 -46v-399h-134v660c-45 -1 -82 6 -138 6c-55 0 -76 -27 -76 -92v-28h116
v-94h-117v-452h-132z" />
    <glyph glyph-name="f_b.alt" horiz-adv-x="1003" 
d="M672 -10c-116 0 -170 17 -217 32v636c-45 -1 -82 5 -138 5s-77 -26 -77 -86v-31h117v-96h-118v-450h-132v450h-80v96h80v29c0 154 98 204 211 204c42 0 85 -6 131 -6c44 -1 96 4 139 9v-252c29 19 91 28 126 28c156 0 247 -76 247 -258c0 -233 -139 -310 -289 -310z
M690 457c-39 0 -72 -10 -102 -22v-328c21 -5 48 -12 87 -12c98 0 150 88 150 198c0 107 -30 164 -135 164z" />
    <glyph glyph-name="f_j.alt" horiz-adv-x="662" 
d="M376 -227c-38 0 -66 9 -93 18l25 107c12 -4 35 -8 71 -8c57 0 75 28 75 100v462h-215v-452h-132v452h-80v94h80v27c0 159 98 208 211 208c42 0 84 -6 131 -6c33 0 86 2 119 6l21 -101c-49 -17 -108 -21 -147 -21c-43 0 -77 5 -126 5c-55 0 -76 -27 -76 -91v-27h348v-555
c0 -179 -96 -218 -212 -218z" />
    <glyph glyph-name="f_k.alt" horiz-adv-x="956" 
d="M921 -11c-68 3 -135 13 -206 105l-127 164v-258h-134v660c-45 -1 -82 6 -138 6c-55 0 -76 -27 -76 -92v-28h116v-94h-117v-452h-132v452h-80v94h80v29c0 158 98 207 211 207c42 0 84 -6 131 -7c44 -1 97 4 139 9v-475l190 237h146l-212 -253l91 -108
c42 -50 82 -81 135 -95z" />
    <glyph glyph-name="f_f.alt" horiz-adv-x="721" 
d="M107 0v451h-80v95h80v36c0 163 112 198 221 198c81 0 156 -19 195 -33c39 28 91 33 143 33c38 0 98 -10 128 -20l-26 -104s-51 10 -97 10c-57 0 -83 -28 -83 -84v-36h118v-95h-118v-451h-133v451h-215v-451h-133zM240 546h215v43c0 22 2 42 8 60c-37 10 -81 17 -138 17
c-56 0 -85 -26 -85 -84v-36z" />
    <glyph glyph-name="f_f_i.alt" horiz-adv-x="1010" 
d="M107 0v450h-80v96h80v36c0 161 106 198 216 198c86 0 169 -21 205 -35c35 24 81 37 138 37c42 0 85 -5 131 -6c33 0 86 2 119 6l21 -101c-49 -16 -107 -21 -146 -21c-43 0 -78 6 -127 6c-55 0 -75 -27 -75 -92v-28h348v-546h-134v450h-214v-450h-134v450h-214v-450h-134z
M241 546h215v29c0 30 2 53 9 74c-38 9 -86 17 -140 17c-56 0 -84 -26 -84 -84v-36z" />
    <glyph glyph-name="f_f_l.alt" horiz-adv-x="1006" 
d="M107 0v451h-80v95h80v36c0 163 112 198 221 198c81 0 160 -20 200 -35c37 26 86 37 137 37c42 0 85 -6 132 -7c45 -1 93 4 135 9v-784h-133v660c-44 0 -80 6 -135 6s-76 -27 -76 -91v-29h116v-95h-116v-451h-133v451h-214v-451h-134zM241 546h214v29c0 28 3 53 9 73
c-39 11 -83 18 -139 18s-84 -26 -84 -84v-36z" />
    <glyph glyph-name="f_f_j.alt" horiz-adv-x="1010" 
d="M729 -220c-35 0 -67 6 -93 16l25 104c3 -1 40 -7 65 -7c57 0 76 30 77 101v456h-214v-450h-134v450h-214v-450h-134v450h-80v96h80v36c0 161 106 198 216 198c86 0 169 -21 205 -35c35 24 81 37 138 37c42 0 85 -5 131 -6c33 0 86 2 119 6l21 -101
c-49 -16 -107 -21 -146 -21c-43 0 -78 6 -127 6c-55 0 -75 -27 -75 -92v-28h348l-1 -552c-1 -178 -97 -214 -207 -214zM241 546h215v29c0 30 2 53 9 74c-38 9 -86 17 -140 17c-56 0 -84 -26 -84 -84v-36z" />
    <glyph glyph-name="f_idieresis.alt" horiz-adv-x="669" 
d="M107 0v450h-80v96h80v41c0 137 76 181 179 181c35 0 61 -6 84 -14l-21 -100c-12 5 -30 9 -53 9c-37 0 -56 -22 -56 -70v-47h113v-96h-113v-450h-133zM462 0v546h134v-546h-134zM453 621l-78 80l78 80l78 -80zM644 621l-78 80l78 80l78 -80z" />
    <glyph glyph-name="f_igrave.alt" horiz-adv-x="669" 
d="M107 0v450h-80v96h80v41c0 137 72 181 175 181c40 0 69 -4 97 -13l-21 -104c-19 8 -39 12 -65 12c-34 0 -53 -22 -53 -70v-47h113v-96h-113v-450h-133zM555 597l-151 164l80 69l141 -175zM462 0v546h134v-546h-134z" />
    <glyph glyph-name="brokenbar" unicode="&#xa6;" horiz-adv-x="306" 
d="M93 -220v361h120v-361h-120zM93 392v362h120v-362h-120z" />
    <glyph glyph-name="minus" unicode="&#x2212;" 
d="M41 253v103h519v-103h-519z" />
    <glyph glyph-name="plus" unicode="+" horiz-adv-x="576" 
d="M233 48l1 206l-205 -1v103l205 -3l-1 209h104l-4 -211l214 5v-103l-212 1l2 -206h-104z" />
    <glyph glyph-name="multiply" unicode="&#xd7;" horiz-adv-x="556" 
d="M442 68l-166 167l-160 -163l-74 74l163 161l-162 160l71 74l161 -164l163 165l74 -74l-169 -163l170 -163z" />
    <glyph glyph-name="less" unicode="&#x3c;" horiz-adv-x="500" 
d="M448 54l-416 190v119l416 197v-114l-310 -143l310 -135v-114z" />
    <glyph glyph-name="equal" unicode="=" horiz-adv-x="636" 
d="M84 133l-1 103h469l1 -103h-469zM84 369l-1 103h469l1 -103h-469z" />
    <glyph glyph-name="greater" unicode="&#x3e;" horiz-adv-x="500" 
d="M52 54v114l310 135l-310 143v114l416 -197v-119z" />
    <glyph glyph-name="infinity" unicode="&#x221e;" horiz-adv-x="975" 
d="M246 123c-121 0 -177 69 -177 174c0 108 70 179 181 179c80 0 143 -55 238 -121c98 65 161 121 239 121c118 0 180 -71 180 -173c0 -106 -68 -180 -185 -180c-81 0 -144 60 -239 122c-94 -64 -158 -122 -237 -122zM251 222c46 0 96 40 152 77c-56 38 -109 79 -155 79
c-49 0 -77 -38 -77 -77c0 -44 28 -79 80 -79zM726 222c50 0 78 38 78 78c0 45 -31 78 -81 78c-43 0 -98 -40 -154 -77c59 -37 110 -79 157 -79z" />
    <glyph glyph-name="plusminus" unicode="&#xb1;" horiz-adv-x="537" 
d="M216 123l1 169l-170 -1v104l170 -3l-1 170h105l-4 -172l173 5v-104l-171 1l2 -169h-105zM47 0v104h443v-104h-443z" />
    <glyph glyph-name="lessequal" unicode="&#x2264;" 
d="M521 127l-443 161v131l443 161v-115l-312 -112l312 -111v-115zM76 0v109h447v-109h-447z" />
    <glyph glyph-name="notequal" unicode="&#x2260;" 
d="M43 11l93 122h-73l-1 103h150l99 133h-248l-1 103h325l85 110h89l-84 -110h61v-103h-137l-100 -133h237v-103h-312l-93 -122h-90z" />
    <glyph glyph-name="greaterequal" unicode="&#x2265;" 
d="M78 127v115l312 111l-312 112v115l443 -161v-131zM76 0v109h447v-109h-447z" />
    <glyph glyph-name="divide" unicode="&#xf7;" horiz-adv-x="622" 
d="M250 54v110h115v-110h-115zM52 253v103h518v-103h-518zM250 444v109h115v-109h-115z" />
    <glyph glyph-name="logicalnot" unicode="&#xac;" horiz-adv-x="616" 
d="M436 96v157h-381v104h493v-261h-112z" />
    <glyph glyph-name="approxequal" unicode="&#x2248;" 
d="M393 106c-93 0 -135 61 -196 61c-31 0 -56 -12 -80 -32l-62 69c38 43 90 82 148 82c94 0 123 -62 191 -62c23 0 46 -1 88 33l63 -62c-32 -47 -98 -89 -152 -89zM393 336c-93 0 -135 61 -196 61c-31 0 -56 -11 -80 -32l-62 70c38 43 90 81 148 81c94 0 123 -61 191 -61
c23 0 46 -2 88 33l63 -63c-32 -47 -98 -89 -152 -89z" />
    <glyph glyph-name="mho" unicode="&#x2127;" horiz-adv-x="857" 
d="M800 707v-115h-148c72 -41 140 -120 140 -261c0 -205 -141 -342 -373 -342c-245 0 -359 155 -359 337c0 142 69 223 142 266h-149v115h297v-109c-89 -69 -150 -143 -150 -262c0 -129 73 -236 228 -236c149 0 225 100 225 237c0 131 -70 196 -149 261v109h296z" />
    <glyph glyph-name="nabla" unicode="&#x2207;" horiz-adv-x="733" 
d="M545 593h-360l127 -362l43 -143l50 145zM731 707l-292 -707h-178l-260 707h730z" />
    <glyph glyph-name="coproduct" unicode="&#x2210;" horiz-adv-x="779" 
d="M665 707v-819h100v-108h-751v108h101v819h137v-819h276v819h137z" />
    <glyph glyph-name="radical" unicode="&#x221a;" horiz-adv-x="714" 
d="M263 0l-122 436h-141v110h253l83 -331l23 -106l30 106l196 622h136l-277 -837h-181z" />
    <glyph glyph-name="partialdiff" unicode="&#x2202;" horiz-adv-x="611" 
d="M299 -13c-128 0 -251 37 -251 230c0 113 87 237 244 237c47 0 81 -6 110 -10c-34 91 -116 144 -228 170l41 111c135 -32 348 -115 348 -398c0 -236 -94 -340 -264 -340zM292 98c125 0 133 123 133 225v18c-36 6 -68 11 -113 11c-80 0 -130 -52 -130 -139
c0 -69 38 -115 110 -115z" />
    <glyph glyph-name="summation" unicode="&#x2211;" horiz-adv-x="547" 
d="M31 -220v88l179 375l-180 376v88h489v-108h-359l176 -356l-172 -354h356v-109h-489z" />
    <glyph glyph-name="product" unicode="&#x220f;" horiz-adv-x="779" 
d="M114 -220v819h-100v108h751v-108h-101v-819h-137v819h-276v-819h-137z" />
    <glyph glyph-name="lozenge" unicode="&#x25ca;" horiz-adv-x="613" 
d="M217 0l-195 355l205 352h167l194 -354l-204 -353h-167zM302 105l135 247l-128 251l-135 -247z" />
    <glyph glyph-name="integral" unicode="&#x222b;" horiz-adv-x="416" 
d="M-56 -231l-9 111c115 12 173 2 173 105v518c0 191 152 216 304 216l9 -114c-121 -10 -178 -1 -178 -102v-518c0 -191 -146 -216 -299 -216z" />
    <glyph glyph-name="uni0400" unicode="&#x400;" 
d="M405 745l-256 55l25 107l252 -72zM92 0v707h438v-108h-302v-193h280v-102h-280v-196h325v-108h-461z" />
    <glyph glyph-name="uni0401" unicode="&#x401;" 
d="M198 741l-83 84l83 84l84 -84zM424 741l-84 84l84 84l83 -84zM92 0v707h438v-108h-302v-193h280v-102h-280v-196h325v-108h-461z" />
    <glyph glyph-name="uni0402" unicode="&#x402;" horiz-adv-x="789" 
d="M509 -220l-69 90c23 19 178 133 178 336c0 86 -45 136 -125 136c-47 0 -101 -13 -146 -36v-306h-137v598h-199v109h590v-109h-254v-186c56 21 114 36 176 36c163 0 234 -96 234 -234c0 -178 -96 -319 -248 -434z" />
    <glyph glyph-name="uni0403" unicode="&#x403;" horiz-adv-x="564" 
d="M234 745l-21 90l251 73l25 -106zM92 0v707h464v-108h-328v-599h-136z" />
    <glyph glyph-name="uni0404" unicode="&#x404;" horiz-adv-x="678" 
d="M429 -10c-249 0 -382 135 -382 359c0 237 131 367 378 367c114 0 175 -22 214 -39l-36 -102c-53 15 -90 27 -176 27c-121 1 -219 -59 -237 -195h344v-102h-342c20 -136 122 -200 255 -200c68 0 117 8 165 22l30 -105c-53 -19 -112 -32 -213 -32z" />
    <glyph glyph-name="uni0405" unicode="&#x405;" horiz-adv-x="569" 
d="M256 -12c-105 0 -173 27 -221 54l40 104c58 -25 107 -44 181 -44c82 0 140 32 140 93c0 139 -341 93 -341 330c0 127 118 193 238 193c100 0 155 -21 203 -49l-40 -101c-49 22 -93 36 -159 36c-62 0 -108 -29 -108 -80c0 -119 345 -103 345 -323
c0 -147 -135 -213 -278 -213z" />
    <glyph glyph-name="uni0406" unicode="&#x406;" horiz-adv-x="320" 
d="M92 0v707h136v-707h-136z" />
    <glyph glyph-name="uni0407" unicode="&#x407;" horiz-adv-x="320" 
d="M92 0v707h136v-707h-136zM48 741l-83 84l83 84l84 -84zM274 741l-84 84l84 84l83 -84z" />
    <glyph glyph-name="uni0408" unicode="&#x408;" horiz-adv-x="322" 
d="M1 -194l-52 99c120 66 145 124 145 246v556h138v-554c0 -146 -23 -272 -231 -347z" />
    <glyph glyph-name="uni0409" unicode="&#x409;" horiz-adv-x="1032" 
d="M56 -22l-57 119c51 22 115 56 139 105c32 64 51 242 62 505h430v-599h84c107 0 151 50 151 125c0 82 -53 126 -161 126h-56v107h52c199 0 306 -85 306 -234c0 -141 -102 -232 -290 -232h-224v606h-177c-17 -265 -32 -401 -78 -486c-38 -70 -108 -111 -181 -142z" />
    <glyph glyph-name="uni040A" unicode="&#x40a;" horiz-adv-x="1065" 
d="M92 0v707h136v-279h304v279h137v-599h80c105 0 152 42 152 107c0 72 -53 107 -158 107h-55v106h51c197 0 304 -77 304 -215c0 -130 -109 -213 -295 -213h-216v322h-304v-322h-136z" />
    <glyph glyph-name="uni040B" unicode="&#x40b;" horiz-adv-x="799" 
d="M210 0v598h-199v109h590v-109h-254v-186c56 22 114 37 174 37c165 0 236 -70 236 -197v-252h-137v230c0 97 -64 112 -132 112c-43 0 -92 -14 -141 -40v-302h-137z" />
    <glyph glyph-name="uni040C" unicode="&#x40c;" horiz-adv-x="687" 
d="M92 0v707h136v-323l267 323h174l-289 -329l306 -378h-175l-283 374v-374h-136zM268 749l-21 90l251 73l25 -106z" />
    <glyph glyph-name="uni040D" unicode="&#x40d;" horiz-adv-x="796" 
d="M487 745l-256 55l25 107l252 -72zM92 0v707h136v-420l-3 -99l64 103l279 416h136v-707h-136v420l3 99l-56 -89l-287 -430h-136z" />
    </font>
</defs>
</svg>
