<svg xmlns="http://www.w3.org/2000/svg" viewBox="0 0 406.766 515.6352"><defs><style>.a{fill:#fff;}</style></defs><title>clocs</title><path class="a" d="M203.383,515.6352C91.23659,515.6352,0,424.3987,0,312.2523,0,200.1074,91.23659,108.8709,203.383,108.8709s203.383,91.2365,203.383,203.3814C406.766,424.3987,315.52938,515.6352,203.383,515.6352Zm0-359.3377c-85.99422,0-155.95621,69.9606-155.95621,155.9548s69.962,155.9561,155.95621,155.9561,155.95628-69.962,155.95628-155.9561S289.37718,156.2975,203.383,156.2975Z"/><circle class="a" cx="203.38299" cy="312.2527" r="28.4993"/><path class="a" d="M354.55178,118.75526H367.788a21.26159,21.26159,0,0,1,21.26159,21.26159V189.5793a6,6,0,0,1-6,6H339.29006a5.99995,5.99995,0,0,1-5.99995-5.99995V140.01694a21.26167,21.26167,0,0,1,21.26167-21.26167Z" transform="translate(216.91945 -209.3529) rotate(45.00019)"/><path class="a" d="M23.71627,118.75521H67.4758a6,6,0,0,1,6,6V174.3176a21.26172,21.26172,0,0,1-21.26172,21.26172H38.97793a21.2616,21.2616,0,0,1-21.2616-21.2616V124.75515a5.99994,5.99994,0,0,1,5.99994-5.99994Z" transform="translate(188.9714 236.06001) rotate(135)"/><rect class="a" x="179.84018" y="73.1408" width="47.0856" height="44.5394"/><path class="a" d="M161.564,0h83.638a12.70132,12.70132,0,0,1,12.70132,12.70132V41.819A12.7013,12.7013,0,0,1,245.202,54.5203h-83.6379a12.7014,12.7014,0,0,1-12.7014-12.7014V12.7013A12.7013,12.7013,0,0,1,161.564,0Z"/><path class="a" d="M191.55458,324.0811l23.6567-23.6567,83.1781,95.0192a8.37324,8.37324,0,0,1-.3795,11.4359h0a8.37327,8.37327,0,0,1-11.436.3796Z"/></svg>